<?xml version="1.0" standalone="no"?>
<!DOCTYPE svg PUBLIC "-//W3C//DTD SVG 1.1//EN" "http://www.w3.org/Graphics/SVG/1.1/DTD/svg11.dtd" >
<svg xmlns="http://www.w3.org/2000/svg" xmlns:xlink="http://www.w3.org/1999/xlink" version="1.1">
<metadata>
Created by FontForge 20170910 at Tue Jul 17 06:24:40 2012
 By Jimmy Wärting
(c) 2010-2011 by Sergiy S. Tkachenko / 4th february (info@4thfebruary.com.ua).
All rights reserved. This font software is the property of Sergiy S. Tkachenko (Kremenchuk, Ukraine). You may not reproduce, modify, adapt, translate, alter nor create derivative works of the font software. You may not reverse engineer, decompile, decrypt, disassemble, nor seek to discover the source code of the font software.
</metadata>
<defs>
<font id="Akzentica4FMedium" horiz-adv-x="400" >
  <font-face 
    font-family="Akzentica 4F Medium"
    font-weight="500"
    font-stretch="normal"
    units-per-em="1000"
    panose-1="0 0 0 0 0 0 0 0 0 0"
    ascent="800"
    descent="-200"
    x-height="460"
    cap-height="660"
    bbox="-128 -270 1352 1083"
    underline-thickness="50"
    underline-position="-100"
    unicode-range="U+0020-FB04"
  />
<missing-glyph horiz-adv-x="349" 
 />
    <glyph glyph-name="f_f_j" unicode="ffj" horiz-adv-x="800" 
d="M76 0v381h-61v79h61v60q0 51 14.5 86t44 56t74.5 30t106 8v-79q-42 1 -69 -4t-42.5 -17t-22 -31.5t-6.5 -48.5v-60h197v60q0 51 14.5 85.5t44 55.5t74.5 30t106 9h46v-79h-46q-42 0 -69 -5t-42.5 -16.5t-22 -31t-6.5 -48.5v-60h275v-552q0 -29 -7 -55.5t-23.5 -47
t-45.5 -32.5t-72 -12v82q21 0 35 13t14 46v479h-176v-381h-99v381h-197v-381h-99z" />
    <glyph glyph-name="uni0407_uni0407" unicode="&#x407;&#x407;" horiz-adv-x="522" 
d="M81 0v660h99v-660h-99zM-6 738v100h87v-100h-87zM342 0v660h99v-660h-99zM217 738v100h87v-100h-87zM441 738v100h87v-100h-87z" />
    <glyph glyph-name="uni0457_uni0457" unicode="&#x457;&#x457;" horiz-adv-x="416" 
d="M55 0v460h99v-460h-99zM-32 538v100h87v-100h-87zM264 0v460h99v-460h-99zM165 538v100h87v-100h-87zM362 538v100h87v-100h-87z" />
    <glyph glyph-name="f_igrave" unicode="f&#xec;" horiz-adv-x="504" 
d="M76 0v381h-61v79h61v60q0 51 10.5 85.5t32.5 55.5t55.5 30t78.5 9v-79q-46 0 -62 -21.5t-16 -79.5v-60h275v-460h-99v381h-176v-381h-99zM376 528l-91 136h105l70 -136h-84z" />
    <glyph glyph-name="f_iacute" unicode="f&#xed;" horiz-adv-x="504" 
d="M76 0v381h-61v79h61v60q0 51 14.5 86t44 56t74.5 30t106 8v-79q-42 1 -69 -4t-42.5 -17t-22 -31.5t-6.5 -48.5v-60h275v-460h-99v381h-176v-381h-99zM339 528l70 136h130l-116 -136h-84z" />
    <glyph glyph-name="f_icircumflex" unicode="f&#xee;" horiz-adv-x="504" 
d="M76 0v381h-61v79h61v60q0 51 12.5 85.5t38.5 55.5t64.5 30t91.5 9v-79q-32 0 -53 -5t-33 -16.5t-17 -31t-5 -48.5v-60h275v-460h-99v381h-176v-381h-99zM433 669l122 -137h-87l-36 36q-8 8 -13 15t-8 12q-4 6 -5 11h-3q-1 -5 -5 -11q-7 -12 -22 -27l-35 -36h-88l123 137
h57z" />
    <glyph glyph-name="apostrophe_uni0457" unicode="&#x27;&#x457;" horiz-adv-x="316" 
d="M262 538v100h87v-100h-87zM164 0v460h99v-460h-99zM13 500q25 0 37 17.5t12 60.5h-52v122h117v-122q0 -27 -4 -51t-16.5 -43t-35 -30t-58.5 -11v57z" />
    <glyph glyph-name="apostrophe_uni0407" unicode="&#x27;&#x407;" horiz-adv-x="343" 
d="M164 0v660h99v-660h-99zM263 738v100h87v-100h-87zM13 638q25 0 37 17.5t12 60.5h-52v122h117v-122q0 -27 -4 -51t-16.5 -43t-35 -30t-58.5 -11v57z" />
    <glyph glyph-name="f_k" unicode="fk" horiz-adv-x="774" 
d="M175 381v-381h-99v381h-61v79h61v60q0 51 14.5 85.5t44 55.5t74.5 30t106 9h140v-429h71l122 189h107l-146 -226l151 -234h-107q-31 47 -61.5 94t-60.5 95h-76v-189h-99v621h-41q-42 0 -69 -5t-42.5 -17t-22 -31.5t-6.5 -47.5v-60h121v-79h-121z" />
    <glyph glyph-name="f_j" unicode="fj" horiz-adv-x="504" 
d="M315 621q-42 0 -69 -5t-42.5 -17t-22 -31.5t-6.5 -47.5v-60h275v-552q0 -29 -8 -55.5t-25.5 -46.5t-45.5 -32.5t-69 -12.5v82q21 0 35 13t14 46v479h-176v-381h-99v381h-61v79h61v60q0 51 15.5 85.5t45.5 55.5t74.5 30t103.5 9h45v-79h-45z" />
    <glyph glyph-name="f_b" unicode="fb" horiz-adv-x="822" 
d="M587 -10q-54 0 -87 18.5t-49 68.5l-8 -21l-10 -56h-77v621h-41q-42 0 -69 -5t-42.5 -17t-22 -31.5t-6.5 -47.5v-60h121v-79h-121v-381h-99v381h-61v79h61v60q0 51 14.5 85.5t44 55.5t74.5 30t106 9h140v-230q0 -21 -2 -42.5t-3 -41.5q19 46 51 65t86 19q50 0 87 -13
t61.5 -41.5t36.5 -74t12 -111.5t-12 -112t-36.5 -74.5t-61.5 -41t-87 -12.5zM572 69q31 0 53 7.5t35 26t19 49.5t6 78t-6 78t-19 49.5t-35 26t-53 7.5q-61 0 -88.5 -33.5t-28.5 -115.5v-12q0 -90 27.5 -125.5t89.5 -35.5z" />
    <glyph glyph-name="f_f_b" unicode="ffb" horiz-adv-x="1115" 
d="M76 0v381h-61v79h61v60q0 99 55 139.5t170 40.5h14v-79q-42 0 -69 -5t-42.5 -17t-22 -31.5t-6.5 -47.5v-60h197v60q0 54 16 89t48 55.5t80.5 28t113.5 7.5h118v-230q0 -21 -2 -42.5t-3 -41.5q19 46 51 65t86 19q50 0 87 -13t61.5 -41.5t36.5 -74t12 -111.5t-12 -112
t-36.5 -74.5t-61.5 -41t-87 -12.5q-54 0 -87 18.5t-50 68.5q-2 -5 -3.5 -10.5t-3.5 -10.5l-10 -56h-77v621h-38q-42 0 -69 -5t-42.5 -17t-22 -31.5t-6.5 -47.5v-60h121v-79h-121v-381h-99v381h-197v-381h-99zM865 69q31 0 53 7.5t35 26t19 49.5t6 78t-6 78t-19 49.5t-35 26
t-53 7.5q-62 0 -89.5 -35t-27.5 -122v-4q0 -90 27 -125.5t90 -35.5z" />
    <glyph glyph-name="f_f_k" unicode="ffk" horiz-adv-x="1072" 
d="M76 0v381h-61v79h61v60q0 51 14.5 86t44 56t74.5 30t106 8v-79q-42 0 -69 -5t-42.5 -16.5t-22 -31t-6.5 -48.5v-60h197v60q0 51 14.5 85.5t44 55.5t74.5 30t106 9h137v-429h70l123 189h107l-146 -226l151 -234h-107l-123 189h-75v-189h-99v621h-38q-42 0 -69 -5
t-42.5 -16.5t-22 -31t-6.5 -48.5v-60h121v-79h-121v-381h-99v381h-197v-381h-99z" />
    <glyph glyph-name="f_h" unicode="fh" horiz-adv-x="827" 
d="M175 381v-381h-99v381h-61v79h61v60q0 51 14.5 85.5t44 55.5t74.5 30t106 9h140v-230q0 -21 -2 -42.5t-3 -41.5q19 47 52 65.5t88 18.5q87 0 130.5 -45.5t43.5 -154.5v-270h-99v270q0 70 -21.5 95.5t-71.5 25.5q-62 0 -89.5 -35t-27.5 -122v-234h-99v621h-41
q-42 0 -69 -5t-42.5 -17t-22 -31.5t-6.5 -47.5v-60h121v-79h-121z" />
    <glyph glyph-name="ff" unicode="ff" horiz-adv-x="592" 
d="M76 0v381h-61v79h61v60q0 51 14.5 86t44 56t74.5 30t106 8v-79q-42 1 -69 -4t-42.5 -17t-22 -31.5t-6.5 -48.5v-60h197v60q0 51 14.5 86t44 56t74.5 30t106 8v-79q-42 1 -69 -4t-42.5 -17t-22 -31.5t-6.5 -48.5v-60h121v-79h-121v-381h-99v381h-197v-381h-99z" />
    <glyph glyph-name="fi" unicode="fi" horiz-adv-x="504" 
d="M315 621q-42 0 -69 -5t-42.5 -16.5t-22 -31t-6.5 -48.5v-60h275v-460h-99v381h-176v-381h-99v381h-61v79h61v60q0 51 14.5 85.5t44 55.5t74.5 30t106 9h46v-79h-46z" />
    <glyph glyph-name="fl" unicode="fl" horiz-adv-x="530" 
d="M175 381v-381h-99v381h-61v79h61v60q0 51 14.5 85.5t44 55.5t74.5 30t106 9h140v-553q0 -37 14 -51t35 -14v-82q-47 0 -76 14.5t-45 38.5t-21.5 55t-5.5 63v450h-41q-42 0 -69 -5t-42.5 -17t-22 -31.5t-6.5 -47.5v-60h121v-79h-121z" />
    <glyph glyph-name="ffi" unicode="ffi" horiz-adv-x="800" 
d="M76 0v381h-61v79h61v60q0 51 14.5 86t44 56t74.5 30t106 8v-79q-42 1 -69 -4t-42.5 -17t-22 -31.5t-6.5 -48.5v-60h197v60q0 51 14.5 85.5t44 55.5t74.5 30t106 9h46v-79h-46q-42 0 -69 -5t-42.5 -16.5t-22 -31t-6.5 -48.5v-60h275v-460h-99v381h-176v-381h-99v381h-197
v-381h-99z" />
    <glyph glyph-name="ffl" unicode="ffl" horiz-adv-x="822" 
d="M76 0v381h-61v79h61v60q0 51 14.5 86t44 56t74.5 30t106 8v-79q-42 1 -69 -4t-42.5 -17t-22 -31.5t-6.5 -48.5v-60h197v60q0 51 14.5 85.5t44 55.5t74.5 30t106 9h137v-553q0 -36 14 -50.5t35 -14.5v-82q-44 0 -72.5 12t-45 32.5t-23.5 47t-7 55.5v474h-38q-42 0 -69 -5
t-42.5 -16.5t-22 -31t-6.5 -48.5v-60h121v-79h-121v-381h-99v381h-197v-381h-99z" />
    <glyph glyph-name=".notdef" horiz-adv-x="349" 
 />
    <glyph glyph-name="space" unicode=" " horiz-adv-x="280" 
 />
    <glyph glyph-name="exclam" unicode="!" horiz-adv-x="219" 
d="M152 200h-83l-16 460h115zM160 0h-99v100h99v-100z" />
    <glyph glyph-name="quotedbl" unicode="&#x22;" horiz-adv-x="317" 
d="M133 500h-53l-16 160h85zM253 500h-53l-16 160h85z" />
    <glyph glyph-name="numbersign" unicode="#" horiz-adv-x="573" 
d="M107 0l28 195h-98l10 69h97l19 131h-98l10 69h98l27 196h69l-27 -196h131l27 196h69l-27 -196h93l-10 -69h-93l-19 -131h94l-10 -69h-93l-28 -195h-69l28 195h-131l-28 -195h-69zM213 264h131l19 131h-131z" />
    <glyph glyph-name="dollar" unicode="$" horiz-adv-x="542" 
d="M238 -40v81q-98 6 -147 50t-49 133h98q0 -48 26 -70t72 -27v165q-35 6 -68 16.5t-58.5 29t-41.5 47.5t-16 72q-1 75 46 115t138 46v82h67v-82q42 -3 76 -14t58 -33t37 -55t13 -80h-98q0 47 -22.5 69t-63.5 27v-164q41 -7 77 -18.5t62.5 -30t42 -47t15.5 -70.5
q0 -78 -52.5 -116.5t-144.5 -44.5v-81h-67zM403 203q0 21 -8 34.5t-21.5 22.5t-31.5 14t-37 8v-156q42 4 70 21t28 56zM153 456q0 -20 7 -33.5t18.5 -22.5t27 -14t32.5 -8v155q-37 -4 -61 -21t-24 -56z" />
    <glyph glyph-name="percent" unicode="%" horiz-adv-x="703" 
d="M217 0h-85l357 660h85zM161 325q-34 0 -58.5 8.5t-40.5 28t-23.5 52.5t-7.5 81t7.5 80.5t23.5 52.5t40.5 28.5t58.5 8.5q33 0 57.5 -8.5t40.5 -28.5t23.5 -52.5t7.5 -80.5t-7.5 -81t-23.5 -52.5t-40.5 -28t-57.5 -8.5zM161 383q28 0 41 24t13 88q0 63 -13 87.5t-41 24.5
q-29 0 -42 -24.5t-13 -87.5q0 -64 13 -88t42 -24zM543 -10q-34 0 -58.5 8.5t-40.5 28t-23.5 52.5t-7.5 81t7.5 80.5t23.5 52.5t40.5 28.5t58.5 8.5q33 0 57.5 -8.5t40.5 -28.5t23.5 -52.5t7.5 -80.5t-7.5 -81t-23.5 -52.5t-40.5 -28t-57.5 -8.5zM543 48q28 0 41 24t13 88
q0 63 -13 87.5t-41 24.5q-29 0 -42 -24.5t-13 -87.5q0 -64 13 -88t42 -24z" />
    <glyph glyph-name="ampersand" unicode="&#x26;" horiz-adv-x="586" 
d="M496 282q0 -101 -28 -166l108 -116h-118q-11 11 -21.5 22.5t-21.5 23.5q-32 -30 -77.5 -43t-104.5 -13q-112 0 -163 46.5t-51 130.5q0 35 8 63t22 50.5t33.5 41t42.5 36.5l-18 21q-24 28 -40.5 58.5t-17.5 79.5q0 72 46 112.5t150 40.5q94 0 141.5 -41t47.5 -143h-98
q0 60 -23 79.5t-68 19.5q-48 0 -70.5 -17.5t-22.5 -63.5q0 -37 17.5 -60.5t41.5 -49.5l14 -15q42 -45 82.5 -90t82.5 -90q4 18 6 38.5t2 44.5h98zM234 75q40 0 68.5 9t48.5 30l-168 181q-33 -25 -49 -56.5t-16 -65.5q0 -56 30.5 -77t85.5 -21z" />
    <glyph glyph-name="quotesingle" unicode="'" horiz-adv-x="197" 
d="M133 488h-53l-16 160h85z" />
    <glyph glyph-name="parenleft" unicode="(" horiz-adv-x="301" 
d="M289 -240q-59 0 -101 23t-70 77t-41 144.5t-13 225.5t13 225.5t41 144.5t70 77t101 23v-85q-33 0 -56.5 -19t-39 -63.5t-23 -118.5t-7.5 -184t7.5 -184t23 -118.5t39 -63.5t56.5 -19v-85z" />
    <glyph glyph-name="parenright" unicode=")" horiz-adv-x="301" 
d="M12 -155q33 0 56.5 19t39 63.5t23 118.5t7.5 184t-7.5 184t-23 118.5t-39 63.5t-56.5 19v85q58 0 100.5 -23t70.5 -77t41 -144.5t13 -225.5t-13 -225.5t-41 -144.5t-70.5 -77t-100.5 -23v85z" />
    <glyph glyph-name="asterisk" unicode="*" horiz-adv-x="434" 
d="M293 373l-77 103l-77 -103l-52 41l74 99l-117 39l22 62q29 -9 58 -18.5t58 -19.5v124h68v-124l117 38l22 -62l-119 -39q19 -25 37.5 -49t37.5 -50z" />
    <glyph glyph-name="plus" unicode="+" horiz-adv-x="589" 
d="M256 84v210h-209v76h209v209h76v-209h210v-76h-210v-210h-76z" />
    <glyph glyph-name="comma" unicode="," horiz-adv-x="245" 
d="M56 -78q31 0 46 17.5t15 60.5h-64v122h129v-122q0 -27 -4.5 -51t-18 -43t-38.5 -30t-65 -11v57z" />
    <glyph glyph-name="hyphen" unicode="-" horiz-adv-x="449" 
d="M67 190v84h315v-84h-315z" />
    <glyph glyph-name="period" unicode="." horiz-adv-x="266" 
d="M197 0h-129v122h129v-122z" />
    <glyph glyph-name="slash" unicode="/" horiz-adv-x="395" 
d="M94 -120h-82l267 820h82z" />
    <glyph glyph-name="zero" unicode="0" horiz-adv-x="595" 
d="M297 -10q-66 0 -113.5 17t-78.5 56.5t-46 105t-15 161.5t15 161.5t46 105t78.5 56.5t113.5 17t114 -17t78.5 -56.5t45.5 -105t15 -161.5t-15 -161.5t-45.5 -105t-78.5 -56.5t-114 -17zM297 75q40 0 69 12.5t48 42.5t28 79t9 121q0 71 -9 119.5t-28 78.5t-48 43.5
t-69 13.5t-69 -13.5t-48 -43.5t-28 -78.5t-9 -119.5q0 -72 9 -121t28 -79t48 -42.5t69 -12.5z" />
    <glyph glyph-name="one" unicode="1" horiz-adv-x="455" 
d="M57 0v85h120v472l-120 -23v86q56 10 110 20t109 20v-575h120v-85h-339z" />
    <glyph glyph-name="two" unicode="2" horiz-adv-x="524" 
d="M35 0v85l280 293q8 8 19.5 20.5t22.5 28t19 33t8 37.5q0 48 -31.5 68t-94.5 20q-65 0 -93.5 -21.5t-28.5 -77.5h-98q0 102 56 143t163 41q119 0 172.5 -43.5t53.5 -120.5q0 -33 -8.5 -58t-20.5 -44t-24.5 -32t-19.5 -22l-251 -265h327v-85h-451z" />
    <glyph glyph-name="three" unicode="3" horiz-adv-x="525" 
d="M279 393q100 -13 148.5 -58t48.5 -135q0 -45 -12.5 -83.5t-41 -66.5t-74 -44t-111.5 -16q-47 0 -88.5 10t-73.5 32t-50.5 57t-18.5 85h99q0 -27 10.5 -46t28 -31t41 -17t50.5 -5q41 0 68.5 10t44 27t23 39.5t6.5 48.5q0 52 -31.5 83t-105.5 31h-65v82q38 45 75 89.5
t75 89.5h-299v85h426v-85l-103 -114q-17 -18 -34.5 -34.5t-35.5 -33.5z" />
    <glyph glyph-name="four" unicode="4" horiz-adv-x="551" 
d="M362 0v158h-345v85l209 417h107l-209 -417h238v201l99 16v-217h61v-85h-61v-158h-99z" />
    <glyph glyph-name="five" unicode="5" horiz-adv-x="525" 
d="M132 575l-11 -194q24 23 61 33.5t80 10.5q109 0 165 -56t56 -164q0 -47 -12.5 -86.5t-40.5 -68t-73 -44.5t-109 -16q-49 0 -91.5 10t-74.5 32t-50.5 57t-18.5 85h99q0 -28 10 -47t28 -30.5t42 -16.5t51 -5q42 0 69.5 10t43 27.5t22 41.5t6.5 51q0 30 -6.5 55t-22 42.5
t-41.5 27.5t-66 10q-23 0 -46 -3.5t-41 -12t-29.5 -22t-11.5 -32.5h-99l19 390h416v-85h-324z" />
    <glyph glyph-name="six" unicode="6" horiz-adv-x="568" 
d="M419 486q0 27 -10.5 45.5t-27.5 30.5t-39.5 17.5t-47.5 5.5q-62 0 -96 -37t-42 -129q-8 -24 -10 -69q21 36 59.5 51t94.5 15q112 0 169.5 -55.5t57.5 -155.5q0 -48 -13.5 -87.5t-42 -68t-73.5 -44t-107 -15.5q-63 0 -109 18t-76 58t-44.5 105t-14.5 159t14.5 159
t44.5 105.5t75.5 58t107.5 17.5q46 0 88 -10t73 -32t49.5 -57t18.5 -85h-99zM293 331q-63 0 -100 -28t-37 -82q0 -40 11.5 -68t30.5 -45t44 -25t51 -8q36 0 61.5 10t42 28t24 42t7.5 52q0 56 -32.5 90t-102.5 34z" />
    <glyph glyph-name="seven" unicode="7" horiz-adv-x="523" 
d="M88 0l288 575h-349v85h456v-85l-288 -575h-107z" />
    <glyph glyph-name="eight" unicode="8" horiz-adv-x="573" 
d="M513 485q0 -71 -30 -109t-79 -57q28 -8 51 -20t39.5 -29.5t25 -42t8.5 -57.5q0 -89 -64 -134.5t-182 -45.5q-65 0 -110 13.5t-73.5 38t-41 59.5t-12.5 78q0 36 9 63t24.5 47t37 33.5t46.5 23.5q-46 17 -72 48t-30 88q-3 40 9 74.5t40 60t73 39.5t108 14q115 0 169 -47
t54 -138zM429 178q0 30 -11.5 49t-31.5 31t-47 18.5t-59 11.5q-2 -1 -7 -1q-24 -4 -47 -8.5t-41 -16t-29.5 -31t-11.5 -53.5q0 -54 33.5 -78.5t108.5 -24.5q31 0 57 5t45 16.5t30 31.5t11 50zM159 483q0 -30 8.5 -49t24 -31t38 -18.5t50.5 -10.5q25 4 49.5 9.5t43 17t30 31
t11.5 51.5q0 29 -10 48.5t-27 31.5t-41 17t-52 5q-63 0 -94 -23.5t-31 -78.5z" />
    <glyph glyph-name="nine" unicode="9" horiz-adv-x="553" 
d="M134 174q0 -27 10 -46t27.5 -30.5t40 -17t47.5 -5.5q61 0 95 36.5t42 128.5q8 24 10 69q-21 -36 -59.5 -50.5t-94.5 -14.5q-111 0 -168.5 55t-57.5 155q0 48 13.5 87.5t42 68t73 44.5t107.5 16t109 -18t76 -58t44.5 -105.5t14.5 -159.5q0 -95 -14.5 -159.5t-44.5 -104.5
t-75.5 -57.5t-107.5 -17.5q-47 0 -88.5 10t-73 32t-49.5 57t-18 85h99zM260 329q63 0 100 27.5t37 81.5q0 40 -12 68t-31.5 45.5t-44.5 25.5t-50 8q-36 0 -61.5 -10t-41.5 -28t-23.5 -42.5t-7.5 -52.5q0 -56 32 -89.5t103 -33.5z" />
    <glyph glyph-name="colon" unicode=":" horiz-adv-x="266" 
d="M197 0h-129v122h129v-122zM197 300h-129v122h129v-122z" />
    <glyph glyph-name="semicolon" unicode=";" horiz-adv-x="256" 
d="M190 300h-129v122h129v-122zM64 -78q31 0 46 17.5t15 60.5h-64v122h129v-122q0 -27 -4.5 -51t-18 -43t-38.5 -30t-65 -11v57z" />
    <glyph glyph-name="less" unicode="&#x3c;" horiz-adv-x="536" 
d="M482 73q-110 57 -218 114.5t-218 115.5v58l436 233v-90q-49 -26 -97 -52t-97 -52q-42 -20 -82.5 -36t-82.5 -31q42 -17 82.5 -34t82.5 -34l194 -101v-91z" />
    <glyph glyph-name="equal" unicode="=" horiz-adv-x="509" 
d="M47 365v76h415v-76h-415zM47 223v76h415v-76h-415z" />
    <glyph glyph-name="greater" unicode="&#x3e;" horiz-adv-x="536" 
d="M486 303l-436 -230v91l194 101l90 40q18 7 37 13.5t38 14.5q-98 35 -184 79t-175 92v90l436 -233v-58z" />
    <glyph glyph-name="question" unicode="?" horiz-adv-x="494" 
d="M162 192q0 55 12 88.5t32.5 53.5t47 30t56.5 17q12 4 24.5 9t22 14.5t16 27t6.5 47.5t-10.5 50.5t-29 33t-45 17.5t-58.5 5q-63 0 -99 -22.5t-36 -76.5h-98q0 50 16.5 85t47 57t73 32t93.5 10q130 0 187.5 -50t57.5 -140q0 -59 -18 -93.5t-44 -53t-55 -27t-51 -14.5
q-11 -4 -19.5 -9t-15.5 -15.5t-10.5 -28t-3.5 -47.5h-99zM261 0h-99v100h99v-100z" />
    <glyph glyph-name="at" unicode="@" horiz-adv-x="692" 
d="M604 0q0 -31 -22 -52t-57.5 -34t-80.5 -18.5t-91 -5.5q-81 0 -139.5 16.5t-96 55.5t-55 104t-17.5 162t17.5 162.5t54 105.5t93 57t133.5 17q84 0 141.5 -17t92.5 -55.5t50.5 -101.5t15.5 -156q0 -54 -6.5 -90.5t-20 -58.5t-34.5 -31.5t-51 -9.5q-27 0 -44 6t-27 17
t-14 25.5t-5 31.5q-11 -52 -37.5 -71t-74.5 -19q-71 0 -106.5 42.5t-35.5 147.5t35.5 147.5t106.5 42.5q37 0 61.5 -12t38.5 -43l15 45h53v-261q0 -14 8.5 -24.5t25.5 -10.5q25 0 34 28.5t9 89.5q0 78 -11 131.5t-37 85.5t-70.5 46t-110.5 14q-61 0 -104.5 -14t-71.5 -47
t-41.5 -87t-13.5 -134q0 -82 14 -135t44 -84.5t77 -44t113 -12.5q28 0 57.5 2.5t54 8t40 15t15.5 23.5h75zM341 104q45 0 64 26t20 93v14q-1 67 -20 93t-64 26t-63.5 -27.5t-18.5 -98.5t18.5 -98.5t63.5 -27.5z" />
    <glyph glyph-name="A" unicode="A" horiz-adv-x="647" 
d="M535 0l-53 134h-317l-53 -134h-102q67 166 134 330t135 330h91q67 -166 133 -330t134 -330h-102zM198 219h250l-65 163l-23 63q-20 54 -26.5 86.5t-7.5 32.5h-4l-2.5 -12t-8.5 -33.5t-15 -50.5t-23 -63z" />
    <glyph glyph-name="B" unicode="B" horiz-adv-x="611" 
d="M81 0v660h256q54 0 93.5 -9t65.5 -29.5t38.5 -54t12.5 -82.5q0 -70 -30.5 -106t-93.5 -47q74 -11 109 -47.5t35 -108.5q0 -50 -13.5 -83.5t-42 -54t-72 -29.5t-102.5 -9h-256zM331 85q39 0 65.5 5.5t42.5 17.5t22.5 30.5t6.5 44.5q0 57 -30.5 82t-106.5 25h-151v-205h151
zM331 374q63 0 90 23t27 85q0 49 -25 71t-92 22h-151v-201h151z" />
    <glyph glyph-name="C" unicode="C" horiz-adv-x="597" 
d="M575 174q0 -56 -21 -91.5t-56 -56t-81 -28.5t-97 -8q-71 0 -123 16t-86 55t-50.5 105t-16.5 165t16.5 164.5t50.5 104.5t86.5 54.5t124.5 15.5q52 0 98.5 -8t80.5 -28.5t54 -56t20 -91.5h-99q0 32 -13 51.5t-34 30t-48.5 14t-57.5 3.5q-48 0 -82.5 -10t-56 -38
t-31.5 -77.5t-10 -128.5t10 -128.5t31.5 -78t55 -39t81.5 -10.5q27 0 55 3t50 13.5t36 30t14 52.5h99z" />
    <glyph glyph-name="D" unicode="D" horiz-adv-x="651" 
d="M274 85q61 0 105.5 12.5t73 41t42 75.5t13.5 116t-13.5 116t-42 75.5t-73 41t-105.5 12.5h-94v-490h94zM81 0v660h193q87 0 150 -16.5t103.5 -55t60 -102t19.5 -156.5t-19.5 -156.5t-60 -102t-103.5 -55t-150 -16.5h-193z" />
    <glyph glyph-name="E" unicode="E" horiz-adv-x="562" 
d="M81 0v660h430v-85h-331v-201h291v-84h-291v-205h331v-85h-430z" />
    <glyph glyph-name="F" unicode="F" horiz-adv-x="543" 
d="M180 289v-289h-99v660h430v-85h-331v-201h291v-85h-291z" />
    <glyph glyph-name="G" unicode="G" horiz-adv-x="651" 
d="M506 0l-14 109q-28 -65 -79.5 -92t-122.5 -27q-74 0 -121.5 25.5t-75.5 71t-39 108t-11 137.5q0 97 16.5 162t51 104t87.5 55.5t125 16.5q52 0 98 -8t80 -28.5t53.5 -56.5t19.5 -91h-97q0 31 -12 50t-32.5 30t-48.5 15t-60 4q-51 0 -86 -11.5t-56.5 -40.5t-30.5 -79
t-9 -127q0 -66 7 -113.5t25 -78t49 -45.5t79 -15q78 0 127.5 41.5t60.5 133.5h-156v78h255v-328h-83z" />
    <glyph glyph-name="H" unicode="H" horiz-adv-x="683" 
d="M503 0v290h-323v-290h-99v660h99v-286h323v286h99v-660h-99z" />
    <glyph glyph-name="I" unicode="I" horiz-adv-x="261" 
d="M81 0v660h99v-660h-99z" />
    <glyph glyph-name="J" unicode="J" horiz-adv-x="479" 
d="M317 660h99v-486q0 -88 -49 -136t-158 -48q-104 0 -154.5 43.5t-50.5 140.5h95q0 -53 26.5 -77.5t84.5 -24.5q50 0 78.5 21t28.5 81v486z" />
    <glyph glyph-name="K" unicode="K" horiz-adv-x="604" 
d="M81 0v660h99v-286h114l185 286h107l-210 -326l215 -334h-107l-187 290h-117v-290h-99z" />
    <glyph glyph-name="L" unicode="L" horiz-adv-x="525" 
d="M81 0v660h99v-575h319v-85h-418z" />
    <glyph glyph-name="M" unicode="M" horiz-adv-x="848" 
d="M369 0q-44 115 -86.5 235.5t-86.5 228.5q-23 57 -19 57h-3l3 -27q1 -14 2 -34.5t1 -46.5v-413h-99v660h131l175 -468q19 -51 26.5 -80t8.5 -28h3q0 -1 7.5 28t27.5 80l175 468h131v-660h-99v413q0 54 3 81q1 16 3 27h-3q-2 -8 -7.5 -27t-16.5 -47l-35 -87
q-33 -91 -66 -180t-67 -180h-109z" />
    <glyph glyph-name="N" unicode="N" horiz-adv-x="683" 
d="M503 660h99v-660h-118l-229 392q-18 30 -32 56l-24.5 45.5t-17 31.5t-7.5 14h-3q2 -18 4 -37q2 -17 3.5 -37.5t1.5 -42.5v-422h-99v660h117q58 -99 115 -196.5t114 -196.5l46 -84q14 -26 25 -45t10 -19h3q-2 18 -4 37q-2 17 -3 37.5t-1 42.5v424z" />
    <glyph glyph-name="O" unicode="O" horiz-adv-x="674" 
d="M337 -10q-77 0 -132 17t-91 56.5t-53 105t-17 161.5t17 161.5t53 105t91 56.5t132 17q76 0 131.5 -17t91.5 -56.5t53 -105t17 -161.5t-17 -161.5t-53 -105t-91.5 -56.5t-131.5 -17zM337 75q51 0 87.5 13t60 42.5t35 78.5t11.5 121t-11.5 121t-35 78.5t-60 42.5t-87.5 13
t-87.5 -13t-60 -42.5t-35 -78.5t-11.5 -121t11.5 -121t35 -78.5t60 -42.5t87.5 -13z" />
    <glyph glyph-name="P" unicode="P" horiz-adv-x="597" 
d="M180 0h-99v660h256q59 0 102.5 -11t72 -36.5t42 -67t13.5 -101.5q0 -63 -13.5 -106t-42 -70t-72 -38.5t-102.5 -11.5h-157v-218zM331 303q37 0 63 7t42.5 23.5t24 43.5t7.5 67q0 73 -32 102t-105 29h-151v-272h151z" />
    <glyph glyph-name="Q" unicode="Q" horiz-adv-x="674" 
d="M428 -160l-96 150q-75 1 -129.5 18t-89.5 57t-52 104.5t-17 160.5t17 161.5t53 105t91 56.5t132 17q76 0 131.5 -17t91.5 -56.5t53 -105t17 -161.5q0 -80 -11.5 -138t-36 -97.5t-61.5 -62.5t-88 -33l103 -159h-108zM337 75q51 0 87.5 13t60 42.5t35 78.5t11.5 121
t-11.5 121t-35 78.5t-60 42.5t-87.5 13t-87.5 -13t-60 -42.5t-35 -78.5t-11.5 -121t11.5 -121t35 -78.5t60 -42.5t87.5 -13z" />
    <glyph glyph-name="R" unicode="R" horiz-adv-x="620" 
d="M475 0l-140 218h-155v-218h-99v660h256q59 0 102.5 -11t72 -36.5t42 -67t13.5 -101.5q0 -95 -31 -145.5t-96 -68.5q38 -58 74.5 -115.5t74.5 -114.5h-114zM331 303q37 0 63 7t42.5 23.5t24 43.5t7.5 67q0 73 -32 102t-105 29h-151v-272h151z" />
    <glyph glyph-name="S" unicode="S" horiz-adv-x="594" 
d="M440 486q0 55 -32.5 77t-113.5 22q-79 0 -115.5 -22t-36.5 -80q0 -35 12.5 -54.5t33 -30t47.5 -14.5t56 -8q52 -7 99.5 -17t83 -30.5t56.5 -56t21 -93.5q0 -100 -63 -144.5t-200 -44.5t-197 44.5t-60 139.5h98q0 -53 35.5 -76t125.5 -23q82 0 122 21.5t40 80.5
q0 34 -13.5 53.5t-36 30t-51.5 15t-60 8.5q-52 7 -97.5 18t-79 32.5t-52.5 56.5t-19 92q0 44 12.5 78.5t42 58.5t78 37t120.5 13q123 0 182.5 -42t59.5 -142h-98z" />
    <glyph glyph-name="T" unicode="T" horiz-adv-x="544" 
d="M223 0v575h-211v85h521v-85h-211v-575h-99z" />
    <glyph glyph-name="U" unicode="U" horiz-adv-x="654" 
d="M491 660h99v-330q0 -96 -15.5 -161.5t-48 -105t-82 -56.5t-117.5 -17q-69 0 -118.5 17t-81.5 56.5t-47.5 105t-15.5 161.5v330h99v-330q0 -72 9.5 -121t29.5 -78.5t51 -42.5t74 -13t74 13t51 42.5t29.5 78.5t9.5 121v330z" />
    <glyph glyph-name="V" unicode="V" horiz-adv-x="651" 
d="M275 254q14 -35 23 -64t15 -50q7 -25 11 -45h4q4 20 10 45q5 21 14.5 50.5t23.5 64.5l161 405h102l-267 -660h-91l-269 660h102z" />
    <glyph glyph-name="W" unicode="W" horiz-adv-x="849" 
d="M451 325q-8 32 -12.5 61t-7.5 51q-4 26 -5 47h-4q-1 -21 -5 -47q-6 -44 -20 -112l-83 -325h-116l-182 660h100l110 -410q8 -33 13 -62t8 -51q4 -26 6 -48h4q2 22 6 48q3 22 8 51t12 61l80 311h122l80 -311q8 -32 13 -61t8 -51q4 -26 6 -48h3q2 22 6 48q3 22 8 51.5
t13 61.5l110 410h100l-182 -660h-116z" />
    <glyph glyph-name="X" unicode="X" horiz-adv-x="579" 
d="M127 0h-116l215 334l-206 326h114l119 -193q15 -29 22.5 -47.5t12.5 -31.5h2q5 13 12.5 31.5t22.5 47.5q31 48 61 96.5t60 96.5h113l-208 -326l215 -334h-117l-125 196q-15 29 -22.5 47t-12.5 32h-2q-5 -14 -12.5 -32.5t-22.5 -47.5z" />
    <glyph glyph-name="Y" unicode="Y" horiz-adv-x="569" 
d="M10 660h109l107 -202q9 -17 17 -33.5t14 -30.5q16 -37 19.5 -55t4.5 -18h4q-1 -2 9.5 35.5t44.5 100.5l109 203h108q-57 -106 -112 -210t-112 -209v-241h-99v241z" />
    <glyph glyph-name="Z" unicode="Z" horiz-adv-x="530" 
d="M28 0v85l353 490h-353v85h476v-85l-353 -490h353v-85h-476z" />
    <glyph glyph-name="bracketleft" unicode="[" horiz-adv-x="333" 
d="M82 -240v940h218v-85h-119v-770h119v-85h-218z" />
    <glyph glyph-name="backslash" unicode="\" horiz-adv-x="396" 
d="M384 -120h-82l-267 820h82z" />
    <glyph glyph-name="bracketright" unicode="]" horiz-adv-x="333" 
d="M33 -240v85h119v770h-119v85h218v-940h-218z" />
    <glyph glyph-name="asciicircum" unicode="^" horiz-adv-x="446" 
d="M317 466l-59 97l-35 91l-35 -91l-59 -97h-95l151 234h77l151 -234h-96z" />
    <glyph glyph-name="underscore" unicode="_" horiz-adv-x="588" 
d="M52 -187v73h485v-73h-485z" />
    <glyph glyph-name="grave" unicode="`" horiz-adv-x="288" 
d="M159 528l-109 136h117l71 -136h-79z" />
    <glyph glyph-name="a" unicode="a" horiz-adv-x="495" 
d="M474 -3q-35 0 -58 6t-37.5 16t-21 24t-9.5 30q-17 -49 -51.5 -66t-91.5 -17q-33 0 -64 5.5t-55.5 20.5t-39 41.5t-14.5 69.5q0 48 17.5 74.5t45 39.5t60.5 16.5t63 6.5t60 5.5t60 5.5v43q0 40 -21 56.5t-74 16.5q-26 0 -38 -9q-32 -4 -42 -18t-10 -40h-98q0 78 45 112
t143 34q55 0 92.5 -10.5t60 -30t32 -47.5t9.5 -64v-198q0 -21 10.5 -32.5t26.5 -11.5v-79zM212 72q30 0 51.5 5t36 18t23 34.5t11.5 53.5l2 10t1 10l-125 -12q-19 -2 -34 -4.5t-25.5 -8.5t-16 -17.5t-5.5 -30.5q0 -34 18 -46t63 -12z" />
    <glyph glyph-name="b" unicode="b" horiz-adv-x="534" 
d="M299 -10q-54 0 -87 18.5t-49 68.5l-8 -21l-10 -56h-77v687q25 3 49.5 6t49.5 7v-230q0 -21 -2 -42.5t-3 -41.5q19 46 51 65t86 19q50 0 87 -13t61.5 -41.5t36.5 -74t12 -111.5t-12 -112t-36.5 -74.5t-61.5 -41t-87 -12.5zM284 69q31 0 53 7.5t35 26t19 49.5t6 78t-6 78
t-19 49.5t-35 26t-53 7.5q-60 0 -88.5 -33t-28.5 -116v-17q0 -87 27.5 -121.5t89.5 -34.5z" />
    <glyph glyph-name="c" unicode="c" horiz-adv-x="463" 
d="M437 136q0 -40 -14.5 -67.5t-40.5 -45t-62 -25.5t-80 -8q-54 0 -92.5 12.5t-62.5 40.5t-35.5 74t-11.5 113t11.5 112.5t35.5 74t62.5 41t92.5 12.5q44 0 80 -8t62 -25.5t40.5 -45.5t14.5 -67h-98q0 37 -24 52t-69 15q-33 0 -54 -8t-33.5 -27t-17 -50t-4.5 -76t4.5 -76
t17 -50t34 -27t54.5 -8q43 0 67.5 14.5t24.5 52.5h98z" />
    <glyph glyph-name="d" unicode="d" horiz-adv-x="534" 
d="M234 -10q-50 0 -87 12.5t-61 41t-36 74.5t-12 112t12 111.5t36 74t61 41.5t87 13q53 0 85.5 -18.5t49.5 -65.5h3q-2 20 -3.5 41.5t-1.5 42.5v217q25 3 49.5 6t49.5 7v-700h-77q-5 19 -9 38t-9 39q-17 -50 -50 -68.5t-87 -18.5zM251 69q61 0 88 35t28 121v5
q0 89 -27.5 125t-88.5 36q-31 0 -53 -7.5t-35.5 -26t-19.5 -49.5t-6 -78t6 -78t19.5 -49.5t35.5 -26t53 -7.5z" />
    <glyph glyph-name="e" unicode="e" horiz-adv-x="484" 
d="M438 136q0 -41 -14.5 -68.5t-40 -45t-61 -25t-78.5 -7.5q-54 0 -92.5 12t-64 40t-37.5 74t-12 113q0 69 12.5 115.5t39 74t66.5 39.5t94 12q50 0 86.5 -9.5t60.5 -32t36 -59t12 -90.5q0 -16 -2 -38.5t-9 -42.5h-297q1 -36 7.5 -60.5t19.5 -39.5t34.5 -22t54.5 -7
q39 0 63 13.5t24 53.5h98zM249 391q-30 0 -51 -6t-33.5 -20.5t-19 -37.5t-7.5 -56h207q0 5 0.5 11t0.5 13q0 25 -4 43.5t-15 30t-30 17t-48 5.5z" />
    <glyph glyph-name="f" unicode="f" horiz-adv-x="296" 
d="M76 0v381h-61v79h61v60q0 51 14.5 86t44 56t74.5 30t106 8v-79q-42 1 -69 -4t-42.5 -17t-22 -31.5t-6.5 -48.5v-60h121v-79h-121v-381h-99z" />
    <glyph glyph-name="g" unicode="g" horiz-adv-x="515" 
d="M444 290q0 -51 -14.5 -85.5t-40.5 -55.5t-64 -30t-84 -9q-16 0 -30 1t-27 4q-7 -8 -9.5 -17t-2.5 -19q0 -20 16.5 -27.5t52.5 -12.5q33 -5 72.5 -10.5t74 -20.5t57.5 -42t23 -74q0 -64 -53 -100.5t-172 -36.5q-112 0 -165.5 32t-53.5 93q0 42 22.5 72.5t54.5 57.5
q-27 24 -27 62q0 23 9 37.5t26 28.5q-34 20 -52.5 56.5t-18.5 95.5q0 51 14.5 85.5t40.5 55.5t63.5 30t84.5 9q61 0 105.5 -15.5t69.5 -53.5q32 59 99 59v-85q-50 0 -77 -36q6 -21 6 -49zM345 290q0 57 -22.5 79t-81.5 22q-29 0 -49 -5t-32 -17t-17.5 -31.5t-5.5 -47.5
q0 -29 5.5 -48t17.5 -31t32 -17t49 -5q59 0 81.5 22t22.5 79zM241 -39q-20 3 -40.5 7t-38.5 11q-7 -9 -14.5 -17t-13.5 -17t-10 -19.5t-4 -24.5q0 -35 28.5 -51t92.5 -16q56 0 92 14t36 52q0 19 -11 30t-29 16.5t-41 8.5t-47 6z" />
    <glyph glyph-name="h" unicode="h" horiz-adv-x="540" 
d="M68 0v687q25 3 49.5 6t49.5 7v-230q0 -21 -1.5 -42.5t-3.5 -41.5h2q17 48 50.5 66t87.5 18q88 0 131 -45.5t43 -154.5v-270h-99v270q0 70 -22.5 95.5t-69.5 25.5q-62 0 -90 -35t-28 -122v-234h-99z" />
    <glyph glyph-name="i" unicode="i" horiz-adv-x="208" 
d="M55 0v460h99v-460h-99zM55 566v94h99v-94h-99z" />
    <glyph glyph-name="j" unicode="j" horiz-adv-x="243" 
d="M171 -93q0 -29 -7 -55.5t-23.5 -47t-45.5 -32.5t-72 -12v82q21 0 35 13t14 46v559h99v-553zM72 566v94h99v-94h-99z" />
    <glyph glyph-name="k" unicode="k" horiz-adv-x="487" 
d="M69 0v687l99 13v-429h70l123 189h107l-146 -226l151 -234h-107l-123 189h-75v-189h-99z" />
    <glyph glyph-name="l" unicode="l" horiz-adv-x="234" 
d="M208 0q-43 0 -71.5 12t-45.5 32.5t-24 47t-7 55.5v540l99 13v-553q0 -36 14 -50.5t35 -14.5v-82z" />
    <glyph glyph-name="m" unicode="m" horiz-adv-x="781" 
d="M69 0v460h83l15 -75q14 50 43 67.5t77 17.5q58 0 92 -21.5t49 -69.5q15 53 47 72t85 19q84 0 121 -44.5t37 -149.5v-276h-99v276q0 33 -3.5 55.5t-11.5 35.5t-23 18.5t-37 5.5q-27 0 -46 -7.5t-31 -24.5t-18 -45.5t-6 -70.5v-243h-99v276q0 33 -3.5 55.5t-11.5 35.5
t-23 18.5t-37 5.5q-27 0 -46 -7.5t-31 -24.5t-18 -45.5t-6 -70.5v-243h-99z" />
    <glyph glyph-name="n" unicode="n" horiz-adv-x="541" 
d="M68 0v460h77l6 -28t5 -28l8 -20q17 50 51.5 68t91.5 18q49 0 82 -11.5t52 -35.5t27 -62t8 -91v-270h-99v270q0 35 -3.5 58.5t-13.5 37.5t-27 19.5t-44 5.5q-32 0 -55 -8t-37.5 -26.5t-21.5 -47.5t-8 -71v-238h-99z" />
    <glyph glyph-name="o" unicode="o" horiz-adv-x="502" 
d="M251 -10q-55 0 -95 12t-66.5 40t-39 74t-12.5 114t12.5 114t39 74t66.5 40t95 12t95.5 -12t66.5 -40t38.5 -74t12.5 -114t-12.5 -114t-38.5 -74t-66.5 -40t-95.5 -12zM251 69q31 0 53 8t35.5 27t19.5 50t6 76t-6 76t-19.5 50t-35.5 27t-53 8t-53 -8t-35.5 -27t-19.5 -50
t-6 -76t6 -76t19.5 -50t35.5 -27t53 -8z" />
    <glyph glyph-name="p" unicode="p" horiz-adv-x="535" 
d="M303 -10q-54 0 -88 17.5t-51 66.5h-2q2 -22 3.5 -42.5t1.5 -41.5v-230h-99v700h77l11 -57q2 -6 3.5 -11.5t3.5 -10.5q16 51 50 70t90 19q49 0 85 -13t60 -41.5t36 -74.5t12 -111q0 -66 -12 -111.5t-36 -74t-60 -41.5t-85 -13zM286 69q30 0 51 7.5t34.5 26t19.5 49.5t6 78
q0 46 -6 77t-19.5 49.5t-34.5 26.5t-51 8q-62 0 -89.5 -33t-29.5 -116v-12q0 -45 6.5 -76t21 -50t37 -27t54.5 -8z" />
    <glyph glyph-name="q" unicode="q" horiz-adv-x="535" 
d="M231 -10q-49 0 -85 13t-60 41.5t-36 74t-12 111.5q0 65 12 111t36 74.5t60 41.5t85 13q56 0 89.5 -19t49.5 -70l8 22q2 14 5 28t6 29h77v-700h-99v230q0 21 1.5 41.5t3.5 42.5h-3q-17 -49 -50.5 -66.5t-87.5 -17.5zM248 69q30 0 52 7.5t36.5 24.5t22 45.5t8.5 69.5v22
q0 85 -29 119t-90 34q-30 0 -51 -8t-34.5 -26.5t-19.5 -49.5t-6 -77q0 -47 6 -78t19.5 -49.5t34.5 -26t51 -7.5z" />
    <glyph glyph-name="r" unicode="r" horiz-adv-x="312" 
d="M60 0v460h83l10 -60q2 -7 3 -14t3 -13q16 53 49 73t88 20v-79q-70 0 -102.5 -33.5t-34.5 -115.5v-238h-99z" />
    <glyph glyph-name="s" unicode="s" horiz-adv-x="454" 
d="M317 324q0 38 -22 52.5t-71 14.5q-47 0 -70 -12.5t-23 -46.5q0 -18 7.5 -29t20 -17t29.5 -9t36 -6q42 -6 77.5 -14.5t62 -24.5t41.5 -41.5t15 -63.5q0 -66 -44.5 -101.5t-152.5 -35.5q-103 0 -149 34.5t-46 111.5h95q0 -38 25 -52.5t76 -14.5t74.5 12.5t23.5 46.5
q0 18 -8 29t-21.5 17t-31 9t-37.5 6q-38 5 -72.5 13.5t-61 24.5t-42 41.5t-15.5 65.5q0 65 44 100.5t149 35.5q100 0 144.5 -34.5t44.5 -111.5h-98z" />
    <glyph glyph-name="t" unicode="t" horiz-adv-x="324" 
d="M286 0q-51 0 -91 9t-67.5 30t-42 55.5t-14.5 85.5v201h-61v79h61v98q25 5 49.5 10.5t49.5 11.5v-120h137v-79h-137v-201q0 -11 2 -19t5 -15q7 -38 31 -52.5t78 -14.5v-79z" />
    <glyph glyph-name="u" unicode="u" horiz-adv-x="537" 
d="M391 0q-5 19 -9.5 38t-9.5 38q-17 -50 -51 -68t-90 -18q-50 0 -83 13.5t-52.5 42t-27.5 74t-8 110.5v230h99v-230q0 -48 3.5 -79t14 -49.5t28 -25.5t46.5 -7q60 0 88 33t30 114v244h99v-460h-77z" />
    <glyph glyph-name="v" unicode="v" horiz-adv-x="477" 
d="M368 460h102l-186 -460h-91l-187 460h102l94 -247q10 -28 16.5 -52t10.5 -43q4 -22 7 -40h3q3 18 8 40q4 19 10.5 43t16.5 51z" />
    <glyph glyph-name="w" unicode="w" horiz-adv-x="702" 
d="M375 237q-8 30 -13 55.5t-7 45.5q-3 23 -4 42h-3q-1 -18 -4 -41q-5 -40 -20 -103l-61 -236h-116l-136 460h100l61 -224q9 -35 15 -64.5t9 -51.5q4 -26 6 -46h4q2 20 6 46q3 22 8 51.5t13 64.5l56 224h121l55 -224q17 -73 23 -116q4 -26 6 -46h3q1 20 5 46q3 22 8.5 51.5
t15.5 64.5l65 224h100l-139 -460h-116z" />
    <glyph glyph-name="x" unicode="x" horiz-adv-x="459" 
d="M269 106q-14 21 -21.5 35.5t-11.5 23.5q-4 11 -5 17h-4q-2 -6 -7 -17q-5 -9 -12.5 -24t-21.5 -36l-67 -105h-107l154 233l-144 227h114l54 -87q14 -24 21.5 -40t12.5 -26q5 -11 7 -18h4q1 7 6 18q7 17 35 65l55 88h108l-146 -225l153 -235h-109z" />
    <glyph glyph-name="y" unicode="y" horiz-adv-x="469" 
d="M70 -155q36 0 65 40.5t50 100.5q-45 119 -89.5 236.5t-89.5 237.5h103q23 -65 46 -132.5t41 -123.5t28.5 -92.5t7.5 -38.5h3q1 -1 2.5 11t5.5 33t12 50.5t23 63.5q20 57 41 114t41 115h103q-48 -125 -95 -248t-95 -248q-41 -106 -89.5 -155t-113.5 -49v85v0z" />
    <glyph glyph-name="z" unicode="z" horiz-adv-x="439" 
d="M26 0v79l259 302h-259v79h386v-79l-259 -302h259v-79h-386z" />
    <glyph glyph-name="braceleft" unicode="{" horiz-adv-x="346" 
d="M319 -91q-44 0 -73 18.5t-46.5 47.5t-26 64.5t-11.5 68.5t-3.5 60.5t-1.5 41.5q-2 13 -6 23.5t-19 16.5l-100 41v37l100 41q17 8 20 18t5 22q3 27 4 60t4.5 66.5t11.5 65t25 56t45 39t72 14.5v-82q-21 0 -33.5 -18t-19.5 -49t-9.5 -72.5t-4.5 -87.5q0 -11 -3 -22.5
t-10 -22t-19.5 -18.5t-31.5 -11l-73 -17v-1l73 -17q24 -4 36.5 -13.5t18.5 -20.5t7.5 -22t1.5 -18q2 -46 5 -87t9.5 -72t19 -49.5t33.5 -18.5v-82z" />
    <glyph glyph-name="bar" unicode="|" horiz-adv-x="277" 
d="M102 -120v820h73v-820h-73z" />
    <glyph glyph-name="braceright" unicode="}" horiz-adv-x="346" 
d="M27 -9q21 0 33.5 18.5t19 49.5t9.5 72t5 87q0 7 1.5 18t7.5 22t18.5 20.5t36.5 13.5l73 17v1l-73 17q-20 3 -32 11t-19 18.5t-10 22t-3 22.5q-2 46 -4.5 87.5t-9.5 72.5t-19.5 49t-33.5 18v82q44 0 72 -14.5t45 -39t25 -56t11.5 -65t4.5 -66.5t4 -60q2 -12 5 -22t20 -18
l100 -41v-37l-100 -41q-15 -6 -19 -16.5t-6 -23.5q-1 -13 -1.5 -41t-3.5 -61t-11.5 -68.5t-26 -64.5t-46.5 -47.5t-73 -18.5v82z" />
    <glyph glyph-name="asciitilde" unicode="~" horiz-adv-x="598" 
d="M537 406q0 -87 -40 -122.5t-108 -35.5q-32 0 -52.5 6t-34 15.5t-21.5 21t-14 22.5q-7 12 -19.5 22.5t-44.5 10.5q-14 0 -26 -3.5t-20 -13t-12.5 -27t-4.5 -45.5h-80q0 87 40 122.5t108 35.5q33 0 54.5 -7t35 -16.5t20.5 -21t12 -20.5q5 -11 18.5 -22t44.5 -11
q15 0 27 3.5t20 13.5t12.5 27.5t4.5 44.5h80z" />
    <glyph glyph-name="exclamdown" unicode="&#xa1;" horiz-adv-x="219" 
d="M168 -240h-115l16 460h83zM160 320h-99v100h99v-100z" />
    <glyph glyph-name="cent" unicode="&#xa2;" horiz-adv-x="463" 
d="M202 120v81q-44 3 -75 14.5t-51 34t-29 57t-9 83.5q0 48 9 82.5t29 57t51 34t75 14.5v82h67v-81q76 -5 122 -39t46 -106h-92q0 33 -20 49t-56 19v-225q35 3 55.5 18.5t20.5 50.5h92q0 -36 -12 -62.5t-34.5 -44t-53.5 -27t-68 -11.5v-81h-67zM131 390q0 -54 14.5 -79
t56.5 -32v221q-42 -6 -56.5 -31.5t-14.5 -78.5z" />
    <glyph glyph-name="sterling" unicode="&#xa3;" horiz-adv-x="525" 
d="M324 85q42 0 57 16t15 45h98q0 -78 -41 -112t-129 -34h-297v87h29q21 0 37.5 10t28 26.5t17.5 37t6 41.5q0 12 -2 23.5t-5 22.5h-98v64h69q-11 15 -22.5 31t-21 33.5t-15.5 38t-6 46.5q0 41 14.5 71t40.5 49.5t61.5 29t77.5 9.5q39 0 74 -8.5t61.5 -27.5t42.5 -49.5
t16 -74.5h-98q0 22 -8 37.5t-22 25t-32.5 14t-38.5 4.5q-92 0 -92 -83q0 -23 7 -42.5t17.5 -36.5t23 -33.5t23.5 -33.5h143v-64h-118q1 -8 1.5 -15t0.5 -15q0 -51 -20 -87t-49 -46h154z" />
    <glyph glyph-name="yen" unicode="&#xa5;" horiz-adv-x="569" 
d="M333 120v-120h-99v120h-158v64h158v57l-21 39h-137v64h103l-168 316h108l121 -225q14 -28 21.5 -49l12.5 -35q5 -17 8 -30h3q2 12 7 30q5 14 13 35.5t22 48.5l122 225h108l-170 -316h104v-64h-138l-20 -39v-57h158v-64h-158z" />
    <glyph glyph-name="brokenbar" unicode="&#xa6;" horiz-adv-x="277" 
d="M175 221v-341h-73v341h73zM102 700h73v-341h-73v341z" />
    <glyph glyph-name="section" unicode="&#xa7;" horiz-adv-x="454" 
d="M317 527q0 38 -22 52.5t-71 14.5q-47 0 -70 -12.5t-23 -46.5q0 -18 7.5 -29t20 -17t29.5 -9t36 -6q42 -6 77.5 -15t62 -24.5t41.5 -40t15 -61.5q0 -35 -14.5 -59.5t-48.5 -38.5q29 -16 46 -40.5t17 -66.5q0 -66 -44.5 -101.5t-152.5 -35.5q-103 0 -149 34.5t-46 111.5h95
q0 -39 25 -53t76 -14t74.5 12.5t23.5 46.5q0 18 -8 29t-21.5 17t-31 9t-37.5 6q-36 5 -70.5 13t-61 24t-43 41t-16.5 63q0 35 14.5 59.5t48.5 38.5q-28 16 -45.5 41t-17.5 67q0 65 44 100.5t149 35.5q100 0 144.5 -34.5t44.5 -111.5h-98zM322 331q0 18 -8 29t-21.5 17t-31 9
t-37.5 6q-47 0 -70 -12.5t-23 -47.5q0 -18 7 -28.5t19.5 -16.5t29.5 -9t37 -6q51 0 74.5 12.5t23.5 46.5z" />
    <glyph glyph-name="dieresis" unicode="&#xa8;" horiz-adv-x="393" 
d="M60 538v100h87v-100h-87zM246 538v100h87v-100h-87z" />
    <glyph glyph-name="copyright" unicode="&#xa9;" horiz-adv-x="746" 
d="M373 -10q-85 0 -146.5 17t-101 56.5t-58.5 105t-19 161.5t19 161.5t58.5 105t101 56.5t146.5 17t146 -17t101 -56.5t59 -105t19 -161.5t-19 -161.5t-59 -105t-101 -56.5t-146 -17zM373 30q73 0 126 15t87 50t50.5 92.5t16.5 142.5t-16.5 142.5t-50.5 92.5t-87 50t-126 15
t-126 -15t-87 -50t-50.5 -92.5t-16.5 -142.5t16.5 -142.5t50.5 -92.5t87 -50t126 -15zM561 260q0 -38 -13.5 -65t-38 -43.5t-58.5 -24t-75 -7.5q-51 0 -87 10.5t-59 35.5t-33.5 65t-10.5 99q0 58 10.5 98.5t33.5 65t59 35.5t87 11q41 0 75 -7.5t58.5 -24.5t38 -43.5
t13.5 -64.5h-92q0 37 -22.5 52t-64.5 15q-31 0 -51 -7t-31.5 -23t-16 -42t-4.5 -65t4.5 -65t16 -42t31.5 -23t52 -7q40 0 63 14.5t23 52.5h92z" />
    <glyph glyph-name="ordfeminine" unicode="&#xaa;" horiz-adv-x="405" 
d="M319 328q-35 0 -50 10.5t-18 25.5q-10 -23 -25.5 -31t-44.5 -8q-17 0 -32.5 2.5t-27.5 10t-19.5 21t-7.5 35.5q0 24 9 37.5t23 20.5t31 9t32 3l56 4v21q0 19 -10 26t-33 7q-26 0 -34 -7.5t-8 -24.5h-54q0 41 22.5 58t73.5 17q56 0 77 -20t21 -56v-96q0 -21 19 -21v-44z
M185 370q30 0 43.5 12.5t15.5 46.5q-17 -1 -34 -1.5t-30.5 -3.5t-22 -9.5t-8.5 -18.5q0 -15 8 -20.5t28 -5.5z" />
    <glyph glyph-name="guillemotleft" unicode="&#xab;" horiz-adv-x="393" 
d="M264 50h-86l-135 186l127 174h86l-107 -142q-6 -8 -12 -15t-13 -15v-4q7 -8 13 -14.5t12 -14.5zM256 234q7 -8 13 -14.5t12 -14.5l81 -105h-74l-101 136l93 124h74l-73 -93q-6 -8 -12 -14.5t-13 -14.5v-4z" />
    <glyph glyph-name="uni00AD" unicode="&#xad;" horiz-adv-x="449" 
d="M67 290v84h315v-84h-315z" />
    <glyph glyph-name="registered" unicode="&#xae;" horiz-adv-x="746" 
d="M373 -10q-85 0 -146.5 17t-101 56.5t-58.5 105t-19 161.5t19 161.5t58.5 105t101 56.5t146.5 17t146 -17t101 -56.5t59 -105t19 -161.5t-19 -161.5t-59 -105t-101 -56.5t-146 -17zM373 30q73 0 126 15t87 50t50.5 92.5t16.5 142.5t-16.5 142.5t-50.5 92.5t-87 50t-126 15
t-126 -15t-87 -50t-50.5 -92.5t-16.5 -142.5t16.5 -142.5t50.5 -92.5t87 -50t126 -15zM479 120l-87 137h-78v-137h-93v420h178q86 0 126 -32t40 -109q0 -58 -21.5 -89.5t-64.5 -43.5l94 -146h-94zM393 330q47 0 66 15t19 53t-18.5 53.5t-66.5 15.5h-79v-137h79z" />
    <glyph glyph-name="macron" unicode="&#xaf;" horiz-adv-x="487" 
d="M74 565v58h339v-58h-339z" />
    <glyph glyph-name="degree" unicode="&#xb0;" horiz-adv-x="321" 
d="M161 405q-34 0 -58.5 6.5t-40.5 21.5t-23.5 40t-7.5 62q0 73 31 101.5t99 28.5q67 0 98 -28.5t31 -101.5q0 -37 -7.5 -62t-23.5 -40t-40.5 -21.5t-57.5 -6.5zM161 463q28 0 41 15.5t13 56.5t-13 56.5t-41 15.5q-29 0 -42 -15.5t-13 -56.5q0 -42 13 -57t42 -15z" />
    <glyph glyph-name="plusminus" unicode="&#xb1;" horiz-adv-x="589" 
d="M256 201v192h-209v76h209v191h76v-191h210v-76h-210v-192h-76zM542 137v-76h-495v76h495z" />
    <glyph glyph-name="two.sups" unicode="&#xb2;" horiz-adv-x="267" 
d="M18 330v45l138 144q8 8 21.5 23.5t13.5 35.5q0 41 -60 41q-31 0 -44.5 -10.5t-13.5 -37.5h-53q0 53 28.5 73.5t82.5 20.5q60 0 87 -22t27 -60q0 -17 -4.5 -30t-10.5 -22.5t-12 -15.5t-9 -10l-124 -130h162v-45h-229z" />
    <glyph glyph-name="three.sups" unicode="&#xb3;" horiz-adv-x="269" 
d="M150 527q50 -4 73.5 -28.5t23.5 -68.5q0 -45 -27 -75t-94 -30q-24 0 -45 5t-37 16.5t-25.5 29t-9.5 43.5h54q0 -26 18 -37.5t44 -11.5q41 0 54.5 18t13.5 42q0 26 -14.5 40t-51.5 14h-33v44l72 86h-147v46h216v-46l-49 -54q-8 -9 -17 -17t-19 -16z" />
    <glyph glyph-name="acute" unicode="&#xb4;" horiz-adv-x="288" 
d="M50 528l70 136h118l-110 -136h-78z" />
    <glyph glyph-name="periodcentered" unicode="&#xb7;" horiz-adv-x="207" 
d="M60 314v100h87v-100h-87z" />
    <glyph glyph-name="cedilla" unicode="&#xb8;" horiz-adv-x="316" 
d="M280 -121q0 -45 -34.5 -66.5t-85.5 -21.5q-25 0 -46 4.5t-32 11.5v55q29 -16 70 -16q23 0 36.5 6.5t13.5 23.5q0 20 -18 30t-60 12l10 95h57l-6 -56q45 -3 70 -21.5t25 -56.5z" />
    <glyph glyph-name="one.sups" unicode="&#xb9;" horiz-adv-x="219" 
d="M24 330v45h59v229l-59 -10v46l112 20v-285h59v-45h-171z" />
    <glyph glyph-name="ordmasculine" unicode="&#xba;" horiz-adv-x="321" 
d="M161 325q-34 0 -58.5 8.5t-40.5 28t-23.5 52.5t-7.5 81t7.5 80.5t23.5 52.5t40.5 28.5t58.5 8.5q33 0 57.5 -8.5t40.5 -28.5t23.5 -52.5t7.5 -80.5t-7.5 -81t-23.5 -52.5t-40.5 -28t-57.5 -8.5zM161 383q28 0 41 24t13 88q0 63 -13 87.5t-41 24.5q-29 0 -42 -24.5
t-13 -87.5q0 -64 13 -88t42 -24z" />
    <glyph glyph-name="guillemotright" unicode="&#xbb;" horiz-adv-x="405" 
d="M256 205q6 8 12 14.5t13 14.5v4q-7 8 -13 15t-12 15l-107 142h86l127 -174l-135 -186h-86zM149 238q-7 8 -13 14.5t-12 14.5l-73 93h74l93 -124l-101 -136h-74l81 105q6 8 12 14.5t13 14.5v4z" />
    <glyph glyph-name="onequarter" unicode="&#xbc;" horiz-adv-x="692" 
d="M174 0h-57l357 660h57zM33 330v45h59v229l-59 -10v46l112 20v-285h59v-45h-171zM574 0v78h-172v46l105 206h58l-105 -206h114v97l53 9v-106h31v-46h-31v-78h-53z" />
    <glyph glyph-name="onehalf" unicode="&#xbd;" horiz-adv-x="677" 
d="M174 0h-57l357 660h57zM33 330v45h59v229l-59 -10v46l112 20v-285h59v-45h-171zM414 0v45l139 144q8 8 21 24t13 35q0 41 -60 41q-31 0 -44.5 -10.5t-13.5 -37.5h-53q0 53 28.5 73.5t82.5 20.5q60 0 87 -22t27 -60q0 -17 -4.5 -30t-10.5 -22.5t-12 -15.5t-9 -10
l-124 -130h162v-45h-229z" />
    <glyph glyph-name="threequarters" unicode="&#xbe;" horiz-adv-x="726" 
d="M208 0h-57l357 660h57zM608 0v78h-172v46l105 206h58l-105 -206h114v97l53 9v-106h31v-46h-31v-78h-53zM174 527q50 -4 73.5 -28.5t23.5 -68.5q0 -45 -27 -75t-94 -30q-24 0 -45 5t-37 16.5t-25.5 29t-9.5 43.5h54q0 -26 18 -37.5t44 -11.5q41 0 54.5 18t13.5 42
q0 26 -14.5 40t-51.5 14h-33v44l72 86h-147v46h216v-46l-49 -54q-8 -9 -17 -17t-19 -16z" />
    <glyph glyph-name="questiondown" unicode="&#xbf;" horiz-adv-x="494" 
d="M332 228q0 -55 -12 -88.5t-32.5 -53.5t-47 -30t-56.5 -17q-12 -4 -24.5 -9t-22 -14.5t-16 -27t-6.5 -47.5t10.5 -50.5t29.5 -33t45 -17.5t58 -5q63 0 99 22.5t36 76.5h98q0 -50 -16.5 -85t-47 -57t-73 -32t-93.5 -10q-130 0 -187.5 50t-57.5 140q0 59 18 93.5t44.5 53
t55.5 27t50 14.5q10 4 19 9t16 15.5t10.5 28t3.5 47.5h99zM233 420h99v-100h-99v100z" />
    <glyph glyph-name="Agrave" unicode="&#xc0;" horiz-adv-x="647" 
d="M535 0l-53 134h-317l-53 -134h-102q67 166 134 330t135 330h91q67 -166 133 -330t134 -330h-102zM198 219h250l-65 163l-23 63q-20 54 -26.5 86.5t-7.5 32.5h-4l-2.5 -12t-8.5 -33.5t-15 -50.5t-23 -63zM293 727l-115 136h129q17 -34 35 -67.5t35 -68.5h-84z" />
    <glyph glyph-name="Aacute" unicode="&#xc1;" horiz-adv-x="647" 
d="M535 0l-53 134h-317l-53 -134h-102q67 166 134 330t135 330h91q67 -166 133 -330t134 -330h-102zM198 219h250l-65 163l-23 63q-20 54 -26.5 86.5t-7.5 32.5h-4l-2.5 -12t-8.5 -33.5t-15 -50.5t-23 -63zM270 727q17 35 35 68.5t35 67.5h129l-115 -136h-84z" />
    <glyph glyph-name="Acircumflex" unicode="&#xc2;" horiz-adv-x="647" 
d="M535 0l-53 134h-317l-53 -134h-102q67 166 134 330t135 330h91q67 -166 133 -330t134 -330h-102zM198 219h250l-65 163l-23 63q-20 54 -26.5 86.5t-7.5 32.5h-4l-2.5 -12t-8.5 -33.5t-15 -50.5t-23 -63zM357 863l135 -131h-100l-35 36q-10 10 -16 18t-10 14q-4 7 -7 12
h-3q-2 -5 -6 -12q-4 -6 -10 -14t-16 -18l-35 -36h-100l135 131h68z" />
    <glyph glyph-name="Atilde" unicode="&#xc3;" horiz-adv-x="647" 
d="M535 0l-53 134h-317l-53 -134h-102q67 166 134 330t135 330h91q67 -166 133 -330t134 -330h-102zM198 219h250l-65 163l-23 63q-20 54 -26.5 86.5t-7.5 32.5h-4l-2.5 -12t-8.5 -33.5t-15 -50.5t-23 -63zM391 734q-22 0 -40 8t-33 18l-27 18t-22 8q-32 0 -32 -53h-61
q0 21 2.5 41.5t10.5 36.5t24 26t43 10q20 0 33 -5.5t27 -14.5l19 -13q13 -9 22 -14t20 -5q16 0 22.5 11.5t6.5 40.5h64q0 -24 -2 -44.5t-10 -35.5t-23.5 -24t-43.5 -9z" />
    <glyph glyph-name="Adieresis" unicode="&#xc4;" horiz-adv-x="647" 
d="M535 0l-53 134h-317l-53 -134h-102q67 166 134 330t135 330h91q67 -166 133 -330t134 -330h-102zM198 219h250l-65 163l-23 63q-20 54 -26.5 86.5t-7.5 32.5h-4l-2.5 -12t-8.5 -33.5t-15 -50.5t-23 -63zM187 738v100h87v-100h-87zM373 738v100h87v-100h-87z" />
    <glyph glyph-name="Aring" unicode="&#xc5;" horiz-adv-x="647" 
d="M535 0l-53 134h-317l-53 -134h-102q67 166 134 330t135 330h91q67 -166 133 -330t134 -330h-102zM198 219h250l-65 163l-23 63q-20 54 -26.5 86.5t-7.5 32.5h-4l-2.5 -12t-8.5 -33.5t-15 -50.5t-23 -63zM323 723q-45 0 -68.5 26t-23.5 64q0 35 25 61t67 26t67 -26t25 -61
q0 -38 -23.5 -64t-68.5 -26zM323 856q-22 0 -33 -12.5t-11 -31.5q0 -17 10.5 -30.5t33.5 -13.5q22 0 32.5 13.5t10.5 30.5q0 19 -11.5 31.5t-31.5 12.5z" />
    <glyph glyph-name="AE" unicode="&#xc6;" horiz-adv-x="829" 
d="M398 0v134h-233l-53 -134h-102l269 660h499v-85h-281v-201h241v-84h-241v-205h281v-85h-380zM198 219h200v346h-75q-4 -20 -11 -45q-6 -21 -15.5 -50t-23.5 -64z" />
    <glyph glyph-name="Ccedilla" unicode="&#xc7;" horiz-adv-x="597" 
d="M439 -121q0 -45 -34.5 -66.5t-85.5 -21.5q-25 0 -46 4.5t-32 11.5v55q29 -16 70 -16q23 0 36.5 6.5t13.5 23.5q0 20 -18 30t-60 12l8 73q-64 3 -110.5 21t-77 57.5t-45 103t-14.5 158.5q0 99 16.5 164.5t50.5 104.5t86.5 54.5t124.5 15.5q52 0 98.5 -8t80.5 -28.5t54 -56
t20 -91.5h-99q0 32 -13 51.5t-34 30t-48.5 14t-57.5 3.5q-48 0 -82.5 -10t-56 -38t-31.5 -77.5t-10 -128.5t10 -128.5t31.5 -78t55 -39t81.5 -10.5q27 0 55 3t50 13.5t36 30t14 52.5h99q0 -52 -18 -86.5t-49.5 -55.5t-73 -30.5t-87.5 -10.5l-3 -34q45 -3 70 -21.5t25 -56.5z
" />
    <glyph glyph-name="Egrave" unicode="&#xc8;" horiz-adv-x="562" 
d="M81 0v660h430v-85h-331v-201h291v-84h-291v-205h331v-85h-430zM280 728l-115 136h129l71 -136h-85z" />
    <glyph glyph-name="Eacute" unicode="&#xc9;" horiz-adv-x="562" 
d="M81 0v660h430v-85h-331v-201h291v-84h-291v-205h331v-85h-430zM227 728l71 136h129l-115 -136h-85z" />
    <glyph glyph-name="Ecircumflex" unicode="&#xca;" horiz-adv-x="562" 
d="M81 0v660h430v-85h-331v-201h291v-84h-291v-205h331v-85h-430zM314 863l135 -131h-100l-35 36q-10 10 -16 18t-10 14q-4 7 -7 12h-3q-2 -5 -6 -12q-4 -6 -10 -14t-16 -18l-35 -36h-100l135 131h68z" />
    <glyph glyph-name="Edieresis" unicode="&#xcb;" horiz-adv-x="562" 
d="M81 0v660h430v-85h-331v-201h291v-84h-291v-205h331v-85h-430zM144 738v100h87v-100h-87zM330 738v100h87v-100h-87z" />
    <glyph glyph-name="Igrave" unicode="&#xcc;" horiz-adv-x="261" 
d="M81 0v660h99v-660h-99zM97 728l-115 136h129l71 -136h-85z" />
    <glyph glyph-name="Iacute" unicode="&#xcd;" horiz-adv-x="261" 
d="M81 0v660h99v-660h-99zM78 728l71 136h129l-115 -136h-85z" />
    <glyph glyph-name="Icircumflex" unicode="&#xce;" horiz-adv-x="261" 
d="M81 0v660h99v-660h-99zM167 863l135 -131h-100l-35 36q-10 10 -16 18t-10 14q-4 7 -7 12h-3q-2 -5 -6 -12q-4 -6 -10 -14t-16 -18l-35 -36h-100l135 131h68z" />
    <glyph glyph-name="Idieresis" unicode="&#xcf;" horiz-adv-x="261" 
d="M81 0v660h99v-660h-99zM-5 738v100h87v-100h-87zM181 738v100h87v-100h-87z" />
    <glyph glyph-name="Eth" unicode="&#xd0;" horiz-adv-x="651" 
d="M81 0v290h-81v84h81v286h193q87 0 150 -16.5t103.5 -55t60 -102t19.5 -156.5t-19.5 -156.5t-60 -102t-103.5 -55t-150 -16.5h-193zM274 85q61 0 105.5 12.5t73 41t42 75.5t13.5 116t-13.5 116t-42 75.5t-73 41t-105.5 12.5h-94v-201h135v-84h-135v-205h94z" />
    <glyph glyph-name="Ntilde" unicode="&#xd1;" horiz-adv-x="683" 
d="M503 660h99v-660h-118l-229 392q-18 30 -32 56l-24.5 45.5t-17 31.5t-7.5 14h-3q2 -18 4 -37q2 -17 3.5 -37.5t1.5 -42.5v-422h-99v660h117q58 -99 115 -196.5t114 -196.5l46 -84q14 -26 25 -45t10 -19h3q-2 18 -4 37q-2 17 -3 37.5t-1 42.5v424zM409 734q-23 0 -37 7.5
t-31 18.5q-18 12 -29.5 19t-24.5 7q-31 0 -31 -53h-62q0 21 2.5 41.5t10.5 36.5t24 26t43 10q23 0 37 -6.5t30 -17.5q17 -13 29 -20.5t26 -7.5q15 0 21.5 11.5t6.5 40.5h65q0 -24 -2 -44.5t-10 -35.5t-24 -24t-44 -9z" />
    <glyph glyph-name="Ograve" unicode="&#xd2;" horiz-adv-x="674" 
d="M337 -10q-77 0 -132 17t-91 56.5t-53 105t-17 161.5t17 161.5t53 105t91 56.5t132 17q76 0 131.5 -17t91.5 -56.5t53 -105t17 -161.5t-17 -161.5t-53 -105t-91.5 -56.5t-131.5 -17zM337 75q51 0 87.5 13t60 42.5t35 78.5t11.5 121t-11.5 121t-35 78.5t-60 42.5t-87.5 13
t-87.5 -13t-60 -42.5t-35 -78.5t-11.5 -121t11.5 -121t35 -78.5t60 -42.5t87.5 -13zM317 728l-115 136h129l70 -136h-84z" />
    <glyph glyph-name="Oacute" unicode="&#xd3;" horiz-adv-x="674" 
d="M337 -10q-77 0 -132 17t-91 56.5t-53 105t-17 161.5t17 161.5t53 105t91 56.5t132 17q76 0 131.5 -17t91.5 -56.5t53 -105t17 -161.5t-17 -161.5t-53 -105t-91.5 -56.5t-131.5 -17zM337 75q51 0 87.5 13t60 42.5t35 78.5t11.5 121t-11.5 121t-35 78.5t-60 42.5t-87.5 13
t-87.5 -13t-60 -42.5t-35 -78.5t-11.5 -121t11.5 -121t35 -78.5t60 -42.5t87.5 -13zM251 728l70 136h130l-116 -136h-84z" />
    <glyph glyph-name="Ocircumflex" unicode="&#xd4;" horiz-adv-x="674" 
d="M337 -10q-77 0 -132 17t-91 56.5t-53 105t-17 161.5t17 161.5t53 105t91 56.5t132 17q76 0 131.5 -17t91.5 -56.5t53 -105t17 -161.5t-17 -161.5t-53 -105t-91.5 -56.5t-131.5 -17zM337 75q51 0 87.5 13t60 42.5t35 78.5t11.5 121t-11.5 121t-35 78.5t-60 42.5t-87.5 13
t-87.5 -13t-60 -42.5t-35 -78.5t-11.5 -121t11.5 -121t35 -78.5t60 -42.5t87.5 -13zM371 863l135 -131h-100l-35 36q-10 10 -16 18t-10 14q-4 7 -7 12h-3q-2 -5 -6 -12q-4 -6 -10 -14t-16 -18l-35 -36h-100l135 131h68z" />
    <glyph glyph-name="Otilde" unicode="&#xd5;" horiz-adv-x="674" 
d="M337 -10q-77 0 -132 17t-91 56.5t-53 105t-17 161.5t17 161.5t53 105t91 56.5t132 17q76 0 131.5 -17t91.5 -56.5t53 -105t17 -161.5t-17 -161.5t-53 -105t-91.5 -56.5t-131.5 -17zM337 75q51 0 87.5 13t60 42.5t35 78.5t11.5 121t-11.5 121t-35 78.5t-60 42.5t-87.5 13
t-87.5 -13t-60 -42.5t-35 -78.5t-11.5 -121t11.5 -121t35 -78.5t60 -42.5t87.5 -13zM404 734q-23 0 -37 7.5t-31 18.5q-18 12 -29.5 19t-24.5 7q-31 0 -31 -53h-62q0 21 2.5 41.5t10.5 36.5t24 26t43 10q23 0 37 -6.5t30 -17.5q17 -13 29 -20.5t26 -7.5q15 0 21.5 11.5
t6.5 40.5h65q0 -24 -2 -44.5t-10 -35.5t-24 -24t-44 -9z" />
    <glyph glyph-name="Odieresis" unicode="&#xd6;" horiz-adv-x="674" 
d="M337 -10q-77 0 -132 17t-91 56.5t-53 105t-17 161.5t17 161.5t53 105t91 56.5t132 17q76 0 131.5 -17t91.5 -56.5t53 -105t17 -161.5t-17 -161.5t-53 -105t-91.5 -56.5t-131.5 -17zM337 75q51 0 87.5 13t60 42.5t35 78.5t11.5 121t-11.5 121t-35 78.5t-60 42.5t-87.5 13
t-87.5 -13t-60 -42.5t-35 -78.5t-11.5 -121t11.5 -121t35 -78.5t60 -42.5t87.5 -13zM199 738v100h87v-100h-87zM385 738v100h87v-100h-87z" />
    <glyph glyph-name="multiply" unicode="&#xd7;" horiz-adv-x="589" 
d="M442 129l-148 149l-149 -148l-53 54l148 147l-148 148l53 54l149 -148l148 149l54 -54l-149 -149l149 -148z" />
    <glyph glyph-name="Oslash" unicode="&#xd8;" horiz-adv-x="674" 
d="M36 23l57 68q-26 40 -37.5 98.5t-11.5 140.5q0 96 17 161.5t53 105t91 56.5t132 17q65 0 114 -12.5t84 -40.5l47 57l56 -47l-54 -64q46 -79 46 -233q0 -96 -17 -161.5t-53 -105t-91.5 -56.5t-131.5 -17q-63 0 -110.5 11.5t-82.5 37.5l-52 -63zM143 330q0 -100 22 -154
l306 366q-23 23 -56 33t-78 10q-51 0 -87.5 -13t-60 -42.5t-35 -78.5t-11.5 -121zM337 75q51 0 87.5 13t60 42.5t35 78.5t11.5 121q0 91 -20 146l-304 -362q23 -21 55 -30t75 -9z" />
    <glyph glyph-name="Ugrave" unicode="&#xd9;" horiz-adv-x="654" 
d="M491 660h99v-330q0 -96 -15.5 -161.5t-48 -105t-82 -56.5t-117.5 -17q-69 0 -118.5 17t-81.5 56.5t-47.5 105t-15.5 161.5v330h99v-330q0 -72 9.5 -121t29.5 -78.5t51 -42.5t74 -13t74 13t51 42.5t29.5 78.5t9.5 121v330zM313 728l-115 136h129l71 -136h-85z" />
    <glyph glyph-name="Uacute" unicode="&#xda;" horiz-adv-x="654" 
d="M491 660h99v-330q0 -96 -15.5 -161.5t-48 -105t-82 -56.5t-117.5 -17q-69 0 -118.5 17t-81.5 56.5t-47.5 105t-15.5 161.5v330h99v-330q0 -72 9.5 -121t29.5 -78.5t51 -42.5t74 -13t74 13t51 42.5t29.5 78.5t9.5 121v330zM246 728l70 136h130l-116 -136h-84z" />
    <glyph glyph-name="Ucircumflex" unicode="&#xdb;" horiz-adv-x="654" 
d="M491 660h99v-330q0 -96 -15.5 -161.5t-48 -105t-82 -56.5t-117.5 -17q-69 0 -118.5 17t-81.5 56.5t-47.5 105t-15.5 161.5v330h99v-330q0 -72 9.5 -121t29.5 -78.5t51 -42.5t74 -13t74 13t51 42.5t29.5 78.5t9.5 121v330zM361 863l135 -131h-100l-35 36q-10 10 -16 18
t-10 14q-4 7 -7 12h-3q-2 -5 -6 -12q-4 -6 -10 -14t-16 -18l-35 -36h-100l135 131h68z" />
    <glyph glyph-name="Udieresis" unicode="&#xdc;" horiz-adv-x="654" 
d="M491 660h99v-330q0 -96 -15.5 -161.5t-48 -105t-82 -56.5t-117.5 -17q-69 0 -118.5 17t-81.5 56.5t-47.5 105t-15.5 161.5v330h99v-330q0 -72 9.5 -121t29.5 -78.5t51 -42.5t74 -13t74 13t51 42.5t29.5 78.5t9.5 121v330zM189 738v100h87v-100h-87zM375 738v100h87v-100
h-87z" />
    <glyph glyph-name="Yacute" unicode="&#xdd;" horiz-adv-x="569" 
d="M10 660h109l107 -202q9 -17 17 -33.5t14 -30.5q16 -37 19.5 -55t4.5 -18h4q-1 -2 9.5 35.5t44.5 100.5l109 203h108q-57 -106 -112 -210t-112 -209v-241h-99v241zM202 728l70 136h130l-116 -136h-84z" />
    <glyph glyph-name="Thorn" unicode="&#xde;" horiz-adv-x="597" 
d="M180 660v-103h157q59 0 102.5 -11t72 -36.5t42 -67t13.5 -101.5q0 -63 -13.5 -106t-42 -70t-72 -38.5t-102.5 -11.5h-157v-115h-99v660h99zM331 200q37 0 63 7t42.5 23.5t24 43.5t7.5 67q0 73 -32 102t-105 29h-151v-272h151z" />
    <glyph glyph-name="germandbls" unicode="&#xdf;" horiz-adv-x="583" 
d="M371 375q-19 0 -29 -8t-10 -35q0 -17 4 -27t11.5 -16t17.5 -9t22 -5q36 -7 66.5 -16t52.5 -25.5t34.5 -42t12.5 -65.5q0 -65 -37.5 -100.5t-129.5 -35.5q-87 0 -126 34.5t-39 111.5h95q0 -38 18 -52.5t54 -14.5q34 0 50.5 12.5t16.5 45.5q0 20 -5 31.5t-14 18.5t-21.5 10
t-27.5 6q-31 6 -59 14.5t-49 23.5t-33 40t-12 64q0 28 7.5 47t20 31t28.5 17t33 5q12 0 26 3t25.5 10.5t19 21.5t7.5 38q0 41 -21.5 59t-79.5 18q-63 0 -92 -22t-29 -77v-486h-99v381h-63v79h63v26q0 100 55.5 142t160.5 42q56 0 95.5 -11t64.5 -32t35 -51t8 -68
q-2 -42 -17 -68t-35 -40t-41 -19.5t-35 -5.5z" />
    <glyph glyph-name="agrave" unicode="&#xe0;" horiz-adv-x="495" 
d="M474 -3q-35 0 -58 6t-37.5 16t-21 24t-9.5 30q-17 -49 -51.5 -66t-91.5 -17q-33 0 -64 5.5t-55.5 20.5t-39 41.5t-14.5 69.5q0 48 17.5 74.5t45 39.5t60.5 16.5t63 6.5t60 5.5t60 5.5v43q0 40 -21 56.5t-74 16.5q-26 0 -38 -9q-32 -4 -42 -18t-10 -40h-98q0 78 45 112
t143 34q55 0 92.5 -10.5t60 -30t32 -47.5t9.5 -64v-198q0 -21 10.5 -32.5t26.5 -11.5v-79zM212 72q30 0 51.5 5t36 18t23 34.5t11.5 53.5l2 10t1 10l-125 -12q-19 -2 -34 -4.5t-25.5 -8.5t-16 -17.5t-5.5 -30.5q0 -34 18 -46t63 -12zM233 528l-109 136h117l71 -136h-79z" />
    <glyph glyph-name="aacute" unicode="&#xe1;" horiz-adv-x="495" 
d="M474 -3q-35 0 -58 6t-37.5 16t-21 24t-9.5 30q-17 -49 -51.5 -66t-91.5 -17q-33 0 -64 5.5t-55.5 20.5t-39 41.5t-14.5 69.5q0 48 17.5 74.5t45 39.5t60.5 16.5t63 6.5t60 5.5t60 5.5v43q0 40 -21 56.5t-74 16.5q-26 0 -38 -9q-32 -4 -42 -18t-10 -40h-98q0 78 45 112
t143 34q55 0 92.5 -10.5t60 -30t32 -47.5t9.5 -64v-198q0 -21 10.5 -32.5t26.5 -11.5v-79zM212 72q30 0 51.5 5t36 18t23 34.5t11.5 53.5l2 10t1 10l-125 -12q-19 -2 -34 -4.5t-25.5 -8.5t-16 -17.5t-5.5 -30.5q0 -34 18 -46t63 -12zM195 528l70 136h118l-110 -136h-78z" />
    <glyph glyph-name="acircumflex" unicode="&#xe2;" horiz-adv-x="495" 
d="M474 -3q-35 0 -58 6t-37.5 16t-21 24t-9.5 30q-17 -49 -51.5 -66t-91.5 -17q-33 0 -64 5.5t-55.5 20.5t-39 41.5t-14.5 69.5q0 48 17.5 74.5t45 39.5t60.5 16.5t63 6.5t60 5.5t60 5.5v43q0 40 -21 56.5t-74 16.5q-26 0 -38 -9q-32 -4 -42 -18t-10 -40h-98q0 78 45 112
t143 34q55 0 92.5 -10.5t60 -30t32 -47.5t9.5 -64v-198q0 -21 10.5 -32.5t26.5 -11.5v-79zM212 72q30 0 51.5 5t36 18t23 34.5t11.5 53.5l2 10t1 10l-125 -12q-19 -2 -34 -4.5t-25.5 -8.5t-16 -17.5t-5.5 -30.5q0 -34 18 -46t63 -12zM281 663l135 -131h-100l-35 36
q-10 10 -16 18t-10 14q-4 7 -7 12h-3q-2 -5 -6 -12q-4 -6 -10 -14t-16 -18l-35 -36h-100l135 131h68z" />
    <glyph glyph-name="atilde" unicode="&#xe3;" horiz-adv-x="495" 
d="M474 -3q-35 0 -58 6t-37.5 16t-21 24t-9.5 30q-17 -49 -51.5 -66t-91.5 -17q-33 0 -64 5.5t-55.5 20.5t-39 41.5t-14.5 69.5q0 48 17.5 74.5t45 39.5t60.5 16.5t63 6.5t60 5.5t60 5.5v43q0 40 -21 56.5t-74 16.5q-26 0 -38 -9q-32 -4 -42 -18t-10 -40h-98q0 78 45 112
t143 34q55 0 92.5 -10.5t60 -30t32 -47.5t9.5 -64v-198q0 -21 10.5 -32.5t26.5 -11.5v-79zM212 72q30 0 51.5 5t36 18t23 34.5t11.5 53.5l2 10t1 10l-125 -12q-19 -2 -34 -4.5t-25.5 -8.5t-16 -17.5t-5.5 -30.5q0 -34 18 -46t63 -12zM315 534q-23 0 -37 7.5t-31 18.5
q-18 12 -29.5 19t-24.5 7q-31 0 -31 -53h-62q0 21 2.5 41.5t10.5 36.5t24 26t43 10q23 0 37 -6.5t30 -17.5q17 -13 29 -20.5t26 -7.5q15 0 21.5 11.5t6.5 40.5h65q0 -24 -2 -44.5t-10 -35.5t-24 -24t-44 -9z" />
    <glyph glyph-name="adieresis" unicode="&#xe4;" horiz-adv-x="495" 
d="M474 -3q-35 0 -58 6t-37.5 16t-21 24t-9.5 30q-17 -49 -51.5 -66t-91.5 -17q-33 0 -64 5.5t-55.5 20.5t-39 41.5t-14.5 69.5q0 48 17.5 74.5t45 39.5t60.5 16.5t63 6.5t60 5.5t60 5.5v43q0 40 -21 56.5t-74 16.5q-26 0 -38 -9q-32 -4 -42 -18t-10 -40h-98q0 78 45 112
t143 34q55 0 92.5 -10.5t60 -30t32 -47.5t9.5 -64v-198q0 -21 10.5 -32.5t26.5 -11.5v-79zM212 72q30 0 51.5 5t36 18t23 34.5t11.5 53.5l2 10t1 10l-125 -12q-19 -2 -34 -4.5t-25.5 -8.5t-16 -17.5t-5.5 -30.5q0 -34 18 -46t63 -12zM111 538v100h87v-100h-87zM297 538v100
h87v-100h-87z" />
    <glyph glyph-name="aring" unicode="&#xe5;" horiz-adv-x="495" 
d="M474 -3q-35 0 -58 6t-37.5 16t-21 24t-9.5 30q-17 -49 -51.5 -66t-91.5 -17q-33 0 -64 5.5t-55.5 20.5t-39 41.5t-14.5 69.5q0 48 17.5 74.5t45 39.5t60.5 16.5t63 6.5t60 5.5t60 5.5v43q0 40 -21 56.5t-74 16.5q-26 0 -38 -9q-32 -4 -42 -18t-10 -40h-98q0 78 45 112
t143 34q55 0 92.5 -10.5t60 -30t32 -47.5t9.5 -64v-198q0 -21 10.5 -32.5t26.5 -11.5v-79zM212 72q30 0 51.5 5t36 18t23 34.5t11.5 53.5l2 10t1 10l-125 -12q-19 -2 -34 -4.5t-25.5 -8.5t-16 -17.5t-5.5 -30.5q0 -34 18 -46t63 -12zM247 523q-45 0 -68.5 26t-23.5 64
q0 35 25 61t67 26t67 -26t25 -61q0 -38 -23.5 -64t-68.5 -26zM247 656q-22 0 -33 -12.5t-11 -31.5q0 -17 10.5 -30.5t33.5 -13.5q22 0 32.5 13.5t10.5 30.5q0 19 -11.5 31.5t-31.5 12.5z" />
    <glyph glyph-name="ae" unicode="&#xe6;" horiz-adv-x="744" 
d="M698 136q0 -41 -14 -68.5t-38 -45t-56 -25t-68 -7.5q-63 0 -100 25t-51 92q-15 -69 -55 -93t-111 -24q-35 0 -66 5.5t-55 20.5t-38 41.5t-14 69.5t14 68.5t36 39t49 18.5t53 8l134 14v43q0 40 -19.5 56.5t-65.5 16.5q-48 0 -64 -17.5t-16 -49.5h-98q0 75 41 110.5
t129 35.5q72 0 106.5 -25.5t44.5 -76.5q17 58 54.5 80t97.5 22q89 0 133 -43.5t44 -147.5q0 -16 -1.5 -38.5t-9.5 -42.5h-277q1 -35 7 -59.5t18 -40t31 -22.5t48 -7q37 0 58 13.5t21 53.5h98zM205 72q29 0 49.5 6t34 21t20 40t8.5 63q-26 -2 -51.5 -5t-51.5 -5
q-20 -2 -35.5 -4.5t-26 -8.5t-16 -17t-5.5 -31q0 -34 17 -46.5t57 -12.5zM519 391q-54 0 -76 -26t-25 -94h188v14q0 58 -17 82t-70 24z" />
    <glyph glyph-name="ccedilla" unicode="&#xe7;" horiz-adv-x="463" 
d="M356 -121q0 -45 -34.5 -66.5t-85.5 -21.5q-25 0 -46 4.5t-32 11.5v55q29 -16 70 -16q23 0 36.5 6.5t13.5 23.5q0 20 -18 30t-60 12l8 74q-45 3 -77.5 17.5t-53 43t-30 72t-9.5 105.5q0 67 11.5 112.5t35.5 74t62.5 41t92.5 12.5q44 0 80 -8t62 -25.5t40.5 -45.5t14.5 -67
h-98q0 37 -24 52t-69 15q-33 0 -54 -8t-33.5 -27t-17 -50t-4.5 -76t4.5 -76t17 -50t34 -27t54.5 -8q43 0 67.5 14.5t24.5 52.5h98q0 -37 -12.5 -63.5t-35.5 -44t-54.5 -26.5t-70.5 -11l-3 -34q45 -3 70 -21.5t25 -56.5z" />
    <glyph glyph-name="egrave" unicode="&#xe8;" horiz-adv-x="484" 
d="M438 136q0 -41 -14.5 -68.5t-40 -45t-61 -25t-78.5 -7.5q-54 0 -92.5 12t-64 40t-37.5 74t-12 113q0 69 12.5 115.5t39 74t66.5 39.5t94 12q50 0 86.5 -9.5t60.5 -32t36 -59t12 -90.5q0 -16 -2 -38.5t-9 -42.5h-297q1 -36 7.5 -60.5t19.5 -39.5t34.5 -22t54.5 -7
q39 0 63 13.5t24 53.5h98zM249 391q-30 0 -51 -6t-33.5 -20.5t-19 -37.5t-7.5 -56h207q0 5 0.5 11t0.5 13q0 25 -4 43.5t-15 30t-30 17t-48 5.5zM238 528l-109 136h117l71 -136h-79z" />
    <glyph glyph-name="eacute" unicode="&#xe9;" horiz-adv-x="484" 
d="M438 136q0 -41 -14.5 -68.5t-40 -45t-61 -25t-78.5 -7.5q-54 0 -92.5 12t-64 40t-37.5 74t-12 113q0 69 12.5 115.5t39 74t66.5 39.5t94 12q50 0 86.5 -9.5t60.5 -32t36 -59t12 -90.5q0 -16 -2 -38.5t-9 -42.5h-297q1 -36 7.5 -60.5t19.5 -39.5t34.5 -22t54.5 -7
q39 0 63 13.5t24 53.5h98zM249 391q-30 0 -51 -6t-33.5 -20.5t-19 -37.5t-7.5 -56h207q0 5 0.5 11t0.5 13q0 25 -4 43.5t-15 30t-30 17t-48 5.5zM186 528l70 136h118l-110 -136h-78z" />
    <glyph glyph-name="ecircumflex" unicode="&#xea;" horiz-adv-x="484" 
d="M438 136q0 -41 -14.5 -68.5t-40 -45t-61 -25t-78.5 -7.5q-54 0 -92.5 12t-64 40t-37.5 74t-12 113q0 69 12.5 115.5t39 74t66.5 39.5t94 12q50 0 86.5 -9.5t60.5 -32t36 -59t12 -90.5q0 -16 -2 -38.5t-9 -42.5h-297q1 -36 7.5 -60.5t19.5 -39.5t34.5 -22t54.5 -7
q39 0 63 13.5t24 53.5h98zM249 391q-30 0 -51 -6t-33.5 -20.5t-19 -37.5t-7.5 -56h207q0 5 0.5 11t0.5 13q0 25 -4 43.5t-15 30t-30 17t-48 5.5zM276 663l135 -131h-100l-35 36q-10 10 -16 18t-10 14q-4 7 -7 12h-3q-2 -5 -6 -12q-4 -6 -10 -14t-16 -18l-35 -36h-100
l135 131h68z" />
    <glyph glyph-name="edieresis" unicode="&#xeb;" horiz-adv-x="484" 
d="M438 136q0 -41 -14.5 -68.5t-40 -45t-61 -25t-78.5 -7.5q-54 0 -92.5 12t-64 40t-37.5 74t-12 113q0 69 12.5 115.5t39 74t66.5 39.5t94 12q50 0 86.5 -9.5t60.5 -32t36 -59t12 -90.5q0 -16 -2 -38.5t-9 -42.5h-297q1 -36 7.5 -60.5t19.5 -39.5t34.5 -22t54.5 -7
q39 0 63 13.5t24 53.5h98zM249 391q-30 0 -51 -6t-33.5 -20.5t-19 -37.5t-7.5 -56h207q0 5 0.5 11t0.5 13q0 25 -4 43.5t-15 30t-30 17t-48 5.5zM104 538v100h87v-100h-87zM290 538v100h87v-100h-87z" />
    <glyph glyph-name="igrave" unicode="&#xec;" horiz-adv-x="208" 
d="M55 0v460h99v-460h-99zM81 528l-115 136h129l71 -136h-85z" />
    <glyph glyph-name="iacute" unicode="&#xed;" horiz-adv-x="208" 
d="M55 0v460h99v-460h-99zM45 528l70 136h130l-116 -136h-84z" />
    <glyph glyph-name="icircumflex" unicode="&#xee;" horiz-adv-x="208" 
d="M140 663l135 -131h-100l-35 36q-10 10 -16 18t-10 14q-4 7 -7 12h-3q-2 -5 -6 -12q-4 -6 -10 -14t-16 -18l-35 -36h-100l135 131h68zM55 0v460h99v-460h-99z" />
    <glyph glyph-name="idieresis" unicode="&#xef;" horiz-adv-x="208" 
d="M-31 538v100h87v-100h-87zM155 538v100h87v-100h-87zM55 0v460h99v-460h-99z" />
    <glyph glyph-name="eth" unicode="&#xf0;" horiz-adv-x="518" 
d="M254 635l4 -2t4 -1l36 -13q47 -18 80 -42.5t54 -67t30.5 -109.5t9.5 -170q0 -68 -13 -114t-40 -74t-68 -40t-97 -12t-96.5 12t-66.5 40t-38.5 74t-12.5 114q0 70 12.5 116t36 73.5t58 39t79.5 11.5q30 0 54.5 -5.5t42.5 -20t30.5 -38.5t19.5 -61q-4 53 -12 87.5t-21 56.5
t-30.5 34t-40.5 21l-46 17l-26 -61q-17 6 -33 12.5t-33 13.5l26 61q-16 6 -31.5 11.5t-31.5 12.5q7 17 14.5 35t15.5 35q16 -6 31.5 -12t31.5 -11l23 55q17 -8 33 -14.5t32 -14.5zM253 75q31 0 52.5 7.5t35 25.5t20 48t6.5 74q0 87 -26.5 121t-87.5 34q-62 0 -88 -34
t-26 -121q0 -44 6 -74t19.5 -48t35.5 -25.5t53 -7.5z" />
    <glyph glyph-name="ntilde" unicode="&#xf1;" horiz-adv-x="541" 
d="M68 0v460h77l6 -28t5 -28l8 -20q17 50 51.5 68t91.5 18q49 0 82 -11.5t52 -35.5t27 -62t8 -91v-270h-99v270q0 35 -3.5 58.5t-13.5 37.5t-27 19.5t-44 5.5q-32 0 -55 -8t-37.5 -26.5t-21.5 -47.5t-8 -71v-238h-99zM337 534q-21 0 -39 8t-33 18t-27.5 18t-21.5 8
q-32 0 -32 -53h-62q0 21 2.5 41.5t11 36.5t24.5 26t43 10q20 0 32.5 -5.5t26.5 -14.5l19 -13q13 -9 22.5 -14t20.5 -5q16 0 22 11.5t6 40.5h65q0 -24 -2 -44.5t-10 -35.5t-24 -24t-44 -9z" />
    <glyph glyph-name="ograve" unicode="&#xf2;" horiz-adv-x="502" 
d="M251 -10q-55 0 -95 12t-66.5 40t-39 74t-12.5 114t12.5 114t39 74t66.5 40t95 12t95.5 -12t66.5 -40t38.5 -74t12.5 -114t-12.5 -114t-38.5 -74t-66.5 -40t-95.5 -12zM251 69q31 0 53 8t35.5 27t19.5 50t6 76t-6 76t-19.5 50t-35.5 27t-53 8t-53 -8t-35.5 -27t-19.5 -50
t-6 -76t6 -76t19.5 -50t35.5 -27t53 -8zM251 528l-109 136h117l71 -136h-79z" />
    <glyph glyph-name="oacute" unicode="&#xf3;" horiz-adv-x="502" 
d="M251 -10q-55 0 -95 12t-66.5 40t-39 74t-12.5 114t12.5 114t39 74t66.5 40t95 12t95.5 -12t66.5 -40t38.5 -74t12.5 -114t-12.5 -114t-38.5 -74t-66.5 -40t-95.5 -12zM251 69q31 0 53 8t35.5 27t19.5 50t6 76t-6 76t-19.5 50t-35.5 27t-53 8t-53 -8t-35.5 -27t-19.5 -50
t-6 -76t6 -76t19.5 -50t35.5 -27t53 -8zM194 528l70 136h118l-110 -136h-78z" />
    <glyph glyph-name="ocircumflex" unicode="&#xf4;" horiz-adv-x="502" 
d="M251 -10q-55 0 -95 12t-66.5 40t-39 74t-12.5 114t12.5 114t39 74t66.5 40t95 12t95.5 -12t66.5 -40t38.5 -74t12.5 -114t-12.5 -114t-38.5 -74t-66.5 -40t-95.5 -12zM251 69q31 0 53 8t35.5 27t19.5 50t6 76t-6 76t-19.5 50t-35.5 27t-53 8t-53 -8t-35.5 -27t-19.5 -50
t-6 -76t6 -76t19.5 -50t35.5 -27t53 -8zM285 663l135 -131h-100l-35 36q-10 10 -16 18t-10 14q-4 7 -7 12h-3q-2 -5 -6 -12q-4 -6 -10 -14t-16 -18l-35 -36h-100l135 131h68z" />
    <glyph glyph-name="otilde" unicode="&#xf5;" horiz-adv-x="502" 
d="M251 -10q-55 0 -95 12t-66.5 40t-39 74t-12.5 114t12.5 114t39 74t66.5 40t95 12t95.5 -12t66.5 -40t38.5 -74t12.5 -114t-12.5 -114t-38.5 -74t-66.5 -40t-95.5 -12zM251 69q31 0 53 8t35.5 27t19.5 50t6 76t-6 76t-19.5 50t-35.5 27t-53 8t-53 -8t-35.5 -27t-19.5 -50
t-6 -76t6 -76t19.5 -50t35.5 -27t53 -8zM318 534q-23 0 -37 7.5t-31 18.5q-18 12 -29.5 19t-23.5 7q-32 0 -32 -53h-62q0 21 2.5 41.5t11 36.5t24.5 26t43 10q22 0 36.5 -6.5t29.5 -17.5q18 -13 29.5 -20.5t25.5 -7.5q16 0 22 11.5t6 40.5h65q0 -24 -2 -44.5t-10 -35.5
t-24 -24t-44 -9z" />
    <glyph glyph-name="odieresis" unicode="&#xf6;" horiz-adv-x="502" 
d="M251 -10q-55 0 -95 12t-66.5 40t-39 74t-12.5 114t12.5 114t39 74t66.5 40t95 12t95.5 -12t66.5 -40t38.5 -74t12.5 -114t-12.5 -114t-38.5 -74t-66.5 -40t-95.5 -12zM251 69q31 0 53 8t35.5 27t19.5 50t6 76t-6 76t-19.5 50t-35.5 27t-53 8t-53 -8t-35.5 -27t-19.5 -50
t-6 -76t6 -76t19.5 -50t35.5 -27t53 -8zM114 538v100h87v-100h-87zM300 538v100h87v-100h-87z" />
    <glyph glyph-name="divide" unicode="&#xf7;" horiz-adv-x="589" 
d="M353 108h-117v116h117v-116zM353 438h-117v116h117v-116zM46 294v76h495v-76h-495z" />
    <glyph glyph-name="oslash" unicode="&#xf8;" horiz-adv-x="502" 
d="M15 0l55 66q-16 29 -24 69t-8 95q0 68 12.5 114t39 74t66.5 40t95 12q42 0 75 -7t58 -24l49 59l56 -48l-54 -63q29 -54 29 -157q0 -68 -12.5 -114t-38.5 -74t-66.5 -40t-95.5 -12q-81 0 -127 26l-53 -64zM137 230q0 -45 8 -75l180 214q-13 12 -31 17t-43 5q-31 0 -53 -8
t-35.5 -27t-19.5 -50t-6 -76zM251 69q31 0 53 8t35.5 27t19.5 50t6 76q0 41 -7 65l-175 -209q23 -17 68 -17z" />
    <glyph glyph-name="ugrave" unicode="&#xf9;" horiz-adv-x="537" 
d="M391 0q-5 19 -9.5 38t-9.5 38q-17 -50 -51 -68t-90 -18q-50 0 -83 13.5t-52.5 42t-27.5 74t-8 110.5v230h99v-230q0 -48 3.5 -79t14 -49.5t28 -25.5t46.5 -7q60 0 88 33t30 114v244h99v-460h-77zM237 527l-115 136h129q17 -34 35 -67.5t35 -68.5h-84z" />
    <glyph glyph-name="uacute" unicode="&#xfa;" horiz-adv-x="537" 
d="M391 0q-4 19 -9 38l-10 38q-17 -50 -51 -68t-90 -18q-50 0 -83 13.5t-52.5 42t-27.5 74t-8 110.5v230h99v-230q0 -48 3.5 -79t14 -49.5t28 -25.5t46.5 -7q60 0 88 33t30 114v244h99v-460h-77zM202 527l71 136h129q-29 -34 -57.5 -67.5t-57.5 -68.5h-85z" />
    <glyph glyph-name="ucircumflex" unicode="&#xfb;" horiz-adv-x="537" 
d="M391 0q-5 19 -9.5 38t-9.5 38q-17 -50 -51 -68t-90 -18q-50 0 -83 13.5t-52.5 42t-27.5 74t-8 110.5v230h99v-230q0 -48 3.5 -79t14 -49.5t28 -25.5t46.5 -7q60 0 88 33t30 114v244h99v-460h-77zM302 663l135 -131h-100l-35 36q-10 10 -16 18t-10 14q-4 7 -7 12h-3
q-2 -5 -6 -12q-4 -6 -10 -14t-16 -18l-35 -36h-100l135 131h68z" />
    <glyph glyph-name="udieresis" unicode="&#xfc;" horiz-adv-x="537" 
d="M391 0q-5 19 -9.5 38t-9.5 38q-17 -50 -51 -68t-90 -18q-50 0 -83 13.5t-52.5 42t-27.5 74t-8 110.5v230h99v-230q0 -48 3.5 -79t14 -49.5t28 -25.5t46.5 -7q60 0 88 33t30 114v244h99v-460h-77zM131 538v100h87v-100h-87zM317 538v100h87v-100h-87z" />
    <glyph glyph-name="yacute" unicode="&#xfd;" horiz-adv-x="469" 
d="M70 -155q36 0 65 40.5t50 100.5q-45 119 -89.5 236.5t-89.5 237.5h103q23 -65 46 -132.5t41 -123.5t28.5 -92.5t7.5 -38.5h3q1 -1 2.5 11t5.5 33t12 50.5t23 63.5q20 57 41 114t41 115h103q-48 -125 -95 -248t-95 -248q-41 -106 -89.5 -155t-113.5 -49v85zM161 527
q17 35 35 68.5t35 67.5h129l-115 -136h-84z" />
    <glyph glyph-name="thorn" unicode="&#xfe;" horiz-adv-x="535" 
d="M168 470q0 -21 -2 -42t-3 -42h2q17 48 49.5 66t85.5 18q50 0 87 -13t61.5 -41.5t36.5 -74t12 -111.5t-12 -112t-36.5 -74.5t-61.5 -41t-87 -12.5q-53 0 -85.5 18t-49.5 66h-2q1 -21 3 -42t2 -42v-230h-99v927l99 13v-230zM398 230q0 47 -6.5 78t-20 49.5t-35 26
t-52.5 7.5q-62 0 -89 -35t-27 -122v-12q1 -85 28 -119t88 -34q31 0 52.5 7.5t35 26t20 49.5t6.5 78z" />
    <glyph glyph-name="ydieresis" unicode="&#xff;" horiz-adv-x="469" 
d="M70 -155q36 0 65 40.5t50 100.5q-45 119 -89.5 236.5t-89.5 237.5h103q23 -65 46 -132.5t41 -123.5t28.5 -92.5t7.5 -38.5h3q1 -1 2.5 11t5.5 33t12 50.5t23 63.5q20 57 41 114t41 115h103q-48 -125 -95 -248t-95 -248q-41 -106 -89.5 -155t-113.5 -49v85v0zM101 538v100
h87v-100h-87zM287 538v100h87v-100h-87z" />
    <glyph glyph-name="Amacron" unicode="&#x100;" horiz-adv-x="647" 
d="M535 0l-53 134h-317l-53 -134h-102q67 166 134 330t135 330h91q67 -166 133 -330t134 -330h-102zM198 219h250l-65 163l-23 63q-20 54 -26.5 86.5t-7.5 32.5h-4l-2.5 -12t-8.5 -33.5t-15 -50.5t-23 -63zM154 765v58h339v-58h-339z" />
    <glyph glyph-name="amacron" unicode="&#x101;" horiz-adv-x="495" 
d="M474 -3q-35 0 -58 6t-37.5 16t-21 24t-9.5 30q-17 -49 -51.5 -66t-91.5 -17q-33 0 -64 5.5t-55.5 20.5t-39 41.5t-14.5 69.5q0 48 17.5 74.5t45 39.5t60.5 16.5t63 6.5t60 5.5t60 5.5v43q0 40 -21 56.5t-74 16.5q-26 0 -38 -9q-32 -4 -42 -18t-10 -40h-98q0 78 45 112
t143 34q55 0 92.5 -10.5t60 -30t32 -47.5t9.5 -64v-198q0 -21 10.5 -32.5t26.5 -11.5v-79zM212 72q30 0 51.5 5t36 18t23 34.5t11.5 53.5l2 10t1 10l-125 -12q-19 -2 -34 -4.5t-25.5 -8.5t-16 -17.5t-5.5 -30.5q0 -34 18 -46t63 -12zM78 565v58h339v-58h-339z" />
    <glyph glyph-name="Abreve" unicode="&#x102;" horiz-adv-x="647" 
d="M535 0l-53 134h-317l-53 -134h-102q67 166 134 330t135 330h91q67 -166 133 -330t134 -330h-102zM198 219h250l-65 163l-23 63q-20 54 -26.5 86.5t-7.5 32.5h-4l-2.5 -12t-8.5 -33.5t-15 -50.5t-23 -63zM323 798q73 0 73 48h71q0 -59 -36 -85.5t-108 -26.5t-108 26.5
t-36 85.5h71q0 -48 73 -48z" />
    <glyph glyph-name="abreve" unicode="&#x103;" horiz-adv-x="495" 
d="M474 -3q-35 0 -58 6t-37.5 16t-21 24t-9.5 30q-17 -49 -51.5 -66t-91.5 -17q-33 0 -64 5.5t-55.5 20.5t-39 41.5t-14.5 69.5q0 48 17.5 74.5t45 39.5t60.5 16.5t63 6.5t60 5.5t60 5.5v43q0 40 -21 56.5t-74 16.5q-26 0 -38 -9q-32 -4 -42 -18t-10 -40h-98q0 78 45 112
t143 34q55 0 92.5 -10.5t60 -30t32 -47.5t9.5 -64v-198q0 -21 10.5 -32.5t26.5 -11.5v-79zM212 72q30 0 51.5 5t36 18t23 34.5t11.5 53.5l2 10t1 10l-125 -12q-19 -2 -34 -4.5t-25.5 -8.5t-16 -17.5t-5.5 -30.5q0 -34 18 -46t63 -12zM247 598q73 0 73 48h71q0 -59 -36 -85.5
t-108 -26.5t-108 26.5t-36 85.5h71q0 -48 73 -48z" />
    <glyph glyph-name="Aogonek" unicode="&#x104;" horiz-adv-x="647" 
d="M682 -164q-18 -14 -46 -20t-50 -6q-46 0 -75 22.5t-29 70.5q0 20 6.5 33t17.5 22v4q0 17 8 26.5t19 15.5q-14 32 -26 64.5t-25 65.5h-317l-53 -134h-102q67 166 134 330t135 330h91q67 -166 133 -330t134 -330q-32 -4 -55.5 -23t-23.5 -57q0 -23 11.5 -35.5t37.5 -12.5
q11 0 33 4.5t42 15.5v-56zM198 219h250l-65 163l-23 63q-20 54 -26.5 86.5t-7.5 32.5h-4l-2.5 -12t-8.5 -33.5t-15 -50.5t-23 -63z" />
    <glyph glyph-name="aogonek" unicode="&#x105;" horiz-adv-x="495" 
d="M474 -3q-18 -5 -33 -14t-20 -26q-23 -15 -23 -43q0 -43 47 -43q11 0 33 4.5t42 15.5v-56q-19 -14 -46.5 -20t-49.5 -6q-46 0 -75 23t-29 71q0 42 19.5 68t45.5 40q-18 11 -26 26.5t-11 35.5q-17 -49 -51.5 -66t-91.5 -17q-33 0 -64 5.5t-55.5 20.5t-39 41.5t-14.5 69.5
q0 48 17.5 74.5t45 39.5t60.5 16.5t63 6.5t60 5.5t60 5.5v43q0 39 -21 56t-74 17t-71.5 -16t-18.5 -51h-98q0 78 45 112t143 34q55 0 92.5 -10.5t60 -30t32 -47.5t9.5 -64v-198q0 -21 10.5 -32.5t26.5 -11.5v-79zM212 72q30 0 51.5 5t36 18t23 34.5t11.5 53.5l2 10t1 10
l-125 -12q-19 -2 -34 -4.5t-25.5 -8.5t-16 -17.5t-5.5 -30.5q0 -34 18 -46t63 -12z" />
    <glyph glyph-name="Cacute" unicode="&#x106;" horiz-adv-x="597" 
d="M575 174q0 -56 -21 -91.5t-56 -56t-81 -28.5t-97 -8q-71 0 -123 16t-86 55t-50.5 105t-16.5 165t16.5 164.5t50.5 104.5t86.5 54.5t124.5 15.5q52 0 98.5 -8t80.5 -28.5t54 -56t20 -91.5h-99q0 32 -13 51.5t-34 30t-48.5 14t-57.5 3.5q-48 0 -82.5 -10t-56 -38
t-31.5 -77.5t-10 -128.5t10 -128.5t31.5 -78t55 -39t81.5 -10.5q27 0 55 3t50 13.5t36 30t14 52.5h99zM261 728l70 136h129l-115 -136h-84z" />
    <glyph glyph-name="cacute" unicode="&#x107;" horiz-adv-x="463" 
d="M437 136q0 -40 -14.5 -67.5t-40.5 -45t-62 -25.5t-80 -8q-54 0 -92.5 12.5t-62.5 40.5t-35.5 74t-11.5 113t11.5 112.5t35.5 74t62.5 41t92.5 12.5q44 0 80 -8t62 -25.5t40.5 -45.5t14.5 -67h-98q0 37 -24 52t-69 15q-33 0 -54 -8t-33.5 -27t-17 -50t-4.5 -76t4.5 -76
t17 -50t34 -27t54.5 -8q43 0 67.5 14.5t24.5 52.5h98zM183 528l71 136h129l-115 -136h-85z" />
    <glyph glyph-name="Ccircumflex" unicode="&#x108;" horiz-adv-x="597" 
d="M575 174q0 -56 -21 -91.5t-56 -56t-81 -28.5t-97 -8q-71 0 -123 16t-86 55t-50.5 105t-16.5 165t16.5 164.5t50.5 104.5t86.5 54.5t124.5 15.5q52 0 98.5 -8t80.5 -28.5t54 -56t20 -91.5h-99q0 32 -13 51.5t-34 30t-48.5 14t-57.5 3.5q-48 0 -82.5 -10t-56 -38
t-31.5 -77.5t-10 -128.5t10 -128.5t31.5 -78t55 -39t81.5 -10.5q27 0 55 3t50 13.5t36 30t14 52.5h99zM360 863l135 -131h-100l-35 36q-10 10 -16 18t-10 14q-4 7 -7 12h-3q-2 -5 -6 -12q-4 -6 -10 -14t-16 -18l-35 -36h-100l135 131h68z" />
    <glyph glyph-name="ccircumflex" unicode="&#x109;" horiz-adv-x="463" 
d="M437 136q0 -40 -14.5 -67.5t-40.5 -45t-62 -25.5t-80 -8q-54 0 -92.5 12.5t-62.5 40.5t-35.5 74t-11.5 113t11.5 112.5t35.5 74t62.5 41t92.5 12.5q44 0 80 -8t62 -25.5t40.5 -45.5t14.5 -67h-98q0 37 -24 52t-69 15q-33 0 -54 -8t-33.5 -27t-17 -50t-4.5 -76t4.5 -76
t17 -50t34 -27t54.5 -8q43 0 67.5 14.5t24.5 52.5h98zM283 663l135 -131h-100l-35 36q-10 10 -16 18t-10 14q-4 7 -7 12h-3q-2 -5 -6 -12q-4 -6 -10 -14t-16 -18l-35 -36h-100l135 131h68z" />
    <glyph glyph-name="Cdotaccent" unicode="&#x10a;" horiz-adv-x="597" 
d="M575 174q0 -56 -21 -91.5t-56 -56t-81 -28.5t-97 -8q-71 0 -123 16t-86 55t-50.5 105t-16.5 165t16.5 164.5t50.5 104.5t86.5 54.5t124.5 15.5q52 0 98.5 -8t80.5 -28.5t54 -56t20 -91.5h-99q0 32 -13 51.5t-34 30t-48.5 14t-57.5 3.5q-48 0 -82.5 -10t-56 -38
t-31.5 -77.5t-10 -128.5t10 -128.5t31.5 -78t55 -39t81.5 -10.5q27 0 55 3t50 13.5t36 30t14 52.5h99zM264 738v100h87v-100h-87z" />
    <glyph glyph-name="cdotaccent" unicode="&#x10b;" horiz-adv-x="463" 
d="M437 136q0 -40 -14.5 -67.5t-40.5 -45t-62 -25.5t-80 -8q-54 0 -92.5 12.5t-62.5 40.5t-35.5 74t-11.5 113t11.5 112.5t35.5 74t62.5 41t92.5 12.5q44 0 80 -8t62 -25.5t40.5 -45.5t14.5 -67h-98q0 37 -24 52t-69 15q-33 0 -54 -8t-33.5 -27t-17 -50t-4.5 -76t4.5 -76
t17 -50t34 -27t54.5 -8q43 0 67.5 14.5t24.5 52.5h98zM194 538v100h87v-100h-87z" />
    <glyph glyph-name="Ccaron" unicode="&#x10c;" horiz-adv-x="597" 
d="M575 174q0 -56 -21 -91.5t-56 -56t-81 -28.5t-97 -8q-71 0 -123 16t-86 55t-50.5 105t-16.5 165t16.5 164.5t50.5 104.5t86.5 54.5t124.5 15.5q52 0 98.5 -8t80.5 -28.5t54 -56t20 -91.5h-99q0 32 -13 51.5t-34 30t-48.5 14t-57.5 3.5q-48 0 -82.5 -10t-56 -38
t-31.5 -77.5t-10 -128.5t10 -128.5t31.5 -78t55 -39t81.5 -10.5q27 0 55 3t50 13.5t36 30t14 52.5h99zM291 732l-135 131h100l35 -36q18 -20 26 -32q4 -7 6 -12h3q3 5 7 12q8 12 26 32l35 36h100l-135 -131h-68z" />
    <glyph glyph-name="ccaron" unicode="&#x10d;" horiz-adv-x="463" 
d="M437 136q0 -40 -14.5 -67.5t-40.5 -45t-62 -25.5t-80 -8q-54 0 -92.5 12.5t-62.5 40.5t-35.5 74t-11.5 113t11.5 112.5t35.5 74t62.5 41t92.5 12.5q44 0 80 -8t62 -25.5t40.5 -45.5t14.5 -67h-98q0 37 -24 52t-69 15q-33 0 -54 -8t-33.5 -27t-17 -50t-4.5 -76t4.5 -76
t17 -50t34 -27t54.5 -8q43 0 67.5 14.5t24.5 52.5h98zM212 532l-135 131h100l35 -36q18 -20 26 -32q4 -7 6 -12h3q3 5 7 12q8 12 26 32l35 36h100l-135 -131h-68z" />
    <glyph glyph-name="Dcaron" unicode="&#x10e;" horiz-adv-x="651" 
d="M274 85q61 0 105.5 12.5t73 41t42 75.5t13.5 116t-13.5 116t-42 75.5t-73 41t-105.5 12.5h-94v-490h94zM81 0v660h193q87 0 150 -16.5t103.5 -55t60 -102t19.5 -156.5t-19.5 -156.5t-60 -102t-103.5 -55t-150 -16.5h-193zM291 732l-135 131h100l35 -36q18 -20 26 -32
q4 -7 6 -12h3q3 5 7 12q8 12 26 32l35 36h100l-135 -131h-68z" />
    <glyph glyph-name="dcaron" unicode="&#x10f;" horiz-adv-x="659" 
d="M234 -10q-50 0 -87 12.5t-61 41t-36 74.5t-12 112t12 111.5t36 74t61 41.5t87 13q53 0 85.5 -18.5t49.5 -65.5h3q-2 20 -3.5 41.5t-1.5 42.5v217q25 3 49.5 6t49.5 7v-700h-77q-5 19 -9 38t-9 39q-17 -50 -50 -68.5t-87 -18.5zM251 69q61 0 88 35t28 121v5
q0 89 -27.5 125t-88.5 36q-31 0 -53 -7.5t-35.5 -26t-19.5 -49.5t-6 -78t6 -78t19.5 -49.5t35.5 -26t53 -7.5zM537 513q21 0 35 8.5t14 44.5h-52v94h99v-94q0 -22 -4 -40t-14.5 -31t-29 -20t-48.5 -7v45z" />
    <glyph glyph-name="Dcroat" unicode="&#x110;" horiz-adv-x="651" 
d="M81 0v290h-81v84h81v286h193q87 0 150 -16.5t103.5 -55t60 -102t19.5 -156.5t-19.5 -156.5t-60 -102t-103.5 -55t-150 -16.5h-193zM274 85q61 0 105.5 12.5t73 41t42 75.5t13.5 116t-13.5 116t-42 75.5t-73 41t-105.5 12.5h-94v-201h135v-84h-135v-205h94z" />
    <glyph glyph-name="dcroat" unicode="&#x111;" horiz-adv-x="534" 
d="M466 608h92v-76h-92v-532h-77q-5 19 -9 38t-9 39q-17 -50 -50 -68.5t-87 -18.5q-50 0 -87 12.5t-61 41t-36 74.5t-12 112t12 111.5t36 74t61 41.5t87 13q53 0 85.5 -18.5t49.5 -65.5h3q-2 20 -3.5 41.5t-1.5 42.5v62h-142v76h142v78l99 13v-91zM251 69q61 0 88 35t28 121
v13q0 84 -29 118.5t-87 34.5q-31 0 -53 -7.5t-35.5 -26t-19.5 -49.5t-6 -78t6 -78t19.5 -49.5t35.5 -26t53 -7.5z" />
    <glyph glyph-name="Emacron" unicode="&#x112;" horiz-adv-x="562" 
d="M81 0v660h430v-85h-331v-201h291v-84h-291v-205h331v-85h-430zM111 765v58h339v-58h-339z" />
    <glyph glyph-name="emacron" unicode="&#x113;" horiz-adv-x="484" 
d="M438 136q0 -41 -14.5 -68.5t-40 -45t-61 -25t-78.5 -7.5q-54 0 -92.5 12t-64 40t-37.5 74t-12 113q0 69 12.5 115.5t39 74t66.5 39.5t94 12q50 0 86.5 -9.5t60.5 -32t36 -59t12 -90.5q0 -16 -2 -38.5t-9 -42.5h-297q1 -36 7.5 -60.5t19.5 -39.5t34.5 -22t54.5 -7
q39 0 63 13.5t24 53.5h98zM249 391q-30 0 -51 -6t-33.5 -20.5t-19 -37.5t-7.5 -56h207q0 5 0.5 11t0.5 13q0 25 -4 43.5t-15 30t-30 17t-48 5.5zM72 565v58h339v-58h-339z" />
    <glyph glyph-name="Ebreve" unicode="&#x114;" horiz-adv-x="562" 
d="M81 0v660h430v-85h-331v-201h291v-84h-291v-205h331v-85h-430zM280 798q73 0 73 48h71q0 -59 -36 -85.5t-108 -26.5t-108 26.5t-36 85.5h71q0 -48 73 -48z" />
    <glyph glyph-name="ebreve" unicode="&#x115;" horiz-adv-x="484" 
d="M438 136q0 -41 -14.5 -68.5t-40 -45t-61 -25t-78.5 -7.5q-54 0 -92.5 12t-64 40t-37.5 74t-12 113q0 69 12.5 115.5t39 74t66.5 39.5t94 12q50 0 86.5 -9.5t60.5 -32t36 -59t12 -90.5q0 -16 -2 -38.5t-9 -42.5h-297q1 -36 7.5 -60.5t19.5 -39.5t34.5 -22t54.5 -7
q39 0 63 13.5t24 53.5h98zM249 391q-30 0 -51 -6t-33.5 -20.5t-19 -37.5t-7.5 -56h207q0 5 0.5 11t0.5 13q0 25 -4 43.5t-15 30t-30 17t-48 5.5zM241 598q73 0 73 48h71q0 -59 -36 -85.5t-108 -26.5t-108 26.5t-36 85.5h71q0 -48 73 -48z" />
    <glyph glyph-name="Edotaccent" unicode="&#x116;" horiz-adv-x="562" 
d="M81 0v660h430v-85h-331v-201h291v-84h-291v-205h331v-85h-430zM237 738v100h87v-100h-87z" />
    <glyph glyph-name="edotaccent" unicode="&#x117;" horiz-adv-x="484" 
d="M438 136q0 -41 -14.5 -68.5t-40 -45t-61 -25t-78.5 -7.5q-54 0 -92.5 12t-64 40t-37.5 74t-12 113q0 69 12.5 115.5t39 74t66.5 39.5t94 12q50 0 86.5 -9.5t60.5 -32t36 -59t12 -90.5q0 -16 -2 -38.5t-9 -42.5h-297q1 -36 7.5 -60.5t19.5 -39.5t34.5 -22t54.5 -7
q39 0 63 13.5t24 53.5h98zM249 391q-30 0 -51 -6t-33.5 -20.5t-19 -37.5t-7.5 -56h207q0 5 0.5 11t0.5 13q0 25 -4 43.5t-15 30t-30 17t-48 5.5zM197 538v100h87v-100h-87z" />
    <glyph glyph-name="Eogonek" unicode="&#x118;" horiz-adv-x="562" 
d="M357 -97q0 35 13.5 58t33.5 39h-323v660h430v-85h-331v-201h291v-84h-291v-205h331v-85q-31 -5 -55 -24t-24 -57q0 -22 11.5 -35t38.5 -13q11 0 33 4.5t42 16.5v-56q-19 -14 -46.5 -20t-50.5 -6q-45 0 -74 22.5t-29 70.5z" />
    <glyph glyph-name="eogonek" unicode="&#x119;" horiz-adv-x="484" 
d="M422 -164q-20 -14 -48 -19.5t-51 -5.5q-47 0 -74 23t-27 74q0 27 9.5 47.5t24.5 35.5q-2 0 -5 -0.5t-5 -0.5q-54 0 -93.5 12.5t-65 40.5t-37.5 74t-12 112q0 69 12.5 115.5t39 74t66.5 39.5t94 12q50 0 86.5 -9.5t60.5 -32t36 -59t12 -90.5q0 -16 -2 -38.5t-9 -42.5h-297
q1 -36 7.5 -60.5t19.5 -39.5t34 -22t53 -7q39 0 64 15t25 52h98q0 -37 -12.5 -63.5t-33.5 -43.5q-14 -11 -30.5 -19t-30.5 -18.5t-24 -26.5t-10 -43q0 -24 11 -37t39 -13q11 0 33 4.5t42 15.5v-56zM248 391q-30 0 -50.5 -6t-33 -20t-19 -37t-7.5 -57h207q0 5 0.5 11t0.5 13
q0 51 -19.5 73.5t-78.5 22.5z" />
    <glyph glyph-name="Ecaron" unicode="&#x11a;" horiz-adv-x="562" 
d="M81 0v660h430v-85h-331v-201h291v-84h-291v-205h331v-85h-430zM258 732l-135 131h100l35 -36q18 -20 26 -32q4 -7 6 -12h3q3 5 7 12q8 12 26 32l35 36h100l-135 -131h-68z" />
    <glyph glyph-name="ecaron" unicode="&#x11b;" horiz-adv-x="484" 
d="M438 136q0 -41 -14.5 -68.5t-40 -45t-61 -25t-78.5 -7.5q-54 0 -92.5 12t-64 40t-37.5 74t-12 113q0 69 12.5 115.5t39 74t66.5 39.5t94 12q50 0 86.5 -9.5t60.5 -32t36 -59t12 -90.5q0 -16 -2 -38.5t-9 -42.5h-297q1 -36 7.5 -60.5t19.5 -39.5t34.5 -22t54.5 -7
q39 0 63 13.5t24 53.5h98zM249 391q-30 0 -51 -6t-33.5 -20.5t-19 -37.5t-7.5 -56h207q0 5 0.5 11t0.5 13q0 25 -4 43.5t-15 30t-30 17t-48 5.5zM212 532l-135 131h100l35 -36q18 -20 26 -32q4 -7 6 -12h3q3 5 7 12q8 12 26 32l35 36h100l-135 -131h-68z" />
    <glyph glyph-name="Gcircumflex" unicode="&#x11c;" horiz-adv-x="651" 
d="M506 0l-14 109q-28 -65 -79.5 -92t-122.5 -27q-74 0 -121.5 25.5t-75.5 71t-39 108t-11 137.5q0 97 16.5 162t51 104t87.5 55.5t125 16.5q52 0 98 -8t80 -28.5t53.5 -56.5t19.5 -91h-97q0 31 -12 50t-32.5 30t-48.5 15t-60 4q-51 0 -86 -11.5t-56.5 -40.5t-30.5 -79
t-9 -127q0 -66 7 -113.5t25 -78t49 -45.5t79 -15q78 0 127.5 41.5t60.5 133.5h-156v78h255v-328h-83zM359 863l135 -131h-100l-35 36q-10 10 -16 18t-10 14q-4 7 -7 12h-3q-2 -5 -6 -12q-4 -6 -10 -14t-16 -18l-35 -36h-100l135 131h68z" />
    <glyph glyph-name="gcircumflex" unicode="&#x11d;" horiz-adv-x="515" 
d="M444 290q0 -51 -14.5 -85.5t-40.5 -55.5t-64 -30t-84 -9q-16 0 -30 1t-27 4q-7 -8 -9.5 -17t-2.5 -19q0 -20 16.5 -27.5t52.5 -12.5q33 -5 72.5 -10.5t74 -20.5t57.5 -42t23 -74q0 -64 -53 -100.5t-172 -36.5q-112 0 -165.5 32t-53.5 93q0 42 22.5 72.5t54.5 57.5
q-27 24 -27 62q0 23 9 37.5t26 28.5q-34 20 -52.5 56.5t-18.5 95.5q0 51 14.5 85.5t40.5 55.5t63.5 30t84.5 9q61 0 105.5 -15.5t69.5 -53.5q32 59 99 59v-85q-50 0 -77 -36q6 -21 6 -49zM345 290q0 57 -22.5 79t-81.5 22q-29 0 -49 -5t-32 -17t-17.5 -31.5t-5.5 -47.5
q0 -29 5.5 -48t17.5 -31t32 -17t49 -5q59 0 81.5 22t22.5 79zM241 -39q-20 3 -40.5 7t-38.5 11q-7 -9 -14.5 -17t-13.5 -17t-10 -19.5t-4 -24.5q0 -35 28.5 -51t92.5 -16q56 0 92 14t36 52q0 19 -11 30t-29 16.5t-41 8.5t-47 6zM291 663l135 -131h-100l-35 36q-10 10 -16 18
t-10 14q-4 7 -7 12h-3q-2 -5 -6 -12q-4 -6 -10 -14t-16 -18l-35 -36h-100l135 131h68z" />
    <glyph glyph-name="Gbreve" unicode="&#x11e;" horiz-adv-x="651" 
d="M506 0l-14 109q-28 -65 -79.5 -92t-122.5 -27q-74 0 -121.5 25.5t-75.5 71t-39 108t-11 137.5q0 97 16.5 162t51 104t87.5 55.5t125 16.5q52 0 98 -8t80 -28.5t53.5 -56.5t19.5 -91h-97q0 31 -12 50t-32.5 30t-48.5 15t-60 4q-51 0 -86 -11.5t-56.5 -40.5t-30.5 -79
t-9 -127q0 -66 7 -113.5t25 -78t49 -45.5t79 -15q78 0 127.5 41.5t60.5 133.5h-156v78h255v-328h-83zM325 798q73 0 73 48h71q0 -59 -36 -85.5t-108 -26.5t-108 26.5t-36 85.5h71q0 -48 73 -48z" />
    <glyph glyph-name="gbreve" unicode="&#x11f;" horiz-adv-x="515" 
d="M444 290q0 -51 -14.5 -85.5t-40.5 -55.5t-64 -30t-84 -9q-16 0 -30 1t-27 4q-7 -8 -9.5 -17t-2.5 -19q0 -20 16.5 -27.5t52.5 -12.5q33 -5 72.5 -10.5t74 -20.5t57.5 -42t23 -74q0 -64 -53 -100.5t-172 -36.5q-112 0 -165.5 32t-53.5 93q0 42 22.5 72.5t54.5 57.5
q-27 24 -27 62q0 23 9 37.5t26 28.5q-34 20 -52.5 56.5t-18.5 95.5q0 51 14.5 85.5t40.5 55.5t63.5 30t84.5 9q61 0 105.5 -15.5t69.5 -53.5q32 59 99 59v-85q-50 0 -77 -36q6 -21 6 -49zM345 290q0 57 -22.5 79t-81.5 22q-29 0 -49 -5t-32 -17t-17.5 -31.5t-5.5 -47.5
q0 -29 5.5 -48t17.5 -31t32 -17t49 -5q59 0 81.5 22t22.5 79zM241 -39q-20 3 -40.5 7t-38.5 11q-7 -9 -14.5 -17t-13.5 -17t-10 -19.5t-4 -24.5q0 -35 28.5 -51t92.5 -16q56 0 92 14t36 52q0 19 -11 30t-29 16.5t-41 8.5t-47 6zM257 598q73 0 73 48h71q0 -59 -36 -85.5
t-108 -26.5t-108 26.5t-36 85.5h71q0 -48 73 -48z" />
    <glyph glyph-name="Gdotaccent" unicode="&#x120;" horiz-adv-x="651" 
d="M506 0l-14 109q-28 -65 -79.5 -92t-122.5 -27q-74 0 -121.5 25.5t-75.5 71t-39 108t-11 137.5q0 97 16.5 162t51 104t87.5 55.5t125 16.5q52 0 98 -8t80 -28.5t53.5 -56.5t19.5 -91h-97q0 31 -12 50t-32.5 30t-48.5 15t-60 4q-51 0 -86 -11.5t-56.5 -40.5t-30.5 -79
t-9 -127q0 -66 7 -113.5t25 -78t49 -45.5t79 -15q78 0 127.5 41.5t60.5 133.5h-156v78h255v-328h-83zM281 738v100h87v-100h-87z" />
    <glyph glyph-name="gdotaccent" unicode="&#x121;" horiz-adv-x="515" 
d="M444 290q0 -51 -14.5 -85.5t-40.5 -55.5t-64 -30t-84 -9q-16 0 -30 1t-27 4q-7 -8 -9.5 -17t-2.5 -19q0 -20 16.5 -27.5t52.5 -12.5q33 -5 72.5 -10.5t74 -20.5t57.5 -42t23 -74q0 -64 -53 -100.5t-172 -36.5q-112 0 -165.5 32t-53.5 93q0 42 22.5 72.5t54.5 57.5
q-27 24 -27 62q0 23 9 37.5t26 28.5q-34 20 -52.5 56.5t-18.5 95.5q0 51 14.5 85.5t40.5 55.5t63.5 30t84.5 9q61 0 105.5 -15.5t69.5 -53.5q32 59 99 59v-85q-50 0 -77 -36q6 -21 6 -49zM345 290q0 57 -22.5 79t-81.5 22q-29 0 -49 -5t-32 -17t-17.5 -31.5t-5.5 -47.5
q0 -29 5.5 -48t17.5 -31t32 -17t49 -5q59 0 81.5 22t22.5 79zM241 -39q-20 3 -40.5 7t-38.5 11q-7 -9 -14.5 -17t-13.5 -17t-10 -19.5t-4 -24.5q0 -35 28.5 -51t92.5 -16q56 0 92 14t36 52q0 19 -11 30t-29 16.5t-41 8.5t-47 6zM213 538v100h87v-100h-87z" />
    <glyph glyph-name="Gcommaaccent" unicode="&#x122;" horiz-adv-x="651" 
d="M506 0l-14 109q-28 -65 -79.5 -92t-122.5 -27q-74 0 -121.5 25.5t-75.5 71t-39 108t-11 137.5q0 97 16.5 162t51 104t87.5 55.5t125 16.5q52 0 98 -8t80 -28.5t53.5 -56.5t19.5 -91h-97q0 31 -12 50t-32.5 30t-48.5 15t-60 4q-51 0 -86 -11.5t-56.5 -40.5t-30.5 -79
t-9 -127q0 -66 7 -113.5t25 -78t49 -45.5t79 -15q78 0 127.5 41.5t60.5 133.5h-156v78h255v-328h-83zM279 -225q21 0 35 8.5t14 44.5h-52v94h99v-94q0 -22 -4 -40t-14.5 -31t-29 -20t-48.5 -7v45z" />
    <glyph glyph-name="gcommaaccent" unicode="&#x123;" horiz-adv-x="515" 
d="M444 290q0 -51 -14.5 -85.5t-40.5 -55.5t-64 -30t-84 -9q-16 0 -30 1t-27 4q-7 -8 -9.5 -17t-2.5 -19q0 -20 16.5 -27.5t52.5 -12.5q33 -5 72.5 -10.5t74 -20.5t57.5 -42t23 -74q0 -64 -53 -100.5t-172 -36.5q-112 0 -165.5 32t-53.5 93q0 42 22.5 72.5t54.5 57.5
q-27 24 -27 62q0 23 9 37.5t26 28.5q-34 20 -52.5 56.5t-18.5 95.5q0 51 14.5 85.5t40.5 55.5t63.5 30t84.5 9q61 0 105.5 -15.5t69.5 -53.5q32 59 99 59v-85q-50 0 -77 -36q6 -21 6 -49zM345 290q0 57 -22.5 79t-81.5 22q-29 0 -49 -5t-32 -17t-17.5 -31.5t-5.5 -47.5
q0 -29 5.5 -48t17.5 -31t32 -17t49 -5q59 0 81.5 22t22.5 79zM241 -39q-20 3 -40.5 7t-38.5 11q-7 -9 -14.5 -17t-13.5 -17t-10 -19.5t-4 -24.5q0 -35 28.5 -51t92.5 -16q56 0 92 14t36 52q0 19 -11 30t-29 16.5t-41 8.5t-47 6zM287 685q-21 0 -35 -8t-14 -44h52v-94h-99v94
q0 22 3.5 39.5t14 30.5t29.5 20t49 7v-45z" />
    <glyph glyph-name="Hcircumflex" unicode="&#x124;" horiz-adv-x="683" 
d="M503 0v290h-323v-290h-99v660h99v-286h323v286h99v-660h-99zM375 863l135 -131h-100l-35 36q-10 10 -16 18t-10 14q-4 7 -7 12h-3q-2 -5 -6 -12q-4 -6 -10 -14t-16 -18l-35 -36h-100l135 131h68z" />
    <glyph glyph-name="hcircumflex" unicode="&#x125;" horiz-adv-x="540" 
d="M68 0v687q25 3 49.5 6t49.5 7v-230q0 -21 -1.5 -42.5t-3.5 -41.5h2q17 48 50.5 66t87.5 18q88 0 131 -45.5t43 -154.5v-270h-99v270q0 70 -22.5 95.5t-69.5 25.5q-62 0 -90 -35t-28 -122v-234h-99zM398 663l135 -131h-100l-35 36q-10 10 -16 18t-10 14q-4 7 -7 12h-3
q-2 -5 -6 -12q-4 -6 -10 -14t-16 -18l-35 -36h-100l135 131h68z" />
    <glyph glyph-name="Hbar" unicode="&#x126;" horiz-adv-x="683" 
d="M503 0v290h-323v-290h-99v509h-77v64h77v87h99v-87h323v87h99v-87h77v-64h-77v-509h-99zM503 374v135h-323v-135h323z" />
    <glyph glyph-name="hbar" unicode="&#x127;" horiz-adv-x="540" 
d="M168 532v-62q0 -21 -2 -42t-3 -42h2q17 48 49.5 66t85.5 18q45 0 78 -13t55 -41.5t33 -74t11 -111.5v-230h-99v230q0 47 -5 78t-16.5 49.5t-29.5 26t-43 7.5q-60 0 -87 -33t-29 -115v-243h-99v532h-92v76h92v79l99 13v-92h142v-76h-142z" />
    <glyph glyph-name="Itilde" unicode="&#x128;" horiz-adv-x="261" 
d="M81 0v660h99v-660h-99zM198 734q-23 0 -37 7.5t-31 18.5q-18 12 -29.5 19t-24.5 7q-31 0 -31 -53h-62q0 21 2.5 41.5t11 36.5t24.5 26t43 10q22 0 36 -6.5t30 -17.5q18 -13 29.5 -20.5t25.5 -7.5q16 0 22 11.5t6 40.5h65q0 -24 -2 -44.5t-10 -35.5t-24 -24t-44 -9z" />
    <glyph glyph-name="itilde" unicode="&#x129;" horiz-adv-x="208" 
d="M55 0v460h99v-460h-99zM172 534q-23 0 -37 7.5t-31 18.5q-18 12 -29.5 19t-24.5 7q-31 0 -31 -53h-62q0 21 2.5 41.5t10.5 36.5t24 26t43 10q23 0 37 -6.5t30 -17.5q17 -13 29 -20.5t26 -7.5q15 0 21.5 11.5t6.5 40.5h65q0 -24 -2 -44.5t-10 -35.5t-24 -24t-44 -9z" />
    <glyph glyph-name="Imacron" unicode="&#x12a;" horiz-adv-x="261" 
d="M81 0v660h99v-660h-99zM-38 765v58h339v-58h-339z" />
    <glyph glyph-name="imacron" unicode="&#x12b;" horiz-adv-x="208" 
d="M-64 565v58h339v-58h-339zM55 0v460h99v-460h-99z" />
    <glyph glyph-name="Ibreve" unicode="&#x12c;" horiz-adv-x="261" 
d="M81 0v660h99v-660h-99zM132 798q73 0 73 48h71q0 -59 -36 -85.5t-108 -26.5t-108 26.5t-36 85.5h71q0 -48 73 -48z" />
    <glyph glyph-name="ibreve" unicode="&#x12d;" horiz-adv-x="208" 
d="M104 598q73 0 73 48h71q0 -59 -36 -85.5t-108 -26.5q-71 0 -107.5 26.5t-36.5 85.5h71q0 -48 73 -48zM55 0v460h99v-460h-99z" />
    <glyph glyph-name="Iogonek" unicode="&#x12e;" horiz-adv-x="261" 
d="M198 -164q-19 -14 -46.5 -20t-50.5 -6q-45 0 -74 22.5t-29 70.5q0 25 7 44t19 33t27 24t30 17v639h99v-660q-19 -2 -38 -6t-34.5 -12t-25 -23t-9.5 -39q0 -23 11.5 -35.5t38.5 -12.5q11 0 33 4.5t42 15.5v-56z" />
    <glyph glyph-name="iogonek" unicode="&#x12f;" horiz-adv-x="208" 
d="M196 -164q-19 -14 -46.5 -20t-49.5 -6q-46 0 -74.5 22.5t-28.5 70.5q0 39 17.5 64t40.5 39v454h99v-460q-16 -4 -31 -9.5t-26.5 -14.5t-18.5 -22.5t-7 -33.5q0 -23 11.5 -35.5t38.5 -12.5q11 0 33 4.5t42 15.5v-56zM55 566v94h99v-94h-99z" />
    <glyph glyph-name="Idotaccent" unicode="&#x130;" horiz-adv-x="261" 
d="M81 0v660h99v-660h-99zM87 738v100h87v-100h-87z" />
    <glyph glyph-name="dotlessi" unicode="&#x131;" horiz-adv-x="208" 
d="M55 0v460h99v-460h-99z" />
    <glyph glyph-name="IJ" unicode="&#x132;" horiz-adv-x="740" 
d="M81 0v660h99v-660h-99zM578 660h99v-486q0 -88 -49 -136t-158 -48q-104 0 -154.5 43.5t-50.5 140.5h95q0 -53 26.5 -77.5t84.5 -24.5q50 0 78.5 21t28.5 81v486z" />
    <glyph glyph-name="ij" unicode="&#x133;" horiz-adv-x="451" 
d="M55 0v460h99v-460h-99zM55 566v94h99v-94h-99zM379 -93q0 -29 -7 -55.5t-23.5 -47t-45.5 -32.5t-72 -12v82q21 0 35 13t14 46v559h99v-553zM280 566v94h99v-94h-99z" />
    <glyph glyph-name="Jcircumflex" unicode="&#x134;" horiz-adv-x="479" 
d="M317 660h99v-486q0 -88 -49 -136t-158 -48q-104 0 -154.5 43.5t-50.5 140.5h95q0 -53 26.5 -77.5t84.5 -24.5q50 0 78.5 21t28.5 81v486zM402 863l135 -131h-100l-35 36q-10 10 -16 18t-10 14q-4 7 -7 12h-3q-2 -5 -6 -12q-4 -6 -10 -14t-16 -18l-35 -36h-100l135 131h68
z" />
    <glyph glyph-name="jcircumflex" unicode="&#x135;" horiz-adv-x="243" 
d="M157 663l135 -131h-100l-35 36q-10 10 -16 18t-10 14q-4 7 -7 12h-3q-2 -5 -6 -12q-4 -6 -10 -14t-16 -18l-35 -36h-100l135 131h68zM171 -93q0 -29 -7 -55.5t-23.5 -47t-45.5 -32.5t-72 -12v82q21 0 35 13t14 46v559h99v-553z" />
    <glyph glyph-name="Kcommaaccent" unicode="&#x136;" horiz-adv-x="604" 
d="M81 0v660h99v-286h114l185 286h107l-210 -326l215 -334h-107l-187 290h-117v-290h-99zM256 -225q21 0 35 8.5t14 44.5h-52v94h99v-94q0 -22 -4 -40t-14.5 -31t-29 -20t-48.5 -7v45z" />
    <glyph glyph-name="kcommaaccent" unicode="&#x137;" horiz-adv-x="487" 
d="M69 0v687l99 13v-429h70l123 189h107l-146 -226l151 -234h-107l-123 189h-75v-189h-99zM194 -225q21 0 35 8.5t14 44.5h-52v94h99v-94q0 -22 -4 -40t-14.5 -31t-29 -20t-48.5 -7v45z" />
    <glyph glyph-name="kgreenlandic" unicode="&#x138;" horiz-adv-x="487" 
d="M69 0v460h99v-189h70l123 189h107l-146 -226l151 -234h-107l-123 189h-75v-189h-99z" />
    <glyph glyph-name="Lacute" unicode="&#x139;" horiz-adv-x="525" 
d="M81 0v660h99v-575h319v-85h-418zM91 728l70 136h130l-116 -136h-84z" />
    <glyph glyph-name="lacute" unicode="&#x13a;" horiz-adv-x="234" 
d="M208 0q-43 0 -71.5 12t-45.5 32.5t-24 47t-7 55.5v540l99 13v-553q0 -36 14 -50.5t35 -14.5v-82zM70 768l70 136h130l-116 -136h-84z" />
    <glyph glyph-name="Lcommaaccent" unicode="&#x13b;" horiz-adv-x="525" 
d="M81 0v660h99v-575h319v-85h-418zM216 -225q21 0 35 8.5t14 44.5h-52v94h99v-94q0 -22 -4 -40t-14.5 -31t-29 -20t-48.5 -7v45z" />
    <glyph glyph-name="lcommaaccent" unicode="&#x13c;" horiz-adv-x="234" 
d="M208 0q-43 0 -71.5 12t-45.5 32.5t-24 47t-7 55.5v540l99 13v-553q0 -36 14 -50.5t35 -14.5v-82zM90 -225q21 0 35 8.5t14 44.5h-52v94h99v-94q0 -22 -4 -40t-14.5 -31t-29 -20t-48.5 -7v45z" />
    <glyph glyph-name="Lcaron" unicode="&#x13d;" horiz-adv-x="525" 
d="M81 0v660h99v-575h319v-85h-418zM339 513q21 0 35 8.5t14 44.5h-52v94h99v-94q0 -22 -4 -40t-14.5 -31t-29 -20t-48.5 -7v45z" />
    <glyph glyph-name="lcaron" unicode="&#x13e;" horiz-adv-x="363" 
d="M208 0q-43 0 -71.5 12t-45.5 32.5t-24 47t-7 55.5v540l99 13v-553q0 -36 14 -50.5t35 -14.5v-82zM241 513q21 0 35 8.5t14 44.5h-52v94h99v-94q0 -22 -4 -40t-14.5 -31t-29 -20t-48.5 -7v45z" />
    <glyph glyph-name="Ldot" unicode="&#x13f;" horiz-adv-x="525" 
d="M81 0v660h99v-575h319v-85h-418zM349 314v100h87v-100h-87z" />
    <glyph glyph-name="ldot" unicode="&#x140;" horiz-adv-x="375" 
d="M208 0q-43 0 -71.5 12t-45.5 32.5t-24 47t-7 55.5v540l99 13v-553q0 -36 14 -50.5t35 -14.5v-82zM234 314v100h87v-100h-87z" />
    <glyph glyph-name="Lslash" unicode="&#x141;" horiz-adv-x="525" 
d="M81 0v238l-62 -24v71l62 24v351h99v-314l145 57v-73l-145 -56v-189h319v-85h-418z" />
    <glyph glyph-name="lslash" unicode="&#x142;" horiz-adv-x="239" 
d="M208 0q-43 0 -71.5 12t-45.5 32.5t-24 47t-7 55.5v142l-52 -26v77l52 26v321l99 13v-285l90 46v-77l-90 -46v-191q0 -36 14 -50.5t35 -14.5v-82z" />
    <glyph glyph-name="Nacute" unicode="&#x143;" horiz-adv-x="683" 
d="M503 660h99v-660h-118l-229 392q-18 30 -32 56l-24.5 45.5t-17 31.5t-7.5 14h-3q2 -18 4 -37q2 -17 3.5 -37.5t1.5 -42.5v-422h-99v660h117q58 -99 115 -196.5t114 -196.5l46 -84q14 -26 25 -45t10 -19h3q-2 18 -4 37q-2 17 -3 37.5t-1 42.5v424zM280 727l71 136h129
q-29 -34 -57.5 -67.5t-57.5 -68.5h-85z" />
    <glyph glyph-name="nacute" unicode="&#x144;" horiz-adv-x="541" 
d="M68 0v460h77l6 -28t5 -28l8 -20q17 50 51.5 68t91.5 18q49 0 82 -11.5t52 -35.5t27 -62t8 -91v-270h-99v270q0 35 -3.5 58.5t-13.5 37.5t-27 19.5t-44 5.5q-32 0 -55 -8t-37.5 -26.5t-21.5 -47.5t-8 -71v-238h-99zM199 527q17 35 35 68.5t35 67.5h129l-115 -136h-84z" />
    <glyph glyph-name="Ncommaaccent" unicode="&#x145;" horiz-adv-x="683" 
d="M503 660h99v-660h-118l-229 392q-18 30 -32 56l-24.5 45.5t-17 31.5t-7.5 14h-3q2 -18 4 -37q2 -17 3.5 -37.5t1.5 -42.5v-422h-99v660h117q58 -99 115 -196.5t114 -196.5l46 -84q14 -26 25 -45t10 -19h3q-2 18 -4 37q-2 17 -3 37.5t-1 42.5v424zM295 -225q21 0 35 8.5
t14 44.5h-52v94h99v-94q0 -22 -4 -40t-14.5 -31t-29 -20t-48.5 -7v45z" />
    <glyph glyph-name="ncommaaccent" unicode="&#x146;" horiz-adv-x="541" 
d="M68 0v460h77l6 -28t5 -28l8 -20q17 50 51.5 68t91.5 18q49 0 82 -11.5t52 -35.5t27 -62t8 -91v-270h-99v270q0 35 -3.5 58.5t-13.5 37.5t-27 19.5t-44 5.5q-32 0 -55 -8t-37.5 -26.5t-21.5 -47.5t-8 -71v-238h-99zM224 -225q21 0 35 8.5t14 44.5h-52v94h99v-94
q0 -22 -4 -40t-14.5 -31t-29 -20t-48.5 -7v45z" />
    <glyph glyph-name="Ncaron" unicode="&#x147;" horiz-adv-x="683" 
d="M503 660h99v-660h-118l-229 392q-18 30 -32 56l-24.5 45.5t-17 31.5t-7.5 14h-3q2 -18 4 -37q2 -17 3.5 -37.5t1.5 -42.5v-422h-99v660h117q58 -99 115 -196.5t114 -196.5l46 -84q14 -26 25 -45t10 -19h3q-2 18 -4 37q-2 17 -3 37.5t-1 42.5v424zM307 732l-135 131h100
l35 -36q18 -20 26 -32q4 -7 6 -12h3q3 5 7 12q8 12 26 32l35 36h100l-135 -131h-68z" />
    <glyph glyph-name="ncaron" unicode="&#x148;" horiz-adv-x="541" 
d="M68 0v460h77l6 -28t5 -28l8 -20q17 50 51.5 68t91.5 18q49 0 82 -11.5t52 -35.5t27 -62t8 -91v-270h-99v270q0 35 -3.5 58.5t-13.5 37.5t-27 19.5t-44 5.5q-32 0 -55 -8t-37.5 -26.5t-21.5 -47.5t-8 -71v-238h-99zM236 532l-135 131h100l35 -36q18 -20 26 -32q4 -7 6 -12
h3q3 5 7 12q8 12 26 32l35 36h100l-135 -131h-68z" />
    <glyph glyph-name="napostrophe" unicode="&#x149;" horiz-adv-x="541" 
d="M68 0v460h77l6 -28t5 -28l8 -20q17 50 51.5 68t91.5 18q49 0 82 -11.5t52 -35.5t27 -62t8 -91v-270h-99v270q0 35 -3.5 58.5t-13.5 37.5t-27 19.5t-44 5.5q-32 0 -55 -8t-37.5 -26.5t-21.5 -47.5t-8 -71v-238h-99zM73 595q21 0 35 8.5t14 44.5h-52v94h99v-94
q0 -22 -4 -40t-14.5 -31t-29 -20t-48.5 -7v45z" />
    <glyph glyph-name="Eng" unicode="&#x14a;" horiz-adv-x="683" 
d="M483 2l-231 393q-17 30 -30.5 55.5t-24 44.5t-16.5 30.5t-7 13.5h-3q2 -18 4 -37q2 -17 3.5 -37.5t1.5 -42.5v-422h-99v660h117q58 -100 116 -198.5t116 -198.5l43 -80q8 -13 14 -24.5t11 -20.5q5 -11 10 -19h3q-2 18 -4 37q-2 17 -3 37.5t-1 42.5v424h99v-715
q0 -89 -49.5 -137t-157.5 -48v82q47 0 76 20t31 73z" />
    <glyph glyph-name="eng" unicode="&#x14b;" horiz-adv-x="541" 
d="M68 0v460h77l6 -28t5 -28l8 -21q16 50 50.5 68.5t90.5 18.5q50 0 83 -13.5t52.5 -42.5t27.5 -74.5t8 -109.5v-299q0 -31 -5.5 -61.5t-21 -55t-44.5 -39.5t-77 -15v82q21 0 35 13t14 46v329q0 49 -4 80t-14.5 49t-28.5 25t-45 7q-62 0 -90 -35t-28 -122v-234h-99z" />
    <glyph glyph-name="Omacron" unicode="&#x14c;" horiz-adv-x="674" 
d="M337 -10q-77 0 -132 17t-91 56.5t-53 105t-17 161.5t17 161.5t53 105t91 56.5t132 17q76 0 131.5 -17t91.5 -56.5t53 -105t17 -161.5t-17 -161.5t-53 -105t-91.5 -56.5t-131.5 -17zM337 75q51 0 87.5 13t60 42.5t35 78.5t11.5 121t-11.5 121t-35 78.5t-60 42.5t-87.5 13
t-87.5 -13t-60 -42.5t-35 -78.5t-11.5 -121t11.5 -121t35 -78.5t60 -42.5t87.5 -13zM167 765v58h339v-58h-339z" />
    <glyph glyph-name="omacron" unicode="&#x14d;" horiz-adv-x="502" 
d="M251 -10q-55 0 -95 12t-66.5 40t-39 74t-12.5 114t12.5 114t39 74t66.5 40t95 12t95.5 -12t66.5 -40t38.5 -74t12.5 -114t-12.5 -114t-38.5 -74t-66.5 -40t-95.5 -12zM251 69q31 0 53 8t35.5 27t19.5 50t6 76t-6 76t-19.5 50t-35.5 27t-53 8t-53 -8t-35.5 -27t-19.5 -50
t-6 -76t6 -76t19.5 -50t35.5 -27t53 -8zM81 565v58h339v-58h-339z" />
    <glyph glyph-name="Obreve" unicode="&#x14e;" horiz-adv-x="674" 
d="M337 -10q-77 0 -132 17t-91 56.5t-53 105t-17 161.5t17 161.5t53 105t91 56.5t132 17q76 0 131.5 -17t91.5 -56.5t53 -105t17 -161.5t-17 -161.5t-53 -105t-91.5 -56.5t-131.5 -17zM337 75q51 0 87.5 13t60 42.5t35 78.5t11.5 121t-11.5 121t-35 78.5t-60 42.5t-87.5 13
t-87.5 -13t-60 -42.5t-35 -78.5t-11.5 -121t11.5 -121t35 -78.5t60 -42.5t87.5 -13zM336 798q73 0 73 48h71q0 -59 -36 -85.5t-108 -26.5t-108 26.5t-36 85.5h71q0 -48 73 -48z" />
    <glyph glyph-name="obreve" unicode="&#x14f;" horiz-adv-x="502" 
d="M251 -10q-55 0 -95 12t-66.5 40t-39 74t-12.5 114t12.5 114t39 74t66.5 40t95 12t95.5 -12t66.5 -40t38.5 -74t12.5 -114t-12.5 -114t-38.5 -74t-66.5 -40t-95.5 -12zM251 69q31 0 53 8t35.5 27t19.5 50t6 76t-6 76t-19.5 50t-35.5 27t-53 8t-53 -8t-35.5 -27t-19.5 -50
t-6 -76t6 -76t19.5 -50t35.5 -27t53 -8zM251 598q73 0 73 48h71q0 -59 -36 -85.5t-108 -26.5t-108 26.5t-36 85.5h71q0 -48 73 -48z" />
    <glyph glyph-name="Ohungarumlaut" unicode="&#x150;" horiz-adv-x="674" 
d="M337 -10q-77 0 -132 17t-91 56.5t-53 105t-17 161.5t17 161.5t53 105t91 56.5t132 17q76 0 131.5 -17t91.5 -56.5t53 -105t17 -161.5t-17 -161.5t-53 -105t-91.5 -56.5t-131.5 -17zM337 75q51 0 87.5 13t60 42.5t35 78.5t11.5 121t-11.5 121t-35 78.5t-60 42.5t-87.5 13
t-87.5 -13t-60 -42.5t-35 -78.5t-11.5 -121t11.5 -121t35 -78.5t60 -42.5t87.5 -13zM212 728l57 136h106l-97 -136h-66zM360 728l71 136h111l-110 -136h-72z" />
    <glyph glyph-name="ohungarumlaut" unicode="&#x151;" horiz-adv-x="502" 
d="M251 -10q-55 0 -95 12t-66.5 40t-39 74t-12.5 114t12.5 114t39 74t66.5 40t95 12t95.5 -12t66.5 -40t38.5 -74t12.5 -114t-12.5 -114t-38.5 -74t-66.5 -40t-95.5 -12zM251 69q31 0 53 8t35.5 27t19.5 50t6 76t-6 76t-19.5 50t-35.5 27t-53 8t-53 -8t-35.5 -27t-19.5 -50
t-6 -76t6 -76t19.5 -50t35.5 -27t53 -8zM126 528l58 136h105l-96 -136h-67zM275 528l70 136h111l-109 -136h-72z" />
    <glyph glyph-name="OE" unicode="&#x152;" horiz-adv-x="892" 
d="M311 -10q-70 0 -120.5 17t-83 56.5t-48 105t-15.5 161.5t15.5 161.5t48 105t83 56.5t120.5 17q56 0 96 -10h433v-85h-316q47 -63 53 -201h223v-84h-223q-4 -142 -53 -205h316v-85h-433q-40 -10 -96 -10zM311 75q43 0 75 13t52.5 42.5t30.5 78.5t10 121t-10 121
t-30.5 78.5t-52.5 42.5t-75 13q-44 0 -75.5 -13t-52 -42.5t-30.5 -78.5t-10 -121t10 -121t30.5 -78.5t52 -42.5t75.5 -13z" />
    <glyph glyph-name="oe" unicode="&#x153;" horiz-adv-x="732" 
d="M226 -10q-48 0 -83.5 12t-59 40.5t-34.5 74t-11 113.5q0 67 11 113t34.5 74t59 40.5t83.5 12.5q57 0 93 -18.5t56 -63.5q20 45 56 63.5t91 18.5q86 0 128 -43t42 -148q0 -16 -1.5 -38.5t-9.5 -42.5h-257q2 -71 22 -100t72 -29q32 0 50.5 13t18.5 54h98q0 -40 -13 -68
t-35.5 -45t-53.5 -25t-67 -8q-54 0 -88 17.5t-54 62.5q-19 -45 -55.5 -62.5t-92.5 -17.5zM231 69q26 0 44 8t29 26.5t16 49.5t5 77q0 45 -5 76t-16 50t-29 27t-44 8t-44 -8t-29 -27t-16 -50t-5 -76q0 -46 5 -77t16 -49.5t29 -26.5t44 -8zM516 391q-24 0 -41 -6t-27.5 -20
t-16 -37t-6.5 -57h168v16q0 57 -15.5 80.5t-61.5 23.5z" />
    <glyph glyph-name="Racute" unicode="&#x154;" horiz-adv-x="620" 
d="M475 0l-140 218h-155v-218h-99v660h256q59 0 102.5 -11t72 -36.5t42 -67t13.5 -101.5q0 -95 -31 -145.5t-96 -68.5q38 -58 74.5 -115.5t74.5 -114.5h-114zM331 303q37 0 63 7t42.5 23.5t24 43.5t7.5 67q0 73 -32 102t-105 29h-151v-272h151zM229 727l71 136h129
q-29 -34 -57.5 -67.5t-57.5 -68.5h-85z" />
    <glyph glyph-name="racute" unicode="&#x155;" horiz-adv-x="314" 
d="M68 0v460h83l10 -60l6 -27q16 53 49 73t89 20v-79q-71 0 -103.5 -33.5t-34.5 -115.5v-238h-99zM135 527l71 136h129q-29 -34 -57.5 -67.5t-57.5 -68.5h-85z" />
    <glyph glyph-name="Rcommaaccent" unicode="&#x156;" horiz-adv-x="620" 
d="M475 0l-140 218h-155v-218h-99v660h256q59 0 102.5 -11t72 -36.5t42 -67t13.5 -101.5q0 -95 -31 -145.5t-96 -68.5q38 -58 74.5 -115.5t74.5 -114.5h-114zM331 303q37 0 63 7t42.5 23.5t24 43.5t7.5 67q0 73 -32 102t-105 29h-151v-272h151zM263 -225q21 0 35 8.5
t14 44.5h-52v94h99v-94q0 -22 -4 -40t-14.5 -31t-29 -20t-48.5 -7v45z" />
    <glyph glyph-name="rcommaaccent" unicode="&#x157;" horiz-adv-x="312" 
d="M60 0v460h83l10 -60q2 -7 3 -14t3 -13q16 53 49 73t88 20v-79q-70 0 -102.5 -33.5t-34.5 -115.5v-238h-99zM64 -225q21 0 35 8.5t14 44.5h-52v94h99v-94q0 -22 -4 -40t-14.5 -31t-29 -20t-48.5 -7v45z" />
    <glyph glyph-name="Rcaron" unicode="&#x158;" horiz-adv-x="620" 
d="M475 0l-140 218h-155v-218h-99v660h256q59 0 102.5 -11t72 -36.5t42 -67t13.5 -101.5q0 -95 -31 -145.5t-96 -68.5q38 -58 74.5 -115.5t74.5 -114.5h-114zM331 303q37 0 63 7t42.5 23.5t24 43.5t7.5 67q0 73 -32 102t-105 29h-151v-272h151zM275 732l-135 131h100l35 -36
q18 -20 26 -32q4 -7 6 -12h3q3 5 7 12q8 12 26 32l35 36h100l-135 -131h-68z" />
    <glyph glyph-name="rcaron" unicode="&#x159;" horiz-adv-x="320" 
d="M68 0v460h83l10 -60q2 -7 3 -14t3 -13q16 53 49 73t88 20v-79q-70 0 -102.5 -33.5t-34.5 -115.5v-238h-99zM128 532l-135 131h100l35 -36q18 -20 26 -32q4 -7 6 -12h3q3 5 7 12q8 12 26 32l35 36h100l-135 -131h-68z" />
    <glyph glyph-name="Sacute" unicode="&#x15a;" horiz-adv-x="594" 
d="M440 486q0 55 -32.5 77t-113.5 22q-79 0 -115.5 -22t-36.5 -80q0 -35 12.5 -54.5t33 -30t47.5 -14.5t56 -8q52 -7 99.5 -17t83 -30.5t56.5 -56t21 -93.5q0 -100 -63 -144.5t-200 -44.5t-197 44.5t-60 139.5h98q0 -53 35.5 -76t125.5 -23q82 0 122 21.5t40 80.5
q0 34 -13.5 53.5t-36 30t-51.5 15t-60 8.5q-52 7 -97.5 18t-79 32.5t-52.5 56.5t-19 92q0 44 12.5 78.5t42 58.5t78 37t120.5 13q123 0 182.5 -42t59.5 -142h-98zM224 728l70 136h130l-116 -136h-84z" />
    <glyph glyph-name="sacute" unicode="&#x15b;" horiz-adv-x="454" 
d="M317 324q0 38 -22 52.5t-71 14.5q-47 0 -70 -12.5t-23 -46.5q0 -18 7.5 -29t20 -17t29.5 -9t36 -6q42 -6 77.5 -14.5t62 -24.5t41.5 -41.5t15 -63.5q0 -66 -44.5 -101.5t-152.5 -35.5q-103 0 -149 34.5t-46 111.5h95q0 -38 25 -52.5t76 -14.5t74.5 12.5t23.5 46.5
q0 18 -8 29t-21.5 17t-31 9t-37.5 6q-38 5 -72.5 13.5t-61 24.5t-42 41.5t-15.5 65.5q0 65 44 100.5t149 35.5q100 0 144.5 -34.5t44.5 -111.5h-98zM153 528l70 136h130l-116 -136h-84z" />
    <glyph glyph-name="Scircumflex" unicode="&#x15c;" horiz-adv-x="594" 
d="M440 486q0 55 -32.5 77t-113.5 22q-79 0 -115.5 -22t-36.5 -80q0 -35 12.5 -54.5t33 -30t47.5 -14.5t56 -8q52 -7 99.5 -17t83 -30.5t56.5 -56t21 -93.5q0 -100 -63 -144.5t-200 -44.5t-197 44.5t-60 139.5h98q0 -53 35.5 -76t125.5 -23q82 0 122 21.5t40 80.5
q0 34 -13.5 53.5t-36 30t-51.5 15t-60 8.5q-52 7 -97.5 18t-79 32.5t-52.5 56.5t-19 92q0 44 12.5 78.5t42 58.5t78 37t120.5 13q123 0 182.5 -42t59.5 -142h-98zM334 863l135 -131h-100l-35 36q-10 10 -16 18t-10 14q-4 7 -7 12h-3q-2 -5 -6 -12q-4 -6 -10 -14t-16 -18
l-35 -36h-100l135 131h68z" />
    <glyph glyph-name="scircumflex" unicode="&#x15d;" horiz-adv-x="454" 
d="M317 324q0 38 -22 52.5t-71 14.5q-47 0 -70 -12.5t-23 -46.5q0 -18 7.5 -29t20 -17t29.5 -9t36 -6q42 -6 77.5 -14.5t62 -24.5t41.5 -41.5t15 -63.5q0 -66 -44.5 -101.5t-152.5 -35.5q-103 0 -149 34.5t-46 111.5h95q0 -38 25 -52.5t76 -14.5t74.5 12.5t23.5 46.5
q0 18 -8 29t-21.5 17t-31 9t-37.5 6q-38 5 -72.5 13.5t-61 24.5t-42 41.5t-15.5 65.5q0 65 44 100.5t149 35.5q100 0 144.5 -34.5t44.5 -111.5h-98zM263 663l135 -131h-100l-35 36q-10 10 -16 18t-10 14q-4 7 -7 12h-3q-2 -5 -6 -12q-4 -6 -10 -14t-16 -18l-35 -36h-100
l135 131h68z" />
    <glyph glyph-name="Scedilla" unicode="&#x15e;" horiz-adv-x="594" 
d="M402 -121q0 -45 -34.5 -66.5t-86.5 -21.5q-25 0 -46 4.5t-32 11.5v55q30 -16 70 -16q23 0 37 6.5t14 23.5q0 20 -18.5 30t-60.5 12l8 73q-118 5 -170 49t-52 134h98q0 -53 35.5 -76t125.5 -23q82 0 122 21.5t40 80.5q0 34 -13.5 53.5t-36 30t-51.5 15t-60 8.5
q-52 7 -97 18t-78.5 32.5t-53 56.5t-19.5 92q0 44 12.5 78.5t42 58.5t78 37t120.5 13q123 0 182.5 -42t59.5 -142h-98q0 55 -32.5 77t-113.5 22q-79 0 -115.5 -22t-36.5 -80q0 -35 12.5 -54.5t33 -30t47.5 -14.5t56 -8q52 -7 99.5 -17t83 -30.5t56.5 -56t21 -93.5
q0 -95 -57.5 -140t-183.5 -48l-4 -34q45 -3 70.5 -21.5t25.5 -56.5z" />
    <glyph glyph-name="scedilla" unicode="&#x15f;" horiz-adv-x="454" 
d="M332 -121q0 -45 -34.5 -66.5t-85.5 -21.5q-25 0 -46 4.5t-32 11.5v55q29 -16 70 -16q23 0 37 6.5t14 23.5q0 20 -18.5 30t-60.5 12l8 74q-81 5 -118.5 40t-37.5 104h95q0 -38 25 -52.5t76 -14.5t74.5 12.5t23.5 46.5q0 18 -8 29t-21.5 17t-31 9t-37.5 6q-38 5 -72.5 13.5
t-61 24.5t-42 41.5t-15.5 65.5q0 65 44 100.5t149 35.5q100 0 144.5 -34.5t44.5 -111.5h-98q0 38 -22 52.5t-71 14.5q-47 0 -70 -12.5t-23 -46.5q0 -18 7.5 -29t20 -17t29.5 -9t36 -6q42 -6 77.5 -14.5t62 -24.5t41.5 -41.5t15 -63.5q0 -63 -41 -98.5t-139 -37.5l-3 -34
q45 -3 70 -21.5t25 -56.5z" />
    <glyph glyph-name="Scaron" unicode="&#x160;" horiz-adv-x="594" 
d="M440 486q0 55 -32.5 77t-113.5 22q-79 0 -115.5 -22t-36.5 -80q0 -35 12.5 -54.5t33 -30t47.5 -14.5t56 -8q52 -7 99.5 -17t83 -30.5t56.5 -56t21 -93.5q0 -100 -63 -144.5t-200 -44.5t-197 44.5t-60 139.5h98q0 -53 35.5 -76t125.5 -23q82 0 122 21.5t40 80.5
q0 34 -13.5 53.5t-36 30t-51.5 15t-60 8.5q-52 7 -97.5 18t-79 32.5t-52.5 56.5t-19 92q0 44 12.5 78.5t42 58.5t78 37t120.5 13q123 0 182.5 -42t59.5 -142h-98zM266 732l-135 131h100l35 -36q18 -20 26 -32q4 -7 6 -12h3q3 5 7 12q8 12 26 32l35 36h100l-135 -131h-68z
" />
    <glyph glyph-name="scaron" unicode="&#x161;" horiz-adv-x="454" 
d="M317 324q0 38 -22 52.5t-71 14.5q-47 0 -70 -12.5t-23 -46.5q0 -18 7.5 -29t20 -17t29.5 -9t36 -6q42 -6 77.5 -14.5t62 -24.5t41.5 -41.5t15 -63.5q0 -66 -44.5 -101.5t-152.5 -35.5q-103 0 -149 34.5t-46 111.5h95q0 -38 25 -52.5t76 -14.5t74.5 12.5t23.5 46.5
q0 18 -8 29t-21.5 17t-31 9t-37.5 6q-38 5 -72.5 13.5t-61 24.5t-42 41.5t-15.5 65.5q0 65 44 100.5t149 35.5q100 0 144.5 -34.5t44.5 -111.5h-98zM195 532l-135 131h100l35 -36q18 -20 26 -32q4 -7 6 -12h3q3 5 7 12q8 12 26 32l35 36h100l-135 -131h-68z" />
    <glyph glyph-name="Tcedilla" unicode="&#x162;" horiz-adv-x="544" 
d="M261 -153q23 0 37 6.5t14 23.5q0 19 -18.5 29.5t-60.5 12.5l9 81h-20v575h-211v85h521v-85h-211v-575h-23q-1 -11 -1.5 -21.5t-2.5 -21.5q45 -3 70 -21t25 -56q0 -21 -9.5 -37.5t-26 -28t-38 -17t-46.5 -5.5t-46 4.5t-32 11.5v54q14 -7 32 -11t38 -4z" />
    <glyph glyph-name="tcedilla" unicode="&#x163;" horiz-adv-x="324" 
d="M188 -153q23 0 36.5 6.5t13.5 23.5q0 19 -18 29.5t-60 12.5l11 96q-49 17 -74.5 56.5t-25.5 108.5v201h-61v79h61v98q25 5 49.5 10.5t49.5 11.5v-120h137v-79h-137v-201q0 -29 5.5 -48.5t19 -31t35.5 -16.5t56 -5v-79q-33 0 -61 3l-4 -46q45 -3 70 -21t25 -56
q0 -45 -34.5 -66.5t-85.5 -21.5q-25 0 -46.5 4.5t-31.5 11.5v54q14 -7 32 -11t38 -4z" />
    <glyph glyph-name="Tcaron" unicode="&#x164;" horiz-adv-x="544" 
d="M223 0v575h-211v85h521v-85h-211v-575h-99zM237 732l-135 131h100l35 -36q18 -20 26 -32q4 -7 6 -12h3q3 5 7 12q8 12 26 32l35 36h100l-135 -131h-68z" />
    <glyph glyph-name="tcaron" unicode="&#x165;" horiz-adv-x="324" 
d="M286 0q-51 0 -91 9t-67.5 30t-42 55.5t-14.5 85.5v201h-61v79h61v98q25 5 49.5 10.5t49.5 11.5v-120h137v-79h-137v-201q0 -11 2 -19t5 -15q7 -38 31 -52.5t78 -14.5v-79zM255 595q21 0 35 8.5t14 44.5h-52v94h99v-94q0 -22 -4 -40t-14.5 -31t-29 -20t-48.5 -7v45z" />
    <glyph glyph-name="Tbar" unicode="&#x166;" horiz-adv-x="544" 
d="M223 0v396h-108v64h108v115h-211v85h521v-85h-211v-115h108v-64h-108v-396h-99z" />
    <glyph glyph-name="tbar" unicode="&#x167;" horiz-adv-x="324" 
d="M286 0q-51 0 -91 9t-67.5 30t-42 55.5t-14.5 85.5v68h-61v67h61v78h-61v67h61v98q25 5 49.5 10.5t49.5 11.5v-120h137v-67h-137v-78h137v-67h-137v-68q0 -29 5.5 -48.5t19 -31t35.5 -16.5t56 -5v-79z" />
    <glyph glyph-name="Utilde" unicode="&#x168;" horiz-adv-x="654" 
d="M491 660h99v-330q0 -96 -15.5 -161.5t-48 -105t-82 -56.5t-117.5 -17q-69 0 -118.5 17t-81.5 56.5t-47.5 105t-15.5 161.5v330h99v-330q0 -72 9.5 -121t29.5 -78.5t51 -42.5t74 -13t74 13t51 42.5t29.5 78.5t9.5 121v330zM394 734q-23 0 -37 7.5t-31 18.5
q-18 12 -29.5 19t-24.5 7q-31 0 -31 -53h-62q0 21 2.5 41.5t10.5 36.5t24 26t43 10q23 0 37 -6.5t30 -17.5q17 -13 29 -20.5t26 -7.5q15 0 21.5 11.5t6.5 40.5h65q0 -24 -2 -44.5t-10 -35.5t-24 -24t-44 -9z" />
    <glyph glyph-name="utilde" unicode="&#x169;" horiz-adv-x="537" 
d="M391 0q-5 19 -9.5 38t-9.5 38q-17 -50 -51 -68t-90 -18q-50 0 -83 13.5t-52.5 42t-27.5 74t-8 110.5v230h99v-230q0 -48 3.5 -79t14 -49.5t28 -25.5t46.5 -7q60 0 88 33t30 114v244h99v-460h-77zM335 534q-21 0 -39 8t-33 18t-27.5 18t-21.5 8q-32 0 -32 -53h-62
q0 21 2.5 41.5t11 36.5t24.5 26t43 10q20 0 32.5 -5.5t26.5 -14.5l19 -13q13 -9 22.5 -14t20.5 -5q16 0 22 11.5t6 40.5h65q0 -24 -2 -44.5t-10 -35.5t-24 -24t-44 -9z" />
    <glyph glyph-name="Umacron" unicode="&#x16a;" horiz-adv-x="654" 
d="M491 660h99v-330q0 -96 -15.5 -161.5t-48 -105t-82 -56.5t-117.5 -17q-69 0 -118.5 17t-81.5 56.5t-47.5 105t-15.5 161.5v330h99v-330q0 -72 9.5 -121t29.5 -78.5t51 -42.5t74 -13t74 13t51 42.5t29.5 78.5t9.5 121v330zM157 765v58h339v-58h-339z" />
    <glyph glyph-name="umacron" unicode="&#x16b;" horiz-adv-x="537" 
d="M391 0q-5 19 -9.5 38t-9.5 38q-17 -50 -51 -68t-90 -18q-50 0 -83 13.5t-52.5 42t-27.5 74t-8 110.5v230h99v-230q0 -48 3.5 -79t14 -49.5t28 -25.5t46.5 -7q60 0 88 33t30 114v244h99v-460h-77zM98 565v58h339v-58h-339z" />
    <glyph glyph-name="Ubreve" unicode="&#x16c;" horiz-adv-x="654" 
d="M491 660h99v-330q0 -96 -15.5 -161.5t-48 -105t-82 -56.5t-117.5 -17q-69 0 -118.5 17t-81.5 56.5t-47.5 105t-15.5 161.5v330h99v-330q0 -72 9.5 -121t29.5 -78.5t51 -42.5t74 -13t74 13t51 42.5t29.5 78.5t9.5 121v330zM326 798q73 0 73 48h71q0 -59 -36 -85.5
t-108 -26.5t-108 26.5t-36 85.5h71q0 -48 73 -48z" />
    <glyph glyph-name="ubreve" unicode="&#x16d;" horiz-adv-x="537" 
d="M391 0q-5 19 -9.5 38t-9.5 38q-17 -50 -51 -68t-90 -18q-50 0 -83 13.5t-52.5 42t-27.5 74t-8 110.5v230h99v-230q0 -48 3.5 -79t14 -49.5t28 -25.5t46.5 -7q60 0 88 33t30 114v244h99v-460h-77zM268 598q73 0 73 48h71q0 -59 -36 -85.5t-108 -26.5t-108 26.5t-36 85.5
h71q0 -48 73 -48z" />
    <glyph glyph-name="Uring" unicode="&#x16e;" horiz-adv-x="654" 
d="M491 660h99v-330q0 -96 -15.5 -161.5t-48 -105t-82 -56.5t-117.5 -17q-69 0 -118.5 17t-81.5 56.5t-47.5 105t-15.5 161.5v330h99v-330q0 -72 9.5 -121t29.5 -78.5t51 -42.5t74 -13t74 13t51 42.5t29.5 78.5t9.5 121v330zM327 723q-45 0 -68.5 26t-23.5 64q0 35 25 61
t67 26t67 -26t25 -61q0 -38 -23.5 -64t-68.5 -26zM327 857q-21 0 -32.5 -12.5t-11.5 -32.5q0 -17 11 -30.5t33 -13.5t33 13.5t11 30.5q0 20 -11.5 32.5t-32.5 12.5z" />
    <glyph glyph-name="uring" unicode="&#x16f;" horiz-adv-x="537" 
d="M391 0q-5 19 -9.5 38t-9.5 38q-17 -50 -51 -68t-90 -18q-50 0 -83 13.5t-52.5 42t-27.5 74t-8 110.5v230h99v-230q0 -48 3.5 -79t14 -49.5t28 -25.5t46.5 -7q60 0 88 33t30 114v244h99v-460h-77zM268 523q-45 0 -68.5 26t-23.5 64q0 35 25 61t67 26t67 -26t25 -61
q0 -38 -23.5 -64t-68.5 -26zM268 656q-22 0 -33 -12.5t-11 -31.5q0 -17 10.5 -30.5t33.5 -13.5q22 0 32.5 13.5t10.5 30.5q0 19 -11.5 31.5t-31.5 12.5z" />
    <glyph glyph-name="Uhungarumlaut" unicode="&#x170;" horiz-adv-x="654" 
d="M491 660h99v-330q0 -96 -15.5 -161.5t-48 -105t-82 -56.5t-117.5 -17q-69 0 -118.5 17t-81.5 56.5t-47.5 105t-15.5 161.5v330h99v-330q0 -72 9.5 -121t29.5 -78.5t51 -42.5t74 -13t74 13t51 42.5t29.5 78.5t9.5 121v330zM178 728l57 136h106l-97 -136h-66zM326 728
l71 136h111l-110 -136h-72z" />
    <glyph glyph-name="uhungarumlaut" unicode="&#x171;" horiz-adv-x="537" 
d="M391 0q-4 19 -9 38l-10 38q-17 -50 -51 -68t-90 -18q-50 0 -83 13.5t-52.5 42t-27.5 74t-8 110.5v230h99v-230q0 -48 3.5 -79t14 -49.5t28 -25.5t46.5 -7q60 0 88 33t30 114v244h99v-460h-77zM218 527l68 136h111l-107 -136h-72zM168 527q14 35 29 68.5t30 67.5h106
l-99 -136h-66z" />
    <glyph glyph-name="Uogonek" unicode="&#x172;" horiz-adv-x="654" 
d="M467 -164q-19 -14 -46.5 -20t-49.5 -6q-46 0 -75 22.5t-29 70.5q0 30 10 51.5t26 37.5q-62 4 -107.5 22.5t-75 57.5t-43.5 102t-14 156v330h99v-330q0 -72 9.5 -121t30 -79t51.5 -42.5t73 -12.5q43 0 74 12.5t51 42.5t29.5 79t9.5 121v330h99v-330q0 -80 -10.5 -138.5
t-32.5 -98t-55.5 -62.5t-79.5 -32q-9 -3 -20.5 -10t-22.5 -17t-18.5 -23t-7.5 -29q0 -23 11.5 -35.5t38.5 -12.5q11 0 33 4.5t42 15.5v-56z" />
    <glyph glyph-name="uogonek" unicode="&#x173;" horiz-adv-x="537" 
d="M369 460h99v-460q-32 -4 -55.5 -23t-23.5 -57q0 -23 11.5 -35.5t37.5 -12.5q11 0 33 4.5t42 15.5v-56q-18 -14 -46 -20t-50 -6q-46 0 -75 22.5t-29 70.5q0 45 23 72t50 41l-9 44q-2 4 -3 7.5t-2 8.5q-17 -50 -51 -68t-90 -18q-50 0 -83 13.5t-52.5 42t-27.5 74t-8 110.5
v230h99v-230q0 -48 3.5 -79t14 -49.5t28 -25.5t46.5 -7q63 0 90.5 35.5t27.5 125.5v230z" />
    <glyph glyph-name="Wcircumflex" unicode="&#x174;" horiz-adv-x="849" 
d="M451 325q-8 32 -12.5 61t-7.5 51q-4 26 -5 47h-4q-1 -21 -5 -47q-6 -44 -20 -112l-83 -325h-116l-182 660h100l110 -410q8 -33 13 -62t8 -51q4 -26 6 -48h4q2 22 6 48q3 22 8 51t12 61l80 311h122l80 -311q8 -32 13 -61t8 -51q4 -26 6 -48h3q2 22 6 48q3 22 8 51.5
t13 61.5l110 410h100l-182 -660h-116zM458 863l135 -131h-100l-35 36q-10 10 -16 18t-10 14q-4 7 -7 12h-3q-2 -5 -6 -12q-4 -6 -10 -14t-16 -18l-35 -36h-100l135 131h68z" />
    <glyph glyph-name="wcircumflex" unicode="&#x175;" horiz-adv-x="702" 
d="M375 237q-8 30 -13 55.5t-7 45.5q-3 23 -4 42h-3q-1 -18 -4 -41q-5 -40 -20 -103l-61 -236h-116l-136 460h100l61 -224q9 -35 15 -64.5t9 -51.5q4 -26 6 -46h4q2 20 6 46q3 22 8 51.5t13 64.5l56 224h121l55 -224q17 -73 23 -116q4 -26 6 -46h3q1 20 5 46q3 22 8.5 51.5
t15.5 64.5l65 224h100l-139 -460h-116zM385 663l135 -131h-100l-35 36q-10 10 -16 18t-10 14q-4 7 -7 12h-3q-2 -5 -6 -12q-4 -6 -10 -14t-16 -18l-35 -36h-100l135 131h68z" />
    <glyph glyph-name="Ycircumflex" unicode="&#x176;" horiz-adv-x="569" 
d="M10 660h109l107 -202q9 -17 17 -33.5t14 -30.5q16 -37 19.5 -55t4.5 -18h4q-1 -2 9.5 35.5t44.5 100.5l109 203h108q-57 -106 -112 -210t-112 -209v-241h-99v241zM318 863l135 -131h-100l-35 36q-10 10 -16 18t-10 14q-4 7 -7 12h-3q-2 -5 -6 -12q-4 -6 -10 -14t-16 -18
l-35 -36h-100l135 131h68z" />
    <glyph glyph-name="ycircumflex" unicode="&#x177;" horiz-adv-x="472" 
d="M70 -155q36 0 65 40.5t50 100.5q-45 119 -89.5 236.5t-89.5 237.5h103q23 -65 46 -132.5t41 -123.5t28.5 -92.5t7.5 -38.5h3q1 -1 2.5 11t5.5 33t12 50.5t23 63.5q20 57 41 114t41 115h103q-48 -125 -95 -248t-95 -248q-41 -106 -89.5 -155t-113.5 -49v85v0zM270 663
l135 -131h-100l-35 36q-10 10 -16 18t-10 14q-4 7 -7 12h-3q-2 -5 -6 -12q-4 -6 -10 -14t-16 -18l-35 -36h-100l135 131h68z" />
    <glyph glyph-name="Ydieresis" unicode="&#x178;" horiz-adv-x="569" 
d="M10 660h109l107 -202q9 -17 17 -33.5t14 -30.5q16 -37 19.5 -55t4.5 -18h4q-1 -2 9.5 35.5t44.5 100.5l109 203h108q-57 -106 -112 -210t-112 -209v-241h-99v241zM147 738v100h87v-100h-87zM333 738v100h87v-100h-87z" />
    <glyph glyph-name="Zacute" unicode="&#x179;" horiz-adv-x="530" 
d="M28 0v85l353 490h-353v85h476v-85l-353 -490h353v-85h-476zM169 728l71 136h129l-115 -136h-85z" />
    <glyph glyph-name="zacute" unicode="&#x17a;" horiz-adv-x="439" 
d="M26 0v79l259 302h-259v79h386v-79l-259 -302h259v-79h-386zM150 528l70 136h129l-115 -136h-84z" />
    <glyph glyph-name="Zdotaccent" unicode="&#x17b;" horiz-adv-x="530" 
d="M28 0v85l353 490h-353v85h476v-85l-353 -490h353v-85h-476zM221 738v100h87v-100h-87z" />
    <glyph glyph-name="zdotaccent" unicode="&#x17c;" horiz-adv-x="439" 
d="M26 0v79l259 302h-259v79h386v-79l-259 -302h259v-79h-386zM175 538v100h87v-100h-87z" />
    <glyph glyph-name="Zcaron" unicode="&#x17d;" horiz-adv-x="530" 
d="M28 0v85l353 490h-353v85h476v-85l-353 -490h353v-85h-476zM231 732l-135 131h100l35 -36q18 -20 26 -32q4 -7 6 -12h3q3 5 7 12q8 12 26 32l35 36h100l-135 -131h-68z" />
    <glyph glyph-name="zcaron" unicode="&#x17e;" horiz-adv-x="439" 
d="M26 0v79l259 302h-259v79h386v-79l-259 -302h259v-79h-386zM185 532l-135 131h100l35 -36q18 -20 26 -32q4 -7 6 -12h3q3 5 7 12q8 12 26 32l35 36h100l-135 -131h-68z" />
    <glyph glyph-name="longs" unicode="&#x17f;" horiz-adv-x="296" 
d="M76 0v381h-61v79h61v60q0 51 14.5 86t44 56t74.5 30t106 8v-79q-42 1 -69 -4t-42.5 -17t-22 -31.5t-6.5 -48.5v-520h-99z" />
    <glyph glyph-name="uni0186" unicode="&#x186;" horiz-adv-x="597" 
d="M121 174q0 -33 14 -52.5t36 -30t50 -13.5t55 -3q48 0 81.5 10.5t55 39t31.5 78t10 128.5t-10 128.5t-31.5 77.5t-56 38t-82.5 10q-30 0 -57.5 -3.5t-48.5 -14t-34 -30t-13 -51.5h-99q0 56 20 91.5t54 56t80 28.5t99 8q72 0 124.5 -15.5t86.5 -54.5t50.5 -104.5
t16.5 -164.5t-16.5 -165t-50.5 -105t-86 -55t-123 -16q-51 0 -97 8t-81 28.5t-56 56t-21 91.5h99z" />
    <glyph glyph-name="uni0189" unicode="&#x189;" horiz-adv-x="651" 
d="M81 0v290h-81v84h81v286h193q87 0 150 -16.5t103.5 -55t60 -102t19.5 -156.5t-19.5 -156.5t-60 -102t-103.5 -55t-150 -16.5h-193zM274 85q61 0 105.5 12.5t73 41t42 75.5t13.5 116t-13.5 116t-42 75.5t-73 41t-105.5 12.5h-94v-201h135v-84h-135v-205h94z" />
    <glyph glyph-name="uni018E" unicode="&#x18e;" horiz-adv-x="562" 
d="M51 0v85h331v205h-291v84h291v201h-331v85h430v-660h-430z" />
    <glyph glyph-name="uni018F" unicode="&#x18f;" horiz-adv-x="636" 
d="M43 347q0 98 16 160.5t49 98.5t83 50t117 14q73 0 126.5 -17.5t88 -58t51.5 -105.5t17 -161q0 -94 -16.5 -158.5t-51 -104.5t-87 -57.5t-125.5 -17.5q-53 0 -98.5 10t-80 32t-54 57t-19.5 85h99q0 -28 12 -47.5t32.5 -31.5t48 -17.5t58.5 -5.5q46 0 79.5 12t56 40
t34 72.5t13.5 110.5h-449v40zM303 588q-37 0 -65.5 -7.5t-48.5 -29t-31.5 -60.5t-14.5 -102h346q-4 55 -17.5 93.5t-36.5 61.5t-56 33.5t-76 10.5z" />
    <glyph glyph-name="uni0190" unicode="&#x190;" horiz-adv-x="598" 
d="M62 482q-3 42 10 77t44 59.5t80.5 38t119.5 13.5q117 0 179 -42t62 -142h-98q0 55 -34.5 77t-111.5 22q-74 0 -113 -22t-39 -81q0 -32 12 -53t32.5 -33t47.5 -17t57 -5h46v-84h-49q-33 0 -62 -5.5t-51 -18.5t-35 -34.5t-13 -53.5q0 -59 42.5 -81t120.5 -22
q85 0 122.5 22.5t37.5 76.5h98q0 -95 -60.5 -139.5t-193.5 -44.5t-199.5 44.5t-66.5 138.5q0 74 40 110.5t110 49.5q-58 14 -94.5 49.5t-40.5 99.5z" />
    <glyph glyph-name="uni0191" unicode="&#x191;" horiz-adv-x="543" 
d="M180 289v-347q0 -29 -7 -61t-24 -58.5t-45.5 -44t-71.5 -17.5v82q21 0 35 13t14 46v758h430v-85h-331v-201h291v-85h-291z" />
    <glyph glyph-name="florin" unicode="&#x192;" horiz-adv-x="296" 
d="M175 381v-474q0 -29 -7 -55.5t-23.5 -47t-45.5 -32.5t-72 -12v82q22 0 35.5 13t13.5 46v480h-61v79h61v60q0 51 14.5 86t44 56t74.5 30t106 8v-79q-42 1 -69 -4t-42.5 -17t-22 -31.5t-6.5 -48.5v-60h121v-79h-121z" />
    <glyph glyph-name="uni019D" unicode="&#x19d;" horiz-adv-x="683" 
d="M503 660h99v-660h-118l-229 392q-18 30 -32 56l-24.5 45.5t-17 31.5t-7.5 14h-3q2 -18 4 -37q2 -17 3.5 -37.5t1.5 -42.5v-481q0 -30 -7 -61.5t-24 -58t-45.5 -43.5t-71.5 -17v82q21 0 35 13t14 46v758h117q58 -99 115 -196.5t114 -196.5l46 -84q14 -26 25 -45t10 -19h3
q-2 18 -4 37q-2 17 -3 37.5t-1 42.5v424z" />
    <glyph glyph-name="uni019E" unicode="&#x19e;" horiz-adv-x="541" 
d="M68 0v460h77l6 -28t5 -28l8 -21q16 50 50.5 68.5t90.5 18.5q50 0 83 -13.5t52.5 -42.5t27.5 -74.5t8 -109.5v-470h-99v470q0 48 -3.5 79t-14 49t-28.5 25.5t-46 7.5q-61 0 -88.5 -33t-29.5 -116v-242h-99z" />
    <glyph glyph-name="uni019F" unicode="&#x19f;" horiz-adv-x="674" 
d="M337 -10q-77 0 -132 17t-91 56.5t-53 105t-17 161.5t17 161.5t53 105t91 56.5t132 17q76 0 131.5 -17t91.5 -56.5t53 -105t17 -161.5t-17 -161.5t-53 -105t-91.5 -56.5t-131.5 -17zM337 75q46 0 81 11t58.5 36t37 66t16.5 102h-386q3 -61 16 -102t36.5 -66t58.5 -36
t82 -11zM337 585q-47 0 -81.5 -11t-58 -35.5t-37 -65t-16.5 -99.5h385q-3 59 -16.5 99.5t-37 65t-58 35.5t-80.5 11z" />
    <glyph glyph-name="Ohorn" unicode="&#x1a0;" horiz-adv-x="723" 
d="M337 -10q-77 0 -132 17t-91 56.5t-53 105t-17 161.5t17 161.5t53 105t91 56.5t132 17q86 0 144.5 -21.5t93.5 -72.5q14 -17 28 -29.5t38 -12.5q44 0 44 49q0 14 -4.5 35.5t-16.5 41.5h59q14 -19 20 -46.5t6 -51.5q0 -45 -21.5 -73.5t-70.5 -28.5q-11 0 -20.5 1.5
t-18.5 3.5q12 -57 12 -135q0 -96 -17 -161.5t-53 -105t-91.5 -56.5t-131.5 -17zM337 75q51 0 87.5 13t60 42.5t35 78.5t11.5 121t-11.5 121t-35 78.5t-60 42.5t-87.5 13t-87.5 -13t-60 -42.5t-35 -78.5t-11.5 -121t11.5 -121t35 -78.5t60 -42.5t87.5 -13z" />
    <glyph glyph-name="ohorn" unicode="&#x1a1;" horiz-adv-x="565" 
d="M251 -10q-55 0 -95 12t-66.5 40t-39 74t-12.5 114t12.5 114t39 74t66.5 40t95 12q75 0 121.5 -21.5t69.5 -75.5q9 -17 21.5 -28t30.5 -11q32 0 32 47q0 15 -4.5 37t-15.5 42h59q14 -19 20 -46.5t6 -52.5q0 -44 -19 -72.5t-63 -28.5q-28 0 -47 12q1 -10 1.5 -20.5
t0.5 -21.5q0 -68 -12.5 -114t-38.5 -74t-66.5 -40t-95.5 -12zM251 69q31 0 53 8t35.5 27t19.5 50t6 76t-6 76t-19.5 50t-35.5 27t-53 8t-53 -8t-35.5 -27t-19.5 -50t-6 -76t6 -76t19.5 -50t35.5 -27t53 -8z" />
    <glyph glyph-name="uni01A7" unicode="&#x1a7;" horiz-adv-x="590" 
d="M51 486q0 100 60 142t183 42q72 0 120.5 -13t78 -37t41.5 -58.5t12 -78.5q0 -57 -19 -92t-52.5 -56.5t-79 -32.5t-97.5 -18q-30 -4 -59 -8.5t-51.5 -15t-36.5 -30t-14 -53.5q0 -59 40.5 -80.5t122.5 -21.5q45 0 75.5 5.5t49.5 17.5t27 31t8 45h98q0 -95 -59.5 -139.5
t-196.5 -44.5t-200.5 44.5t-63.5 144.5q0 58 21 93.5t57 56t83 30.5t99 17q29 4 56 8t47.5 14.5t33 30t12.5 54.5q0 58 -36.5 80t-114.5 22q-81 0 -114 -22t-33 -77h-98z" />
    <glyph glyph-name="uni01A8" unicode="&#x1a8;" horiz-adv-x="449" 
d="M37 324q0 77 44.5 111.5t144.5 34.5q105 0 149 -35.5t44 -100.5q0 -40 -15.5 -65.5t-42 -41.5t-61 -24.5t-72.5 -13.5q-20 -3 -37.5 -6t-31 -9t-21.5 -17t-8 -29q0 -34 24 -46.5t74 -12.5q51 0 76 14.5t25 52.5h95q0 -77 -46 -111.5t-149 -34.5q-107 0 -152 35.5
t-45 101.5q0 38 15 63.5t41.5 41.5t62 24.5t77.5 14.5q19 3 36 6t30 9t20 17t7 29q0 34 -22.5 46.5t-70.5 12.5q-49 0 -71 -14.5t-22 -52.5h-98z" />
    <glyph glyph-name="Uhorn" unicode="&#x1af;" horiz-adv-x="740" 
d="M491 660h99v-81q12 -19 27.5 -32t40.5 -13q43 0 43 49q0 14 -4.5 35.5t-15.5 41.5h59q14 -19 20 -46.5t6 -51.5q0 -45 -21.5 -73.5t-70.5 -28.5q-29 0 -49.5 9.5t-34.5 23.5v-163q0 -96 -15.5 -161.5t-48 -105t-82 -56.5t-117.5 -17q-69 0 -118.5 17t-81.5 56.5
t-47.5 105t-15.5 161.5v330h99v-330q0 -72 9.5 -121t29.5 -78.5t51 -42.5t74 -13t74 13t51 42.5t29.5 78.5t9.5 121v330z" />
    <glyph glyph-name="uhorn" unicode="&#x1b0;" horiz-adv-x="594" 
d="M391 0q-5 19 -9.5 38t-9.5 38q-17 -50 -51 -68t-90 -18q-50 0 -83 13.5t-52.5 42t-27.5 74t-8 110.5v230h99v-230q0 -48 3.5 -79t14 -49.5t28 -25.5t46.5 -7q60 0 88 33t30 114v244h99v-81q9 -18 22 -31.5t33 -13.5q32 0 32 47q0 15 -4.5 37t-15.5 42h59q14 -19 20 -46.5
t6 -53.5q0 -43 -19 -71.5t-63 -28.5q-23 0 -40.5 8t-29.5 21v-289h-77z" />
    <glyph glyph-name="uni01B5" unicode="&#x1b5;" horiz-adv-x="530" 
d="M302 296l-151 -211h353v-85h-476v85l151 211h-143v72h197l148 207h-353v85h476v-85l-149 -207h140v-72h-193z" />
    <glyph glyph-name="uni01B6" unicode="&#x1b6;" horiz-adv-x="439" 
d="M252 197l-99 -118h259v-79h-386v79l99 118h-86v70h149q25 29 48.5 57t48.5 57h-259v79h386v-79q-25 -29 -48.5 -57t-48.5 -57h85v-70h-148z" />
    <glyph glyph-name="uni01BB" unicode="&#x1bb;" horiz-adv-x="524" 
d="M357 295l-198 -210h327v-85h-451v85l200 210h-200v73h271q9 8 22.5 22t25.5 31.5t21 36.5t9 38q0 89 -126 89q-66 0 -94 -21.5t-28 -77.5h-98q0 102 55.5 143t162.5 41q120 0 173.5 -44t53.5 -120q0 -25 -5 -45t-13 -36.5t-18 -30.5t-20 -26h67v-73h-137z" />
    <glyph glyph-name="uni01C4" unicode="&#x1c4;" horiz-adv-x="1181" 
d="M274 85q61 0 105.5 12.5t73 41t42 75.5t13.5 116t-13.5 116t-42 75.5t-73 41t-105.5 12.5h-94v-490h94zM81 0v660h193q87 0 150 -16.5t103.5 -55t60 -102t19.5 -156.5t-19.5 -156.5t-60 -102t-103.5 -55t-150 -16.5h-193zM678 0v85l353 490h-353v85h476v-85l-353 -490
h353v-85h-476zM882 732l-135 131h100l35 -36q18 -20 26 -32q4 -7 6 -12h3q3 5 7 12q8 12 26 32l35 36h100l-135 -131h-68z" />
    <glyph glyph-name="uni01C5" unicode="&#x1c5;" horiz-adv-x="1090" 
d="M274 85q61 0 105.5 12.5t73 41t42 75.5t13.5 116t-13.5 116t-42 75.5t-73 41t-105.5 12.5h-94v-490h94zM81 0v660h193q87 0 150 -16.5t103.5 -55t60 -102t19.5 -156.5t-19.5 -156.5t-60 -102t-103.5 -55t-150 -16.5h-193zM676 0v79l259 302h-259v79h386v-79l-259 -302
h259v-79h-386zM836 532l-135 131h100l35 -36q18 -20 26 -32q4 -7 6 -12h3q3 5 7 12q8 12 26 32l35 36h100l-135 -131h-68z" />
    <glyph glyph-name="uni01C6" unicode="&#x1c6;" horiz-adv-x="973" 
d="M234 -10q-50 0 -87 12.5t-61 41t-36 74.5t-12 112t12 111.5t36 74t61 41.5t87 13q53 0 85.5 -18.5t49.5 -65.5h3q-2 20 -3.5 41.5t-1.5 42.5v217q25 3 49.5 6t49.5 7v-700h-77q-5 19 -9 38t-9 39q-17 -50 -50 -68.5t-87 -18.5zM251 69q61 0 88 35t28 121v5
q0 89 -27.5 125t-88.5 36q-31 0 -53 -7.5t-35.5 -26t-19.5 -49.5t-6 -78t6 -78t19.5 -49.5t35.5 -26t53 -7.5zM560 0v79l259 302h-259v79h386v-79l-259 -302h259v-79h-386zM720 532l-135 131h100l35 -36q18 -20 26 -32q4 -7 6 -12h3q3 5 7 12q8 12 26 32l35 36h100
l-135 -131h-68z" />
    <glyph glyph-name="uni01C7" unicode="&#x1c7;" horiz-adv-x="1004" 
d="M841 660h99v-486q0 -88 -49 -136t-158 -48q-104 0 -154.5 43.5t-50.5 140.5h95q0 -53 26.5 -77.5t84.5 -24.5q50 0 78.5 21t28.5 81v486zM81 0v660h99v-575h319v-85h-418z" />
    <glyph glyph-name="uni01C8" unicode="&#x1c8;" horiz-adv-x="768" 
d="M81 0v660h99v-575h319v-85h-418zM695 -93q0 -29 -7 -55.5t-23.5 -47t-45.5 -32.5t-72 -12v82q21 0 35 13t14 46v559h99v-553zM596 566v94h99v-94h-99z" />
    <glyph glyph-name="uni01C9" unicode="&#x1c9;" horiz-adv-x="477" 
d="M405 -93q0 -29 -7 -55.5t-23.5 -47t-45.5 -32.5t-72 -12v82q21 0 35 13t14 46v559h99v-553zM306 566v94h99v-94h-99zM208 0q-43 0 -71.5 12t-45.5 32.5t-24 47t-7 55.5v540l99 13v-553q0 -36 14 -50.5t35 -14.5v-82z" />
    <glyph glyph-name="uni01CA" unicode="&#x1ca;" horiz-adv-x="1162" 
d="M1000 660h99v-486q0 -88 -49 -136t-158 -48q-104 0 -154.5 43.5t-50.5 140.5h95q0 -53 26.5 -77.5t84.5 -24.5q50 0 78.5 21t28.5 81v486zM503 660h99v-660h-118l-229 392q-18 30 -32 56l-24.5 45.5t-17 31.5t-7.5 14h-3q2 -18 4 -37q2 -17 3.5 -37.5t1.5 -42.5v-422h-99
v660h117q58 -99 115 -196.5t114 -196.5l46 -84q14 -26 25 -45t10 -19h3q-2 18 -4 37q-2 17 -3 37.5t-1 42.5v424z" />
    <glyph glyph-name="uni01CB" unicode="&#x1cb;" horiz-adv-x="926" 
d="M503 660h99v-660h-118l-229 392q-18 30 -32 56l-24.5 45.5t-17 31.5t-7.5 14h-3q2 -18 4 -37q2 -17 3.5 -37.5t1.5 -42.5v-422h-99v660h117q58 -99 115 -196.5t114 -196.5l46 -84q14 -26 25 -45t10 -19h3q-2 18 -4 37q-2 17 -3 37.5t-1 42.5v424zM854 -93q0 -29 -7 -55.5
t-23.5 -47t-45.5 -32.5t-72 -12v82q21 0 35 13t14 46v559h99v-553zM755 566v94h99v-94h-99z" />
    <glyph glyph-name="uni01CC" unicode="&#x1cc;" horiz-adv-x="784" 
d="M711 -93q0 -29 -7 -55.5t-23.5 -47t-45.5 -32.5t-72 -12v82q21 0 35 13t14 46v559h99v-553zM612 566v94h99v-94h-99zM68 0v460h77l6 -28t5 -28l8 -20q17 50 51.5 68t91.5 18q49 0 82 -11.5t52 -35.5t27 -62t8 -91v-270h-99v270q0 35 -3.5 58.5t-13.5 37.5t-27 19.5
t-44 5.5q-32 0 -55 -8t-37.5 -26.5t-21.5 -47.5t-8 -71v-238h-99z" />
    <glyph glyph-name="uni01CD" unicode="&#x1cd;" horiz-adv-x="647" 
d="M535 0l-53 134h-317l-53 -134h-102q67 166 134 330t135 330h91q67 -166 133 -330t134 -330h-102zM198 219h250l-65 163l-23 63q-20 54 -26.5 86.5t-7.5 32.5h-4l-2.5 -12t-8.5 -33.5t-15 -50.5t-23 -63zM289 732l-135 131h100l35 -36q18 -20 26 -32q4 -7 6 -12h3
q3 5 7 12q8 12 26 32l35 36h100l-135 -131h-68z" />
    <glyph glyph-name="uni01CE" unicode="&#x1ce;" horiz-adv-x="495" 
d="M474 -3q-35 0 -58 6t-37.5 16t-21 24t-9.5 30q-17 -49 -51.5 -66t-91.5 -17q-33 0 -64 5.5t-55.5 20.5t-39 41.5t-14.5 69.5q0 48 17.5 74.5t45 39.5t60.5 16.5t63 6.5t60 5.5t60 5.5v43q0 40 -21 56.5t-74 16.5q-26 0 -38 -9q-32 -4 -42 -18t-10 -40h-98q0 78 45 112
t143 34q55 0 92.5 -10.5t60 -30t32 -47.5t9.5 -64v-198q0 -21 10.5 -32.5t26.5 -11.5v-79zM212 72q30 0 51.5 5t36 18t23 34.5t11.5 53.5l2 10t1 10l-125 -12q-19 -2 -34 -4.5t-25.5 -8.5t-16 -17.5t-5.5 -30.5q0 -34 18 -46t63 -12zM213 532l-135 131h100l35 -36
q18 -20 26 -32q4 -7 6 -12h3q3 5 7 12q8 12 26 32l35 36h100l-135 -131h-68z" />
    <glyph glyph-name="uni01CF" unicode="&#x1cf;" horiz-adv-x="261" 
d="M81 0v660h99v-660h-99zM99 732l-135 131h100l35 -36q18 -20 26 -32q4 -7 6 -12h3q3 5 7 12q8 12 26 32l35 36h100l-135 -131h-68z" />
    <glyph glyph-name="uni01D0" unicode="&#x1d0;" horiz-adv-x="208" 
d="M72 532l-135 131h100l35 -36q18 -20 26 -32q4 -7 6 -12h3q3 5 7 12q8 12 26 32l35 36h100l-135 -131h-68zM55 0v460h99v-460h-99z" />
    <glyph glyph-name="uni01D1" unicode="&#x1d1;" horiz-adv-x="674" 
d="M337 -10q-77 0 -132 17t-91 56.5t-53 105t-17 161.5t17 161.5t53 105t91 56.5t132 17q76 0 131.5 -17t91.5 -56.5t53 -105t17 -161.5t-17 -161.5t-53 -105t-91.5 -56.5t-131.5 -17zM337 75q51 0 87.5 13t60 42.5t35 78.5t11.5 121t-11.5 121t-35 78.5t-60 42.5t-87.5 13
t-87.5 -13t-60 -42.5t-35 -78.5t-11.5 -121t11.5 -121t35 -78.5t60 -42.5t87.5 -13zM303 732l-135 131h100l35 -36q18 -20 26 -32q4 -7 6 -12h3q3 5 7 12q8 12 26 32l35 36h100l-135 -131h-68z" />
    <glyph glyph-name="uni01D2" unicode="&#x1d2;" horiz-adv-x="502" 
d="M251 -10q-55 0 -95 12t-66.5 40t-39 74t-12.5 114t12.5 114t39 74t66.5 40t95 12t95.5 -12t66.5 -40t38.5 -74t12.5 -114t-12.5 -114t-38.5 -74t-66.5 -40t-95.5 -12zM251 69q31 0 53 8t35.5 27t19.5 50t6 76t-6 76t-19.5 50t-35.5 27t-53 8t-53 -8t-35.5 -27t-19.5 -50
t-6 -76t6 -76t19.5 -50t35.5 -27t53 -8zM217 532l-135 131h100l35 -36q18 -20 26 -32q4 -7 6 -12h3q3 5 7 12q8 12 26 32l35 36h100l-135 -131h-68z" />
    <glyph glyph-name="uni01D3" unicode="&#x1d3;" horiz-adv-x="654" 
d="M491 660h99v-330q0 -96 -15.5 -161.5t-48 -105t-82 -56.5t-117.5 -17q-69 0 -118.5 17t-81.5 56.5t-47.5 105t-15.5 161.5v330h99v-330q0 -72 9.5 -121t29.5 -78.5t51 -42.5t74 -13t74 13t51 42.5t29.5 78.5t9.5 121v330zM293 732l-135 131h100l35 -36q18 -20 26 -32
q4 -7 6 -12h3q3 5 7 12q8 12 26 32l35 36h100l-135 -131h-68z" />
    <glyph glyph-name="uni01D4" unicode="&#x1d4;" horiz-adv-x="537" 
d="M391 0q-5 19 -9.5 38t-9.5 38q-17 -50 -51 -68t-90 -18q-50 0 -83 13.5t-52.5 42t-27.5 74t-8 110.5v230h99v-230q0 -48 3.5 -79t14 -49.5t28 -25.5t46.5 -7q60 0 88 33t30 114v244h99v-460h-77zM234 532l-135 131h100l35 -36q18 -20 26 -32q4 -7 6 -12h3q3 5 7 12
q8 12 26 32l35 36h100l-135 -131h-68z" />
    <glyph glyph-name="uni01D5" unicode="&#x1d5;" horiz-adv-x="654" 
d="M491 660h99v-330q0 -96 -15.5 -161.5t-48 -105t-82 -56.5t-117.5 -17q-69 0 -118.5 17t-81.5 56.5t-47.5 105t-15.5 161.5v330h99v-330q0 -72 9.5 -121t29.5 -78.5t51 -42.5t74 -13t74 13t51 42.5t29.5 78.5t9.5 121v330zM156 903v58h339v-58h-339zM189 738v100h87v-100
h-87zM375 738v100h87v-100h-87z" />
    <glyph glyph-name="uni01D6" unicode="&#x1d6;" horiz-adv-x="537" 
d="M391 0q-5 19 -9.5 38t-9.5 38q-17 -50 -51 -68t-90 -18q-50 0 -83 13.5t-52.5 42t-27.5 74t-8 110.5v230h99v-230q0 -48 3.5 -79t14 -49.5t28 -25.5t46.5 -7q60 0 88 33t30 114v244h99v-460h-77zM98 703v58h339v-58h-339zM131 538v100h87v-100h-87zM317 538v100h87v-100
h-87z" />
    <glyph glyph-name="uni01D7" unicode="&#x1d7;" horiz-adv-x="654" 
d="M491 660h99v-330q0 -96 -15.5 -161.5t-48 -105t-82 -56.5t-117.5 -17q-69 0 -118.5 17t-81.5 56.5t-47.5 105t-15.5 161.5v330h99v-330q0 -72 9.5 -121t29.5 -78.5t51 -42.5t74 -13t74 13t51 42.5t29.5 78.5t9.5 121v330zM189 738v100h87v-100h-87zM375 738v100h87v-100
h-87zM267 896l70 136h130l-116 -136h-84z" />
    <glyph glyph-name="uni01D8" unicode="&#x1d8;" horiz-adv-x="537" 
d="M391 0q-5 19 -9.5 38t-9.5 38q-17 -50 -51 -68t-90 -18q-50 0 -83 13.5t-52.5 42t-27.5 74t-8 110.5v230h99v-230q0 -48 3.5 -79t14 -49.5t28 -25.5t46.5 -7q60 0 88 33t30 114v244h99v-460h-77zM131 538v100h87v-100h-87zM317 538v100h87v-100h-87zM208 696l70 136h130
l-116 -136h-84z" />
    <glyph glyph-name="uni01D9" unicode="&#x1d9;" horiz-adv-x="654" 
d="M491 660h99v-330q0 -96 -15.5 -161.5t-48 -105t-82 -56.5t-117.5 -17q-69 0 -118.5 17t-81.5 56.5t-47.5 105t-15.5 161.5v330h99v-330q0 -72 9.5 -121t29.5 -78.5t51 -42.5t74 -13t74 13t51 42.5t29.5 78.5t9.5 121v330zM293 900l-135 131h100l35 -36q18 -20 26 -32
q4 -7 6 -12h3q3 5 7 12q8 12 26 32l35 36h100l-135 -131h-68zM189 738v100h87v-100h-87zM375 738v100h87v-100h-87z" />
    <glyph glyph-name="uni01DA" unicode="&#x1da;" horiz-adv-x="537" 
d="M391 0q-5 19 -9.5 38t-9.5 38q-17 -50 -51 -68t-90 -18q-50 0 -83 13.5t-52.5 42t-27.5 74t-8 110.5v230h99v-230q0 -48 3.5 -79t14 -49.5t28 -25.5t46.5 -7q60 0 88 33t30 114v244h99v-460h-77zM234 700l-135 131h100l35 -36q18 -20 26 -32q4 -7 6 -12h3q3 5 7 12
q8 12 26 32l35 36h100l-135 -131h-68zM131 538v100h87v-100h-87zM317 538v100h87v-100h-87z" />
    <glyph glyph-name="uni01DB" unicode="&#x1db;" horiz-adv-x="654" 
d="M491 660h99v-330q0 -96 -15.5 -161.5t-48 -105t-82 -56.5t-117.5 -17q-69 0 -118.5 17t-81.5 56.5t-47.5 105t-15.5 161.5v330h99v-330q0 -72 9.5 -121t29.5 -78.5t51 -42.5t74 -13t74 13t51 42.5t29.5 78.5t9.5 121v330zM189 738v100h87v-100h-87zM375 738v100h87v-100
h-87zM302 896l-115 136h129l71 -136h-85z" />
    <glyph glyph-name="uni01DC" unicode="&#x1dc;" horiz-adv-x="537" 
d="M391 0q-5 19 -9.5 38t-9.5 38q-17 -50 -51 -68t-90 -18q-50 0 -83 13.5t-52.5 42t-27.5 74t-8 110.5v230h99v-230q0 -48 3.5 -79t14 -49.5t28 -25.5t46.5 -7q60 0 88 33t30 114v244h99v-460h-77zM131 538v100h87v-100h-87zM317 538v100h87v-100h-87zM243 696l-115 136
h129l71 -136h-85z" />
    <glyph glyph-name="uni01DD" unicode="&#x1dd;" horiz-adv-x="484" 
d="M45 324q0 40 14 68t39.5 45t61 25t78.5 8q54 0 93 -12.5t64.5 -40.5t37.5 -74t12 -113q0 -69 -13 -115t-39 -73.5t-66.5 -39.5t-94.5 -12q-50 0 -86.5 9.5t-60.5 32t-35.5 59t-11.5 89.5q0 17 1.5 39t9.5 43h296q-1 36 -7 60.5t-19 39.5t-34.5 22t-54.5 7
q-39 0 -63 -14.5t-24 -52.5h-98zM234 69q30 0 50.5 6t33 20t19 37t8.5 57h-207q-1 -6 -1 -12v-12q0 -26 4 -44t15 -29.5t29.5 -17t48.5 -5.5z" />
    <glyph glyph-name="uni01DE" unicode="&#x1de;" horiz-adv-x="647" 
d="M535 0l-53 134h-317l-53 -134h-102q67 166 134 330t135 330h91q67 -166 133 -330t134 -330h-102zM198 219h250l-65 163l-23 63q-20 54 -26.5 86.5t-7.5 32.5h-4l-2.5 -12t-8.5 -33.5t-15 -50.5t-23 -63zM154 903v58h339v-58h-339zM187 738v100h87v-100h-87zM373 738v100
h87v-100h-87z" />
    <glyph glyph-name="uni01DF" unicode="&#x1df;" horiz-adv-x="495" 
d="M474 -3q-35 0 -58 6t-37.5 16t-21 24t-9.5 30q-17 -49 -51.5 -66t-91.5 -17q-33 0 -64 5.5t-55.5 20.5t-39 41.5t-14.5 69.5q0 48 17.5 74.5t45 39.5t60.5 16.5t63 6.5t60 5.5t60 5.5v43q0 40 -21 56.5t-74 16.5q-26 0 -38 -9q-32 -4 -42 -18t-10 -40h-98q0 78 45 112
t143 34q55 0 92.5 -10.5t60 -30t32 -47.5t9.5 -64v-198q0 -21 10.5 -32.5t26.5 -11.5v-79zM212 72q30 0 51.5 5t36 18t23 34.5t11.5 53.5l2 10t1 10l-125 -12q-19 -2 -34 -4.5t-25.5 -8.5t-16 -17.5t-5.5 -30.5q0 -34 18 -46t63 -12zM78 703v58h339v-58h-339zM111 538v100
h87v-100h-87zM297 538v100h87v-100h-87z" />
    <glyph glyph-name="uni01E0" unicode="&#x1e0;" horiz-adv-x="647" 
d="M535 0l-53 134h-317l-53 -134h-102q67 166 134 330t135 330h91q67 -166 133 -330t134 -330h-102zM198 219h250l-65 163l-23 63q-20 54 -26.5 86.5t-7.5 32.5h-4l-2.5 -12t-8.5 -33.5t-15 -50.5t-23 -63zM154 903v58h339v-58h-339zM280 738v100h87v-100h-87z" />
    <glyph glyph-name="uni01E1" unicode="&#x1e1;" horiz-adv-x="495" 
d="M474 -3q-35 0 -58 6t-37.5 16t-21 24t-9.5 30q-17 -49 -51.5 -66t-91.5 -17q-33 0 -64 5.5t-55.5 20.5t-39 41.5t-14.5 69.5q0 48 17.5 74.5t45 39.5t60.5 16.5t63 6.5t60 5.5t60 5.5v43q0 40 -21 56.5t-74 16.5q-26 0 -38 -9q-32 -4 -42 -18t-10 -40h-98q0 78 45 112
t143 34q55 0 92.5 -10.5t60 -30t32 -47.5t9.5 -64v-198q0 -21 10.5 -32.5t26.5 -11.5v-79zM212 72q30 0 51.5 5t36 18t23 34.5t11.5 53.5l2 10t1 10l-125 -12q-19 -2 -34 -4.5t-25.5 -8.5t-16 -17.5t-5.5 -30.5q0 -34 18 -46t63 -12zM78 703v58h339v-58h-339zM204 538v100
h87v-100h-87z" />
    <glyph glyph-name="uni01E2" unicode="&#x1e2;" horiz-adv-x="829" 
d="M398 0v134h-233l-53 -134h-102l269 660h499v-85h-281v-201h241v-84h-241v-205h281v-85h-380zM198 219h200v346h-75q-4 -20 -11 -45q-6 -21 -15.5 -50t-23.5 -64zM285 765v58h339v-58h-339z" />
    <glyph glyph-name="uni01E3" unicode="&#x1e3;" horiz-adv-x="744" 
d="M698 136q0 -41 -14 -68.5t-38 -45t-56 -25t-68 -7.5q-63 0 -100 25t-51 92q-15 -69 -55 -93t-111 -24q-35 0 -66 5.5t-55 20.5t-38 41.5t-14 69.5t14 68.5t36 39t49 18.5t53 8l134 14v43q0 40 -19.5 56.5t-65.5 16.5q-48 0 -64 -17.5t-16 -49.5h-98q0 75 41 110.5
t129 35.5q72 0 106.5 -25.5t44.5 -76.5q17 58 54.5 80t97.5 22q89 0 133 -43.5t44 -147.5q0 -16 -1.5 -38.5t-9.5 -42.5h-277q1 -35 7 -59.5t18 -40t31 -22.5t48 -7q37 0 58 13.5t21 53.5h98zM205 72q29 0 49.5 6t34 21t20 40t8.5 63q-26 -2 -51.5 -5t-51.5 -5
q-20 -2 -35.5 -4.5t-26 -8.5t-16 -17t-5.5 -31q0 -34 17 -46.5t57 -12.5zM519 391q-54 0 -76 -26t-25 -94h188v14q0 58 -17 82t-70 24zM202 565v58h339v-58h-339z" />
    <glyph glyph-name="uni01E4" unicode="&#x1e4;" horiz-adv-x="651" 
d="M506 0l-9 81l-5 28q-28 -65 -79.5 -92t-122.5 -27q-74 0 -121.5 25.5t-75.5 71t-39 108t-11 137.5q0 97 16.5 162t51 104t87.5 55.5t125 16.5q52 0 98 -8t80 -28.5t53.5 -56.5t19.5 -91h-97q0 31 -12 50t-32.5 30t-48.5 15t-60 4q-51 0 -86 -11.5t-56.5 -40.5t-30.5 -79
t-9 -127q0 -66 7 -113.5t25 -78t49 -45.5t79 -15q53 0 92.5 18t63.5 57h-114v52h138l7 34q0 9 1 14h-156v78h255v-126h70v-52h-70v-150h-83z" />
    <glyph glyph-name="uni01E5" unicode="&#x1e5;" horiz-adv-x="515" 
d="M465 -132q-9 -52 -62 -81t-160 -29q-112 0 -165.5 31.5t-53.5 91.5q0 41 22 71t54 57q-12 12 -19 27.5t-7 35.5q0 23 9 37.5t25 28.5q-34 20 -52 56.5t-18 95.5q0 51 14.5 85.5t40.5 55.5t63.5 30t84.5 9q60 0 105 -16t70 -54q17 32 41.5 46t57.5 14v-85q-50 0 -77 -37
q2 -11 4 -22.5t2 -25.5q0 -51 -14.5 -85.5t-40.5 -55.5t-64 -30t-84 -9q-16 0 -30.5 1t-26.5 4q-12 -15 -12 -37q0 -17 20 -25.5t50 -13.5t66 -10.5t68.5 -17t57 -33t31.5 -58.5h98v-52h-98zM241 189q58 0 81 22t23 79t-23 79t-81 22q-59 0 -81.5 -22t-22.5 -79t22.5 -79
t81.5 -22zM241 -39q-21 3 -41.5 7t-38.5 11q-14 -17 -27.5 -34t-13.5 -43q0 -35 28.5 -50t91.5 -15q29 0 49.5 6.5t25.5 24.5l-67 18v34h117q-6 12 -18.5 19t-29 11t-36.5 6t-40 5z" />
    <glyph glyph-name="Gcaron" unicode="&#x1e6;" horiz-adv-x="651" 
d="M506 0l-14 109q-28 -65 -79.5 -92t-122.5 -27q-74 0 -121.5 25.5t-75.5 71t-39 108t-11 137.5q0 97 16.5 162t51 104t87.5 55.5t125 16.5q52 0 98 -8t80 -28.5t53.5 -56.5t19.5 -91h-97q0 31 -12 50t-32.5 30t-48.5 15t-60 4q-51 0 -86 -11.5t-56.5 -40.5t-30.5 -79
t-9 -127q0 -66 7 -113.5t25 -78t49 -45.5t79 -15q78 0 127.5 41.5t60.5 133.5h-156v78h255v-328h-83zM291 732l-135 131h100l35 -36q18 -20 26 -32q4 -7 6 -12h3q3 5 7 12q8 12 26 32l35 36h100l-135 -131h-68z" />
    <glyph glyph-name="gcaron" unicode="&#x1e7;" horiz-adv-x="515" 
d="M444 290q0 -51 -14.5 -85.5t-40.5 -55.5t-64 -30t-84 -9q-16 0 -30 1t-27 4q-7 -8 -9.5 -17t-2.5 -19q0 -20 16.5 -27.5t52.5 -12.5q33 -5 72.5 -10.5t74 -20.5t57.5 -42t23 -74q0 -64 -53 -100.5t-172 -36.5q-112 0 -165.5 32t-53.5 93q0 42 22.5 72.5t54.5 57.5
q-27 24 -27 62q0 23 9 37.5t26 28.5q-34 20 -52.5 56.5t-18.5 95.5q0 51 14.5 85.5t40.5 55.5t63.5 30t84.5 9q61 0 105.5 -15.5t69.5 -53.5q32 59 99 59v-85q-50 0 -77 -36q6 -21 6 -49zM345 290q0 57 -22.5 79t-81.5 22q-29 0 -49 -5t-32 -17t-17.5 -31.5t-5.5 -47.5
q0 -29 5.5 -48t17.5 -31t32 -17t49 -5q59 0 81.5 22t22.5 79zM241 -39q-20 3 -40.5 7t-38.5 11q-7 -9 -14.5 -17t-13.5 -17t-10 -19.5t-4 -24.5q0 -35 28.5 -51t92.5 -16q56 0 92 14t36 52q0 19 -11 30t-29 16.5t-41 8.5t-47 6zM223 532l-135 131h100l35 -36q18 -20 26 -32
q4 -7 6 -12h3q3 5 7 12q8 12 26 32l35 36h100l-135 -131h-68z" />
    <glyph glyph-name="uni01E8" unicode="&#x1e8;" horiz-adv-x="604" 
d="M81 0v660h99v-286h114l185 286h107l-210 -326l215 -334h-107l-187 290h-117v-290h-99zM268 732l-135 131h100l35 -36q18 -20 26 -32q4 -7 6 -12h3q3 5 7 12q8 12 26 32l35 36h100l-135 -131h-68z" />
    <glyph glyph-name="uni01E9" unicode="&#x1e9;" horiz-adv-x="487" 
d="M69 0v687l99 13v-429h70l123 189h107l-146 -226l151 -234h-107l-123 189h-75v-189h-99zM246 732l-135 131h100l35 -36q18 -20 26 -32q4 -7 6 -12h3q3 5 7 12q8 12 26 32l35 36h100l-135 -131h-68z" />
    <glyph glyph-name="uni01EA" unicode="&#x1ea;" horiz-adv-x="674" 
d="M488 -164q-19 -14 -46.5 -20t-50.5 -6q-45 0 -74 22.5t-29 70.5q0 30 10 51.5t25 36.5q-73 4 -125.5 21.5t-87 56t-51 102t-16.5 159.5t17 161.5t53 105t91.5 56.5t131.5 17t131.5 -17t91.5 -56.5t53 -105t17 -161.5q0 -80 -11.5 -138t-35.5 -97.5t-60.5 -62.5t-86.5 -33
q-29 -8 -50.5 -26t-21.5 -53q0 -23 11.5 -35.5t38.5 -12.5q11 0 33 4.5t42 15.5v-56zM336 75q51 0 87.5 12.5t60 42.5t35 79t11.5 121t-11.5 120.5t-35 78.5t-60 43t-87.5 13q-50 0 -86.5 -13t-60.5 -43t-35.5 -78.5t-11.5 -120.5t11.5 -121t35.5 -79t60.5 -42.5t86.5 -12.5
z" />
    <glyph glyph-name="uni01EB" unicode="&#x1eb;" horiz-adv-x="502" 
d="M385 -164q-19 -14 -46.5 -20t-49.5 -6q-46 0 -75 22.5t-29 70.5q0 30 10.5 51.5t26.5 36.5q-48 3 -82.5 16.5t-57 42t-33.5 72.5t-11 108q0 68 12.5 114t39 74t66.5 40t95 12t95.5 -12t66.5 -40t38.5 -74t12.5 -114q0 -109 -32 -162.5t-101 -69.5q-28 -9 -49.5 -26
t-21.5 -53q0 -22 11.5 -35t38.5 -13q11 0 33 4.5t42 16.5v-56zM251 69q31 0 53 8t35.5 27t19.5 50t6 76t-6 76t-19.5 50t-35.5 27t-53 8t-53 -8t-35.5 -27t-19.5 -50t-6 -76t6 -76t19.5 -50t35.5 -27t53 -8z" />
    <glyph glyph-name="uni01EC" unicode="&#x1ec;" horiz-adv-x="674" 
d="M488 -164q-19 -14 -46.5 -20t-50.5 -6q-45 0 -74 22.5t-29 70.5q0 30 10 51.5t25 36.5q-73 4 -125.5 21.5t-87 56t-51 102t-16.5 159.5t17 161.5t53 105t91.5 56.5t131.5 17t131.5 -17t91.5 -56.5t53 -105t17 -161.5q0 -80 -11.5 -138t-35.5 -97.5t-60.5 -62.5t-86.5 -33
q-29 -8 -50.5 -26t-21.5 -53q0 -23 11.5 -35.5t38.5 -12.5q11 0 33 4.5t42 15.5v-56zM336 75q51 0 87.5 12.5t60 42.5t35 79t11.5 121t-11.5 120.5t-35 78.5t-60 43t-87.5 13q-50 0 -86.5 -13t-60.5 -43t-35.5 -78.5t-11.5 -120.5t11.5 -121t35.5 -79t60.5 -42.5t86.5 -12.5
zM167 765v58h339v-58h-339z" />
    <glyph glyph-name="uni01ED" unicode="&#x1ed;" horiz-adv-x="502" 
d="M385 -164q-19 -14 -46.5 -20t-49.5 -6q-46 0 -75 22.5t-29 70.5q0 30 10.5 51.5t26.5 36.5q-48 3 -82.5 16.5t-57 42t-33.5 72.5t-11 108q0 68 12.5 114t39 74t66.5 40t95 12t95.5 -12t66.5 -40t38.5 -74t12.5 -114q0 -109 -32 -162.5t-101 -69.5q-28 -9 -49.5 -26
t-21.5 -53q0 -22 11.5 -35t38.5 -13q11 0 33 4.5t42 16.5v-56zM251 69q31 0 53 8t35.5 27t19.5 50t6 76t-6 76t-19.5 50t-35.5 27t-53 8t-53 -8t-35.5 -27t-19.5 -50t-6 -76t6 -76t19.5 -50t35.5 -27t53 -8zM81 565v58h339v-58h-339z" />
    <glyph glyph-name="uni01F0" unicode="&#x1f0;" horiz-adv-x="243" 
d="M89 532l-135 131h100l35 -36q18 -20 26 -32q4 -7 6 -12h3q3 5 7 12q8 12 26 32l35 36h100l-135 -131h-68zM171 -93q0 -29 -7 -55.5t-23.5 -47t-45.5 -32.5t-72 -12v82q21 0 35 13t14 46v559h99v-553z" />
    <glyph glyph-name="uni01F1" unicode="&#x1f1;" horiz-adv-x="1181" 
d="M274 85q61 0 105.5 12.5t73 41t42 75.5t13.5 116t-13.5 116t-42 75.5t-73 41t-105.5 12.5h-94v-490h94zM81 0v660h193q87 0 150 -16.5t103.5 -55t60 -102t19.5 -156.5t-19.5 -156.5t-60 -102t-103.5 -55t-150 -16.5h-193zM678 0v85l353 490h-353v85h476v-85l-353 -490
h353v-85h-476z" />
    <glyph glyph-name="uni01F2" unicode="&#x1f2;" horiz-adv-x="1090" 
d="M274 85q61 0 105.5 12.5t73 41t42 75.5t13.5 116t-13.5 116t-42 75.5t-73 41t-105.5 12.5h-94v-490h94zM81 0v660h193q87 0 150 -16.5t103.5 -55t60 -102t19.5 -156.5t-19.5 -156.5t-60 -102t-103.5 -55t-150 -16.5h-193zM676 0v79l259 302h-259v79h386v-79l-259 -302
h259v-79h-386z" />
    <glyph glyph-name="uni01F3" unicode="&#x1f3;" horiz-adv-x="973" 
d="M234 -10q-50 0 -87 12.5t-61 41t-36 74.5t-12 112t12 111.5t36 74t61 41.5t87 13q53 0 85.5 -18.5t49.5 -65.5h3q-2 20 -3.5 41.5t-1.5 42.5v217q25 3 49.5 6t49.5 7v-700h-77q-5 19 -9 38t-9 39q-17 -50 -50 -68.5t-87 -18.5zM251 69q61 0 88 35t28 121v5
q0 89 -27.5 125t-88.5 36q-31 0 -53 -7.5t-35.5 -26t-19.5 -49.5t-6 -78t6 -78t19.5 -49.5t35.5 -26t53 -7.5zM560 0v79l259 302h-259v79h386v-79l-259 -302h259v-79h-386z" />
    <glyph glyph-name="uni01F4" unicode="&#x1f4;" horiz-adv-x="651" 
d="M506 0l-14 109q-28 -65 -79.5 -92t-122.5 -27q-74 0 -121.5 25.5t-75.5 71t-39 108t-11 137.5q0 97 16.5 162t51 104t87.5 55.5t125 16.5q52 0 98 -8t80 -28.5t53.5 -56.5t19.5 -91h-97q0 31 -12 50t-32.5 30t-48.5 15t-60 4q-51 0 -86 -11.5t-56.5 -40.5t-30.5 -79
t-9 -127q0 -66 7 -113.5t25 -78t49 -45.5t79 -15q78 0 127.5 41.5t60.5 133.5h-156v78h255v-328h-83zM261 728l70 136h130l-116 -136h-84z" />
    <glyph glyph-name="uni01F5" unicode="&#x1f5;" horiz-adv-x="515" 
d="M444 290q0 -51 -14.5 -85.5t-40.5 -55.5t-64 -30t-84 -9q-16 0 -30 1t-27 4q-7 -8 -9.5 -17t-2.5 -19q0 -20 16.5 -27.5t52.5 -12.5q33 -5 72.5 -10.5t74 -20.5t57.5 -42t23 -74q0 -64 -53 -100.5t-172 -36.5q-112 0 -165.5 32t-53.5 93q0 42 22.5 72.5t54.5 57.5
q-27 24 -27 62q0 23 9 37.5t26 28.5q-34 20 -52.5 56.5t-18.5 95.5q0 51 14.5 85.5t40.5 55.5t63.5 30t84.5 9q61 0 105.5 -15.5t69.5 -53.5q32 59 99 59v-85q-50 0 -77 -36q6 -21 6 -49zM345 290q0 57 -22.5 79t-81.5 22q-29 0 -49 -5t-32 -17t-17.5 -31.5t-5.5 -47.5
q0 -29 5.5 -48t17.5 -31t32 -17t49 -5q59 0 81.5 22t22.5 79zM241 -39q-20 3 -40.5 7t-38.5 11q-7 -9 -14.5 -17t-13.5 -17t-10 -19.5t-4 -24.5q0 -35 28.5 -51t92.5 -16q56 0 92 14t36 52q0 19 -11 30t-29 16.5t-41 8.5t-47 6zM193 528l70 136h130l-116 -136h-84z" />
    <glyph glyph-name="uni01F8" unicode="&#x1f8;" horiz-adv-x="683" 
d="M503 660h99v-660h-118l-229 392q-18 30 -32 56l-24.5 45.5t-17 31.5t-7.5 14h-3q2 -18 4 -37q2 -17 3.5 -37.5t1.5 -42.5v-422h-99v660h117q58 -99 115 -196.5t114 -196.5l46 -84q14 -26 25 -45t10 -19h3q-2 18 -4 37q-2 17 -3 37.5t-1 42.5v424zM320 728l-115 136h129
l71 -136h-85z" />
    <glyph glyph-name="uni01F9" unicode="&#x1f9;" horiz-adv-x="541" 
d="M68 0v460h77l6 -28t5 -28l8 -20q17 50 51.5 68t91.5 18q49 0 82 -11.5t52 -35.5t27 -62t8 -91v-270h-99v270q0 35 -3.5 58.5t-13.5 37.5t-27 19.5t-44 5.5q-32 0 -55 -8t-37.5 -26.5t-21.5 -47.5t-8 -71v-238h-99zM249 528l-115 136h129l71 -136h-85z" />
    <glyph glyph-name="Aringacute" unicode="&#x1fa;" horiz-adv-x="647" 
d="M535 0l-53 134h-317l-53 -134h-102q67 166 134 330t135 330h91q67 -166 133 -330t134 -330h-102zM198 219h250l-65 163l-23 63q-20 54 -26.5 86.5t-7.5 32.5h-4l-2.5 -12t-8.5 -33.5t-15 -50.5t-23 -63zM323 723q-45 0 -68.5 26t-23.5 64q0 35 25 61t67 26t67 -26t25 -61
q0 -38 -23.5 -64t-68.5 -26zM323 856q-22 0 -33 -12.5t-11 -31.5q0 -17 10.5 -30.5t33.5 -13.5q22 0 32.5 13.5t10.5 30.5q0 19 -11.5 31.5t-31.5 12.5zM263 947q17 35 35 68.5t35 67.5h129l-115 -136h-84z" />
    <glyph glyph-name="aringacute" unicode="&#x1fb;" horiz-adv-x="495" 
d="M474 -3q-35 0 -58 6t-37.5 16t-21 24t-9.5 30q-17 -49 -51.5 -66t-91.5 -17q-33 0 -64 5.5t-55.5 20.5t-39 41.5t-14.5 69.5q0 48 17.5 74.5t45 39.5t60.5 16.5t63 6.5t60 5.5t60 5.5v43q0 40 -21 56.5t-74 16.5q-26 0 -38 -9q-32 -4 -42 -18t-10 -40h-98q0 78 45 112
t143 34q55 0 92.5 -10.5t60 -30t32 -47.5t9.5 -64v-198q0 -21 10.5 -32.5t26.5 -11.5v-79zM212 72q30 0 51.5 5t36 18t23 34.5t11.5 53.5l2 10t1 10l-125 -12q-19 -2 -34 -4.5t-25.5 -8.5t-16 -17.5t-5.5 -30.5q0 -34 18 -46t63 -12zM247 523q-45 0 -68.5 26t-23.5 64
q0 35 25 61t67 26t67 -26t25 -61q0 -38 -23.5 -64t-68.5 -26zM247 656q-22 0 -33 -12.5t-11 -31.5q0 -17 10.5 -30.5t33.5 -13.5q22 0 32.5 13.5t10.5 30.5q0 19 -11.5 31.5t-31.5 12.5zM192 747l71 136h129q-29 -34 -57.5 -67.5t-57.5 -68.5h-85z" />
    <glyph glyph-name="AEacute" unicode="&#x1fc;" horiz-adv-x="829" 
d="M398 0v134h-233l-53 -134h-102l269 660h499v-85h-281v-201h241v-84h-241v-205h281v-85h-380zM198 219h200v346h-75q-4 -20 -11 -45q-6 -21 -15.5 -50t-23.5 -64zM400 728l70 136h130l-116 -136h-84z" />
    <glyph glyph-name="aeacute" unicode="&#x1fd;" horiz-adv-x="744" 
d="M698 136q0 -41 -14 -68.5t-38 -45t-56 -25t-68 -7.5q-63 0 -100 25t-51 92q-15 -69 -55 -93t-111 -24q-35 0 -66 5.5t-55 20.5t-38 41.5t-14 69.5t14 68.5t36 39t49 18.5t53 8l134 14v43q0 40 -19.5 56.5t-65.5 16.5q-48 0 -64 -17.5t-16 -49.5h-98q0 75 41 110.5
t129 35.5q72 0 106.5 -25.5t44.5 -76.5q17 58 54.5 80t97.5 22q89 0 133 -43.5t44 -147.5q0 -16 -1.5 -38.5t-9.5 -42.5h-277q1 -35 7 -59.5t18 -40t31 -22.5t48 -7q37 0 58 13.5t21 53.5h98zM205 72q29 0 49.5 6t34 21t20 40t8.5 63q-26 -2 -51.5 -5t-51.5 -5
q-20 -2 -35.5 -4.5t-26 -8.5t-16 -17t-5.5 -31q0 -34 17 -46.5t57 -12.5zM519 391q-54 0 -76 -26t-25 -94h188v14q0 58 -17 82t-70 24zM311 528l70 136h130l-116 -136h-84z" />
    <glyph glyph-name="Oslashacute" unicode="&#x1fe;" horiz-adv-x="674" 
d="M36 23l57 68q-26 40 -37.5 98.5t-11.5 140.5q0 96 17 161.5t53 105t91 56.5t132 17q65 0 114 -12.5t84 -40.5l47 57l56 -47l-54 -64q46 -79 46 -233q0 -96 -17 -161.5t-53 -105t-91.5 -56.5t-131.5 -17q-63 0 -110.5 11.5t-82.5 37.5l-52 -63zM143 330q0 -100 22 -154
l306 366q-23 23 -56 33t-78 10q-51 0 -87.5 -13t-60 -42.5t-35 -78.5t-11.5 -121zM337 75q51 0 87.5 13t60 42.5t35 78.5t11.5 121q0 91 -20 146l-304 -362q23 -21 55 -30t75 -9zM277 728l70 136h130l-116 -136h-84z" />
    <glyph glyph-name="oslashacute" unicode="&#x1ff;" horiz-adv-x="502" 
d="M15 0l55 66q-16 29 -24 69t-8 95q0 68 12.5 114t39 74t66.5 40t95 12q42 0 75 -7t58 -24l49 59l56 -48l-54 -63q29 -54 29 -157q0 -68 -12.5 -114t-38.5 -74t-66.5 -40t-95.5 -12q-81 0 -127 26l-53 -64zM137 230q0 -45 8 -75l180 214q-13 12 -31 17t-43 5q-31 0 -53 -8
t-35.5 -27t-19.5 -50t-6 -76zM251 69q31 0 53 8t35.5 27t19.5 50t6 76q0 41 -7 65l-175 -209q23 -17 68 -17zM191 528l70 136h130l-116 -136h-84z" />
    <glyph glyph-name="uni0200" unicode="&#x200;" horiz-adv-x="647" 
d="M535 0l-53 134h-317l-53 -134h-102q67 166 134 330t135 330h91q67 -166 133 -330t134 -330h-102zM198 219h250l-65 163l-23 63q-20 54 -26.5 86.5t-7.5 32.5h-4l-2.5 -12t-8.5 -33.5t-15 -50.5t-23 -63zM409 735l-96 136h105l58 -136h-67zM255 735l-109 136h111l70 -136
h-72z" />
    <glyph glyph-name="uni0201" unicode="&#x201;" horiz-adv-x="495" 
d="M474 -3q-35 0 -58 6t-37.5 16t-21 24t-9.5 30q-17 -49 -51.5 -66t-91.5 -17q-33 0 -64 5.5t-55.5 20.5t-39 41.5t-14.5 69.5q0 48 17.5 74.5t45 39.5t60.5 16.5t63 6.5t60 5.5t60 5.5v43q0 40 -21 56.5t-74 16.5q-26 0 -38 -9q-32 -4 -42 -18t-10 -40h-98q0 78 45 112
t143 34q55 0 92.5 -10.5t60 -30t32 -47.5t9.5 -64v-198q0 -21 10.5 -32.5t26.5 -11.5v-79zM212 72q30 0 51.5 5t36 18t23 34.5t11.5 53.5l2 10t1 10l-125 -12q-19 -2 -34 -4.5t-25.5 -8.5t-16 -17.5t-5.5 -30.5q0 -34 18 -46t63 -12zM333 535l-96 136h105l58 -136h-67z
M179 535l-109 136h111l70 -136h-72z" />
    <glyph glyph-name="uni0202" unicode="&#x202;" horiz-adv-x="647" 
d="M535 0l-53 134h-317l-53 -134h-102q67 166 134 330t135 330h91q67 -166 133 -330t134 -330h-102zM198 219h250l-65 163l-23 63q-20 54 -26.5 86.5t-7.5 32.5h-4l-2.5 -12t-8.5 -33.5t-15 -50.5t-23 -63zM323 782q-73 0 -73 -48h-71q0 59 36 85.5t108 26.5t108 -26.5
t36 -85.5h-71q0 48 -73 48z" />
    <glyph glyph-name="uni0203" unicode="&#x203;" horiz-adv-x="495" 
d="M474 -3q-35 0 -58 6t-37.5 16t-21 24t-9.5 30q-17 -49 -51.5 -66t-91.5 -17q-33 0 -64 5.5t-55.5 20.5t-39 41.5t-14.5 69.5q0 48 17.5 74.5t45 39.5t60.5 16.5t63 6.5t60 5.5t60 5.5v43q0 40 -21 56.5t-74 16.5q-26 0 -38 -9q-32 -4 -42 -18t-10 -40h-98q0 78 45 112
t143 34q55 0 92.5 -10.5t60 -30t32 -47.5t9.5 -64v-198q0 -21 10.5 -32.5t26.5 -11.5v-79zM212 72q30 0 51.5 5t36 18t23 34.5t11.5 53.5l2 10t1 10l-125 -12q-19 -2 -34 -4.5t-25.5 -8.5t-16 -17.5t-5.5 -30.5q0 -34 18 -46t63 -12zM247 582q-73 0 -73 -48h-71
q0 59 36 85.5t108 26.5t108 -26.5t36 -85.5h-71q0 48 -73 48z" />
    <glyph glyph-name="uni0204" unicode="&#x204;" horiz-adv-x="562" 
d="M81 0v660h430v-85h-331v-201h291v-84h-291v-205h331v-85h-430zM350 735l-96 136h105l58 -136h-67zM196 735l-109 136h111l70 -136h-72z" />
    <glyph glyph-name="uni0205" unicode="&#x205;" horiz-adv-x="484" 
d="M438 136q0 -41 -14.5 -68.5t-40 -45t-61 -25t-78.5 -7.5q-54 0 -92.5 12t-64 40t-37.5 74t-12 113q0 69 12.5 115.5t39 74t66.5 39.5t94 12q50 0 86.5 -9.5t60.5 -32t36 -59t12 -90.5q0 -16 -2 -38.5t-9 -42.5h-297q1 -36 7.5 -60.5t19.5 -39.5t34.5 -22t54.5 -7
q39 0 63 13.5t24 53.5h98zM249 391q-30 0 -51 -6t-33.5 -20.5t-19 -37.5t-7.5 -56h207q0 5 0.5 11t0.5 13q0 25 -4 43.5t-15 30t-30 17t-48 5.5zM312 535l-96 136h105l58 -136h-67zM158 535l-109 136h111l70 -136h-72z" />
    <glyph glyph-name="uni0206" unicode="&#x206;" horiz-adv-x="562" 
d="M81 0v660h430v-85h-331v-201h291v-84h-291v-205h331v-85h-430zM280 782q-73 0 -73 -48h-71q0 59 36 85.5t108 26.5t108 -26.5t36 -85.5h-71q0 48 -73 48z" />
    <glyph glyph-name="uni0207" unicode="&#x207;" horiz-adv-x="484" 
d="M438 136q0 -41 -14.5 -68.5t-40 -45t-61 -25t-78.5 -7.5q-54 0 -92.5 12t-64 40t-37.5 74t-12 113q0 69 12.5 115.5t39 74t66.5 39.5t94 12q50 0 86.5 -9.5t60.5 -32t36 -59t12 -90.5q0 -16 -2 -38.5t-9 -42.5h-297q1 -36 7.5 -60.5t19.5 -39.5t34.5 -22t54.5 -7
q39 0 63 13.5t24 53.5h98zM249 391q-30 0 -51 -6t-33.5 -20.5t-19 -37.5t-7.5 -56h207q0 5 0.5 11t0.5 13q0 25 -4 43.5t-15 30t-30 17t-48 5.5zM241 582q-73 0 -73 -48h-71q0 59 36 85.5t108 26.5t108 -26.5t36 -85.5h-71q0 48 -73 48z" />
    <glyph glyph-name="uni0208" unicode="&#x208;" horiz-adv-x="261" 
d="M81 0v660h99v-660h-99zM194 735l-96 136h105l58 -136h-67zM40 735l-109 136h111l70 -136h-72z" />
    <glyph glyph-name="uni0209" unicode="&#x209;" horiz-adv-x="208" 
d="M168 535l-96 136h105l58 -136h-67zM14 535l-109 136h111l70 -136h-72zM55 0v460h99v-460h-99z" />
    <glyph glyph-name="uni020A" unicode="&#x20a;" horiz-adv-x="261" 
d="M81 0v660h99v-660h-99zM132 782q-73 0 -73 -48h-71q0 59 36 85.5t108 26.5t108 -26.5t36 -85.5h-71q0 48 -73 48z" />
    <glyph glyph-name="uni020B" unicode="&#x20b;" horiz-adv-x="208" 
d="M106 582q-73 0 -73 -48h-71q0 59 36 85.5t108 26.5t108 -26.5t36 -85.5h-71q0 48 -73 48zM55 0v460h99v-460h-99z" />
    <glyph glyph-name="uni020C" unicode="&#x20c;" horiz-adv-x="674" 
d="M337 -10q-77 0 -132 17t-91 56.5t-53 105t-17 161.5t17 161.5t53 105t91 56.5t132 17q76 0 131.5 -17t91.5 -56.5t53 -105t17 -161.5t-17 -161.5t-53 -105t-91.5 -56.5t-131.5 -17zM337 75q51 0 87.5 13t60 42.5t35 78.5t11.5 121t-11.5 121t-35 78.5t-60 42.5t-87.5 13
t-87.5 -13t-60 -42.5t-35 -78.5t-11.5 -121t11.5 -121t35 -78.5t60 -42.5t87.5 -13zM398 735l-96 136h105l58 -136h-67zM244 735l-109 136h111l70 -136h-72z" />
    <glyph glyph-name="uni020D" unicode="&#x20d;" horiz-adv-x="502" 
d="M251 -10q-55 0 -95 12t-66.5 40t-39 74t-12.5 114t12.5 114t39 74t66.5 40t95 12t95.5 -12t66.5 -40t38.5 -74t12.5 -114t-12.5 -114t-38.5 -74t-66.5 -40t-95.5 -12zM251 69q31 0 53 8t35.5 27t19.5 50t6 76t-6 76t-19.5 50t-35.5 27t-53 8t-53 -8t-35.5 -27t-19.5 -50
t-6 -76t6 -76t19.5 -50t35.5 -27t53 -8zM313 535l-96 136h105l58 -136h-67zM159 535l-109 136h111l70 -136h-72z" />
    <glyph glyph-name="uni020E" unicode="&#x20e;" horiz-adv-x="674" 
d="M337 -10q-77 0 -132 17t-91 56.5t-53 105t-17 161.5t17 161.5t53 105t91 56.5t132 17q76 0 131.5 -17t91.5 -56.5t53 -105t17 -161.5t-17 -161.5t-53 -105t-91.5 -56.5t-131.5 -17zM337 75q51 0 87.5 13t60 42.5t35 78.5t11.5 121t-11.5 121t-35 78.5t-60 42.5t-87.5 13
t-87.5 -13t-60 -42.5t-35 -78.5t-11.5 -121t11.5 -121t35 -78.5t60 -42.5t87.5 -13zM336 782q-73 0 -73 -48h-71q0 59 36 85.5t108 26.5t108 -26.5t36 -85.5h-71q0 48 -73 48z" />
    <glyph glyph-name="uni020F" unicode="&#x20f;" horiz-adv-x="502" 
d="M251 -10q-55 0 -95 12t-66.5 40t-39 74t-12.5 114t12.5 114t39 74t66.5 40t95 12t95.5 -12t66.5 -40t38.5 -74t12.5 -114t-12.5 -114t-38.5 -74t-66.5 -40t-95.5 -12zM251 69q31 0 53 8t35.5 27t19.5 50t6 76t-6 76t-19.5 50t-35.5 27t-53 8t-53 -8t-35.5 -27t-19.5 -50
t-6 -76t6 -76t19.5 -50t35.5 -27t53 -8zM251 582q-73 0 -73 -48h-71q0 59 36 85.5t108 26.5t108 -26.5t36 -85.5h-71q0 48 -73 48z" />
    <glyph glyph-name="uni0210" unicode="&#x210;" horiz-adv-x="620" 
d="M475 0l-140 218h-155v-218h-99v660h256q59 0 102.5 -11t72 -36.5t42 -67t13.5 -101.5q0 -95 -31 -145.5t-96 -68.5q38 -58 74.5 -115.5t74.5 -114.5h-114zM331 303q37 0 63 7t42.5 23.5t24 43.5t7.5 67q0 73 -32 102t-105 29h-151v-272h151zM371 735l-96 136h105l58 -136
h-67zM217 735l-109 136h111l70 -136h-72z" />
    <glyph glyph-name="uni0211" unicode="&#x211;" horiz-adv-x="312" 
d="M60 0v460h83l10 -60q2 -7 3 -14t3 -13q16 53 49 73t88 20v-79q-70 0 -102.5 -33.5t-34.5 -115.5v-238h-99zM256 535l-96 136h105l58 -136h-67zM102 535l-109 136h111l70 -136h-72z" />
    <glyph glyph-name="uni0212" unicode="&#x212;" horiz-adv-x="620" 
d="M475 0l-140 218h-155v-218h-99v660h256q59 0 102.5 -11t72 -36.5t42 -67t13.5 -101.5q0 -95 -31 -145.5t-96 -68.5q38 -58 74.5 -115.5t74.5 -114.5h-114zM331 303q37 0 63 7t42.5 23.5t24 43.5t7.5 67q0 73 -32 102t-105 29h-151v-272h151zM309 782q-73 0 -73 -48h-71
q0 59 36 85.5t108 26.5t108 -26.5t36 -85.5h-71q0 48 -73 48z" />
    <glyph glyph-name="uni0213" unicode="&#x213;" horiz-adv-x="312" 
d="M60 0v460h83l10 -60q2 -7 3 -14t3 -13q16 53 49 73t88 20v-79q-70 0 -102.5 -33.5t-34.5 -115.5v-238h-99zM157 582q-73 0 -73 -48h-71q0 59 36 85.5t108 26.5t108 -26.5t36 -85.5h-71q0 48 -73 48z" />
    <glyph glyph-name="uni0214" unicode="&#x214;" horiz-adv-x="654" 
d="M491 660h99v-330q0 -96 -15.5 -161.5t-48 -105t-82 -56.5t-117.5 -17q-69 0 -118.5 17t-81.5 56.5t-47.5 105t-15.5 161.5v330h99v-330q0 -72 9.5 -121t29.5 -78.5t51 -42.5t74 -13t74 13t51 42.5t29.5 78.5t9.5 121v330zM388 735l-96 136h105l58 -136h-67zM234 735
l-109 136h111l70 -136h-72z" />
    <glyph glyph-name="uni0215" unicode="&#x215;" horiz-adv-x="537" 
d="M391 0q-5 19 -9.5 38t-9.5 38q-17 -50 -51 -68t-90 -18q-50 0 -83 13.5t-52.5 42t-27.5 74t-8 110.5v230h99v-230q0 -48 3.5 -79t14 -49.5t28 -25.5t46.5 -7q60 0 88 33t30 114v244h99v-460h-77zM329 535l-96 136h105l58 -136h-67zM175 535l-109 136h111l70 -136h-72z
" />
    <glyph glyph-name="uni0216" unicode="&#x216;" horiz-adv-x="654" 
d="M491 660h99v-330q0 -96 -15.5 -161.5t-48 -105t-82 -56.5t-117.5 -17q-69 0 -118.5 17t-81.5 56.5t-47.5 105t-15.5 161.5v330h99v-330q0 -72 9.5 -121t29.5 -78.5t51 -42.5t74 -13t74 13t51 42.5t29.5 78.5t9.5 121v330zM326 782q-73 0 -73 -48h-71q0 59 36 85.5
t108 26.5t108 -26.5t36 -85.5h-71q0 48 -73 48z" />
    <glyph glyph-name="uni0217" unicode="&#x217;" horiz-adv-x="537" 
d="M391 0q-5 19 -9.5 38t-9.5 38q-17 -50 -51 -68t-90 -18q-50 0 -83 13.5t-52.5 42t-27.5 74t-8 110.5v230h99v-230q0 -48 3.5 -79t14 -49.5t28 -25.5t46.5 -7q60 0 88 33t30 114v244h99v-460h-77zM268 582q-73 0 -73 -48h-71q0 59 36 85.5t108 26.5t108 -26.5t36 -85.5
h-71q0 48 -73 48z" />
    <glyph glyph-name="Scommaaccent" unicode="&#x218;" horiz-adv-x="594" 
d="M440 486q0 55 -32.5 77t-113.5 22q-79 0 -115.5 -22t-36.5 -80q0 -35 12.5 -54.5t33 -30t47.5 -14.5t56 -8q52 -7 99.5 -17t83 -30.5t56.5 -56t21 -93.5q0 -100 -63 -144.5t-200 -44.5t-197 44.5t-60 139.5h98q0 -53 35.5 -76t125.5 -23q82 0 122 21.5t40 80.5
q0 34 -13.5 53.5t-36 30t-51.5 15t-60 8.5q-52 7 -97.5 18t-79 32.5t-52.5 56.5t-19 92q0 44 12.5 78.5t42 58.5t78 37t120.5 13q123 0 182.5 -42t59.5 -142h-98zM251 -225q21 0 35 8.5t14 44.5h-52v94h99v-94q0 -22 -4 -40t-14.5 -31t-29 -20t-48.5 -7v45z" />
    <glyph glyph-name="scommaaccent" unicode="&#x219;" horiz-adv-x="454" 
d="M317 324q0 38 -22 52.5t-71 14.5q-47 0 -70 -12.5t-23 -46.5q0 -18 7.5 -29t20 -17t29.5 -9t36 -6q42 -6 77.5 -14.5t62 -24.5t41.5 -41.5t15 -63.5q0 -66 -44.5 -101.5t-152.5 -35.5q-103 0 -149 34.5t-46 111.5h95q0 -38 25 -52.5t76 -14.5t74.5 12.5t23.5 46.5
q0 18 -8 29t-21.5 17t-31 9t-37.5 6q-38 5 -72.5 13.5t-61 24.5t-42 41.5t-15.5 65.5q0 65 44 100.5t149 35.5q100 0 144.5 -34.5t44.5 -111.5h-98zM181 -225q21 0 35 8.5t14 44.5h-52v94h99v-94q0 -22 -4 -40t-14.5 -31t-29 -20t-48.5 -7v45z" />
    <glyph glyph-name="uni021A" unicode="&#x21a;" horiz-adv-x="544" 
d="M223 0v575h-211v85h521v-85h-211v-575h-99zM225 -225q21 0 35 8.5t14 44.5h-52v94h99v-94q0 -22 -4 -40t-14.5 -31t-29 -20t-48.5 -7v45z" />
    <glyph glyph-name="uni021B" unicode="&#x21b;" horiz-adv-x="324" 
d="M286 0q-51 0 -91 9t-67.5 30t-42 55.5t-14.5 85.5v201h-61v79h61v98q25 5 49.5 10.5t49.5 11.5v-120h137v-79h-137v-201q0 -11 2 -19t5 -15q7 -38 31 -52.5t78 -14.5v-79zM115 -225q21 0 35 8.5t14 44.5h-52v94h99v-94q0 -22 -4 -40t-14.5 -31t-29 -20t-48.5 -7v45z" />
    <glyph glyph-name="uni021C" unicode="&#x21c;" horiz-adv-x="598" 
d="M288 374q30 0 57 5t47.5 17t32.5 33t12 53q0 59 -39 81t-113 22q-77 0 -111.5 -22t-34.5 -77h-98q0 100 62 142t179 42q70 0 119.5 -13.5t80 -38t44 -59.5t10.5 -77q-5 -64 -41.5 -99.5t-93.5 -49.5q70 -13 110 -49.5t40 -110.5q0 -94 -66.5 -138.5t-199.5 -44.5
t-193.5 44.5t-60.5 139.5h98q0 -54 37.5 -76.5t122.5 -22.5q78 0 120.5 22t42.5 81q0 32 -13 53.5t-35 34.5t-51 18.5t-62 5.5h-49v84h46z" />
    <glyph glyph-name="uni021D" unicode="&#x21d;" horiz-adv-x="459" 
d="M220 174q18 0 34.5 5t28.5 17.5t19 34.5t7 56q0 59 -23.5 81.5t-69.5 22.5q-43 0 -64 -18t-21 -51h-98q0 78 47 113t132 35q55 0 93.5 -13.5t62 -37.5t33.5 -58t7 -75q-4 -65 -30.5 -101.5t-71.5 -50.5q55 -13 86 -51t31 -115q0 -92 -52 -135t-158 -43q-99 0 -144.5 36.5
t-45.5 111.5h98q0 -37 23.5 -53t71.5 -16q26 0 46 4.5t34 16.5t21 32t7 51q0 34 -8 56.5t-21.5 36t-32 19t-39.5 5.5h-49v84h46z" />
    <glyph glyph-name="uni021E" unicode="&#x21e;" horiz-adv-x="683" 
d="M503 0v290h-323v-290h-99v660h99v-286h323v286h99v-660h-99zM307 732l-135 131h100l35 -36q18 -20 26 -32q4 -7 6 -12h3q3 5 7 12q8 12 26 32l35 36h100l-135 -131h-68z" />
    <glyph glyph-name="uni021F" unicode="&#x21f;" horiz-adv-x="540" 
d="M68 0v687q25 3 49.5 6t49.5 7v-230q0 -21 -1.5 -42.5t-3.5 -41.5h2q17 48 50.5 66t87.5 18q88 0 131 -45.5t43 -154.5v-270h-99v270q0 70 -22.5 95.5t-69.5 25.5q-62 0 -90 -35t-28 -122v-234h-99zM262 732l-135 131h100l35 -36q18 -20 26 -32q4 -7 6 -12h3q3 5 7 12
q8 12 26 32l35 36h100l-135 -131h-68z" />
    <glyph glyph-name="uni0220" unicode="&#x220;" horiz-adv-x="541" 
d="M68 0v460h77l6 -28t5 -28l8 -21q16 50 50.5 68.5t90.5 18.5q50 0 83 -13.5t52.5 -42.5t27.5 -74.5t8 -109.5v-470h-99v470q0 48 -3.5 79t-14 49t-28.5 25.5t-46 7.5q-61 0 -88.5 -33t-29.5 -116v-242h-99z" />
    <glyph glyph-name="uni0226" unicode="&#x226;" horiz-adv-x="647" 
d="M535 0l-53 134h-317l-53 -134h-102q67 166 134 330t135 330h91q67 -166 133 -330t134 -330h-102zM198 219h250l-65 163l-23 63q-20 54 -26.5 86.5t-7.5 32.5h-4l-2.5 -12t-8.5 -33.5t-15 -50.5t-23 -63zM280 738v100h87v-100h-87z" />
    <glyph glyph-name="uni0227" unicode="&#x227;" horiz-adv-x="495" 
d="M474 -3q-35 0 -58 6t-37.5 16t-21 24t-9.5 30q-17 -49 -51.5 -66t-91.5 -17q-33 0 -64 5.5t-55.5 20.5t-39 41.5t-14.5 69.5q0 48 17.5 74.5t45 39.5t60.5 16.5t63 6.5t60 5.5t60 5.5v43q0 40 -21 56.5t-74 16.5q-26 0 -38 -9q-32 -4 -42 -18t-10 -40h-98q0 78 45 112
t143 34q55 0 92.5 -10.5t60 -30t32 -47.5t9.5 -64v-198q0 -21 10.5 -32.5t26.5 -11.5v-79zM212 72q30 0 51.5 5t36 18t23 34.5t11.5 53.5l2 10t1 10l-125 -12q-19 -2 -34 -4.5t-25.5 -8.5t-16 -17.5t-5.5 -30.5q0 -34 18 -46t63 -12zM204 538v100h87v-100h-87z" />
    <glyph glyph-name="uni0228" unicode="&#x228;" horiz-adv-x="562" 
d="M383 -121q0 -45 -34.5 -66.5t-85.5 -21.5q-25 0 -46 4.5t-32 11.5v55q29 -16 70 -16q23 0 36.5 6.5t13.5 23.5q0 20 -18 30t-60 12l9 82h-155v660h430v-85h-331v-201h291v-84h-291v-205h331v-85h-219l-4 -43q45 -3 70 -21.5t25 -56.5z" />
    <glyph glyph-name="uni0229" unicode="&#x229;" horiz-adv-x="484" 
d="M215 -153q20 0 32 6.5t12 23.5q0 19 -17 29.5t-55 12.5l8 74q-41 5 -70.5 20t-49 43.5t-28.5 71t-9 101.5q0 69 12.5 115.5t39 74t66.5 39.5t94 12q50 0 86.5 -9.5t60.5 -32t36 -59t12 -90.5q0 -16 -2 -38.5t-9 -42.5h-297q1 -36 7.5 -60.5t19.5 -39.5t34.5 -22t54.5 -7
q38 0 62.5 14.5t24.5 52.5h98q0 -39 -14 -66.5t-39 -45t-59.5 -26t-74.5 -8.5l-3 -33q42 -3 65.5 -21t23.5 -56q0 -45 -32.5 -66.5t-81.5 -21.5q-25 0 -46 4.5t-32 11.5v54q14 -7 32 -11t38 -4zM249 391q-30 0 -51 -6t-33.5 -20.5t-19 -37.5t-7.5 -56h207q0 5 0.5 11t0.5 13
q0 25 -4 43.5t-15 30t-30 17t-48 5.5z" />
    <glyph glyph-name="uni022A" unicode="&#x22a;" horiz-adv-x="674" 
d="M337 -10q-77 0 -132 17t-91 56.5t-53 105t-17 161.5t17 161.5t53 105t91 56.5t132 17q76 0 131.5 -17t91.5 -56.5t53 -105t17 -161.5t-17 -161.5t-53 -105t-91.5 -56.5t-131.5 -17zM337 75q51 0 87.5 13t60 42.5t35 78.5t11.5 121t-11.5 121t-35 78.5t-60 42.5t-87.5 13
t-87.5 -13t-60 -42.5t-35 -78.5t-11.5 -121t11.5 -121t35 -78.5t60 -42.5t87.5 -13zM166 903v58h339v-58h-339zM199 738v100h87v-100h-87zM385 738v100h87v-100h-87z" />
    <glyph glyph-name="uni022B" unicode="&#x22b;" horiz-adv-x="502" 
d="M251 -10q-55 0 -95 12t-66.5 40t-39 74t-12.5 114t12.5 114t39 74t66.5 40t95 12t95.5 -12t66.5 -40t38.5 -74t12.5 -114t-12.5 -114t-38.5 -74t-66.5 -40t-95.5 -12zM251 69q31 0 53 8t35.5 27t19.5 50t6 76t-6 76t-19.5 50t-35.5 27t-53 8t-53 -8t-35.5 -27t-19.5 -50
t-6 -76t6 -76t19.5 -50t35.5 -27t53 -8zM81 703v58h339v-58h-339zM114 538v100h87v-100h-87zM300 538v100h87v-100h-87z" />
    <glyph glyph-name="uni022C" unicode="&#x22c;" horiz-adv-x="674" 
d="M337 -10q-77 0 -132 17t-91 56.5t-53 105t-17 161.5t17 161.5t53 105t91 56.5t132 17q76 0 131.5 -17t91.5 -56.5t53 -105t17 -161.5t-17 -161.5t-53 -105t-91.5 -56.5t-131.5 -17zM337 75q51 0 87.5 13t60 42.5t35 78.5t11.5 121t-11.5 121t-35 78.5t-60 42.5t-87.5 13
t-87.5 -13t-60 -42.5t-35 -78.5t-11.5 -121t11.5 -121t35 -78.5t60 -42.5t87.5 -13zM167 903v58h339v-58h-339zM404 734q-23 0 -37 7.5t-31 18.5q-18 12 -29.5 19t-24.5 7q-31 0 -31 -53h-62q0 21 2.5 41.5t10.5 36.5t24 26t43 10q23 0 37 -6.5t30 -17.5q17 -13 29 -20.5
t26 -7.5q15 0 21.5 11.5t6.5 40.5h65q0 -24 -2 -44.5t-10 -35.5t-24 -24t-44 -9z" />
    <glyph glyph-name="uni022D" unicode="&#x22d;" horiz-adv-x="502" 
d="M251 -10q-55 0 -95 12t-66.5 40t-39 74t-12.5 114t12.5 114t39 74t66.5 40t95 12t95.5 -12t66.5 -40t38.5 -74t12.5 -114t-12.5 -114t-38.5 -74t-66.5 -40t-95.5 -12zM251 69q31 0 53 8t35.5 27t19.5 50t6 76t-6 76t-19.5 50t-35.5 27t-53 8t-53 -8t-35.5 -27t-19.5 -50
t-6 -76t6 -76t19.5 -50t35.5 -27t53 -8zM81 703v58h339v-58h-339zM318 534q-23 0 -37 7.5t-31 18.5q-18 12 -29.5 19t-23.5 7q-32 0 -32 -53h-62q0 21 2.5 41.5t11 36.5t24.5 26t43 10q22 0 36.5 -6.5t29.5 -17.5q18 -13 29.5 -20.5t25.5 -7.5q16 0 22 11.5t6 40.5h65
q0 -24 -2 -44.5t-10 -35.5t-24 -24t-44 -9z" />
    <glyph glyph-name="uni022E" unicode="&#x22e;" horiz-adv-x="674" 
d="M337 -10q-77 0 -132 17t-91 56.5t-53 105t-17 161.5t17 161.5t53 105t91 56.5t132 17q76 0 131.5 -17t91.5 -56.5t53 -105t17 -161.5t-17 -161.5t-53 -105t-91.5 -56.5t-131.5 -17zM337 75q51 0 87.5 13t60 42.5t35 78.5t11.5 121t-11.5 121t-35 78.5t-60 42.5t-87.5 13
t-87.5 -13t-60 -42.5t-35 -78.5t-11.5 -121t11.5 -121t35 -78.5t60 -42.5t87.5 -13zM292 738v100h87v-100h-87z" />
    <glyph glyph-name="uni022F" unicode="&#x22f;" horiz-adv-x="502" 
d="M251 -10q-55 0 -95 12t-66.5 40t-39 74t-12.5 114t12.5 114t39 74t66.5 40t95 12t95.5 -12t66.5 -40t38.5 -74t12.5 -114t-12.5 -114t-38.5 -74t-66.5 -40t-95.5 -12zM251 69q31 0 53 8t35.5 27t19.5 50t6 76t-6 76t-19.5 50t-35.5 27t-53 8t-53 -8t-35.5 -27t-19.5 -50
t-6 -76t6 -76t19.5 -50t35.5 -27t53 -8zM207 538v100h87v-100h-87z" />
    <glyph glyph-name="uni0230" unicode="&#x230;" horiz-adv-x="674" 
d="M337 -10q-77 0 -132 17t-91 56.5t-53 105t-17 161.5t17 161.5t53 105t91 56.5t132 17q76 0 131.5 -17t91.5 -56.5t53 -105t17 -161.5t-17 -161.5t-53 -105t-91.5 -56.5t-131.5 -17zM337 75q51 0 87.5 13t60 42.5t35 78.5t11.5 121t-11.5 121t-35 78.5t-60 42.5t-87.5 13
t-87.5 -13t-60 -42.5t-35 -78.5t-11.5 -121t11.5 -121t35 -78.5t60 -42.5t87.5 -13zM166 903v58h339v-58h-339zM292 738v100h87v-100h-87z" />
    <glyph glyph-name="uni0231" unicode="&#x231;" horiz-adv-x="502" 
d="M251 -10q-55 0 -95 12t-66.5 40t-39 74t-12.5 114t12.5 114t39 74t66.5 40t95 12t95.5 -12t66.5 -40t38.5 -74t12.5 -114t-12.5 -114t-38.5 -74t-66.5 -40t-95.5 -12zM251 69q31 0 53 8t35.5 27t19.5 50t6 76t-6 76t-19.5 50t-35.5 27t-53 8t-53 -8t-35.5 -27t-19.5 -50
t-6 -76t6 -76t19.5 -50t35.5 -27t53 -8zM81 703v58h339v-58h-339zM207 538v100h87v-100h-87z" />
    <glyph glyph-name="uni0232" unicode="&#x232;" horiz-adv-x="569" 
d="M10 660h109l107 -202q9 -17 17 -33.5t14 -30.5q16 -37 19.5 -55t4.5 -18h4q-1 -2 9.5 35.5t44.5 100.5l109 203h108q-57 -106 -112 -210t-112 -209v-241h-99v241zM114 765v58h339v-58h-339z" />
    <glyph glyph-name="uni0233" unicode="&#x233;" horiz-adv-x="469" 
d="M70 -155q36 0 65 40.5t50 100.5q-45 119 -89.5 236.5t-89.5 237.5h103q23 -65 46 -132.5t41 -123.5t28.5 -92.5t7.5 -38.5h3q1 -1 2.5 11t5.5 33t12 50.5t23 63.5q20 57 41 114t41 115h103q-48 -125 -95 -248t-95 -248q-41 -106 -89.5 -155t-113.5 -49v85v0zM66 565v58
h339v-58h-339z" />
    <glyph glyph-name="dotlessj" unicode="&#x237;" horiz-adv-x="243" 
d="M171 -93q0 -29 -7 -55.5t-23.5 -47t-45.5 -32.5t-72 -12v82q21 0 35 13t14 46v559h99v-553z" />
    <glyph glyph-name="apostrophe" unicode="&#x2bc;" horiz-adv-x="245" 
d="M56 460q31 0 46 17.5t15 60.5h-64v122h129v-122q0 -27 -4.5 -51t-18 -43t-38.5 -30t-65 -11v57z" />
    <glyph glyph-name="circumflex" unicode="&#x2c6;" horiz-adv-x="416" 
d="M236 669l123 -137h-88l-35 36q-15 15 -22 27q-4 6 -5 11h-3q-1 -5 -5 -11q-3 -5 -8 -12t-13 -15l-35 -36h-88l123 137h56z" />
    <glyph glyph-name="caron" unicode="&#x2c7;" horiz-adv-x="417" 
d="M180 532l-123 137h88l35 -36q8 -8 13 -15t8 -12q4 -6 5 -11h3q1 5 5 11q7 12 22 27l35 36h88l-123 -137h-56z" />
    <glyph glyph-name="breve" unicode="&#x2d8;" horiz-adv-x="408" 
d="M204 598q73 0 73 48h71q0 -59 -36 -85.5t-108 -26.5t-108 26.5t-36 85.5h71q0 -48 73 -48z" />
    <glyph glyph-name="dotaccent" unicode="&#x2d9;" horiz-adv-x="207" 
d="M60 538v100h87v-100h-87z" />
    <glyph glyph-name="ring" unicode="&#x2da;" horiz-adv-x="284" 
d="M142 523q-45 0 -68.5 26t-23.5 64q0 35 25 61t67 26t67 -26t25 -61q0 -38 -23.5 -64t-68.5 -26zM142 657q-21 0 -32.5 -12.5t-11.5 -32.5q0 -17 11 -30.5t33 -13.5t33 13.5t11 30.5q0 20 -11.5 32.5t-32.5 12.5z" />
    <glyph glyph-name="ogonek" unicode="&#x2db;" horiz-adv-x="324" 
d="M69 -97q0 35 14.5 59t35 39t42 23t36.5 11l26 -35q-31 -5 -55 -24t-24 -57q0 -22 11.5 -35t38.5 -13q11 0 33 4.5t42 16.5v-56q-19 -14 -46.5 -20t-49.5 -6q-46 0 -75 22.5t-29 70.5z" />
    <glyph glyph-name="tilde" unicode="&#x2dc;" horiz-adv-x="395" 
d="M265 534q-23 0 -37 7.5t-31 18.5q-18 12 -29.5 19t-24.5 7q-31 0 -31 -53h-62q0 21 2.5 41.5t10.5 36.5t24 26t43 10q23 0 37 -6.5t30 -17.5q17 -13 29 -20.5t26 -7.5q15 0 21.5 11.5t6.5 40.5h65q0 -24 -2 -44.5t-10 -35.5t-24 -24t-44 -9z" />
    <glyph glyph-name="hungarumlaut" unicode="&#x2dd;" horiz-adv-x="430" 
d="M50 528l58 136h105l-96 -136h-67zM199 528l70 136h111l-109 -136h-72z" />
    <glyph glyph-name="gravecomb" unicode="&#x300;" horiz-adv-x="300" 
d="M165 528l-115 136h129l71 -136h-85z" />
    <glyph glyph-name="acutecomb" unicode="&#x301;" horiz-adv-x="300" 
d="M50 528l70 136h130l-116 -136h-84z" />
    <glyph glyph-name="uni0302" unicode="&#x302;" horiz-adv-x="416" 
d="M242 663l135 -131h-100l-35 36q-10 10 -16 18t-10 14q-4 7 -7 12h-3q-2 -5 -6 -12q-4 -6 -10 -14t-16 -18l-35 -36h-100l135 131h68z" />
    <glyph glyph-name="tildecomb" unicode="&#x303;" horiz-adv-x="395" 
d="M265 534q-23 0 -37 7.5t-31 18.5q-18 12 -29.5 19t-24.5 7q-31 0 -31 -53h-62q0 21 2.5 41.5t10.5 36.5t24 26t43 10q23 0 37 -6.5t30 -17.5q17 -13 29 -20.5t26 -7.5q15 0 21.5 11.5t6.5 40.5h65q0 -24 -2 -44.5t-10 -35.5t-24 -24t-44 -9z" />
    <glyph glyph-name="uni0304" unicode="&#x304;" horiz-adv-x="487" 
d="M74 565v58h339v-58h-339z" />
    <glyph glyph-name="uni0306" unicode="&#x306;" horiz-adv-x="408" 
d="M204 598q73 0 73 48h71q0 -59 -36 -85.5t-108 -26.5t-108 26.5t-36 85.5h71q0 -48 73 -48z" />
    <glyph glyph-name="uni0307" unicode="&#x307;" horiz-adv-x="207" 
d="M60 538v100h87v-100h-87z" />
    <glyph glyph-name="uni0308" unicode="&#x308;" horiz-adv-x="393" 
d="M60 538v100h87v-100h-87zM246 538v100h87v-100h-87z" />
    <glyph glyph-name="hookabovecomb" unicode="&#x309;" horiz-adv-x="248" 
d="M134 578q12 0 18.5 9.5t6.5 20.5q0 29 -35 29q-17 0 -26 -8t-9 -20h-45q0 24 21.5 42t58.5 18q33 0 56.5 -16.5t23.5 -44.5q0 -26 -16.5 -44.5t-47.5 -18.5v-37h-42v44q0 26 26 26h10z" />
    <glyph glyph-name="uni030A" unicode="&#x30a;" horiz-adv-x="284" 
d="M142 523q-45 0 -68.5 26t-23.5 64q0 35 25 61t67 26t67 -26t25 -61q0 -38 -23.5 -64t-68.5 -26zM142 657q-21 0 -32.5 -12.5t-11.5 -32.5q0 -17 11 -30.5t33 -13.5t33 13.5t11 30.5q0 20 -11.5 32.5t-32.5 12.5z" />
    <glyph glyph-name="uni030B" unicode="&#x30b;" horiz-adv-x="430" 
d="M50 528l58 136h105l-96 -136h-67zM199 528l70 136h111l-109 -136h-72z" />
    <glyph glyph-name="uni030C" unicode="&#x30c;" horiz-adv-x="417" 
d="M174 532l-135 131h100l35 -36q18 -20 26 -32q4 -7 6 -12h3q3 5 7 12q8 12 26 32l35 36h100l-135 -131h-68z" />
    <glyph glyph-name="uni030F" unicode="&#x30f;" horiz-adv-x="430" 
d="M313 535l-96 136h105l58 -136h-67zM159 535l-109 136h111l70 -136h-72z" />
    <glyph glyph-name="uni0310" unicode="&#x310;" horiz-adv-x="408" 
d="M204 598q73 0 73 48h71q0 -59 -36 -85.5t-108 -26.5t-108 26.5t-36 85.5h71q0 -48 73 -48zM168 668v86h73v-86h-73z" />
    <glyph glyph-name="uni0311" unicode="&#x311;" horiz-adv-x="408" 
d="M204 582q-73 0 -73 -48h-71q0 59 36 85.5t108 26.5t108 -26.5t36 -85.5h-71q0 48 -73 48z" />
    <glyph glyph-name="uni0312" unicode="&#x312;" horiz-adv-x="195" 
d="M132 695q-16 0 -26.5 -14.5t-10.5 -49.5h40v-80h-75v80q0 21 3.5 39.5t11.5 32.5t22 22.5t35 8.5v-39z" />
    <glyph glyph-name="uni0313" unicode="&#x313;" horiz-adv-x="195" 
d="M63 590q16 0 26.5 14.5t10.5 49.5h-40v80h75v-80q0 -21 -3.5 -39.5t-11.5 -32.5t-22 -22.5t-35 -8.5v39z" />
    <glyph glyph-name="uni0314" unicode="&#x314;" horiz-adv-x="195" 
d="M132 551q-21 0 -35 8.5t-22 22.5t-11.5 32.5t-3.5 39.5v80h75v-80h-40q0 -35 10.5 -49.5t26.5 -14.5v-39z" />
    <glyph glyph-name="uni0315" unicode="&#x315;" horiz-adv-x="195" 
d="M63 590q16 0 26.5 14.5t10.5 49.5h-40v80h75v-80q0 -21 -3.5 -39.5t-11.5 -32.5t-22 -22.5t-35 -8.5v39z" />
    <glyph glyph-name="uni0316" unicode="&#x316;" horiz-adv-x="300" 
d="M159 -203l-109 142h129l71 -142h-91z" />
    <glyph glyph-name="uni0317" unicode="&#x317;" horiz-adv-x="279" 
d="M50 -203l70 142h130l-110 -142h-90z" />
    <glyph glyph-name="dotbelowcomb" unicode="&#x323;" horiz-adv-x="207" 
d="M60 -178v100h87v-100h-87z" />
    <glyph glyph-name="uni0324" unicode="&#x324;" horiz-adv-x="393" 
d="M60 -178v100h87v-100h-87zM246 -178v100h87v-100h-87z" />
    <glyph glyph-name="uni0325" unicode="&#x325;" horiz-adv-x="284" 
d="M142 -240q-45 0 -68.5 26t-23.5 64q0 35 25 61t67 26t67 -26t25 -61q0 -38 -23.5 -64t-68.5 -26zM142 -106q-21 0 -32.5 -12.5t-11.5 -32.5q0 -17 11 -30.5t33 -13.5t33 13.5t11 30.5q0 20 -11.5 32.5t-32.5 12.5z" />
    <glyph glyph-name="uni0327" unicode="&#x327;" horiz-adv-x="316" 
d="M274 -121q0 -45 -32.5 -66.5t-81.5 -21.5q-25 0 -46 4.5t-32 11.5v55q29 -16 70 -16q20 0 32 6.5t12 23.5q0 20 -17 30t-55 12l10 95h57l-6 -56q42 -3 65.5 -21.5t23.5 -56.5z" />
    <glyph glyph-name="uni0328" unicode="&#x328;" horiz-adv-x="324" 
d="M69 -97q0 35 14.5 59t35 39t42 23t36.5 11l26 -35q-31 -5 -55 -24t-24 -57q0 -22 11.5 -35t38.5 -13q11 0 33 4.5t42 16.5v-56q-19 -14 -46.5 -20t-49.5 -6q-46 0 -75 22.5t-29 70.5z" />
    <glyph glyph-name="uni032C" unicode="&#x32c;" horiz-adv-x="417" 
d="M174 -203l-135 131h100l35 -36q18 -20 26 -32q4 -7 6 -12h3q3 5 7 12q8 12 26 32l35 36h100l-135 -131h-68z" />
    <glyph glyph-name="uni032D" unicode="&#x32d;" horiz-adv-x="417" 
d="M242 -72l135 -131h-100l-35 36q-10 10 -16 18t-10 14q-4 7 -7 12h-3q-2 -5 -6 -12q-4 -6 -10 -14t-16 -18l-35 -36h-100l135 131h68z" />
    <glyph glyph-name="uni032E" unicode="&#x32e;" horiz-adv-x="408" 
d="M204 -122q73 0 73 48h71q0 -59 -36 -85.5t-108 -26.5t-108 26.5t-36 85.5h71q0 -48 73 -48z" />
    <glyph glyph-name="uni032F" unicode="&#x32f;" horiz-adv-x="408" 
d="M204 -138q-73 0 -73 -48h-71q0 59 36 85.5t108 26.5t108 -26.5t36 -85.5h-71q0 48 -73 48z" />
    <glyph glyph-name="uni0330" unicode="&#x330;" horiz-adv-x="395" 
d="M265 -186q-23 0 -37 7t-31 18q-18 13 -29.5 20t-24.5 7q-31 0 -31 -53h-62q0 21 2.5 41.5t10.5 36.5t24 26t43 10q23 0 37 -7t30 -18q17 -12 29 -19.5t26 -7.5q15 0 21.5 11.5t6.5 40.5h65q0 -24 -2 -44.5t-10 -35.5t-24 -24t-44 -9z" />
    <glyph glyph-name="uni0331" unicode="&#x331;" horiz-adv-x="487" 
d="M74 -163v58h339v-58h-339z" />
    <glyph glyph-name="uni0400" unicode="&#x400;" horiz-adv-x="562" 
d="M81 0v660h430v-85h-331v-201h291v-84h-291v-205h331v-85h-430zM295 728l-115 136h129l71 -136h-85z" />
    <glyph glyph-name="afii10023" unicode="&#x401;" horiz-adv-x="562" 
d="M81 0v660h430v-85h-331v-201h291v-84h-291v-205h331v-85h-430zM152 738v100h87v-100h-87zM338 738v100h87v-100h-87z" />
    <glyph glyph-name="afii10051" unicode="&#x402;" horiz-adv-x="692" 
d="M368 85q46 0 76 7.5t48 24t25.5 42.5t7.5 64q0 34 -7 57.5t-23.5 37.5t-44 20.5t-69.5 6.5q-40 0 -66.5 -8.5t-42.5 -25t-23 -41t-7 -56.5v-214h-99v575h-129v85h439v-85h-211v-89q0 -40 -1.5 -79.5t-8.5 -78.5h2q19 61 60 81.5t104 20.5q121 0 173.5 -49.5t52.5 -159.5
q0 -61 -14.5 -103t-44.5 -68.5t-77 -38t-112 -11.5h-25v85h17z" />
    <glyph glyph-name="afii10052" unicode="&#x403;" horiz-adv-x="521" 
d="M200 728l70 136h130l-116 -136h-84zM186 0h-99v660h406v-85h-307v-575z" />
    <glyph glyph-name="afii10053" unicode="&#x404;" horiz-adv-x="597" 
d="M575 174q0 -50 -21 -85t-56 -57t-82 -32t-99 -10q-70 0 -121.5 18t-85 58t-50 105t-16.5 160q0 94 16.5 159t50 105t85 57.5t121.5 17.5q54 0 101.5 -10t82 -32t54.5 -57t20 -85h-96q0 27 -12.5 46t-33.5 30.5t-49.5 17t-60.5 5.5q-44 0 -76.5 -11t-55 -35.5t-35 -65
t-15.5 -99.5h253v-84h-253q3 -60 15 -101.5t34.5 -66.5t56 -36t77.5 -11q30 0 57.5 5.5t49.5 17t35 30.5t13 46h96z" />
    <glyph glyph-name="afii10054" unicode="&#x405;" horiz-adv-x="594" 
d="M440 486q0 55 -32.5 77t-113.5 22q-79 0 -115.5 -22t-36.5 -80q0 -35 12.5 -54.5t33 -30t47.5 -14.5t56 -8q52 -7 99.5 -17t83 -30.5t56.5 -56t21 -93.5q0 -100 -63 -144.5t-200 -44.5t-197 44.5t-60 139.5h98q0 -53 35.5 -76t125.5 -23q82 0 122 21.5t40 80.5
q0 34 -13.5 53.5t-36 30t-51.5 15t-60 8.5q-52 7 -97.5 18t-79 32.5t-52.5 56.5t-19 92q0 44 12.5 78.5t42 58.5t78 37t120.5 13q123 0 182.5 -42t59.5 -142h-98z" />
    <glyph glyph-name="afii10055" unicode="&#x406;" horiz-adv-x="261" 
d="M81 0v660h99v-660h-99z" />
    <glyph glyph-name="afii10056" unicode="&#x407;" horiz-adv-x="261" 
d="M81 0v660h99v-660h-99zM-5 738v100h87v-100h-87zM181 738v100h87v-100h-87z" />
    <glyph glyph-name="afii10057" unicode="&#x408;" horiz-adv-x="479" 
d="M317 660h99v-486q0 -88 -49 -136t-158 -48q-104 0 -154.5 43.5t-50.5 140.5h95q0 -53 26.5 -77.5t84.5 -24.5q50 0 78.5 21t28.5 81v486z" />
    <glyph glyph-name="afii10058" unicode="&#x409;" horiz-adv-x="902" 
d="M525 414h117q59 0 102.5 -11t72 -36t42 -65.5t13.5 -99.5q0 -57 -13.5 -95.5t-42 -62t-72 -34t-102.5 -10.5h-216v575h-187l-17 -305q-4 -74 -11 -125t-27.5 -83.5t-58.5 -47t-104 -14.5v85q37 0 56.5 11.5t28.5 35t11.5 58t5.5 80.5l24 390h378v-246zM525 329v-244h111
q74 0 105.5 25.5t31.5 91.5q0 71 -32 99t-105 28h-111z" />
    <glyph glyph-name="afii10059" unicode="&#x40a;" horiz-adv-x="939" 
d="M562 414h117q59 0 102.5 -11t72 -36t42 -65.5t13.5 -99.5q0 -57 -13.5 -95.5t-42 -62t-72 -34t-102.5 -10.5h-216v290h-283v-290h-99v660h99v-286h283v286h99v-246zM562 329v-244h111q74 0 105.5 25.5t31.5 91.5q0 71 -32 99t-105 28h-111z" />
    <glyph glyph-name="afii10060" unicode="&#x40b;" horiz-adv-x="692" 
d="M383 345q-36 0 -62.5 -6.5t-44 -21.5t-26 -40.5t-8.5 -63.5v-213h-99v575h-129v85h439v-85h-211v-79q0 -43 -1.5 -84.5t-8.5 -83.5q1 0 2 -1q9 31 23.5 51.5t35 31.5t46.5 15.5t57 4.5q115 0 171.5 -51t56.5 -169v-210h-99v211q0 24 -8 42q-4 28 -15 45.5t-28.5 28
t-40 14.5t-50.5 4z" />
    <glyph glyph-name="afii10061" unicode="&#x40c;" horiz-adv-x="604" 
d="M81 0v660h99v-286h114l185 286h107l-210 -326l215 -334h-107l-187 290h-117v-290h-99zM242 728l70 136h130l-116 -136h-84z" />
    <glyph glyph-name="uni040D" unicode="&#x40d;" horiz-adv-x="683" 
d="M180 236q0 -29 -1.5 -52.5t-3.5 -40.5q-2 -20 -4 -36h4q1 1 7 14.5t16.5 35.5t25.5 51.5t34 62.5l226 389h118v-660h-99v422q0 29 1 52.5t3 40.5q2 20 4 36h-4q-2 -1 -7.5 -14.5t-16 -35.5t-25.5 -51.5t-34 -62.5q-57 -97 -113 -193.5t-113 -193.5h-117v660h99v-424z
M309 728l-115 136h129l71 -136h-85z" />
    <glyph glyph-name="afii10062" unicode="&#x40e;" horiz-adv-x="601" 
d="M300 798q73 0 73 48h71q0 -59 -36 -85.5t-108 -26.5t-108 26.5t-36 85.5h71q0 -48 73 -48zM259 353q30 -66 36.5 -100.5t8.5 -33.5h3q2 15 8 35q9 34 36 99l131 307h107l-248 -536q-12 -24 -21.5 -47t-26.5 -41t-47 -28.5t-83 -10.5v85q27 0 42 3.5t23.5 11.5t14 21.5
t14.5 33.5l-246 508h107z" />
    <glyph glyph-name="afii10145" unicode="&#x40f;" horiz-adv-x="658" 
d="M280 -140v140h-199v660h99v-575h298v575h99v-660h-198v-140h-99z" />
    <glyph glyph-name="afii10017" unicode="&#x410;" horiz-adv-x="647" 
d="M535 0l-53 134h-317l-53 -134h-102q67 166 134 330t135 330h91q67 -166 133 -330t134 -330h-102zM198 219h250l-65 163l-23 63q-20 54 -26.5 86.5t-7.5 32.5h-4l-2.5 -12t-8.5 -33.5t-15 -50.5t-23 -63z" />
    <glyph glyph-name="afii10018" unicode="&#x411;" horiz-adv-x="603" 
d="M186 317v-232h139q80 0 114.5 24.5t34.5 86.5q0 67 -34.5 94t-114.5 27h-139zM87 660h436v-85h-337v-173h145q63 0 108.5 -10.5t75 -35t44 -64t14.5 -96.5q0 -56 -14.5 -93.5t-44 -60t-75 -32.5t-108.5 -10h-244v660z" />
    <glyph glyph-name="afii10019" unicode="&#x412;" horiz-adv-x="611" 
d="M81 0v660h256q54 0 93.5 -9t65.5 -29.5t38.5 -54t12.5 -82.5q0 -70 -30.5 -106t-93.5 -47q74 -11 109 -47.5t35 -108.5q0 -50 -13.5 -83.5t-42 -54t-72 -29.5t-102.5 -9h-256zM331 85q39 0 65.5 5.5t42.5 17.5t22.5 30.5t6.5 44.5q0 57 -30.5 82t-106.5 25h-151v-205h151
zM331 374q63 0 90 23t27 85q0 49 -25 71t-92 22h-151v-201h151z" />
    <glyph glyph-name="afii10020" unicode="&#x413;" horiz-adv-x="521" 
d="M186 0h-99v660h406v-85h-307v-575z" />
    <glyph glyph-name="afii10021" unicode="&#x414;" horiz-adv-x="675" 
d="M551 -120v120h-429v-120h-99v205h38q4 0 16 11.5t25.5 36.5t25.5 63.5t15 91.5l22 372h420v-575h65v-205h-99zM242 288q-5 -84 -28 -133t-45 -70h317v490h-227q-5 -72 -9 -143.5t-8 -143.5z" />
    <glyph glyph-name="afii10022" unicode="&#x415;" horiz-adv-x="562" 
d="M81 0v660h430v-85h-331v-201h291v-84h-291v-205h331v-85h-430z" />
    <glyph glyph-name="afii10024" unicode="&#x416;" horiz-adv-x="839" 
d="M13 0l215 334l-210 326h107l183 -286h62v286h99v-286h61l184 286h107l-210 -326l215 -334h-107l-186 290h-64v-290h-99v290h-64l-186 -290h-107z" />
    <glyph glyph-name="afii10025" unicode="&#x417;" horiz-adv-x="598" 
d="M288 374q30 0 57 5t47.5 17t32.5 33t12 53q0 59 -39 81t-113 22q-77 0 -111.5 -22t-34.5 -77h-98q0 100 62 142t179 42q70 0 119.5 -13.5t80 -38t44 -59.5t10.5 -77q-5 -64 -41.5 -99.5t-93.5 -49.5q70 -13 110 -49.5t40 -110.5q0 -94 -66.5 -138.5t-199.5 -44.5
t-193.5 44.5t-60.5 139.5h98q0 -54 37.5 -76.5t122.5 -22.5q78 0 120.5 22t42.5 81q0 32 -13 53.5t-35 34.5t-51 18.5t-62 5.5h-49v84h46z" />
    <glyph glyph-name="afii10026" unicode="&#x418;" horiz-adv-x="683" 
d="M180 236q0 -29 -1.5 -52.5t-3.5 -40.5q-2 -20 -4 -36h4q1 1 7 14.5t16.5 35.5t25.5 51.5t34 62.5l226 389h118v-660h-99v422q0 29 1 52.5t3 40.5q2 20 4 36h-4q-2 -1 -7.5 -14.5t-16 -35.5t-25.5 -51.5t-34 -62.5q-57 -97 -113 -193.5t-113 -193.5h-117v660h99v-424z" />
    <glyph glyph-name="afii10027" unicode="&#x419;" horiz-adv-x="683" 
d="M341 798q73 0 73 48h71q0 -59 -36 -85.5t-108 -26.5t-108 26.5t-36 85.5h71q0 -48 73 -48zM180 236q0 -29 -1.5 -52.5t-3.5 -40.5q-2 -20 -4 -36h4q1 1 7 14.5t16.5 35.5t25.5 51.5t34 62.5l226 389h118v-660h-99v422q0 29 1 52.5t3 40.5q2 20 4 36h-4q-2 -1 -7.5 -14.5
t-16 -35.5t-25.5 -51.5t-34 -62.5q-57 -97 -113 -193.5t-113 -193.5h-117v660h99v-424z" />
    <glyph glyph-name="afii10028" unicode="&#x41a;" horiz-adv-x="604" 
d="M81 0v660h99v-286h114l185 286h107l-210 -326l215 -334h-107l-187 290h-117v-290h-99z" />
    <glyph glyph-name="afii10029" unicode="&#x41b;" horiz-adv-x="653" 
d="M147 660h418v-660h-99v575h-227q-5 -77 -9 -152.5t-8 -152.5q-6 -74 -13 -125t-27 -83.5t-57.5 -47t-103.5 -14.5v85q37 0 56.5 11t28.5 33.5t11.5 57.5t5.5 83z" />
    <glyph glyph-name="afii10030" unicode="&#x41c;" horiz-adv-x="848" 
d="M368 0q-44 115 -86.5 235.5t-86.5 228.5q-23 57 -19 57h-3l3 -27q1 -14 2 -34.5t1 -46.5v-413h-99v660h131l175 -468q19 -51 26.5 -80t8.5 -28h3q0 -1 7.5 28t27.5 80l175 468h131v-660h-99v413q0 54 3 81q1 16 3 27h-3q-2 -8 -7.5 -27t-16.5 -47l-35 -87
q-33 -91 -66 -180t-67 -180h-109z" />
    <glyph glyph-name="afii10031" unicode="&#x41d;" horiz-adv-x="683" 
d="M503 0v290h-323v-290h-99v660h99v-286h323v286h99v-660h-99z" />
    <glyph glyph-name="afii10032" unicode="&#x41e;" horiz-adv-x="674" 
d="M337 -10q-77 0 -132 17t-91 56.5t-53 105t-17 161.5t17 161.5t53 105t91 56.5t132 17q76 0 131.5 -17t91.5 -56.5t53 -105t17 -161.5t-17 -161.5t-53 -105t-91.5 -56.5t-131.5 -17zM337 75q51 0 87.5 13t60 42.5t35 78.5t11.5 121t-11.5 121t-35 78.5t-60 42.5t-87.5 13
t-87.5 -13t-60 -42.5t-35 -78.5t-11.5 -121t11.5 -121t35 -78.5t60 -42.5t87.5 -13z" />
    <glyph glyph-name="afii10033" unicode="&#x41f;" horiz-adv-x="658" 
d="M478 0v575h-298v-575h-99v660h496v-660h-99z" />
    <glyph glyph-name="afii10034" unicode="&#x420;" horiz-adv-x="597" 
d="M180 0h-99v660h256q59 0 102.5 -11t72 -36.5t42 -67t13.5 -101.5q0 -63 -13.5 -106t-42 -70t-72 -38.5t-102.5 -11.5h-157v-218zM331 303q37 0 63 7t42.5 23.5t24 43.5t7.5 67q0 73 -32 102t-105 29h-151v-272h151z" />
    <glyph glyph-name="afii10035" unicode="&#x421;" horiz-adv-x="597" 
d="M575 174q0 -56 -21 -91.5t-56 -56t-81 -28.5t-97 -8q-71 0 -123 16t-86 55t-50.5 105t-16.5 165t16.5 164.5t50.5 104.5t86.5 54.5t124.5 15.5q52 0 98.5 -8t80.5 -28.5t54 -56t20 -91.5h-99q0 32 -13 51.5t-34 30t-48.5 14t-57.5 3.5q-48 0 -82.5 -10t-56 -38
t-31.5 -77.5t-10 -128.5t10 -128.5t31.5 -78t55 -39t81.5 -10.5q27 0 55 3t50 13.5t36 30t14 52.5h99z" />
    <glyph glyph-name="afii10036" unicode="&#x422;" horiz-adv-x="544" 
d="M223 0v575h-211v85h521v-85h-211v-575h-99z" />
    <glyph glyph-name="afii10037" unicode="&#x423;" horiz-adv-x="601" 
d="M259 353q30 -66 36.5 -100.5t8.5 -33.5h3q2 15 8 35q9 34 36 99l131 307h107l-248 -536q-12 -24 -21.5 -47t-26.5 -41t-47 -28.5t-83 -10.5v85q27 0 42 3.5t23.5 11.5t14 21.5t14.5 33.5l-246 508h107z" />
    <glyph glyph-name="afii10038" unicode="&#x424;" horiz-adv-x="782" 
d="M342 0v91q-83 3 -139.5 16.5t-91 42t-49 73t-14.5 107.5t14.5 107.5t49 72.5t91 42t139.5 17v81l99 10v-91q83 -3 139 -17t90.5 -42t49 -72.5t14.5 -107.5t-14.5 -107.5t-49 -73t-90.5 -42t-139 -16.5v-91h-99zM147 330q0 -41 8 -69t29.5 -46t59.5 -27.5t98 -11.5v308
q-60 -2 -98 -11.5t-59.5 -27.5t-29.5 -46.5t-8 -68.5zM635 330q0 40 -8 68t-29.5 46.5t-59.5 27.5t-97 12v-308q59 2 97 11.5t59.5 27.5t29.5 46.5t8 68.5z" />
    <glyph glyph-name="afii10039" unicode="&#x425;" horiz-adv-x="579" 
d="M127 0h-116l215 334l-206 326h114l119 -193q15 -29 22.5 -47.5t12.5 -31.5h2q5 13 12.5 31.5t22.5 47.5q31 48 61 96.5t60 96.5h113l-208 -326l215 -334h-117l-125 196q-15 29 -22.5 47t-12.5 32h-2q-5 -14 -12.5 -32.5t-22.5 -47.5z" />
    <glyph glyph-name="afii10040" unicode="&#x426;" horiz-adv-x="671" 
d="M87 0v660h99v-575h298v575h99v-575h65v-205h-99v120h-462z" />
    <glyph glyph-name="afii10041" unicode="&#x427;" horiz-adv-x="598" 
d="M284 297q36 0 61 7t41.5 24t24 47t7.5 75v210h99v-660h-99v217q0 22 1.5 42.5t3.5 41.5h-2q-18 -53 -56 -71t-96 -18q-118 0 -178.5 56t-60.5 182v210h99v-210q0 -83 37.5 -118t117.5 -35z" />
    <glyph glyph-name="afii10042" unicode="&#x428;" horiz-adv-x="864" 
d="M783 660v-660h-702v660h99v-575h203v575h99v-575h202v575h99z" />
    <glyph glyph-name="afii10043" unicode="&#x429;" horiz-adv-x="864" 
d="M81 660h99v-575h203v575h99v-575h202v575h99v-575h65v-205h-99v120h-668v660z" />
    <glyph glyph-name="afii10044" unicode="&#x42a;" horiz-adv-x="645" 
d="M10 575v85h218v-246h157q59 0 102.5 -11t72 -36t42 -65.5t13.5 -99.5q0 -57 -13.5 -95.5t-42 -62.5t-72 -34t-102.5 -10h-256v575h-119zM228 329v-244h151q74 0 105.5 25.5t31.5 91.5q0 71 -32 99t-105 28h-151z" />
    <glyph glyph-name="afii10045" unicode="&#x42b;" horiz-adv-x="824" 
d="M180 414h157q59 0 102.5 -11t72 -36t42 -65.5t13.5 -99.5q0 -57 -13.5 -95.5t-42 -62t-72 -34t-102.5 -10.5h-256v660h99v-246zM180 329v-244h151q74 0 105.5 25.5t31.5 91.5q0 71 -32 99t-105 28h-151zM644 0v660h99v-660h-99z" />
    <glyph glyph-name="afii10046" unicode="&#x42c;" horiz-adv-x="597" 
d="M180 414h157q59 0 102.5 -11t72 -36t42 -65.5t13.5 -99.5q0 -57 -13.5 -95.5t-42 -62t-72 -34t-102.5 -10.5h-256v660h99v-246zM180 329v-244h151q74 0 105.5 25.5t31.5 91.5q0 71 -32 99t-105 28h-151z" />
    <glyph glyph-name="afii10047" unicode="&#x42d;" horiz-adv-x="595" 
d="M116 174q0 -27 13 -46t35 -30.5t49.5 -17t57.5 -5.5q44 0 77 11t55.5 36t35 66.5t15.5 101.5h-252v84h252q-3 59 -15.5 99.5t-35 65t-55 35.5t-76.5 11q-32 0 -60.5 -5.5t-49.5 -17t-33.5 -30.5t-12.5 -46h-96q0 50 20 85t55 57t82 32t102 10q70 0 121 -17.5t84.5 -57.5
t50 -105t16.5 -159q0 -95 -16.5 -160t-50 -105t-84.5 -58t-121 -18q-52 0 -99 10t-82.5 32t-56.5 57t-21 85h96z" />
    <glyph glyph-name="afii10048" unicode="&#x42e;" horiz-adv-x="892" 
d="M571 -10q-67 0 -117 15t-83.5 50t-51 92.5t-20.5 142.5h-113v-290h-99v660h99v-286h113q3 84 21 140.5t51.5 91t83 49.5t116.5 15q71 0 122.5 -17t85 -56.5t49.5 -105t16 -161.5t-16 -161.5t-49.5 -105t-85 -56.5t-122.5 -17zM571 75q45 0 78 12.5t54.5 42.5t31.5 79
t10 121q0 71 -10 119.5t-31.5 78.5t-54.5 43.5t-78 13.5t-78 -13.5t-54.5 -43.5t-31.5 -78.5t-10 -119.5q0 -72 10 -121t31.5 -79t54.5 -42.5t78 -12.5z" />
    <glyph glyph-name="afii10049" unicode="&#x42f;" horiz-adv-x="620" 
d="M30 0l147 230q-64 18 -94.5 68.5t-30.5 145.5q0 60 13.5 101.5t42 67t71.5 36.5t103 11h256v-660h-99v218h-157l-139 -218h-113zM439 303v272h-151q-74 0 -105.5 -29t-31.5 -102q0 -40 7.5 -67t24 -43.5t42.5 -23.5t63 -7h151z" />
    <glyph glyph-name="afii10065" unicode="&#x430;" horiz-adv-x="495" 
d="M474 -3q-35 0 -58 6t-37.5 16t-21 24t-9.5 30q-17 -49 -51.5 -66t-91.5 -17q-33 0 -64 5.5t-55.5 20.5t-39 41.5t-14.5 69.5q0 48 17.5 74.5t45 39.5t60.5 16.5t63 6.5t60 5.5t60 5.5v43q0 40 -21 56.5t-74 16.5q-26 0 -38 -9q-32 -4 -42 -18t-10 -40h-98q0 78 45 112
t143 34q55 0 92.5 -10.5t60 -30t32 -47.5t9.5 -64v-198q0 -21 10.5 -32.5t26.5 -11.5v-79zM212 72q30 0 51.5 5t36 18t23 34.5t11.5 53.5l2 10t1 10l-125 -12q-19 -2 -34 -4.5t-25.5 -8.5t-16 -17.5t-5.5 -30.5q0 -34 18 -46t63 -12z" />
    <glyph glyph-name="afii10066" unicode="&#x431;" horiz-adv-x="518" 
d="M40 230q0 128 14 206t41.5 121.5t68.5 59.5t95 21q19 1 34 3.5t27 8.5t20 17.5t12 32.5h98q-5 -53 -24.5 -81t-46.5 -41.5t-58.5 -17t-61.5 -7.5q-25 -3 -45 -11.5t-35 -29t-25 -55.5t-14 -91h3q15 61 50.5 82.5t92.5 21.5q44 0 78.5 -11t58.5 -38.5t36.5 -73.5
t12.5 -116q0 -68 -12.5 -114.5t-38.5 -74.5t-66.5 -40t-96.5 -12q-57 0 -98 12t-67.5 40t-39.5 74t-13 114zM259 75q31 0 53 8t35.5 26t19.5 47.5t6 73.5t-6 73.5t-19.5 47.5t-35.5 26t-53 8t-53 -8t-35.5 -26t-19.5 -47.5t-6 -73.5t6 -73.5t19.5 -47.5t35.5 -26t53 -8z" />
    <glyph glyph-name="afii10067" unicode="&#x432;" horiz-adv-x="493" 
d="M439 337q0 -42 -15.5 -67t-47.5 -37q42 -9 62.5 -35t20.5 -76q0 -68 -38 -95t-117 -27h-236v460h206q85 0 125 -27t40 -96zM167 192v-110h133q32 0 46 11t14 41q0 34 -14 46t-46 12h-133zM277 268q33 0 48 12t15 45q0 32 -19 42.5t-58 10.5h-96v-110h110z" />
    <glyph glyph-name="afii10068" unicode="&#x433;" horiz-adv-x="388" 
d="M167 0h-99v460h306v-85h-207v-375z" />
    <glyph glyph-name="afii10069" unicode="&#x434;" horiz-adv-x="530" 
d="M120 460h335v-375h57v-205h-99v120h-297v-120h-99v205h29q6 0 14.5 7t17 24t15.5 46.5t10 73.5zM202 236q-5 -68 -18.5 -103t-28.5 -48h201v290h-144q-3 -35 -5.5 -69.5t-4.5 -69.5z" />
    <glyph glyph-name="afii10070" unicode="&#x435;" horiz-adv-x="484" 
d="M438 136q0 -41 -14.5 -68.5t-40 -45t-61 -25t-78.5 -7.5q-54 0 -92.5 12t-64 40t-37.5 74t-12 113q0 69 12.5 115.5t39 74t66.5 39.5t94 12q50 0 86.5 -9.5t60.5 -32t36 -59t12 -90.5q0 -16 -2 -38.5t-9 -42.5h-297q1 -36 7.5 -60.5t19.5 -39.5t34.5 -22t54.5 -7
q39 0 63 13.5t24 53.5h98zM249 391q-30 0 -51 -6t-33.5 -20.5t-19 -37.5t-7.5 -56h207q0 5 0.5 11t0.5 13q0 25 -4 43.5t-15 30t-30 17t-48 5.5z" />
    <glyph glyph-name="afii10072" unicode="&#x436;" horiz-adv-x="661" 
d="M6 0l151 234l-146 226h107l122 -189h41v189h99v-189h41l122 189h107l-146 -226l151 -234h-107l-122 189h-46v-189h-99v189h-46l-122 -189h-107z" />
    <glyph glyph-name="afii10073" unicode="&#x437;" horiz-adv-x="459" 
d="M225 265q17 0 34 3t30 10.5t21 19t8 29.5q0 34 -23 46t-67 12q-48 0 -72 -13.5t-24 -47.5h-98q0 77 47 111.5t144 34.5q101 0 146 -34.5t45 -93.5q0 -48 -26.5 -74.5t-67.5 -37.5q44 -11 71.5 -36.5t27.5 -74.5q0 -60 -46.5 -94.5t-149.5 -34.5q-100 0 -148 34.5
t-48 111.5h95q0 -32 24.5 -46.5t76.5 -14.5q46 0 72 13t26 48q0 18 -9 29t-23 18t-31.5 9.5t-34.5 2.5h-50v70h50z" />
    <glyph glyph-name="afii10074" unicode="&#x438;" horiz-adv-x="543" 
d="M223 232q34 57 67.5 114t66.5 114h117v-460h-99v228q0 29 1 53t3 41q2 20 5 36h-4q-5 -5 -25 -50.5t-62 -120.5l-108 -187h-117v460h99v-230q0 -29 -1.5 -53t-3.5 -41q-2 -20 -4 -36h4q6 18 15 39q8 18 19.5 41.5t26.5 51.5z" />
    <glyph glyph-name="afii10075" unicode="&#x439;" horiz-adv-x="543" 
d="M271 598q73 0 73 48h71q0 -59 -36 -85.5t-108 -26.5t-108 26.5t-36 85.5h71q0 -48 73 -48zM223 232q34 57 67.5 114t66.5 114h117v-460h-99v228q0 29 1 53t3 41q2 20 5 36h-4q-5 -5 -25 -50.5t-62 -120.5l-108 -187h-117v460h99v-230q0 -29 -1.5 -53t-3.5 -41
q-2 -20 -4 -36h4q6 18 15 39q8 18 19.5 41.5t26.5 51.5z" />
    <glyph glyph-name="afii10076" unicode="&#x43a;" horiz-adv-x="487" 
d="M69 0v460h99v-189h70l123 189h107l-146 -226l151 -234h-107l-123 189h-75v-189h-99z" />
    <glyph glyph-name="afii10077" unicode="&#x43b;" horiz-adv-x="502" 
d="M98 460h336v-460h-99v375h-144q-8 -109 -10.5 -181.5t-16 -116t-47 -62t-103.5 -18.5v85q23 0 35 5t18 17t8 31t4 47z" />
    <glyph glyph-name="afii10078" unicode="&#x43c;" horiz-adv-x="672" 
d="M389 0h-106l-84 218q-11 30 -18 53t-12 39q-5 18 -8 31h-3q2 -14 4 -32q2 -16 3.5 -39t1.5 -55v-215h-99v460h131l137 -364l137 364h131v-460h-99v215q0 32 1 55t3 39q2 18 5 32h-3q-3 -13 -8 -31q-5 -16 -12 -39t-18 -53z" />
    <glyph glyph-name="afii10079" unicode="&#x43d;" horiz-adv-x="532" 
d="M366 0v190h-199v-190h-99v460h99v-186h199v186h99v-460h-99z" />
    <glyph glyph-name="afii10080" unicode="&#x43e;" horiz-adv-x="502" 
d="M251 -10q-55 0 -95 12t-66.5 40t-39 74t-12.5 114t12.5 114t39 74t66.5 40t95 12t95.5 -12t66.5 -40t38.5 -74t12.5 -114t-12.5 -114t-38.5 -74t-66.5 -40t-95.5 -12zM251 69q31 0 53 8t35.5 27t19.5 50t6 76t-6 76t-19.5 50t-35.5 27t-53 8t-53 -8t-35.5 -27t-19.5 -50
t-6 -76t6 -76t19.5 -50t35.5 -27t53 -8z" />
    <glyph glyph-name="afii10081" unicode="&#x43f;" horiz-adv-x="523" 
d="M356 0v375h-189v-375h-99v460h387v-460h-99z" />
    <glyph glyph-name="afii10082" unicode="&#x440;" horiz-adv-x="535" 
d="M303 -10q-54 0 -88 17.5t-51 66.5h-2q2 -22 3.5 -42.5t1.5 -41.5v-230h-99v700h77l11 -57q2 -6 3.5 -11.5t3.5 -10.5q16 51 50 70t90 19q49 0 85 -13t60 -41.5t36 -74.5t12 -111q0 -66 -12 -111.5t-36 -74t-60 -41.5t-85 -13zM286 69q30 0 51 7.5t34.5 26t19.5 49.5t6 78
q0 46 -6 77t-19.5 49.5t-34.5 26.5t-51 8q-62 0 -89.5 -33t-29.5 -116v-12q0 -45 6.5 -76t21 -50t37 -27t54.5 -8z" />
    <glyph glyph-name="afii10083" unicode="&#x441;" horiz-adv-x="463" 
d="M437 136q0 -40 -14.5 -67.5t-40.5 -45t-62 -25.5t-80 -8q-54 0 -92.5 12.5t-62.5 40.5t-35.5 74t-11.5 113t11.5 112.5t35.5 74t62.5 41t92.5 12.5q44 0 80 -8t62 -25.5t40.5 -45.5t14.5 -67h-98q0 37 -24 52t-69 15q-33 0 -54 -8t-33.5 -27t-17 -50t-4.5 -76t4.5 -76
t17 -50t34 -27t54.5 -8q43 0 67.5 14.5t24.5 52.5h98z" />
    <glyph glyph-name="afii10084" unicode="&#x442;" horiz-adv-x="419" 
d="M160 0v375h-146v85h391v-85h-146v-375h-99z" />
    <glyph glyph-name="afii10085" unicode="&#x443;" horiz-adv-x="472" 
d="M70 -155q36 0 65 40.5t50 100.5q-45 119 -89.5 236.5t-89.5 237.5h103q23 -65 46 -132.5t41 -123.5t28.5 -92.5t7.5 -38.5h3q1 -1 2.5 11t5.5 33t12 50.5t23 63.5q20 57 41 114t41 115h103q-48 -125 -95 -248t-95 -248q-41 -106 -89.5 -155t-113.5 -49v85v0z" />
    <glyph glyph-name="afii10086" unicode="&#x444;" horiz-adv-x="690" 
d="M296 -240v231q-65 2 -112.5 13.5t-78 38.5t-45 72.5t-14.5 114.5t14.5 114t45 72t78 38.5t112.5 14.5v175l99 16v-191q64 -3 111 -14.5t78 -38.5t45.5 -72t14.5 -114t-14.5 -114t-45.5 -72t-78 -38.5t-111 -14.5v-231h-99zM145 230q0 -44 7.5 -73t25 -46.5t46.5 -25
t72 -9.5v308q-43 -2 -72 -10t-46.5 -25.5t-25 -46t-7.5 -72.5zM545 230q0 44 -7.5 72.5t-25 46t-46 25.5t-71.5 10v-308q43 2 71.5 10t46 25t25 46t7.5 73z" />
    <glyph glyph-name="afii10087" unicode="&#x445;" horiz-adv-x="445" 
d="M265 106q-14 21 -21.5 35.5t-11.5 23.5q-4 11 -5 17h-4q-2 -6 -7 -17q-5 -9 -12.5 -24t-21.5 -36l-67 -105h-107l154 233l-144 227h114l54 -87q14 -24 21.5 -40t12.5 -26q5 -11 7 -18h4q1 7 6 18q7 17 35 65l55 88h108l-146 -225l153 -235h-109z" />
    <glyph glyph-name="afii10088" unicode="&#x446;" horiz-adv-x="539" 
d="M76 0v460h99v-375h189v375h99v-375h65v-205h-99v120h-353z" />
    <glyph glyph-name="afii10089" unicode="&#x447;" horiz-adv-x="504" 
d="M133 460v-138q0 -34 4.5 -56t15 -35t27.5 -18.5t41 -5.5q61 0 88 35t28 122v96h99v-460h-99v131q0 21 1.5 42t3.5 42h-1q-17 -50 -50 -68.5t-86 -18.5q-86 0 -128.5 43.5t-42.5 150.5v138h99z" />
    <glyph glyph-name="afii10090" unicode="&#x448;" horiz-adv-x="688" 
d="M167 85h128v375h99v-375h127v375h99v-460h-552v460h99v-375z" />
    <glyph glyph-name="afii10091" unicode="&#x449;" horiz-adv-x="688" 
d="M620 85h65v-205h-99v120h-518v460h99v-375h128v375h99v-375h127v375h99v-375z" />
    <glyph glyph-name="afii10092" unicode="&#x44a;" horiz-adv-x="515" 
d="M222 460v-161h87q91 0 133 -33.5t42 -116.5q0 -43 -10.5 -71.5t-32 -46t-54.5 -24.5t-78 -7h-186v375h-113v85h212zM222 217v-135h83q42 0 61 14t19 53q0 37 -19 52.5t-61 15.5h-83z" />
    <glyph glyph-name="afii10093" unicode="&#x44b;" horiz-adv-x="644" 
d="M167 299h87q91 0 133 -33.5t42 -116.5q0 -43 -10.5 -71.5t-32 -46t-54.5 -24.5t-78 -7h-186v460h99v-161zM167 217v-135h83q42 0 61 14t19 53q0 37 -19 52.5t-61 15.5h-83zM485 0v460h99v-460h-99z" />
    <glyph glyph-name="afii10094" unicode="&#x44c;" horiz-adv-x="467" 
d="M167 299h87q91 0 133 -33.5t42 -116.5q0 -43 -10.5 -71.5t-32 -46t-54.5 -24.5t-78 -7h-186v460h99v-161zM167 217v-135h83q42 0 61 14t19 53q0 37 -19 52.5t-61 15.5h-83z" />
    <glyph glyph-name="afii10095" unicode="&#x44d;" horiz-adv-x="463" 
d="M158 266h167q-2 35 -8 59t-18.5 38.5t-32.5 21t-49 6.5q-45 0 -69 -15t-24 -52h-98q0 39 14.5 67t40.5 45.5t62 25.5t80 8q54 0 92.5 -12.5t62.5 -41t35.5 -74t11.5 -112.5t-11.5 -113t-35.5 -74t-62.5 -40.5t-92.5 -12.5q-44 0 -80 8t-62 25.5t-40.5 45t-14.5 67.5h98
q0 -38 24.5 -52.5t67.5 -14.5q30 0 50 6.5t32.5 21t18.5 38.5t8 59h-167v72z" />
    <glyph glyph-name="afii10096" unicode="&#x44e;" horiz-adv-x="700" 
d="M451 -10q-48 0 -84.5 10t-61.5 33.5t-39 61.5t-17 95h-82v-190h-99v460h99v-186h82q4 55 18 92.5t39 60.5t61 33t84 10q53 0 91.5 -12t63 -40t36.5 -74t12 -114t-12 -114t-36.5 -74t-63 -40t-91.5 -12zM451 73q28 0 48 8t32.5 26.5t18 48.5t5.5 74t-5.5 73.5t-18 47.5
t-32.5 26t-48 8q-29 0 -48.5 -8t-32 -26t-18 -47.5t-5.5 -73.5t5.5 -74t18 -48.5t32 -26.5t48.5 -8z" />
    <glyph glyph-name="afii10097" unicode="&#x44f;" horiz-adv-x="476" 
d="M28 0l103 171q-46 13 -68 46.5t-22 95.5q0 42 10.5 70t32 45.5t54.5 24.5t78 7h192v-460h-99v161h-79l-96 -161h-106zM309 231v147h-89q-43 0 -61.5 -13.5t-18.5 -57.5q0 -45 19 -60.5t61 -15.5h89z" />
    <glyph glyph-name="uni0450" unicode="&#x450;" horiz-adv-x="484" 
d="M438 136q0 -41 -14.5 -68.5t-40 -45t-61 -25t-78.5 -7.5q-54 0 -92.5 12t-64 40t-37.5 74t-12 113q0 69 12.5 115.5t39 74t66.5 39.5t94 12q50 0 86.5 -9.5t60.5 -32t36 -59t12 -90.5q0 -16 -2 -38.5t-9 -42.5h-297q1 -36 7.5 -60.5t19.5 -39.5t34.5 -22t54.5 -7
q39 0 63 13.5t24 53.5h98zM249 391q-30 0 -51 -6t-33.5 -20.5t-19 -37.5t-7.5 -56h207q0 5 0.5 11t0.5 13q0 25 -4 43.5t-15 30t-30 17t-48 5.5zM238 528l-109 136h117l71 -136h-79z" />
    <glyph glyph-name="afii10071" unicode="&#x451;" horiz-adv-x="484" 
d="M438 136q0 -41 -14.5 -68.5t-40 -45t-61 -25t-78.5 -7.5q-54 0 -92.5 12t-64 40t-37.5 74t-12 113q0 69 12.5 115.5t39 74t66.5 39.5t94 12q50 0 86.5 -9.5t60.5 -32t36 -59t12 -90.5q0 -16 -2 -38.5t-9 -42.5h-297q1 -36 7.5 -60.5t19.5 -39.5t34.5 -22t54.5 -7
q39 0 63 13.5t24 53.5h98zM249 391q-30 0 -51 -6t-33.5 -20.5t-19 -37.5t-7.5 -56h207q0 5 0.5 11t0.5 13q0 25 -4 43.5t-15 30t-30 17t-48 5.5zM105 538v100h87v-100h-87zM291 538v100h87v-100h-87z" />
    <glyph glyph-name="afii10099" unicode="&#x452;" horiz-adv-x="565" 
d="M192 543v-85q0 -19 -1.5 -36.5t-3.5 -35.5h3q17 48 50 66t87 18q88 0 131 -45t43 -151v-274q0 -67 -10.5 -113t-32 -74t-55 -40.5t-78.5 -12.5q-72 0 -113.5 30.5t-41.5 101.5h98q0 -47 57 -47q22 0 36.5 7.5t23.5 25.5t13 48t4 74v274q0 67 -21 92t-71 25
q-34 0 -56.5 -9.5t-36 -30.5t-19.5 -55t-6 -83v-213h-99v543h-79v76h79v68q25 3 49.5 6t49.5 7v-81h127v-76h-127z" />
    <glyph glyph-name="afii10100" unicode="&#x453;" horiz-adv-x="388" 
d="M134 528l70 136h130l-116 -136h-84zM167 0h-99v460h306v-85h-207v-375z" />
    <glyph glyph-name="afii10101" unicode="&#x454;" horiz-adv-x="463" 
d="M305 193h-168q1 -35 7.5 -58.5t19 -38t33 -21t50.5 -6.5q45 0 68.5 15t23.5 52h98q0 -40 -14.5 -68t-40.5 -45t-62 -25t-80 -8q-54 0 -92.5 12.5t-63 40.5t-35.5 74t-11 113q0 66 11 112t35.5 74.5t62.5 41t92 12.5q44 0 80.5 -8t62.5 -25.5t40.5 -45.5t14.5 -67h-98
q0 36 -24 51.5t-69 15.5q-30 0 -50 -6.5t-32.5 -21t-19 -38.5t-7.5 -59h168v-73z" />
    <glyph glyph-name="afii10102" unicode="&#x455;" horiz-adv-x="454" 
d="M317 324q0 38 -22 52.5t-71 14.5q-47 0 -70 -12.5t-23 -46.5q0 -18 7.5 -29t20 -17t29.5 -9t36 -6q42 -6 77.5 -14.5t62 -24.5t41.5 -41.5t15 -63.5q0 -66 -44.5 -101.5t-152.5 -35.5q-103 0 -149 34.5t-46 111.5h95q0 -38 25 -52.5t76 -14.5t74.5 12.5t23.5 46.5
q0 18 -8 29t-21.5 17t-31 9t-37.5 6q-38 5 -72.5 13.5t-61 24.5t-42 41.5t-15.5 65.5q0 65 44 100.5t149 35.5q100 0 144.5 -34.5t44.5 -111.5h-98z" />
    <glyph glyph-name="afii10103" unicode="&#x456;" horiz-adv-x="208" 
d="M55 0v460h99v-460h-99zM55 566v94h99v-94h-99z" />
    <glyph glyph-name="afii10104" unicode="&#x457;" horiz-adv-x="208" 
d="M55 0v460h99v-460h-99zM-32 538v100h87v-100h-87zM154 538v100h87v-100h-87z" />
    <glyph glyph-name="afii10105" unicode="&#x458;" horiz-adv-x="243" 
d="M171 -93q0 -29 -7 -55.5t-23.5 -47t-45.5 -32.5t-72 -12v82q21 0 35 13t14 46v559h99v-553zM72 566v94h99v-94h-99z" />
    <glyph glyph-name="afii10106" unicode="&#x459;" horiz-adv-x="674" 
d="M406 299h59q91 0 133 -33.5t42 -116.5q0 -43 -10.5 -71.5t-32 -46t-54.5 -24.5t-78 -7h-158v375h-116q-8 -109 -10.5 -181.5t-16 -116t-47 -62t-103.5 -18.5v85q23 0 35 5t18 17t8 31t4 47l19 278h308v-161zM406 217v-135h55q42 0 61 14t19 53q0 37 -19 52.5t-61 15.5
h-55z" />
    <glyph glyph-name="afii10107" unicode="&#x45a;" horiz-adv-x="706" 
d="M437 299h59q91 0 133 -33.5t42 -116.5q0 -42 -10.5 -71t-32 -46t-54.5 -24.5t-78 -7.5h-158v190h-171v-190h-99v460h99v-186h171v186h99v-161zM437 217v-135h55q42 0 61 14.5t19 52.5t-19 53t-61 15h-55z" />
    <glyph glyph-name="afii10108" unicode="&#x45b;" horiz-adv-x="565" 
d="M192 543v-85q0 -19 -1.5 -36.5t-3.5 -35.5h2q17 48 50.5 66t87.5 18q88 0 131 -49t43 -167v-254h-99v221q0 50 -4 83t-14 52.5t-28 27t-46 7.5q-34 0 -56.5 -9.5t-36 -30.5t-19.5 -55t-6 -83v-213h-99v543h-79v76h79v68q25 3 49.5 6t49.5 7v-81h127v-76h-127z" />
    <glyph glyph-name="afii10109" unicode="&#x45c;" horiz-adv-x="487" 
d="M180 528l70 136h130l-116 -136h-84zM69 0v460h99v-189h70l123 189h107l-146 -226l151 -234h-107l-123 189h-75v-189h-99z" />
    <glyph glyph-name="uni045D" unicode="&#x45d;" horiz-adv-x="543" 
d="M223 232q34 57 67.5 114t66.5 114h117v-460h-99v228q0 29 1 53t3 41q2 20 5 36h-4q-5 -5 -25 -50.5t-62 -120.5l-108 -187h-117v460h99v-230q0 -29 -1.5 -53t-3.5 -41q-2 -20 -4 -36h4q6 18 15 39q8 18 19.5 41.5t26.5 51.5zM250 528l-115 136h129l71 -136h-85z" />
    <glyph glyph-name="afii10110" unicode="&#x45e;" horiz-adv-x="472" 
d="M70 -155q36 0 65 40.5t50 100.5q-45 119 -89.5 236.5t-89.5 237.5h103q23 -65 46 -132.5t41 -123.5t28.5 -92.5t7.5 -38.5h3q1 -1 2.5 11t5.5 33t12 50.5t23 63.5q20 57 41 114t41 115h103q-48 -125 -95 -248t-95 -248q-41 -106 -89.5 -155t-113.5 -49v85v0zM235 598
q73 0 73 48h71q0 -59 -36 -85.5t-108 -26.5t-108 26.5t-36 85.5h71q0 -48 73 -48z" />
    <glyph glyph-name="afii10193" unicode="&#x45f;" horiz-adv-x="523" 
d="M212 -140v140h-144v460h99v-375h189v375h99v-460h-144v-140h-99z" />
    <glyph glyph-name="afii10146" unicode="&#x462;" horiz-adv-x="639" 
d="M146 575h-135v85h421v-85h-187v-173h121q63 0 108.5 -10.5t75 -35t44 -64t14.5 -96.5q0 -56 -14.5 -93.5t-44 -60t-75 -32.5t-108.5 -10h-220v575zM245 317v-232h115q80 0 114.5 24.5t34.5 86.5q0 67 -34.5 94t-114.5 27h-115z" />
    <glyph glyph-name="afii10194" unicode="&#x463;" horiz-adv-x="497" 
d="M304 501h-137v-142h87q106 0 155.5 -41t49.5 -139q0 -52 -12 -86.5t-37.5 -55t-64 -29t-91.5 -8.5h-186v501h-61v79h61v107q25 3 49.5 6t49.5 7v-120h137v-79zM250 82q58 0 84 20t26 77q0 53 -26 75.5t-84 22.5h-83v-195h83z" />
    </font>
</defs>
</svg>
