<?xml version="1.0" standalone="no"?>
<!DOCTYPE svg PUBLIC "-//W3C//DTD SVG 1.1//EN" "http://www.w3.org/Graphics/SVG/1.1/DTD/svg11.dtd" >
<svg xmlns="http://www.w3.org/2000/svg" xmlns:xlink="http://www.w3.org/1999/xlink" version="1.1">
<metadata>
Created by FontForge 20170910 at Tue Jul 17 06:20:53 2012
 By Jimmy Wärting
(c) 2010-2011 by Sergiy S. Tkachenko / 4th february (info@4thfebruary.com.ua).
All rights reserved. This font software is the property of Sergiy S. Tkachenko (Kremenchuk, Ukraine). You may not reproduce, modify, adapt, translate, alter nor create derivative works of the font software. You may not reverse engineer, decompile, decrypt, disassemble, nor seek to discover the source code of the font software.
</metadata>
<defs>
<font id="Akzentica4FLight" horiz-adv-x="625" >
  <font-face 
    font-family="Akzentica 4F Light"
    font-weight="300"
    font-stretch="normal"
    units-per-em="1000"
    panose-1="0 0 0 0 0 0 0 0 0 0"
    ascent="800"
    descent="-200"
    x-height="460"
    cap-height="660"
    bbox="-140 -250 1190 1079"
    underline-thickness="50"
    underline-position="-100"
    unicode-range="U+0020-FB04"
  />
<missing-glyph horiz-adv-x="349" 
 />
    <glyph glyph-name="f_f_j" unicode="ffj" horiz-adv-x="672" 
d="M83 0v420h-61v40h61v60q0 51 12.5 85.5t36 55.5t58 30t78.5 9v-40q-42 0 -69 -7t-42.5 -23.5t-22 -43t-6.5 -66.5v-60h204v60q0 51 12.5 85.5t36 55.5t58 30t78.5 9h70v-40h-70q-42 0 -69 -7t-42.5 -23.5t-22 -43t-6.5 -66.5v-60h231v-577q0 -24 -4 -46.5t-13 -39.5
t-25 -27t-40 -10v43q16 0 26.5 17.5t10.5 62.5v537h-186v-420h-45v420h-204v-420h-45z" />
    <glyph glyph-name="uni0407_uni0407" unicode="&#x407;&#x407;" horiz-adv-x="438" 
d="M87 0v660h45v-660h-45zM-3 750v70h45v-70h-45zM306 0v660h45v-660h-45zM196 750v70h45v-70h-45zM396 750v70h45v-70h-45z" />
    <glyph glyph-name="uni0457_uni0457" unicode="&#x457;&#x457;" horiz-adv-x="348" 
d="M65 0v460h45v-460h-45zM-25 550v70h45v-70h-45zM152 550v70h45v-70h-45zM239 0v460h45v-460h-45zM329 550v70h45v-70h-45z" />
    <glyph glyph-name="f_igrave" unicode="f&#xec;" horiz-adv-x="423" 
d="M83 0v420h-61v40h61v60q0 51 8.5 85.5t26 55.5t42.5 30t58 9v-40q-27 0 -44 -7t-27.5 -23.5t-14.5 -43t-4 -66.5v-60h231v-460h-45v420h-186v-420h-45zM341 533l-99 126h71l71 -126h-43z" />
    <glyph glyph-name="f_iacute" unicode="f&#xed;" horiz-adv-x="423" 
d="M83 0v420h-61v40h61v60q0 51 12.5 85.5t36 55.5t58 30t78.5 9v-40q-42 0 -69 -7t-42.5 -23.5t-22 -43t-6.5 -66.5v-60h231v-460h-45v420h-186v-420h-45zM288 533l71 126h71l-99 -126h-43z" />
    <glyph glyph-name="f_icircumflex" unicode="f&#xee;" horiz-adv-x="423" 
d="M83 0v420h-61v40h61v60q0 51 11 85.5t32 55.5t51.5 30t70.5 9v-40q-36 0 -59 -7t-36.5 -23.5t-19 -43t-5.5 -66.5v-60h231v-460h-45v420h-186v-420h-45zM351 659l125 -126h-54l-45 43q-11 10 -18 19.5t-12 16.5q-5 8 -9 15h-2q-4 -7 -9 -15q-5 -7 -12 -16t-18 -20
l-44 -43h-55l126 126h27z" />
    <glyph glyph-name="apostrophe_uni0457" unicode="&#x27;&#x457;" horiz-adv-x="239" 
d="M13 536q16 0 26.5 19t10.5 65h-40v80h75v-80q0 -24 -3.5 -46.5t-11.5 -39.5t-22 -27t-35 -10v39zM130 0v460h45v-460h-45zM220 550v70h45v-70h-45z" />
    <glyph glyph-name="apostrophe_uni0407" unicode="&#x27;&#x407;" horiz-adv-x="261" 
d="M13 656q16 0 26.5 19t10.5 65h-40v80h75v-80q0 -24 -3.5 -46.5t-11.5 -39.5t-22 -27t-35 -10v39zM130 0v660h45v-660h-45zM220 750v70h45v-70h-45z" />
    <glyph glyph-name="f_k" unicode="fk" horiz-adv-x="691" 
d="M128 420v-420h-45v420h-61v40h61v60q0 51 12.5 85.5t36 55.5t58 30t78.5 9h96v-450h111l136 210h53l-146 -226l151 -234h-53l-136 210h-116v-210h-45v660h-51q-42 0 -69 -7t-42.5 -23.5t-22 -43t-6.5 -66.5v-60h121v-40h-121z" />
    <glyph glyph-name="f_j" unicode="fj" horiz-adv-x="423" 
d="M268 660q-42 0 -69 -7t-42.5 -23.5t-22 -43t-6.5 -66.5v-60h231v-577q0 -24 -4 -46.5t-13 -39.5t-25 -27t-40 -10v43q16 0 26.5 17.5t10.5 62.5v537h-186v-420h-45v420h-61v40h61v60q0 51 12.5 85.5t36 55.5t58 30t78.5 9h70v-40h-70z" />
    <glyph glyph-name="f_b" unicode="fb" horiz-adv-x="745" 
d="M515 -10q-60 0 -97 22t-54 79v-1l-10 -90h-35v660h-51q-42 0 -69 -7t-42.5 -23.5t-22 -43t-6.5 -66.5v-60h121v-40h-121v-420h-45v420h-61v40h61v60q0 51 12.5 85.5t36 55.5t58 30t78.5 9h96v-260q0 -17 -0.5 -36t-1.5 -36h1q17 57 54 79.5t98 22.5q47 0 82 -12.5
t57.5 -41t33.5 -74t11 -112.5t-11 -112.5t-33.5 -74t-57.5 -41t-82 -12.5zM511 30q40 0 67.5 10t44.5 33.5t24 61.5t7 95t-7 95t-24 61.5t-44.5 33.5t-67.5 10q-39 0 -66.5 -9.5t-45 -31t-26 -58t-9.5 -90.5v-11q0 -57 8 -95.5t25.5 -62t45.5 -33t68 -9.5z" />
    <glyph glyph-name="f_f_b" unicode="ffb" horiz-adv-x="994" 
d="M83 0v420h-61v40h61v60q0 51 12.5 85.5t36 55.5t58 30t78.5 9v-40q-42 0 -69 -7t-42.5 -23.5t-22 -43t-6.5 -66.5v-60h204v60q0 51 12.5 85.5t36 55.5t58 30t78.5 9h96v-260q0 -17 -0.5 -36t-1.5 -36h1q17 57 54 79.5t98 22.5q47 0 82 -12.5t57.5 -41t33.5 -74t11 -112.5
t-11 -112.5t-33.5 -74t-57.5 -41t-82 -12.5q-60 0 -97 22t-54 79v-1l-10 -90h-35v660h-51q-42 0 -69 -7t-42.5 -23.5t-22 -43t-6.5 -66.5v-60h121v-40h-121v-420h-45v420h-204v-420h-45zM760 30q40 0 67.5 10t44.5 33.5t24 61.5t7 95t-7 95t-24 61.5t-44.5 33.5t-67.5 10
q-39 0 -66.5 -9.5t-45 -31t-26 -58t-9.5 -90.5v-11q0 -57 8 -95.5t25.5 -62t45.5 -33t68 -9.5z" />
    <glyph glyph-name="f_f_k" unicode="ffk" horiz-adv-x="944" 
d="M82 0v420h-61v40h61v60q0 51 12.5 85.5t36 55.5t58 30t78.5 9v-40q-42 0 -69 -7t-42.5 -23.5t-22 -43t-6.5 -66.5v-60h204v60q0 51 12.5 85.5t36 55.5t58 30t78.5 9h96v-450h111l136 210h53l-146 -226l151 -234h-53l-136 210h-116v-210h-45v660h-51q-42 0 -69 -7
t-42.5 -23.5t-22 -43t-6.5 -66.5v-60h121v-40h-121v-420h-45v420h-204v-420h-45z" />
    <glyph glyph-name="f_h" unicode="fh" horiz-adv-x="750" 
d="M128 420v-420h-45v420h-61v40h61v60q0 51 12.5 85.5t36 55.5t58 30t78.5 9h96v-260q0 -17 -0.5 -36t-1.5 -36h1q17 57 54 79.5t98 22.5q42 0 73 -10t51 -33.5t30 -62t10 -94.5v-270h-45v270q0 45 -7 76t-22 49.5t-39 26.5t-58 8q-38 0 -65 -9.5t-44 -31.5t-25.5 -58.5
t-9.5 -89.5v-241h-45v660h-51q-42 0 -69 -7t-42.5 -23.5t-22 -43t-6.5 -66.5v-60h121v-40h-121z" />
    <glyph glyph-name="ff" unicode="ff" horiz-adv-x="498" 
d="M83 0v420h-61v40h61v60q0 51 12.5 85.5t36 55.5t58 30t78.5 9v-40q-42 0 -69 -7t-42.5 -23.5t-22 -43t-6.5 -66.5v-60h204v60q0 51 12.5 85.5t36 55.5t58 30t78.5 9v-40q-42 0 -69 -7t-42.5 -23.5t-22 -43t-6.5 -66.5v-60h121v-40h-121v-420h-45v420h-204v-420h-45z" />
    <glyph glyph-name="fi" unicode="fi" horiz-adv-x="423" 
d="M268 660q-42 0 -69 -7t-42.5 -23.5t-22 -43t-6.5 -66.5v-60h231v-460h-45v420h-186v-420h-45v420h-61v40h61v60q0 51 12.5 85.5t36 55.5t58 30t78.5 9h70v-40h-70z" />
    <glyph glyph-name="fl" unicode="fl" horiz-adv-x="431" 
d="M128 420v-420h-45v420h-61v40h61v60q0 51 12.5 85.5t36 55.5t58 30t78.5 9h96v-577q0 -45 10.5 -62.5t26.5 -17.5v-43q-24 0 -40 10t-25 27t-13 39.5t-4 46.5v537h-51q-42 0 -69 -7t-42.5 -23.5t-22 -43t-6.5 -66.5v-60h121v-40h-121z" />
    <glyph glyph-name="ffi" unicode="ffi" horiz-adv-x="672" 
d="M83 0v420h-61v40h61v60q0 51 12.5 85.5t36 55.5t58 30t78.5 9v-40q-42 0 -69 -7t-42.5 -23.5t-22 -43t-6.5 -66.5v-60h204v60q0 51 12.5 85.5t36 55.5t58 30t78.5 9h70v-40h-70q-42 0 -69 -7t-42.5 -23.5t-22 -43t-6.5 -66.5v-60h231v-460h-45v420h-186v-420h-45v420
h-204v-420h-45z" />
    <glyph glyph-name="ffl" unicode="ffl" horiz-adv-x="680" 
d="M83 0v420h-61v40h61v60q0 51 12.5 85.5t36 55.5t58 30t78.5 9v-40q-42 0 -69 -7t-42.5 -23.5t-22 -43t-6.5 -66.5v-60h204v60q0 51 12.5 85.5t36 55.5t58 30t78.5 9h96v-577q0 -45 10.5 -62.5t26.5 -17.5v-43q-24 0 -40 10t-25 27t-13 39.5t-4 46.5v537h-51q-42 0 -69 -7
t-42.5 -23.5t-22 -43t-6.5 -66.5v-60h121v-40h-121v-420h-45v420h-204v-420h-45z" />
    <glyph glyph-name=".notdef" horiz-adv-x="349" 
 />
    <glyph glyph-name="space" unicode=" " horiz-adv-x="280" 
 />
    <glyph glyph-name="exclam" unicode="!" horiz-adv-x="201" 
d="M118 200h-35l-10 460h55zM123 0h-45v70h45v-70z" />
    <glyph glyph-name="quotedbl" unicode="&#x22;" horiz-adv-x="262" 
d="M109 500h-35l-10 160h55zM199 500h-35l-10 160h55z" />
    <glyph glyph-name="numbersign" unicode="#" horiz-adv-x="584" 
d="M123 0l29 207h-108l7 45h107l22 155h-108l7 45h108l29 208h45l-29 -208h155l29 208h45l-29 -208h107l-7 -45h-107l-22 -155h108l-7 -45h-107l-29 -207h-45l29 207h-155l-29 -207h-45zM203 252h155l22 155h-155z" />
    <glyph glyph-name="dollar" unicode="$" horiz-adv-x="500" 
d="M226 -40v80q-94 4 -142 42.5t-48 117.5h44q0 -60 38 -88t108 -32v231q-35 5 -67 14t-56.5 26t-39 43.5t-15.5 67.5q-2 73 44 112.5t134 44.5v81h43v-81q40 -2 73 -11t56 -28t36 -48.5t13 -71.5h-44q0 62 -35.5 89t-98.5 30v-230q39 -6 74 -15.5t61 -26.5t41 -43.5
t15 -67.5q0 -75 -50.5 -112.5t-140.5 -42.5v-81h-43zM415 196q0 31 -11.5 50t-31.5 31t-46.5 18t-56.5 10v-225q30 2 57 9t46.5 20.5t31 34.5t11.5 52zM93 464q0 -32 11 -51.5t29 -31t42 -17t51 -9.5v224q-59 -4 -96 -30t-37 -85z" />
    <glyph glyph-name="percent" unicode="%" horiz-adv-x="630" 
d="M163 0h-49l357 660h49zM155 325q-31 0 -53 8.5t-36.5 28t-21.5 52.5t-7 81t7 80.5t21.5 52.5t36.5 28.5t53 8.5q30 0 52.5 -8.5t36.5 -28.5t21 -52.5t7 -80.5t-7 -81t-21 -52.5t-36.5 -28t-52.5 -8.5zM155 365q37 0 54.5 28t17.5 102q0 73 -17.5 101.5t-54.5 28.5
q-38 0 -55.5 -28.5t-17.5 -101.5q0 -74 17.5 -102t55.5 -28zM477 -10q-31 0 -53 8.5t-36.5 28t-21.5 52.5t-7 81t7 80.5t21.5 52.5t36.5 28.5t53 8.5q30 0 52.5 -8.5t36.5 -28.5t21 -52.5t7 -80.5t-7 -81t-21 -52.5t-36.5 -28t-52.5 -8.5zM477 30q37 0 54.5 28t17.5 102
q0 73 -17.5 101.5t-54.5 28.5q-38 0 -55.5 -28.5t-17.5 -101.5q0 -74 17.5 -102t55.5 -28z" />
    <glyph glyph-name="ampersand" unicode="&#x26;" horiz-adv-x="542" 
d="M458 240q0 -87 -24 -141l92 -99h-58l-57 61q-29 -38 -74.5 -54.5t-107.5 -16.5q-107 0 -153.5 44t-46.5 120q0 64 28 108.5t69 79.5l14 11l-4 5q-14 18 -28 34t-25 34t-17.5 40.5t-6.5 52.5q0 70 42 110.5t139 40.5q82 0 125 -36t43 -124h-44q0 66 -29 93t-93 27
q-65 0 -101.5 -26.5t-36.5 -91.5q0 -20 4 -35.5t11 -29t17.5 -26t24.5 -27.5l239 -259q14 44 14 105h44zM231 30q54 0 91 15t59 48l-212 229l-18 -16q-38 -33 -57.5 -66.5t-19.5 -81.5q0 -70 41.5 -99t115.5 -29z" />
    <glyph glyph-name="quotesingle" unicode="'" horiz-adv-x="173" 
d="M109 500h-35l-10 160h55z" />
    <glyph glyph-name="parenleft" unicode="(" horiz-adv-x="290" 
d="M274 -240q-51 0 -87.5 23t-60.5 77.5t-35.5 144.5t-11.5 225t11.5 225t35.5 144.5t60.5 77.5t87.5 23v-40q-39 0 -67.5 -21t-46.5 -70.5t-27 -132.5t-9 -206t9 -206t27 -132.5t46.5 -70.5t67.5 -21v-40z" />
    <glyph glyph-name="parenright" unicode=")" horiz-adv-x="291" 
d="M17 -200q39 0 67.5 21t46.5 70.5t27 132.5t9 206t-9 206t-27 132.5t-46.5 70.5t-67.5 21v40q51 0 87.5 -23t60.5 -77.5t35.5 -144.5t11.5 -225t-11.5 -225t-35.5 -144.5t-60.5 -77.5t-87.5 -23v40z" />
    <glyph glyph-name="asterisk" unicode="*" horiz-adv-x="423" 
d="M298 381l-87 116l-87 -116l-32 26l84 113l-133 44l14 39l132 -43v140h44v-140l133 43l14 -39l-135 -44l85 -113z" />
    <glyph glyph-name="plus" unicode="+" horiz-adv-x="594" 
d="M276 84v228h-227v40h227v227h40v-227h228v-40h-228v-228h-40z" />
    <glyph glyph-name="comma" unicode="," horiz-adv-x="209" 
d="M63 -84q16 0 26.5 19t10.5 65h-40v80h75v-80q0 -24 -3.5 -46.5t-11.5 -39.5t-22 -27t-35 -10v39z" />
    <glyph glyph-name="hyphen" unicode="-" horiz-adv-x="464" 
d="M74 212v40h315v-40h-315z" />
    <glyph glyph-name="period" unicode="." horiz-adv-x="237" 
d="M156 0h-75v80h75v-80z" />
    <glyph glyph-name="slash" unicode="/" horiz-adv-x="375" 
d="M60 -120h-46l273 820h46z" />
    <glyph glyph-name="zero" unicode="0" horiz-adv-x="566" 
d="M283 -10q-61 0 -105.5 17t-73 56.5t-42.5 105t-14 161.5t14 161.5t42.5 105t73 56.5t105.5 17t105.5 -17t73 -56.5t42.5 -105t14 -161.5t-14 -161.5t-42.5 -105t-73 -56.5t-105.5 -17zM283 30q49 0 85 14.5t59.5 49.5t34.5 92.5t11 143.5q0 83 -11 140t-34.5 92.5
t-59.5 51.5t-85 16q-50 0 -85.5 -16t-59 -51.5t-34.5 -92.5t-11 -140q0 -86 11 -143.5t34.5 -92.5t59 -49.5t85.5 -14.5z" />
    <glyph glyph-name="one" unicode="1" horiz-adv-x="445" 
d="M65 0v40h135v569l-135 -30v41l180 40v-620h135v-40h-315z" />
    <glyph glyph-name="two" unicode="2" horiz-adv-x="486" 
d="M35 0v40l310 344q10 12 20.5 23.5t18.5 25t13 30t5 36.5q0 72 -44 101.5t-122 29.5q-81 0 -117.5 -27t-36.5 -93h-44q0 88 50.5 124t146.5 36q57 0 97.5 -11.5t66 -32.5t37 -51.5t11.5 -68.5q0 -29 -7 -50.5t-18 -40t-24.5 -34.5t-27.5 -33l-277 -308h357v-40h-415z" />
    <glyph glyph-name="three" unicode="3" horiz-adv-x="494" 
d="M230 390q109 0 161 -48t52 -142q0 -45 -12.5 -83.5t-39 -66.5t-68.5 -44t-101 -16q-41 0 -79.5 8.5t-68 27.5t-47.5 49.5t-18 74.5h45q0 -33 14.5 -56t37.5 -37t53 -20.5t61 -6.5q49 0 83 13.5t55 36.5t30.5 54t9.5 66q0 69 -39.5 109.5t-133.5 40.5h-53v40l192 230h-335
v40h390v-40l-133 -159q-15 -18 -31.5 -35.5t-32.5 -35.5h8z" />
    <glyph glyph-name="four" unicode="4" horiz-adv-x="505" 
d="M372 0v170h-357v40l209 450h47l-209 -450h310v240l45 10v-250h61v-40h-61v-170h-45z" />
    <glyph glyph-name="five" unicode="5" horiz-adv-x="491" 
d="M87 620l-14 -274q26 35 72 49.5t98 14.5q109 0 161 -53t52 -157q0 -45 -12.5 -83.5t-39 -66.5t-68.5 -44t-101 -16q-41 0 -79.5 8.5t-68 27.5t-47.5 49.5t-18 74.5h45q0 -33 14.5 -56t37.5 -37t53 -20.5t61 -6.5q49 0 83 13.5t55 36.5t30.5 54t9.5 66q0 78 -39 124
t-131 46q-31 0 -61 -5t-53 -17t-37.5 -31t-14.5 -47h-45l19 390h380v-40h-342z" />
    <glyph glyph-name="six" unicode="6" horiz-adv-x="539" 
d="M443 510q0 33 -13.5 56t-35.5 37t-51 20.5t-60 6.5q-48 0 -83 -15t-57.5 -50.5t-33.5 -92.5t-11 -141v-10q21 49 69 69t117 20q107 0 160 -53.5t53 -149.5q0 -48 -12.5 -88t-39 -68.5t-67.5 -44.5t-99 -16t-100.5 18t-70.5 58t-41.5 105t-13.5 160t13.5 160t42 104.5
t71 57t101.5 17.5q41 0 78.5 -8.5t66 -27.5t45.5 -49.5t17 -74.5h-45zM279 370q-45 0 -80 -10t-58 -32t-31.5 -56t-0.5 -82q16 -87 58 -123.5t113 -36.5q46 0 79 13.5t53.5 37.5t30 56.5t9.5 70.5q0 72 -41 117t-132 45z" />
    <glyph glyph-name="seven" unicode="7" horiz-adv-x="479" 
d="M108 0l288 620h-373v40h420v-40l-288 -620h-47z" />
    <glyph glyph-name="eight" unicode="8" horiz-adv-x="545" 
d="M497 169q0 -88 -59 -133.5t-168 -45.5q-59 0 -101 13.5t-69 38t-39.5 59.5t-10.5 77q1 36 11 62t27.5 45t41.5 31.5t53 20.5q-54 17 -84 49t-34 96q-3 41 8 75.5t37.5 59.5t67.5 39t98 14q104 0 155 -46.5t51 -134.5q0 -38 -9 -64.5t-25.5 -45.5t-40 -31.5t-52.5 -20.5
q33 -8 59 -19.5t44.5 -29.5t28.5 -44.5t10 -64.5zM95 173q0 -41 13 -68.5t36.5 -44t55.5 -23.5t70 -7q37 0 70.5 7t58 23.5t39 44t14.5 68.5q0 39 -13.5 62.5t-37.5 38t-58 22t-76 13.5q-2 -1 -7 -1q-33 -5 -62.5 -11t-52.5 -19.5t-36.5 -38t-13.5 -66.5zM437 489
q0 40 -13 67t-36 43.5t-53.5 23.5t-65.5 7q-34 0 -63 -7t-50.5 -23.5t-33.5 -44t-12 -67.5q0 -38 10.5 -61.5t31 -38t49.5 -22t66 -13.5q35 5 66 11.5t54 21t36.5 38.5t13.5 65z" />
    <glyph glyph-name="nine" unicode="9" horiz-adv-x="530" 
d="M87 150q0 -33 13.5 -56t35.5 -37t51 -20.5t60 -6.5q48 0 83 15t57.5 50.5t33.5 92.5t11 141v9q-21 -49 -69 -68.5t-117 -19.5q-107 0 -160 53.5t-53 149.5q0 48 12.5 88t39 68.5t67.5 44.5t99 16t100.5 -18t70.5 -58t41.5 -105.5t13.5 -159.5q0 -95 -13.5 -160
t-42 -104.5t-71.5 -57t-101 -17.5q-41 0 -78.5 8.5t-66 27.5t-45.5 49.5t-17 74.5h45zM251 290q45 0 80 10t58 32t31.5 56t0.5 82q-17 87 -59 123.5t-112 36.5q-47 0 -79.5 -13.5t-53 -37.5t-30 -56.5t-9.5 -70.5q0 -36 10 -66t31 -51t53.5 -33t78.5 -12z" />
    <glyph glyph-name="colon" unicode=":" horiz-adv-x="237" 
d="M156 0h-75v80h75v-80zM156 300h-75v80h75v-80z" />
    <glyph glyph-name="semicolon" unicode=";" horiz-adv-x="237" 
d="M83 -84q16 0 26.5 19t10.5 65h-40v80h75v-80q0 -24 -3.5 -46.5t-11.5 -39.5t-22 -27t-35 -10v39zM156 300h-75v80h75v-80z" />
    <glyph glyph-name="less" unicode="&#x3c;" horiz-adv-x="520" 
d="M456 85l-407 225v45l407 227v-48l-299 -166l-81 -35l81 -35l299 -164v-49z" />
    <glyph glyph-name="equal" unicode="=" horiz-adv-x="514" 
d="M49 402v40h415v-40h-415zM49 222v40h415v-40h-415z" />
    <glyph glyph-name="greater" unicode="&#x3e;" horiz-adv-x="521" 
d="M465 310l-407 -225v49l299 164l81 35l-81 35l-299 166v48l407 -227v-45z" />
    <glyph glyph-name="question" unicode="?" horiz-adv-x="475" 
d="M185 180q0 49 9 80t24 49t35.5 27t43.5 15q18 5 37 11.5t34 19.5t24.5 35.5t9.5 61.5q0 44 -13 73t-36.5 46.5t-56.5 24.5t-73 7q-79 0 -125 -27.5t-46 -92.5h-44q0 44 15.5 74.5t43.5 49.5t67 27.5t86 8.5q120 0 173.5 -50t53.5 -140q0 -54 -16 -86t-39.5 -49
t-49.5 -24.5t-45 -13.5q-15 -5 -27 -11t-21 -19t-14 -36t-5 -61h-45zM230 0h-45v70h45v-70z" />
    <glyph glyph-name="at" unicode="@" horiz-adv-x="646" 
d="M557 0q0 -31 -20 -52t-52 -34t-72 -18.5t-80 -5.5q-76 0 -130.5 16t-89 55t-51 104t-16.5 163q0 97 16 162.5t49.5 105.5t85.5 57t123 17t123 -17t86 -55.5t50.5 -102t16.5 -156.5q0 -54 -5.5 -90t-17.5 -58t-31 -31.5t-46 -9.5q-23 0 -38 6t-24 17t-12.5 26t-3.5 32
q-11 -52 -37.5 -71.5t-72.5 -19.5q-33 0 -58 9.5t-41.5 32t-24.5 59t-8 89.5t8 89t24.5 58.5t41.5 32.5t58 10q40 0 65 -15t38 -52l10 57h35v-267q0 -21 9.5 -37t31.5 -16q30 0 42 35t12 110q0 83 -13.5 139.5t-42 91t-72 49.5t-103.5 15t-103.5 -15t-71 -50.5t-41 -93.5
t-13.5 -144q0 -88 14 -145.5t44 -91t76.5 -47t111.5 -13.5q30 0 61 3.5t56.5 11.5t41.5 21.5t16 33.5h45zM316 80q49 0 71 29t24 104v17q0 84 -21.5 117t-73.5 33t-73.5 -33t-21.5 -117q0 -42 5 -71t16.5 -46.5t29.5 -25t44 -7.5z" />
    <glyph glyph-name="A" unicode="A" horiz-adv-x="611" 
d="M553 0l-62 152h-371l-62 -152h-48l275 660h43l273 -660h-48zM137 192h337l-115 281q-14 33 -23.5 60t-15.5 47q-7 23 -12 40h-4q-5 -18 -12 -40q-6 -19 -15.5 -46t-23.5 -60z" />
    <glyph glyph-name="B" unicode="B" horiz-adv-x="580" 
d="M87 0v660h226q105 0 154.5 -37.5t49.5 -132.5q0 -72 -29.5 -109t-91.5 -49q72 -11 106.5 -49t34.5 -113q0 -48 -13.5 -80.5t-41 -52.5t-69.5 -28.5t-100 -8.5h-226zM307 40q49 0 84.5 6.5t57.5 21.5t32.5 40t10.5 62q0 79 -43 110.5t-142 31.5h-175v-272h175zM307 352
q44 0 75.5 7t51.5 23t29 42.5t9 65.5q0 36 -9 61t-29 40.5t-51.5 22t-75.5 6.5h-175v-268h175z" />
    <glyph glyph-name="C" unicode="C" horiz-adv-x="573" 
d="M543 150q0 -48 -19.5 -79t-52 -49t-75.5 -25t-89 -7q-67 0 -115.5 17.5t-80.5 57.5t-47.5 105.5t-15.5 160.5t15.5 160t47.5 104.5t80.5 57t115.5 17.5q46 0 89 -7t75.5 -25t52 -49t19.5 -79h-45q0 37 -16 60t-42 36.5t-61 18.5t-72 5q-56 0 -96 -15.5t-66.5 -50.5
t-39 -92t-12.5 -141t12.5 -141.5t39 -93t66.5 -51t96 -15.5q37 0 72 5t61 18.5t42 36.5t16 60h45z" />
    <glyph glyph-name="D" unicode="D" 
d="M262 40q70 0 121 14.5t84 48.5t49 89.5t16 137.5t-16 137.5t-49 89.5t-84 48.5t-121 14.5h-130v-580h130zM87 0v660h175q82 0 141.5 -16.5t98 -55t57 -102t18.5 -156.5t-18.5 -156.5t-57 -102t-98 -55t-141.5 -16.5h-175z" />
    <glyph glyph-name="E" unicode="E" horiz-adv-x="539" 
d="M87 0v660h400v-40h-355v-268h315v-40h-315v-272h355v-40h-400z" />
    <glyph glyph-name="F" unicode="F" horiz-adv-x="515" 
d="M132 312v-312h-45v660h400v-40h-355v-268h315v-40h-315z" />
    <glyph glyph-name="G" unicode="G" 
d="M523 0l-10 138v3q-28 -81 -86 -116t-139 -35q-72 0 -118.5 26t-73.5 71.5t-37.5 107.5t-10.5 134q0 94 15.5 159.5t47.5 105.5t80.5 58t115.5 18q46 0 89 -7t75.5 -25t52 -49t19.5 -79h-40q0 37 -16 60t-43 36.5t-62.5 18.5t-74.5 5q-60 0 -101 -15.5t-66 -51.5t-36 -94
t-11 -142q0 -72 8.5 -127.5t31 -93t60.5 -57t97 -19.5q93 0 152.5 50.5t70.5 163.5v6h-192v40h237v-290h-35z" />
    <glyph glyph-name="H" unicode="H" horiz-adv-x="660" 
d="M527 0v312h-395v-312h-45v660h45v-308h395v308h45v-660h-45z" />
    <glyph glyph-name="I" unicode="I" horiz-adv-x="219" 
d="M87 0v660h45v-660h-45z" />
    <glyph glyph-name="J" unicode="J" horiz-adv-x="453" 
d="M340 660h45v-510q0 -78 -44.5 -119t-144.5 -41q-94 0 -140.5 38t-46.5 122h41q0 -63 35 -91.5t112 -28.5q33 0 59.5 5.5t45 19t28.5 37t10 58.5v510z" />
    <glyph glyph-name="K" unicode="K" horiz-adv-x="576" 
d="M87 0v660h45v-308h172l199 308h53l-210 -326l215 -334h-53l-201 312h-175v-312h-45z" />
    <glyph glyph-name="L" unicode="L" horiz-adv-x="509" 
d="M87 0v660h45v-620h355v-40h-400z" />
    <glyph glyph-name="M" unicode="M" horiz-adv-x="789" 
d="M373 0l-209 491q-11 25 -18 44.5t-11 33.5q-4 16 -6 27h-3l3 -27q1 -14 2 -34.5t1 -46.5v-488h-45v660h52l231 -550q7 -16 11 -27.5t7 -19.5q3 -10 5 -16h3q1 6 5 16q5 17 18 47l231 550h52v-660h-45v488q0 54 3 81q1 16 3 27h-3q-3 -11 -7 -27q-4 -14 -10.5 -33.5
t-17.5 -44.5l-209 -491h-43z" />
    <glyph glyph-name="N" unicode="N" horiz-adv-x="659" 
d="M527 660h45v-660h-47l-327 487q-14 20 -26 39.5t-21 35.5q-11 18 -20 34h-3q1 -17 2 -37q1 -17 1.5 -39.5t0.5 -47.5v-472h-45v660h47l327 -490q14 -20 26 -40l21 -35q11 -18 20 -34h3q-1 17 -2 37q-1 17 -1.5 39.5t-0.5 47.5v475z" />
    <glyph glyph-name="O" unicode="O" horiz-adv-x="646" 
d="M323 -10q-72 0 -123.5 17t-85.5 56.5t-50 105t-16 161.5t16 161.5t50 105t85.5 56.5t123.5 17t123.5 -17t85.5 -56.5t50 -105t16 -161.5t-16 -161.5t-50 -105t-85.5 -56.5t-123.5 -17zM323 30q60 0 103.5 15t71.5 50t41.5 92.5t13.5 142.5t-13.5 142.5t-41.5 92.5
t-71.5 50t-103.5 15t-103.5 -15t-71.5 -50t-41.5 -92.5t-13.5 -142.5t13.5 -142.5t41.5 -92.5t71.5 -50t103.5 -15z" />
    <glyph glyph-name="P" unicode="P" horiz-adv-x="567" 
d="M132 0h-45v660h226q58 0 100 -10.5t69.5 -35.5t41 -65t13.5 -99q0 -62 -13.5 -104t-41 -67.5t-69.5 -37t-100 -11.5h-181v-230zM307 270q49 0 84.5 9t57.5 30t32.5 55.5t10.5 85.5q0 48 -10.5 80.5t-32.5 52.5t-57.5 28.5t-84.5 8.5h-175v-350h175z" />
    <glyph glyph-name="Q" unicode="Q" horiz-adv-x="646" 
d="M415 -160l-96 150q-71 0 -122 17.5t-84 57t-49 104.5t-16 161t16 161.5t50 105t85.5 56.5t123.5 17t123.5 -17t85.5 -56.5t50 -105t16 -161.5q0 -88 -13.5 -149.5t-41 -102t-70.5 -61t-101 -25.5l97 -152h-54zM323 30q60 0 103.5 15t71.5 50t41.5 92.5t13.5 142.5
t-13.5 142.5t-41.5 92.5t-71.5 50t-103.5 15t-103.5 -15t-71.5 -50t-41.5 -92.5t-13.5 -142.5t13.5 -142.5t41.5 -92.5t71.5 -50t103.5 -15z" />
    <glyph glyph-name="R" unicode="R" horiz-adv-x="583" 
d="M495 0l-148 231q-8 -1 -16.5 -1h-17.5h-181v-230h-45v660h226q58 0 100 -10.5t69.5 -35.5t41 -65t13.5 -99q0 -99 -34.5 -149t-107.5 -64l152 -237h-52zM307 270q49 0 84.5 9t57.5 30t32.5 55.5t10.5 85.5q0 48 -10.5 80.5t-32.5 52.5t-57.5 28.5t-84.5 8.5h-175v-350
h175z" />
    <glyph glyph-name="S" unicode="S" horiz-adv-x="566" 
d="M462 510q0 65 -48.5 92.5t-130.5 27.5q-42 0 -77 -7t-60.5 -24t-39.5 -45t-14 -70q0 -41 15.5 -64.5t41.5 -37t59.5 -19.5t68.5 -11q47 -6 90.5 -16t77.5 -28.5t54 -50t20 -80.5q0 -97 -65 -142t-185 -45q-112 0 -173 39t-61 121h44q0 -63 51 -91.5t141 -28.5q43 0 80 7
t64.5 23.5t43 44.5t15.5 70q0 39 -16 63t-43.5 38t-63 20.5t-74.5 11.5q-45 6 -87 16t-73.5 29.5t-50.5 50.5t-19 78q0 88 56.5 138t180.5 50q49 0 90 -8.5t70.5 -27.5t45.5 -49.5t16 -74.5h-44z" />
    <glyph glyph-name="T" unicode="T" horiz-adv-x="543" 
d="M249 0v620h-235v40h515v-40h-235v-620h-45z" />
    <glyph glyph-name="U" unicode="U" horiz-adv-x="626" 
d="M513 660h45v-330q0 -96 -14.5 -161.5t-44.5 -105t-76 -56.5t-110 -17t-110 17t-76 56.5t-44.5 105t-14.5 161.5v330h45v-330q0 -85 11.5 -142.5t36 -92.5t62.5 -50t90 -15t90 15t62.5 50t36 92.5t11.5 142.5v330z" />
    <glyph glyph-name="V" unicode="V" horiz-adv-x="620" 
d="M257 186q14 -34 23.5 -60.5t15.5 -45.5q7 -22 12 -40h4q5 17 12 40q6 20 15.5 46.5t23.5 60.5l194 473h48l-273 -660h-43l-275 660h48z" />
    <glyph glyph-name="W" unicode="W" horiz-adv-x="808" 
d="M438 377q-11 34 -17 61t-10 47q-4 23 -6 40h-3q-2 -18 -6 -40q-8 -39 -27 -108l-111 -377h-44l-200 660h46l137 -465q10 -35 16.5 -63t11.5 -48q5 -24 8 -42h3q3 18 8 42q5 20 11.5 48t16.5 62l107 366h50l107 -366q10 -34 16.5 -62t11.5 -48q5 -24 8 -42h3q3 18 8 42
q5 20 11 48t17 63l137 465h46l-200 -660h-44z" />
    <glyph glyph-name="X" unicode="X" horiz-adv-x="512" 
d="M67 0h-53l215 334l-206 326h54l140 -228q12 -20 19.5 -33t11.5 -21q4 -9 6 -14h3q2 5 6 14q4 8 11 20.5t20 32.5l143 229h53l-208 -326l215 -334h-54l-150 237q-13 20 -20 32.5t-11 20.5q-4 9 -6 14h-3q-2 -5 -6 -14q-4 -8 -11 -21t-20 -33z" />
    <glyph glyph-name="Y" unicode="Y" horiz-adv-x="526" 
d="M12 660h48l161 -287q12 -25 19 -42.5t12 -28.5q5 -13 8 -22h3q2 9 7 22q5 11 12.5 28.5t19.5 42.5l161 287h48l-227 -407v-253h-45v253z" />
    <glyph glyph-name="Z" unicode="Z" horiz-adv-x="492" 
d="M28 0v40l388 580h-388v40h440v-40l-388 -580h388v-40h-440z" />
    <glyph glyph-name="bracketleft" unicode="[" horiz-adv-x="320" 
d="M89 -240v940h200v-40h-155v-860h155v-40h-200z" />
    <glyph glyph-name="backslash" unicode="\" horiz-adv-x="376" 
d="M361 -120h-46l-273 820h46z" />
    <glyph glyph-name="bracketright" unicode="]" horiz-adv-x="320" 
d="M31 -240v40h155v860h-155v40h200v-940h-200z" />
    <glyph glyph-name="asciicircum" unicode="^" horiz-adv-x="433" 
d="M340 466l-89 139l-35 67l-35 -67l-89 -139h-53l151 234h53l151 -234h-54z" />
    <glyph glyph-name="underscore" unicode="_" horiz-adv-x="593" 
d="M54 -175v40h485v-40h-485z" />
    <glyph glyph-name="grave" unicode="`" horiz-adv-x="242" 
d="M149 533l-99 126h71l71 -126h-43z" />
    <glyph glyph-name="a" unicode="a" horiz-adv-x="471" 
d="M446 -2q-26 0 -41.5 7.5t-24 20.5t-11.5 30.5t-3 36.5h-2q-17 -59 -55.5 -81t-103.5 -22q-33 0 -63 5.5t-52.5 20t-36 40t-13.5 66.5q0 46 15.5 71t40 37t54.5 15.5t58 6.5l156 15v51q0 62 -30.5 87t-103.5 25q-68 0 -95.5 -21t-27.5 -67h-44q0 68 39.5 98t127.5 30
q51 0 85.5 -10t55 -29.5t29.5 -47.5t9 -65v-225q0 -24 10.5 -38t26.5 -14v-43zM203 30q43 0 73 9t49.5 30.5t28.5 57.5t10 91v11l-172 -17q-19 -2 -38 -4.5t-34.5 -11.5t-25 -26t-9.5 -48q0 -54 27.5 -73t90.5 -19z" />
    <glyph glyph-name="b" unicode="b" horiz-adv-x="502" 
d="M272 -10q-60 0 -97 22t-54 79v-1l-10 -90h-35v690l45 10v-260q0 -17 -0.5 -36t-1.5 -36h1q17 57 54 79.5t98 22.5q47 0 82 -12.5t57.5 -41t33.5 -74t11 -112.5t-11 -112.5t-33.5 -74t-57.5 -41t-82 -12.5zM268 30q40 0 67.5 10t44.5 33.5t24 61.5t7 95t-7 95t-24 61.5
t-44.5 33.5t-67.5 10q-39 0 -66.5 -9.5t-45 -31t-26 -58t-9.5 -90.5v-23q1 -54 9.5 -90t26 -58t45 -31t66.5 -9z" />
    <glyph glyph-name="c" unicode="c" horiz-adv-x="445" 
d="M409 118q0 -35 -14 -59.5t-38 -39.5t-56 -22t-69 -7q-48 0 -83 12t-58 40.5t-34 74t-11 113.5q0 67 11 113t34 74t58 40.5t83 12.5q37 0 69 -7t56 -22.5t38 -40t14 -58.5h-44q0 49 -36.5 68.5t-92.5 19.5q-41 0 -69 -10t-45 -33.5t-24 -61.5t-7 -95t7 -95.5t24 -61.5
t45 -33t70 -10q27 0 50.5 4t40.5 14.5t27 27t10 42.5h44z" />
    <glyph glyph-name="d" unicode="d" horiz-adv-x="502" 
d="M230 -10q-47 0 -82 12.5t-57.5 41t-33.5 74t-11 112.5t11 112.5t33.5 74t57.5 41t82 12.5q60 0 97 -22.5t54 -79.5h2q-1 17 -1.5 36t-0.5 36v250l45 10v-700h-35l-10 90v1q-17 -57 -54 -79t-97 -22zM236 30q38 0 65 9.5t44.5 31.5t26 58t9.5 90v11q0 57 -8 95.5
t-25.5 61.5t-45 33t-66.5 10t-66.5 -10t-45 -33t-25.5 -61.5t-8 -95.5t8 -95.5t25.5 -61.5t45 -33t66.5 -10z" />
    <glyph glyph-name="e" unicode="e" horiz-adv-x="462" 
d="M410 118q0 -35 -14 -59.5t-38 -39.5t-56.5 -22t-69.5 -7q-48 0 -83 12t-58 40t-34 74t-11 115q0 68 11 114t34.5 73.5t60 39.5t86.5 12q92 0 135.5 -41t43.5 -142q0 -20 -1.5 -40t-6.5 -37h-318q1 -51 9 -85.5t25.5 -55.5t45 -30t67.5 -9q27 0 50.5 4t40.5 14.5t27 27
t10 42.5h44zM236 430q-39 0 -66.5 -9t-44.5 -30t-25 -55.5t-9 -85.5h279q1 10 1.5 20t0.5 22q0 76 -31.5 107t-104.5 31z" />
    <glyph glyph-name="f" unicode="f" horiz-adv-x="249" 
d="M83 0v420h-61v40h61v60q0 51 12.5 85.5t36 55.5t58 30t78.5 9v-40q-42 0 -69 -7t-42.5 -23.5t-22 -43t-6.5 -66.5v-60h121v-40h-121v-420h-45z" />
    <glyph glyph-name="g" unicode="g" horiz-adv-x="487" 
d="M416 290q0 -51 -13 -85.5t-37 -55.5t-58.5 -30t-76.5 -9q-23 0 -44 2.5t-39 8.5q-16 -16 -16 -43q0 -18 8 -28.5t21.5 -16.5t31.5 -8.5t38 -5.5q39 -5 77 -11.5t67 -20t47 -37t18 -62.5q0 -62 -50 -97.5t-159 -35.5q-199 0 -199 130q0 45 21 77.5t53 64.5q-18 21 -18 51
q0 36 26 58q-32 20 -50 57t-18 97q0 51 13 85.5t37 55.5t58.5 30t76.5 9q54 0 94.5 -15.5t63.5 -51.5q17 30 41.5 43.5t56.5 13.5v-40q-55 0 -84 -46q13 -37 13 -84zM231 150q40 0 66.5 7t43 23.5t23.5 43t7 66.5t-7 66.5t-23.5 43t-43 23.5t-66.5 7t-66.5 -7t-43 -23.5
t-23.5 -43t-7 -66.5t7 -66.5t23.5 -43t43 -23.5t66.5 -7zM231 -21q-26 5 -50 10.5t-44 15.5q-10 -12 -21 -24t-20.5 -25.5t-15.5 -30t-6 -36.5q0 -49 37 -71.5t119 -22.5q37 0 67.5 4.5t52 15.5t33.5 29t12 45t-13.5 42.5t-36 24.5t-52.5 13.5t-62 9.5z" />
    <glyph glyph-name="h" unicode="h" horiz-adv-x="508" 
d="M77 0v690l45 10v-260q0 -17 -0.5 -36t-1.5 -36h1q17 57 54 79.5t98 22.5q42 0 73 -10t51 -33.5t30 -62t10 -94.5v-270h-45v270q0 45 -7 76t-22 49.5t-39 26.5t-58 8q-38 0 -65 -9.5t-44 -31.5t-25.5 -58.5t-9.5 -89.5v-241h-45z" />
    <glyph glyph-name="i" unicode="i" horiz-adv-x="174" 
d="M65 0v460h45v-460h-45zM65 590v70h45v-70h-45z" />
    <glyph glyph-name="j" unicode="j" horiz-adv-x="174" 
d="M110 -117q0 -24 -4 -46.5t-13 -39.5t-25 -27t-40 -10v43q16 0 26.5 17.5t10.5 62.5v577h45v-577zM65 590v70h45v-70h-45z" />
    <glyph glyph-name="k" unicode="k" horiz-adv-x="449" 
d="M77 0v690l45 10v-450h111l136 210h53l-146 -226l151 -234h-53l-136 210h-116v-210h-45z" />
    <glyph glyph-name="l" unicode="l" horiz-adv-x="182" 
d="M152 0q-24 0 -40 10t-25 27t-13 39.5t-4 46.5v567l45 10v-577q0 -45 10.5 -62.5t26.5 -17.5v-43z" />
    <glyph glyph-name="m" unicode="m" horiz-adv-x="744" 
d="M77 0v460h35l9 -86q16 55 49 75.5t88 20.5q63 0 92.5 -24t39.5 -80q15 59 50 81.5t92 22.5q43 0 70 -11t42.5 -35t21.5 -62t6 -92v-270h-45v270q0 44 -3 74.5t-13 49.5t-30 27.5t-54 8.5q-35 0 -59.5 -9t-40 -31t-23 -58.5t-7.5 -90.5v-241h-45v270q0 44 -3 74.5
t-13 49.5t-30 27.5t-54 8.5q-35 0 -59.5 -9t-40 -31t-23 -58.5t-7.5 -90.5v-241h-45z" />
    <glyph glyph-name="n" unicode="n" horiz-adv-x="510" 
d="M77 0v460h35l10 -90v-2q17 58 55 80t103 22q47 0 77.5 -10.5t48 -34.5t24.5 -62t7 -93v-270h-45v270q0 44 -4 74.5t-16.5 49.5t-36.5 27.5t-63 8.5q-41 0 -69.5 -9.5t-46.5 -32.5t-26 -61.5t-8 -96.5v-230h-45z" />
    <glyph glyph-name="o" unicode="o" horiz-adv-x="482" 
d="M241 -10q-51 0 -87.5 12t-60.5 40t-35.5 74t-11.5 114t11.5 114t35.5 74t60.5 40t87.5 12t87.5 -12t60.5 -40t35.5 -74t11.5 -114t-11.5 -114t-35.5 -74t-60.5 -40t-87.5 -12zM241 30q40 0 68.5 10t46.5 33t26.5 61.5t8.5 95.5t-8.5 95.5t-26.5 61.5t-46.5 33t-68.5 10
q-41 0 -69.5 -10t-46.5 -33t-26 -61.5t-8 -95.5t8 -95.5t26 -61.5t46.5 -33t69.5 -10z" />
    <glyph glyph-name="p" unicode="p" horiz-adv-x="503" 
d="M273 -10q-61 0 -98 22t-54 80h-1q1 -18 1.5 -36t0.5 -36v-260h-45v700h35l10 -90v-1q17 57 54 79t97 22q47 0 82 -12.5t57.5 -41t33.5 -74t11 -112.5t-11 -112.5t-33.5 -74t-57.5 -41t-82 -12.5zM267 30q39 0 66.5 10t45 33t25.5 61.5t8 95.5t-8 95.5t-25.5 61.5t-45 33
t-66.5 10q-38 0 -65.5 -9.5t-44.5 -31.5t-25.5 -58t-9.5 -90v-11q0 -57 8 -95.5t25.5 -61.5t45 -33t66.5 -10z" />
    <glyph glyph-name="q" unicode="q" horiz-adv-x="503" 
d="M230 -10q-47 0 -82 12.5t-57.5 41t-33.5 74t-11 112.5t11 112.5t33.5 74t57.5 41t82 12.5q60 0 97 -22t54 -79v1l10 90h35v-700h-45v260q0 18 0.5 36t1.5 36h-2q-17 -58 -54 -80t-97 -22zM236 30q38 0 65 9.5t44.5 31.5t26 58t9.5 90v11q0 57 -8 95.5t-25.5 61.5t-45 33
t-66.5 10t-66.5 -10t-45 -33t-25.5 -61.5t-8 -95.5t8 -95.5t25.5 -61.5t45 -33t66.5 -10z" />
    <glyph glyph-name="r" unicode="r" horiz-adv-x="288" 
d="M77 0v460h35l10 -90v-7q17 54 52 75.5t94 21.5v-40q-38 0 -65.5 -9t-45 -30t-26 -55.5t-9.5 -85.5v-240h-45z" />
    <glyph glyph-name="s" unicode="s" horiz-adv-x="426" 
d="M339 342q0 46 -30.5 67t-97.5 21q-61 0 -95.5 -19.5t-34.5 -73.5q0 -26 11.5 -42t29.5 -25t41 -13t47 -7q35 -5 67.5 -12t57 -21.5t39 -37t14.5 -56.5q0 -65 -42 -99t-138 -34q-88 0 -132 30.5t-44 97.5h41q0 -46 33 -67t102 -21q64 0 100 19.5t36 73.5q0 26 -12 42
t-31 25t-43 13t-48 7q-33 4 -64.5 11.5t-55.5 21.5t-38.5 37t-14.5 58q0 64 41 98t134 34q86 0 128.5 -30.5t42.5 -97.5h-44z" />
    <glyph glyph-name="t" unicode="t" horiz-adv-x="296" 
d="M258 0q-44 0 -78.5 9t-58 30t-36 55.5t-12.5 85.5v240h-61v40h61v110l45 10v-120h161v-40h-161v-240q0 -40 9.5 -66.5t27.5 -43t44 -23.5t59 -7v-40z" />
    <glyph glyph-name="u" unicode="u" horiz-adv-x="506" 
d="M394 0l-10 90v3q-17 -58 -54 -80.5t-100 -22.5q-48 0 -79.5 12.5t-49.5 41t-25 74.5t-7 112v230h45v-230q0 -56 4 -94.5t17 -62t37.5 -33.5t65.5 -10q38 0 65.5 9t45 31t26 58t9.5 90v242h45v-460h-35z" />
    <glyph glyph-name="v" unicode="v" horiz-adv-x="451" 
d="M390 460h48l-191 -460h-43l-192 460h48l126 -307q11 -26 18 -47.5t12 -35.5q5 -18 8 -30h2q3 13 8 30q5 14 12 35t18 47z" />
    <glyph glyph-name="w" unicode="w" horiz-adv-x="626" 
d="M345 275q-11 34 -17 59.5t-9 42.5q-4 19 -5 33h-3q-1 -14 -5 -33q-3 -17 -9 -42.5t-17 -59.5l-84 -275h-44l-140 460h46l83 -288q10 -34 15.5 -59.5t9.5 -42.5q4 -20 6 -34h3q1 14 5 34q3 17 8.5 42t15.5 60l84 288h49l84 -288q10 -35 16 -60.5t9 -42.5q4 -20 5 -33h3
q0 13 4 33q3 17 8.5 42.5t16.5 60.5l84 288h46l-140 -460h-44z" />
    <glyph glyph-name="x" unicode="x" horiz-adv-x="410" 
d="M244 137q-13 19 -20 31t-11 20q-4 9 -5 13h-4q-2 -4 -6 -13q-4 -8 -11.5 -20t-21.5 -32l-92 -136h-51l160 235l-149 225h53l82 -124q13 -20 20 -32.5t12 -20.5q4 -9 7 -13h3q2 4 6 13q4 8 11 20t20 32l83 125h50l-151 -224l159 -236h-51z" />
    <glyph glyph-name="y" unicode="y" horiz-adv-x="439" 
d="M64 -200q22 0 40 13t33.5 38t30 62t31.5 85l-187 462h46l131 -318q20 -51 26 -79q4 -17 5 -31h3q2 13 6 30q3 14 9 33.5t16 44.5l129 320h44l-191 -486q-22 -56 -40.5 -96t-38 -66.5t-42 -39t-51.5 -12.5v40v0z" />
    <glyph glyph-name="z" unicode="z" horiz-adv-x="398" 
d="M24 0v40l295 380h-295v40h350v-40l-295 -380h295v-40h-350z" />
    <glyph glyph-name="braceleft" unicode="{" horiz-adv-x="307" 
d="M282 -91q-29 0 -48 19t-30.5 48.5t-17 65.5t-8 70t-3 62t-1.5 42q-2 14 -6 24t-19 16l-100 41v25l100 41q17 8 20.5 18t4.5 22q2 28 2.5 61.5t3 67.5t8 66.5t17 57t30 39.5t47.5 15v-40q-21 0 -33.5 -21.5t-19.5 -58.5t-9.5 -86t-4.5 -103q0 -11 -2 -22.5t-7 -22
t-14 -18.5t-23 -11l-73 -17v-1l73 -17q17 -4 26 -13.5t13.5 -20.5t5.5 -22t1 -18q2 -54 5 -102.5t9.5 -85.5t19 -59t33.5 -22v-40z" />
    <glyph glyph-name="bar" unicode="|" horiz-adv-x="252" 
d="M104 -120v820h43v-820h-43z" />
    <glyph glyph-name="braceright" unicode="}" horiz-adv-x="308" 
d="M25 -51q21 0 33.5 22t19 59t9.5 85.5t5 102.5q0 7 1 18t5.5 22t13.5 20.5t26 13.5l73 17v1l-73 17q-14 3 -23 11t-14 18.5t-7 22t-2 22.5q-2 54 -4.5 103t-9.5 86t-19.5 58.5t-33.5 21.5v40q43 0 64.5 -32t30 -79.5t9.5 -100.5t4 -95q1 -12 4.5 -22t20.5 -18l100 -41v-25
l-100 -41q-15 -6 -19 -16t-6 -24q-1 -14 -1.5 -42t-3 -62t-8 -70t-17 -65.5t-30.5 -48.5t-48 -19v40z" />
    <glyph glyph-name="asciitilde" unicode="~" horiz-adv-x="593" 
d="M517 406q0 -43 -9 -73t-25.5 -49t-40.5 -27.5t-53 -8.5q-30 0 -49 7.5t-31.5 18.5t-19.5 25t-12 26q-7 16 -23 30.5t-55 14.5q-18 0 -32.5 -4.5t-25 -17t-16 -34.5t-5.5 -57h-44q0 86 34.5 122t93.5 36q31 0 50.5 -8t32 -19.5t19 -25t10.5 -24.5q2 -6 6.5 -13.5
t12.5 -14.5t22 -12t35 -5q18 0 33 5t25.5 17.5t16.5 34.5t6 56h44z" />
    <glyph glyph-name="exclamdown" unicode="&#xa1;" horiz-adv-x="201" 
d="M128 -240h-55l10 460h35zM123 350h-45v70h45v-70z" />
    <glyph glyph-name="cent" unicode="&#xa2;" horiz-adv-x="445" 
d="M201 120v81q-80 5 -117.5 48t-37.5 141q0 97 37.5 140t117.5 49v81h43v-80q34 -1 64.5 -9t52.5 -23.5t35 -39t13 -56.5h-44q0 47 -33.5 66.5t-87.5 21.5v-300q25 0 47.5 4.5t38.5 15t25.5 27t9.5 41.5h44q0 -33 -13 -57t-35 -39.5t-52.5 -23t-64.5 -8.5v-80h-43zM91 390
q0 -75 24 -109t86 -40v297q-62 -6 -86 -40t-24 -108z" />
    <glyph glyph-name="sterling" unicode="&#xa3;" horiz-adv-x="509" 
d="M294 40q68 0 95.5 20.5t27.5 67.5h44q0 -68 -39.5 -98t-127.5 -30h-255v42h29q24 0 41 12t28.5 30.5t17 41.5t5.5 45q0 26 -6.5 47.5t-17.5 41.5h-96v40h73q-21 33 -39 70t-18 89q0 42 14 72.5t38 50t57.5 29t72.5 9.5q36 0 68.5 -8.5t57 -27.5t39 -49.5t14.5 -74.5h-44
q0 33 -11 56t-30.5 37t-45 20.5t-54.5 6.5q-63 0 -98 -29t-35 -91q0 -26 6 -47t15 -40.5t20 -37t22 -35.5h193v-40h-171q8 -19 13.5 -40t5.5 -46q0 -54 -23 -88.5t-52 -45.5h166z" />
    <glyph glyph-name="yen" unicode="&#xa5;" horiz-adv-x="526" 
d="M284 132v-132h-45v132h-184v40h184v81l-22 39h-162v40h139l-182 328h48l161 -287q12 -25 19 -42.5t12 -28.5q5 -13 8 -22h3q2 9 7 22q5 11 12.5 28.5t19.5 42.5l161 287h48l-183 -328h142v-40h-164l-22 -39v-81h186v-40h-186z" />
    <glyph glyph-name="brokenbar" unicode="&#xa6;" horiz-adv-x="252" 
d="M147 221v-341h-43v341h43zM104 700h43v-341h-43v341z" />
    <glyph glyph-name="section" unicode="&#xa7;" horiz-adv-x="426" 
d="M339 557q0 46 -30.5 67t-97.5 21q-61 0 -95.5 -19.5t-34.5 -73.5q0 -26 11.5 -42t29.5 -25t41 -13t47 -7q35 -5 67.5 -12t57 -21.5t39 -37t14.5 -56.5q0 -43 -20.5 -71t-65.5 -41q38 -14 62 -38.5t24 -69.5q0 -65 -42 -99t-138 -34q-88 0 -132 30.5t-44 97.5h41
q0 -46 33 -67t102 -21q64 0 100 19.5t36 73.5q0 26 -12 42t-31 25t-43 13t-48 7q-33 4 -64.5 11.5t-55.5 21.5t-38.5 37t-14.5 58q0 42 19.5 69.5t63.5 41.5q-36 13 -59.5 38.5t-23.5 70.5q0 64 41 98t134 34q86 0 128.5 -30.5t42.5 -97.5h-44zM81 332q0 -26 11.5 -42
t29.5 -25t41 -13t47 -7q63 0 98.5 19.5t35.5 73.5q0 26 -12 42t-31 25t-43 13t-48 7q-60 0 -94.5 -19.5t-34.5 -73.5z" />
    <glyph glyph-name="dieresis" unicode="&#xa8;" horiz-adv-x="375" 
d="M75 550v70h45v-70h-45zM255 550v70h45v-70h-45z" />
    <glyph glyph-name="copyright" unicode="&#xa9;" horiz-adv-x="746" 
d="M373 -10q-85 0 -146.5 17t-101 56.5t-58.5 105t-19 161.5t19 161.5t58.5 105t101 56.5t146.5 17t146 -17t101 -56.5t59 -105t19 -161.5t-19 -161.5t-59 -105t-101 -56.5t-146 -17zM373 30q73 0 126 15t87 50t50.5 92.5t16.5 142.5t-16.5 142.5t-50.5 92.5t-87 50t-126 15
t-126 -15t-87 -50t-50.5 -92.5t-16.5 -142.5t16.5 -142.5t50.5 -92.5t87 -50t126 -15zM555 248q0 -35 -14 -59.5t-38 -39.5t-56 -22t-69 -7q-48 0 -83 10.5t-58 35t-34 65t-11 99.5t11 99t34 65t58 35.5t83 10.5q37 0 69 -7t56 -22.5t38 -40t14 -58.5h-44q0 49 -36.5 68.5
t-92.5 19.5q-41 0 -69 -8.5t-45 -28.5t-24 -52.5t-7 -80.5t7 -80.5t24 -52.5t45 -28.5t70 -8.5q27 0 50.5 4t40.5 14.5t27 27t10 42.5h44z" />
    <glyph glyph-name="ordfeminine" unicode="&#xaa;" horiz-adv-x="246" 
d="M232 330q-24 0 -36.5 13t-14.5 30h-1q-8 -27 -26.5 -36.5t-49.5 -9.5q-17 0 -32 2.5t-26.5 10t-18.5 20.5t-7 34q0 23 8.5 36t21 19.5t28 8t30.5 3.5l69 6v24q0 26 -12.5 36t-44.5 10q-30 0 -41.5 -9t-11.5 -30h-36q0 37 21.5 53t67.5 16q53 0 73 -20t20 -56v-106
q0 -24 19 -24v-31zM105 357q38 0 54.5 17.5t17.5 65.5l-74 -7q-20 -2 -33.5 -7.5t-13.5 -30.5q0 -22 11.5 -30t37.5 -8z" />
    <glyph glyph-name="guillemotleft" unicode="&#xab;" horiz-adv-x="357" 
d="M228 50h-50l-135 186l127 174h50l-107 -142q-6 -8 -12 -15t-13 -15v-4q7 -8 13 -14.5t12 -14.5zM208 234q7 -8 13 -14.5t12 -14.5l81 -105h-50l-101 136l93 124h50l-73 -93q-6 -8 -12 -14.5t-13 -14.5v-4z" />
    <glyph glyph-name="uni00AD" unicode="&#xad;" horiz-adv-x="464" 
d="M74 312v40h315v-40h-315z" />
    <glyph glyph-name="registered" unicode="&#xae;" horiz-adv-x="746" 
d="M373 -10q-85 0 -146.5 17t-101 56.5t-58.5 105t-19 161.5t19 161.5t58.5 105t101 56.5t146.5 17t146 -17t101 -56.5t59 -105t19 -161.5t-19 -161.5t-59 -105t-101 -56.5t-146 -17zM373 30q73 0 126 15t87 50t50.5 92.5t16.5 142.5t-16.5 142.5t-50.5 92.5t-87 50t-126 15
t-126 -15t-87 -50t-50.5 -92.5t-16.5 -142.5t16.5 -142.5t50.5 -92.5t87 -50t126 -15zM503 120l-89 140h-136v-140h-45v420h166q80 0 117 -32t37 -109q0 -61 -23 -92t-68 -41l93 -146h-52zM393 300q63 0 89 21t26 77q0 55 -26 78.5t-89 23.5h-115v-200h115z" />
    <glyph glyph-name="macron" unicode="&#xaf;" horiz-adv-x="464" 
d="M74 589v40h315v-40h-315z" />
    <glyph glyph-name="degree" unicode="&#xb0;" horiz-adv-x="309" 
d="M155 405q-31 0 -53 6.5t-36.5 21.5t-21.5 40t-7 62q0 73 28 101.5t90 28.5q61 0 89 -28.5t28 -101.5q0 -37 -7 -62t-21 -40t-36.5 -21.5t-52.5 -6.5zM155 445q38 0 55 19.5t17 70.5t-17 70.5t-55 19.5t-55.5 -19.5t-17.5 -70.5t17.5 -70.5t55.5 -19.5z" />
    <glyph glyph-name="plusminus" unicode="&#xb1;" horiz-adv-x="594" 
d="M276 165v228h-227v40h227v227h40v-227h228v-40h-228v-228h-40zM544 95v-40h-495v40h495z" />
    <glyph glyph-name="two.sups" unicode="&#xb2;" horiz-adv-x="257" 
d="M20 330v31l148 160q9 10 20 24t11 34q0 30 -19 42.5t-54 12.5q-36 0 -52.5 -12t-16.5 -43h-35q0 48 26.5 67t77.5 19q59 0 84 -22t25 -60q0 -31 -13 -48t-24 -30l-132 -144h171v-31h-217z" />
    <glyph glyph-name="three.sups" unicode="&#xb3;" horiz-adv-x="266" 
d="M142 526q104 -3 104 -96q0 -45 -26.5 -75t-88.5 -30q-22 0 -42 4.5t-35.5 15t-24.5 27t-9 39.5h36q0 -30 22.5 -42.5t51.5 -12.5q45 0 62.5 22t17.5 52q0 31 -17.5 48.5t-60.5 17.5h-29v31l85 102h-158v31h204v-31l-59 -68q-8 -9 -16.5 -17.5t-16.5 -17.5z" />
    <glyph glyph-name="acute" unicode="&#xb4;" horiz-adv-x="242" 
d="M50 533l71 126h71l-99 -126h-43z" />
    <glyph glyph-name="periodcentered" unicode="&#xb7;" horiz-adv-x="195" 
d="M75 330v70h45v-70h-45z" />
    <glyph glyph-name="cedilla" unicode="&#xb8;" horiz-adv-x="309" 
d="M169 -165q23 0 37.5 6.5t14.5 29.5q0 24 -21 35t-69 13l10 86h40l-7 -56q38 -3 64.5 -19t26.5 -55q0 -40 -27.5 -60t-70.5 -20q-22 0 -43 4.5t-32 11.5v40q11 -7 32 -11.5t45 -4.5z" />
    <glyph glyph-name="one.sups" unicode="&#xb9;" horiz-adv-x="203" 
d="M20 330v31h64v260l-64 -13v32l100 20v-299h63v-31h-163z" />
    <glyph glyph-name="ordmasculine" unicode="&#xba;" horiz-adv-x="309" 
d="M155 325q-31 0 -53 8.5t-36.5 28t-21.5 52.5t-7 81t7 80.5t21.5 52.5t36.5 28.5t53 8.5q30 0 52.5 -8.5t36.5 -28.5t21 -52.5t7 -80.5t-7 -81t-21 -52.5t-36.5 -28t-52.5 -8.5zM155 365q37 0 54.5 28t17.5 102q0 73 -17.5 101.5t-54.5 28.5q-38 0 -55.5 -28.5
t-17.5 -101.5q0 -74 17.5 -102t55.5 -28z" />
    <glyph glyph-name="guillemotright" unicode="&#xbb;" horiz-adv-x="357" 
d="M244 205q6 8 12 14.5t13 14.5v4q-7 8 -13 15t-12 15l-107 142h50l127 -174l-135 -186h-50zM149 234v4q-7 8 -13 14.5t-12 14.5l-73 93h50l93 -124l-101 -136h-50l81 105q6 8 12 14.5t13 14.5z" />
    <glyph glyph-name="onequarter" unicode="&#xbc;" horiz-adv-x="661" 
d="M151 0h-39l357 660h39zM34 330v31h64v260l-64 -13v32l100 20v-299h63v-31h-163zM560 0v82h-175v31l104 217h39l-105 -217h137v110l36 7v-117h31v-31h-31v-82h-36z" />
    <glyph glyph-name="onehalf" unicode="&#xbd;" horiz-adv-x="648" 
d="M151 0h-39l357 660h39zM34 330v31h64v260l-64 -13v32l100 20v-299h63v-31h-163zM397 0v31l150 162q9 10 19 23.5t10 32.5q0 30 -19 42.5t-54 12.5q-36 0 -52.5 -12t-16.5 -43h-35q0 48 26.5 67t77.5 19q59 0 84 -22t25 -60q0 -31 -13 -48t-24 -30l-132 -144h171v-31h-217
z" />
    <glyph glyph-name="threequarters" unicode="&#xbe;" horiz-adv-x="695" 
d="M185 0h-39l357 660h39zM156 526q104 -3 104 -96q0 -45 -26.5 -75t-88.5 -30q-22 0 -42 4.5t-35.5 15t-24.5 27t-9 39.5h36q0 -30 22.5 -42.5t51.5 -12.5q45 0 62.5 22t17.5 52q0 31 -17.5 48.5t-60.5 17.5h-29v31l85 102h-158v31h204v-31l-59 -68q-8 -9 -16.5 -17.5
t-16.5 -17.5zM594 0v82h-175v31l104 217h39l-105 -217h137v110l36 7v-117h31v-31h-31v-82h-36z" />
    <glyph glyph-name="questiondown" unicode="&#xbf;" horiz-adv-x="475" 
d="M290 240q0 -50 -9 -80.5t-24 -48.5t-35.5 -27t-43.5 -15q-18 -5 -37 -11.5t-34 -19.5t-24.5 -35.5t-9.5 -61.5q0 -44 13 -73t36.5 -46.5t56.5 -24.5t73 -7q79 0 125 27.5t46 92.5h44q0 -44 -15.5 -74.5t-43.5 -49.5t-67 -27.5t-86 -8.5q-120 0 -173.5 50t-53.5 140
q0 54 16 86t39.5 49t49 24.5t45.5 13.5q15 4 27 10.5t21 19.5t14 36t5 61h45zM245 420h45v-70h-45v70z" />
    <glyph glyph-name="Agrave" unicode="&#xc0;" horiz-adv-x="611" 
d="M553 0l-62 152h-371l-62 -152h-48l275 660h43l273 -660h-48zM137 192h337l-115 281q-14 33 -23.5 60t-15.5 47q-7 23 -12 40h-4q-5 -18 -12 -40q-6 -19 -15.5 -46t-23.5 -60zM310 733l-99 126h71l71 -126h-43z" />
    <glyph glyph-name="Aacute" unicode="&#xc1;" horiz-adv-x="611" 
d="M553 0l-62 152h-371l-62 -152h-48l275 660h43l273 -660h-48zM137 192h337l-115 281q-14 33 -23.5 60t-15.5 47q-7 23 -12 40h-4q-5 -18 -12 -40q-6 -19 -15.5 -46t-23.5 -60zM257 733l71 126h71l-99 -126h-43z" />
    <glyph glyph-name="Acircumflex" unicode="&#xc2;" horiz-adv-x="611" 
d="M553 0l-62 152h-371l-62 -152h-48l275 660h43l273 -660h-48zM137 192h337l-115 281q-14 33 -23.5 60t-15.5 47q-7 23 -12 40h-4q-5 -18 -12 -40q-6 -19 -15.5 -46t-23.5 -60zM319 859l125 -126h-54l-45 43q-11 10 -18 19.5t-12 16.5q-5 8 -9 15h-2q-4 -7 -9 -15
q-5 -7 -12 -16t-18 -20l-44 -43h-55l126 126h27z" />
    <glyph glyph-name="Atilde" unicode="&#xc3;" horiz-adv-x="611" 
d="M553 0l-62 152h-371l-62 -152h-48l275 660h43l273 -660h-48zM137 192h337l-115 281q-14 33 -23.5 60t-15.5 47q-7 23 -12 40h-4q-5 -18 -12 -40q-6 -19 -15.5 -46t-23.5 -60zM373 739q-23 0 -39 9t-33 20q-19 13 -32 21t-29 8q-20 0 -27 -13.5t-7 -45.5h-43q0 22 2.5 41
t10 33t21.5 22t38 8q25 0 42 -9.5t36 -22.5q18 -13 30 -20t27 -7q19 0 26 14t7 47h45q0 -23 -2.5 -42.5t-10 -33.5t-22.5 -21.5t-40 -7.5z" />
    <glyph glyph-name="Adieresis" unicode="&#xc4;" horiz-adv-x="611" 
d="M553 0l-62 152h-371l-62 -152h-48l275 660h43l273 -660h-48zM137 192h337l-115 281q-14 33 -23.5 60t-15.5 47q-7 23 -12 40h-4q-5 -18 -12 -40q-6 -19 -15.5 -46t-23.5 -60zM193 750v70h45v-70h-45zM373 750v70h45v-70h-45z" />
    <glyph glyph-name="Aring" unicode="&#xc5;" horiz-adv-x="611" 
d="M553 0l-62 152h-371l-62 -152h-48l275 660h43l273 -660h-48zM137 192h337l-115 281q-14 33 -23.5 60t-15.5 47q-7 23 -12 40h-4q-5 -18 -12 -40q-6 -19 -15.5 -46t-23.5 -60zM305 723q-45 0 -68.5 26t-23.5 64q0 35 25 61t67 26t67 -26t25 -61q0 -38 -23.5 -64t-68.5 -26
zM305 864q-25 0 -38 -14.5t-13 -37.5q0 -20 12.5 -35.5t38.5 -15.5t38.5 15.5t12.5 35.5q0 23 -13.5 37.5t-37.5 14.5z" />
    <glyph glyph-name="AE" unicode="&#xc6;" horiz-adv-x="800" 
d="M398 0v152h-278l-62 -152h-48l275 660h463v-40h-305v-268h265v-40h-265v-272h305v-40h-350zM137 192h261v428h-94q-5 -18 -12 -40q-6 -19 -15.5 -46t-23.5 -60z" />
    <glyph glyph-name="Ccedilla" unicode="&#xc7;" horiz-adv-x="573" 
d="M313 -165q23 0 37.5 6.5t14.5 29.5q0 24 -21 35t-69 13l8 72q-60 3 -104.5 22t-73.5 59.5t-43 104t-14 154.5q0 95 15.5 160t47.5 104.5t80.5 57t115.5 17.5q46 0 89 -7t75.5 -25t52 -49t19.5 -79h-45q0 37 -16 60t-42 36.5t-61 18.5t-72 5q-56 0 -96 -15.5t-66.5 -50.5
t-39 -92t-12.5 -141t12.5 -141.5t39 -93t66.5 -51t96 -15.5q37 0 72 5t61 18.5t42 36.5t16 60h45q0 -46 -18 -76t-48 -48.5t-70 -26.5t-84 -9l-5 -41q38 -3 64.5 -19t26.5 -55q0 -40 -27.5 -60t-70.5 -20q-22 0 -43 4.5t-32 11.5v40q11 -7 32 -11.5t45 -4.5z" />
    <glyph glyph-name="Egrave" unicode="&#xc8;" horiz-adv-x="539" 
d="M87 0v660h400v-40h-355v-268h315v-40h-315v-272h355v-40h-400zM287 733l-99 126h71l71 -126h-43z" />
    <glyph glyph-name="Eacute" unicode="&#xc9;" horiz-adv-x="539" 
d="M87 0v660h400v-40h-355v-268h315v-40h-315v-272h355v-40h-400zM253 733l71 126h71l-99 -126h-43z" />
    <glyph glyph-name="Ecircumflex" unicode="&#xca;" horiz-adv-x="539" 
d="M87 0v660h400v-40h-355v-268h315v-40h-315v-272h355v-40h-400zM283 859l125 -126h-54l-45 43q-11 10 -18 19.5t-12 16.5q-5 8 -9 15h-2q-4 -7 -9 -15q-5 -7 -12 -16t-18 -20l-44 -43h-55l126 126h27z" />
    <glyph glyph-name="Edieresis" unicode="&#xcb;" horiz-adv-x="539" 
d="M87 0v660h400v-40h-355v-268h315v-40h-315v-272h355v-40h-400zM157 750v70h45v-70h-45zM337 750v70h45v-70h-45z" />
    <glyph glyph-name="Igrave" unicode="&#xcc;" horiz-adv-x="219" 
d="M87 0v660h45v-660h-45zM100 733l-99 126h71l71 -126h-43z" />
    <glyph glyph-name="Iacute" unicode="&#xcd;" horiz-adv-x="219" 
d="M87 0v660h45v-660h-45zM76 733l71 126h71l-99 -126h-43z" />
    <glyph glyph-name="Icircumflex" unicode="&#xce;" horiz-adv-x="219" 
d="M87 0v660h45v-660h-45zM125 859l125 -126h-54l-45 43q-11 10 -18 19.5t-12 16.5q-5 8 -9 15h-2q-4 -7 -9 -15q-5 -7 -12 -16t-18 -20l-44 -43h-55l126 126h27z" />
    <glyph glyph-name="Idieresis" unicode="&#xcf;" horiz-adv-x="219" 
d="M87 0v660h45v-660h-45zM-2 750v70h45v-70h-45zM178 750v70h45v-70h-45z" />
    <glyph glyph-name="Eth" unicode="&#xd0;" 
d="M87 0v312h-87v40h87v308h175q82 0 141.5 -16.5t98 -55t57 -102t18.5 -156.5t-18.5 -156.5t-57 -102t-98 -55t-141.5 -16.5h-175zM262 40q70 0 121 14.5t84 48.5t49 89.5t16 137.5t-16 137.5t-49 89.5t-84 48.5t-121 14.5h-130v-268h183v-40h-183v-272h130z" />
    <glyph glyph-name="Ntilde" unicode="&#xd1;" horiz-adv-x="659" 
d="M527 660h45v-660h-47l-327 487q-14 20 -26 39.5t-21 35.5q-11 18 -20 34h-3q1 -17 2 -37q1 -17 1.5 -39.5t0.5 -47.5v-472h-45v660h47l327 -490q14 -20 26 -40l21 -35q11 -18 20 -34h3q-1 17 -2 37q-1 17 -1.5 39.5t-0.5 47.5v475zM397 739q-23 0 -39 9t-33 20
q-19 13 -32 21t-29 8q-20 0 -27 -13.5t-7 -45.5h-43q0 22 2.5 41t10 33t21.5 22t38 8q25 0 42 -9.5t36 -22.5q18 -13 30 -20t27 -7q19 0 26 14t7 47h45q0 -23 -2.5 -42.5t-10 -33.5t-22.5 -21.5t-40 -7.5z" />
    <glyph glyph-name="Ograve" unicode="&#xd2;" horiz-adv-x="646" 
d="M323 -10q-72 0 -123.5 17t-85.5 56.5t-50 105t-16 161.5t16 161.5t50 105t85.5 56.5t123.5 17t123.5 -17t85.5 -56.5t50 -105t16 -161.5t-16 -161.5t-50 -105t-85.5 -56.5t-123.5 -17zM323 30q60 0 103.5 15t71.5 50t41.5 92.5t13.5 142.5t-13.5 142.5t-41.5 92.5
t-71.5 50t-103.5 15t-103.5 -15t-71.5 -50t-41.5 -92.5t-13.5 -142.5t13.5 -142.5t41.5 -92.5t71.5 -50t103.5 -15zM341 733l-99 126h71l71 -126h-43z" />
    <glyph glyph-name="Oacute" unicode="&#xd3;" horiz-adv-x="646" 
d="M323 -10q-72 0 -123.5 17t-85.5 56.5t-50 105t-16 161.5t16 161.5t50 105t85.5 56.5t123.5 17t123.5 -17t85.5 -56.5t50 -105t16 -161.5t-16 -161.5t-50 -105t-85.5 -56.5t-123.5 -17zM323 30q60 0 103.5 15t71.5 50t41.5 92.5t13.5 142.5t-13.5 142.5t-41.5 92.5
t-71.5 50t-103.5 15t-103.5 -15t-71.5 -50t-41.5 -92.5t-13.5 -142.5t13.5 -142.5t41.5 -92.5t71.5 -50t103.5 -15zM242 733l71 126h71l-99 -126h-43z" />
    <glyph glyph-name="Ocircumflex" unicode="&#xd4;" horiz-adv-x="646" 
d="M323 -10q-72 0 -123.5 17t-85.5 56.5t-50 105t-16 161.5t16 161.5t50 105t85.5 56.5t123.5 17t123.5 -17t85.5 -56.5t50 -105t16 -161.5t-16 -161.5t-50 -105t-85.5 -56.5t-123.5 -17zM323 30q60 0 103.5 15t71.5 50t41.5 92.5t13.5 142.5t-13.5 142.5t-41.5 92.5
t-71.5 50t-103.5 15t-103.5 -15t-71.5 -50t-41.5 -92.5t-13.5 -142.5t13.5 -142.5t41.5 -92.5t71.5 -50t103.5 -15zM337 859l125 -126h-54l-45 43q-11 10 -18 19.5t-12 16.5q-5 8 -9 15h-2q-4 -7 -9 -15q-5 -7 -12 -16t-18 -20l-44 -43h-55l126 126h27z" />
    <glyph glyph-name="Otilde" unicode="&#xd5;" horiz-adv-x="646" 
d="M323 -10q-72 0 -123.5 17t-85.5 56.5t-50 105t-16 161.5t16 161.5t50 105t85.5 56.5t123.5 17t123.5 -17t85.5 -56.5t50 -105t16 -161.5t-16 -161.5t-50 -105t-85.5 -56.5t-123.5 -17zM323 30q60 0 103.5 15t71.5 50t41.5 92.5t13.5 142.5t-13.5 142.5t-41.5 92.5
t-71.5 50t-103.5 15t-103.5 -15t-71.5 -50t-41.5 -92.5t-13.5 -142.5t13.5 -142.5t41.5 -92.5t71.5 -50t103.5 -15zM390 739q-23 0 -39 9t-33 20q-19 13 -32 21t-29 8q-20 0 -27 -13.5t-7 -45.5h-43q0 22 2.5 41t10 33t21.5 22t38 8q25 0 42 -9.5t36 -22.5q18 -13 30 -20
t27 -7q19 0 26 14t7 47h45q0 -23 -2.5 -42.5t-10 -33.5t-22.5 -21.5t-40 -7.5z" />
    <glyph glyph-name="Odieresis" unicode="&#xd6;" horiz-adv-x="646" 
d="M323 -10q-72 0 -123.5 17t-85.5 56.5t-50 105t-16 161.5t16 161.5t50 105t85.5 56.5t123.5 17t123.5 -17t85.5 -56.5t50 -105t16 -161.5t-16 -161.5t-50 -105t-85.5 -56.5t-123.5 -17zM323 30q60 0 103.5 15t71.5 50t41.5 92.5t13.5 142.5t-13.5 142.5t-41.5 92.5
t-71.5 50t-103.5 15t-103.5 -15t-71.5 -50t-41.5 -92.5t-13.5 -142.5t13.5 -142.5t41.5 -92.5t71.5 -50t103.5 -15zM210 750v70h45v-70h-45zM390 750v70h45v-70h-45z" />
    <glyph glyph-name="multiply" unicode="&#xd7;" horiz-adv-x="594" 
d="M457 142l-161 161l-161 -160l-28 28l161 160l-161 161l28 28l161 -160l161 161l28 -28l-161 -162l161 -161z" />
    <glyph glyph-name="Oslash" unicode="&#xd8;" horiz-adv-x="646" 
d="M34 13l62 74q-48 79 -48 243q0 96 16 161.5t50 105t85.5 56.5t123.5 17q69 0 119.5 -16t84.5 -53l53 63l33 -27l-60 -72q23 -40 34 -97.5t11 -137.5q0 -96 -16 -161.5t-50 -105t-85.5 -56.5t-123.5 -17q-67 0 -116.5 14.5t-83.5 48.5l-56 -67zM93 330q0 -136 35 -205
l369 440q-28 35 -71 50t-103 15t-103.5 -15t-71.5 -50t-41.5 -92.5t-13.5 -142.5zM323 30q60 0 103.5 15t71.5 50t41.5 92.5t13.5 142.5q0 66 -8 114t-24 83l-368 -438q28 -32 70 -45.5t100 -13.5z" />
    <glyph glyph-name="Ugrave" unicode="&#xd9;" horiz-adv-x="626" 
d="M513 660h45v-330q0 -96 -14.5 -161.5t-44.5 -105t-76 -56.5t-110 -17t-110 17t-76 56.5t-44.5 105t-14.5 161.5v330h45v-330q0 -85 11.5 -142.5t36 -92.5t62.5 -50t90 -15t90 15t62.5 50t36 92.5t11.5 142.5v330zM341 733l-99 126h71l71 -126h-43z" />
    <glyph glyph-name="Uacute" unicode="&#xda;" horiz-adv-x="626" 
d="M513 660h45v-330q0 -96 -14.5 -161.5t-44.5 -105t-76 -56.5t-110 -17t-110 17t-76 56.5t-44.5 105t-14.5 161.5v330h45v-330q0 -85 11.5 -142.5t36 -92.5t62.5 -50t90 -15t90 15t62.5 50t36 92.5t11.5 142.5v330zM242 733l71 126h71l-99 -126h-43z" />
    <glyph glyph-name="Ucircumflex" unicode="&#xdb;" horiz-adv-x="626" 
d="M513 660h45v-330q0 -96 -14.5 -161.5t-44.5 -105t-76 -56.5t-110 -17t-110 17t-76 56.5t-44.5 105t-14.5 161.5v330h45v-330q0 -85 11.5 -142.5t36 -92.5t62.5 -50t90 -15t90 15t62.5 50t36 92.5t11.5 142.5v330zM327 859l125 -126h-54l-45 43q-11 10 -18 19.5t-12 16.5
q-5 8 -9 15h-2q-4 -7 -9 -15q-5 -7 -12 -16t-18 -20l-44 -43h-55l126 126h27z" />
    <glyph glyph-name="Udieresis" unicode="&#xdc;" horiz-adv-x="626" 
d="M513 660h45v-330q0 -96 -14.5 -161.5t-44.5 -105t-76 -56.5t-110 -17t-110 17t-76 56.5t-44.5 105t-14.5 161.5v330h45v-330q0 -85 11.5 -142.5t36 -92.5t62.5 -50t90 -15t90 15t62.5 50t36 92.5t11.5 142.5v330zM200 750v70h45v-70h-45zM380 750v70h45v-70h-45z" />
    <glyph glyph-name="Yacute" unicode="&#xdd;" horiz-adv-x="526" 
d="M12 660h48l161 -287q12 -25 19 -42.5t12 -28.5q5 -13 8 -22h3q2 9 7 22q5 11 12.5 28.5t19.5 42.5l161 287h48l-227 -407v-253h-45v253zM192 733l71 126h71l-99 -126h-43z" />
    <glyph glyph-name="Thorn" unicode="&#xde;" horiz-adv-x="567" 
d="M132 660v-115h181q58 0 100 -10.5t69.5 -35.5t41 -65t13.5 -99q0 -62 -13.5 -104t-41 -67.5t-69.5 -37t-100 -11.5h-181v-115h-45v660h45zM307 155q49 0 84.5 9t57.5 30t32.5 55.5t10.5 85.5q0 48 -10.5 80.5t-32.5 52.5t-57.5 28.5t-84.5 8.5h-175v-350h175z" />
    <glyph glyph-name="germandbls" unicode="&#xdf;" horiz-adv-x="540" 
d="M306 430q10 0 26 2.5t31.5 12.5t27 31t11.5 58q0 23 -5.5 41t-19 30t-37 18.5t-58.5 6.5q-68 0 -109 -27t-41 -93v-510h-45v420h-61v40h61v50q0 44 14 74.5t39.5 49.5t61 27.5t79.5 8.5q86 0 125.5 -32.5t39.5 -104.5q0 -50 -16 -78t-38.5 -42.5t-46.5 -18t-40 -4.5
q-7 0 -14 -1.5t-13 -7t-9.5 -15.5t-3.5 -28q0 -23 6.5 -37t17 -22t25 -12t30.5 -7q31 -6 58.5 -14t47 -23t31 -39t11.5 -62q0 -64 -35 -98t-115 -34q-72 0 -109 30.5t-37 97.5h41q0 -46 26 -67t81 -21q48 0 76 19.5t28 72.5q0 29 -8 46.5t-22 27.5t-33 15t-41 9
q-26 5 -48 12t-39 20t-26.5 34t-9.5 54q0 31 8.5 49t21 27t27.5 11t28 3z" />
    <glyph glyph-name="agrave" unicode="&#xe0;" horiz-adv-x="471" 
d="M446 -2q-26 0 -41.5 7.5t-24 20.5t-11.5 30.5t-3 36.5h-2q-17 -59 -55.5 -81t-103.5 -22q-33 0 -63 5.5t-52.5 20t-36 40t-13.5 66.5q0 46 15.5 71t40 37t54.5 15.5t58 6.5l156 15v51q0 62 -30.5 87t-103.5 25q-68 0 -95.5 -21t-27.5 -67h-44q0 68 39.5 98t127.5 30
q51 0 85.5 -10t55 -29.5t29.5 -47.5t9 -65v-225q0 -24 10.5 -38t26.5 -14v-43zM203 30q43 0 73 9t49.5 30.5t28.5 57.5t10 91v11l-172 -17q-19 -2 -38 -4.5t-34.5 -11.5t-25 -26t-9.5 -48q0 -54 27.5 -73t90.5 -19zM253 533l-99 126h71l71 -126h-43z" />
    <glyph glyph-name="aacute" unicode="&#xe1;" horiz-adv-x="471" 
d="M446 -2q-26 0 -41.5 7.5t-24 20.5t-11.5 30.5t-3 36.5h-2q-17 -59 -55.5 -81t-103.5 -22q-33 0 -63 5.5t-52.5 20t-36 40t-13.5 66.5q0 46 15.5 71t40 37t54.5 15.5t58 6.5l156 15v51q0 62 -30.5 87t-103.5 25q-68 0 -95.5 -21t-27.5 -67h-44q0 68 39.5 98t127.5 30
q51 0 85.5 -10t55 -29.5t29.5 -47.5t9 -65v-225q0 -24 10.5 -38t26.5 -14v-43zM203 30q43 0 73 9t49.5 30.5t28.5 57.5t10 91v11l-172 -17q-19 -2 -38 -4.5t-34.5 -11.5t-25 -26t-9.5 -48q0 -54 27.5 -73t90.5 -19zM201 533l71 126h71l-99 -126h-43z" />
    <glyph glyph-name="acircumflex" unicode="&#xe2;" horiz-adv-x="471" 
d="M446 -2q-26 0 -41.5 7.5t-24 20.5t-11.5 30.5t-3 36.5h-2q-17 -59 -55.5 -81t-103.5 -22q-33 0 -63 5.5t-52.5 20t-36 40t-13.5 66.5q0 46 15.5 71t40 37t54.5 15.5t58 6.5l156 15v51q0 62 -30.5 87t-103.5 25q-68 0 -95.5 -21t-27.5 -67h-44q0 68 39.5 98t127.5 30
q51 0 85.5 -10t55 -29.5t29.5 -47.5t9 -65v-225q0 -24 10.5 -38t26.5 -14v-43zM203 30q43 0 73 9t49.5 30.5t28.5 57.5t10 91v11l-172 -17q-19 -2 -38 -4.5t-34.5 -11.5t-25 -26t-9.5 -48q0 -54 27.5 -73t90.5 -19zM249 659l125 -126h-54l-45 43q-11 10 -18 19.5t-12 16.5
q-5 8 -9 15h-2q-4 -7 -9 -15q-5 -7 -12 -16t-18 -20l-44 -43h-55l126 126h27z" />
    <glyph glyph-name="atilde" unicode="&#xe3;" horiz-adv-x="471" 
d="M446 -2q-26 0 -41.5 7.5t-24 20.5t-11.5 30.5t-3 36.5h-2q-17 -59 -55.5 -81t-103.5 -22q-33 0 -63 5.5t-52.5 20t-36 40t-13.5 66.5q0 46 15.5 71t40 37t54.5 15.5t58 6.5l156 15v51q0 62 -30.5 87t-103.5 25q-68 0 -95.5 -21t-27.5 -67h-44q0 68 39.5 98t127.5 30
q51 0 85.5 -10t55 -29.5t29.5 -47.5t9 -65v-225q0 -24 10.5 -38t26.5 -14v-43zM203 30q43 0 73 9t49.5 30.5t28.5 57.5t10 91v11l-172 -17q-19 -2 -38 -4.5t-34.5 -11.5t-25 -26t-9.5 -48q0 -54 27.5 -73t90.5 -19zM303 539q-23 0 -39 9t-33 20q-19 13 -32 21t-29 8
q-20 0 -27 -13.5t-7 -45.5h-43q0 22 2.5 41t10 33t21.5 22t38 8q25 0 42 -9.5t36 -22.5q18 -13 30 -20t27 -7q19 0 26 14t7 47h45q0 -23 -2.5 -42.5t-10 -33.5t-22.5 -21.5t-40 -7.5z" />
    <glyph glyph-name="adieresis" unicode="&#xe4;" horiz-adv-x="471" 
d="M446 -2q-26 0 -41.5 7.5t-24 20.5t-11.5 30.5t-3 36.5h-2q-17 -59 -55.5 -81t-103.5 -22q-33 0 -63 5.5t-52.5 20t-36 40t-13.5 66.5q0 46 15.5 71t40 37t54.5 15.5t58 6.5l156 15v51q0 62 -30.5 87t-103.5 25q-68 0 -95.5 -21t-27.5 -67h-44q0 68 39.5 98t127.5 30
q51 0 85.5 -10t55 -29.5t29.5 -47.5t9 -65v-225q0 -24 10.5 -38t26.5 -14v-43zM203 30q43 0 73 9t49.5 30.5t28.5 57.5t10 91v11l-172 -17q-19 -2 -38 -4.5t-34.5 -11.5t-25 -26t-9.5 -48q0 -54 27.5 -73t90.5 -19zM123 550v70h45v-70h-45zM303 550v70h45v-70h-45z" />
    <glyph glyph-name="aring" unicode="&#xe5;" horiz-adv-x="471" 
d="M446 -2q-26 0 -41.5 7.5t-24 20.5t-11.5 30.5t-3 36.5h-2q-17 -59 -55.5 -81t-103.5 -22q-33 0 -63 5.5t-52.5 20t-36 40t-13.5 66.5q0 46 15.5 71t40 37t54.5 15.5t58 6.5l156 15v51q0 62 -30.5 87t-103.5 25q-68 0 -95.5 -21t-27.5 -67h-44q0 68 39.5 98t127.5 30
q51 0 85.5 -10t55 -29.5t29.5 -47.5t9 -65v-225q0 -24 10.5 -38t26.5 -14v-43zM203 30q43 0 73 9t49.5 30.5t28.5 57.5t10 91v11l-172 -17q-19 -2 -38 -4.5t-34.5 -11.5t-25 -26t-9.5 -48q0 -54 27.5 -73t90.5 -19zM235 523q-45 0 -68.5 26t-23.5 64q0 35 25 61t67 26
t67 -26t25 -61q0 -38 -23.5 -64t-68.5 -26zM235 664q-25 0 -38 -14.5t-13 -37.5q0 -20 12.5 -35.5t38.5 -15.5t38.5 15.5t12.5 35.5q0 23 -13.5 37.5t-37.5 14.5z" />
    <glyph glyph-name="ae" unicode="&#xe6;" horiz-adv-x="739" 
d="M688 118q0 -35 -13.5 -59.5t-36 -39.5t-52 -22t-62.5 -7q-36 0 -64 8.5t-47.5 29t-31 54.5t-15.5 84q-4 -52 -16 -86t-32.5 -54t-51 -28t-71.5 -8q-32 0 -60 5.5t-49 20t-33.5 40.5t-12.5 67q0 46 15 71.5t38 37.5t51 15.5t54 6.5l146 14v50q0 62 -28 87t-96 25
q-63 0 -88 -20.5t-25 -67.5h-44q0 66 36.5 97t114.5 31q43 0 73 -9.5t48 -28.5t26 -47t8 -65q6 43 18 71.5t32 46t47.5 25t63.5 7.5q85 0 125 -41.5t40 -141.5q0 -20 -1.5 -40t-6.5 -37h-298q1 -51 8.5 -85.5t23.5 -55.5t41.5 -30t62.5 -9q25 0 47 4t38 14.5t25 27t9 42.5
h44zM192 30q41 0 70 9t47 31.5t26.5 61t8.5 96.5l-146 -14q-23 -2 -43.5 -4t-36 -10.5t-24.5 -26t-9 -51.5q0 -54 25 -73t82 -19zM524 430q-37 0 -62 -9t-41 -30t-23.5 -55.5t-8.5 -85.5h260q1 5 1 10v10q0 46 -7 77t-22 49.5t-39 26t-58 7.5z" />
    <glyph glyph-name="ccedilla" unicode="&#xe7;" horiz-adv-x="445" 
d="M239 -165q23 0 37.5 6.5t14.5 29.5q0 24 -21 35t-69 13l8 72q-42 3 -72.5 16.5t-51 42t-30 73t-9.5 107.5q0 67 11 113t34 74t58 40.5t83 12.5q37 0 69 -7t56 -22.5t38 -40t14 -58.5h-44q0 49 -36.5 68.5t-92.5 19.5q-41 0 -69 -10t-45 -33.5t-24 -61.5t-7 -95t7 -95.5
t24 -61.5t45 -33t70 -10q27 0 50.5 4t40.5 14.5t27 27t10 42.5h44q0 -33 -12.5 -56.5t-34 -38.5t-50.5 -23t-63 -9l-5 -42q38 -3 64.5 -19t26.5 -55q0 -40 -27.5 -60t-70.5 -20q-22 0 -43 4.5t-32 11.5v40q11 -7 32 -11.5t45 -4.5z" />
    <glyph glyph-name="egrave" unicode="&#xe8;" horiz-adv-x="462" 
d="M410 118q0 -35 -14 -59.5t-38 -39.5t-56.5 -22t-69.5 -7q-48 0 -83 12t-58 40t-34 74t-11 115q0 68 11 114t34.5 73.5t60 39.5t86.5 12q92 0 135.5 -41t43.5 -142q0 -20 -1.5 -40t-6.5 -37h-318q1 -51 9 -85.5t25.5 -55.5t45 -30t67.5 -9q27 0 50.5 4t40.5 14.5t27 27
t10 42.5h44zM236 430q-39 0 -66.5 -9t-44.5 -30t-25 -55.5t-9 -85.5h279q1 10 1.5 20t0.5 22q0 76 -31.5 107t-104.5 31zM227 533l-99 126h71l71 -126h-43z" />
    <glyph glyph-name="eacute" unicode="&#xe9;" horiz-adv-x="462" 
d="M410 118q0 -35 -14 -59.5t-38 -39.5t-56.5 -22t-69.5 -7q-48 0 -83 12t-58 40t-34 74t-11 115q0 68 11 114t34.5 73.5t60 39.5t86.5 12q92 0 135.5 -41t43.5 -142q0 -20 -1.5 -40t-6.5 -37h-318q1 -51 9 -85.5t25.5 -55.5t45 -30t67.5 -9q27 0 50.5 4t40.5 14.5t27 27
t10 42.5h44zM236 430q-39 0 -66.5 -9t-44.5 -30t-25 -55.5t-9 -85.5h279q1 10 1.5 20t0.5 22q0 76 -31.5 107t-104.5 31zM182 533l71 126h71l-99 -126h-43z" />
    <glyph glyph-name="ecircumflex" unicode="&#xea;" horiz-adv-x="462" 
d="M410 118q0 -35 -14 -59.5t-38 -39.5t-56.5 -22t-69.5 -7q-48 0 -83 12t-58 40t-34 74t-11 115q0 68 11 114t34.5 73.5t60 39.5t86.5 12q92 0 135.5 -41t43.5 -142q0 -20 -1.5 -40t-6.5 -37h-318q1 -51 9 -85.5t25.5 -55.5t45 -30t67.5 -9q27 0 50.5 4t40.5 14.5t27 27
t10 42.5h44zM236 430q-39 0 -66.5 -9t-44.5 -30t-25 -55.5t-9 -85.5h279q1 10 1.5 20t0.5 22q0 76 -31.5 107t-104.5 31zM245 659l125 -126h-54l-45 43q-11 10 -18 19.5t-12 16.5q-5 8 -9 15h-2q-4 -7 -9 -15q-5 -7 -12 -16t-18 -20l-44 -43h-55l126 126h27z" />
    <glyph glyph-name="edieresis" unicode="&#xeb;" horiz-adv-x="462" 
d="M410 118q0 -35 -14 -59.5t-38 -39.5t-56.5 -22t-69.5 -7q-48 0 -83 12t-58 40t-34 74t-11 115q0 68 11 114t34.5 73.5t60 39.5t86.5 12q92 0 135.5 -41t43.5 -142q0 -20 -1.5 -40t-6.5 -37h-318q1 -51 9 -85.5t25.5 -55.5t45 -30t67.5 -9q27 0 50.5 4t40.5 14.5t27 27
t10 42.5h44zM236 430q-39 0 -66.5 -9t-44.5 -30t-25 -55.5t-9 -85.5h279q1 10 1.5 20t0.5 22q0 76 -31.5 107t-104.5 31zM118 550v70h45v-70h-45zM298 550v70h45v-70h-45z" />
    <glyph glyph-name="igrave" unicode="&#xec;" horiz-adv-x="174" 
d="M65 0v460h45v-460h-45zM93 533l-99 126h71l71 -126h-43z" />
    <glyph glyph-name="iacute" unicode="&#xed;" horiz-adv-x="174" 
d="M65 0v460h45v-460h-45zM40 533l71 126h71l-99 -126h-43z" />
    <glyph glyph-name="icircumflex" unicode="&#xee;" horiz-adv-x="174" 
d="M65 0v460h45v-460h-45zM102 659l125 -126h-54l-45 43q-11 10 -18 19.5t-12 16.5q-5 8 -9 15h-2q-4 -7 -9 -15q-5 -7 -12 -16t-18 -20l-44 -43h-55l126 126h27z" />
    <glyph glyph-name="idieresis" unicode="&#xef;" horiz-adv-x="174" 
d="M65 0v460h45v-460h-45zM-24 550v70h45v-70h-45zM156 550v70h45v-70h-45z" />
    <glyph glyph-name="eth" unicode="&#xf0;" horiz-adv-x="482" 
d="M230 616l41 -15q45 -17 76 -38t51 -60.5t29 -104t9 -168.5q0 -68 -11.5 -114t-35.5 -74t-60.5 -40t-87.5 -12t-87.5 12t-60.5 40t-35.5 73.5t-11.5 113.5q0 67 11.5 113.5t34.5 74.5t58.5 40.5t83.5 12.5q70 0 109.5 -28.5t53.5 -102.5q-4 60 -14 98t-25.5 62t-37 37.5
t-49.5 24.5l-56 20l-31 -70l-38 15l31 70l-80 30l15 34l80 -30l28 64l37 -18zM241 30q40 0 68.5 10t46.5 33t26.5 61.5t8.5 95.5t-8.5 95.5t-26.5 61.5t-46.5 33t-68.5 10q-41 0 -69.5 -10t-46.5 -33t-26 -61.5t-8 -95.5t8 -95.5t26 -61.5t46.5 -33t69.5 -10z" />
    <glyph glyph-name="ntilde" unicode="&#xf1;" horiz-adv-x="510" 
d="M77 0v460h35l10 -90v-2q17 58 55 80t103 22q47 0 77.5 -10.5t48 -34.5t24.5 -62t7 -93v-270h-45v270q0 44 -4 74.5t-16.5 49.5t-36.5 27.5t-63 8.5q-41 0 -69.5 -9.5t-46.5 -32.5t-26 -61.5t-8 -96.5v-230h-45zM322 539q-23 0 -39 9t-33 20q-19 13 -32 21t-29 8
q-20 0 -27 -13.5t-7 -45.5h-43q0 22 2.5 41t10 33t21.5 22t38 8q25 0 42 -9.5t36 -22.5q18 -13 30 -20t27 -7q19 0 26 14t7 47h45q0 -23 -2.5 -42.5t-10 -33.5t-22.5 -21.5t-40 -7.5z" />
    <glyph glyph-name="ograve" unicode="&#xf2;" horiz-adv-x="482" 
d="M241 -10q-51 0 -87.5 12t-60.5 40t-35.5 74t-11.5 114t11.5 114t35.5 74t60.5 40t87.5 12t87.5 -12t60.5 -40t35.5 -74t11.5 -114t-11.5 -114t-35.5 -74t-60.5 -40t-87.5 -12zM241 30q40 0 68.5 10t46.5 33t26.5 61.5t8.5 95.5t-8.5 95.5t-26.5 61.5t-46.5 33t-68.5 10
q-41 0 -69.5 -10t-46.5 -33t-26 -61.5t-8 -95.5t8 -95.5t26 -61.5t46.5 -33t69.5 -10zM259 533l-99 126h71l71 -126h-43z" />
    <glyph glyph-name="oacute" unicode="&#xf3;" horiz-adv-x="482" 
d="M241 -10q-51 0 -87.5 12t-60.5 40t-35.5 74t-11.5 114t11.5 114t35.5 74t60.5 40t87.5 12t87.5 -12t60.5 -40t35.5 -74t11.5 -114t-11.5 -114t-35.5 -74t-60.5 -40t-87.5 -12zM241 30q40 0 68.5 10t46.5 33t26.5 61.5t8.5 95.5t-8.5 95.5t-26.5 61.5t-46.5 33t-68.5 10
q-41 0 -69.5 -10t-46.5 -33t-26 -61.5t-8 -95.5t8 -95.5t26 -61.5t46.5 -33t69.5 -10zM200 533l71 126h71l-99 -126h-43z" />
    <glyph glyph-name="ocircumflex" unicode="&#xf4;" horiz-adv-x="482" 
d="M241 -10q-51 0 -87.5 12t-60.5 40t-35.5 74t-11.5 114t11.5 114t35.5 74t60.5 40t87.5 12t87.5 -12t60.5 -40t35.5 -74t11.5 -114t-11.5 -114t-35.5 -74t-60.5 -40t-87.5 -12zM241 30q40 0 68.5 10t46.5 33t26.5 61.5t8.5 95.5t-8.5 95.5t-26.5 61.5t-46.5 33t-68.5 10
q-41 0 -69.5 -10t-46.5 -33t-26 -61.5t-8 -95.5t8 -95.5t26 -61.5t46.5 -33t69.5 -10zM255 659l125 -126h-54l-45 43q-11 10 -18 19.5t-12 16.5q-5 8 -9 15h-2q-4 -7 -9 -15q-5 -7 -12 -16t-18 -20l-44 -43h-55l126 126h27z" />
    <glyph glyph-name="otilde" unicode="&#xf5;" horiz-adv-x="482" 
d="M241 -10q-51 0 -87.5 12t-60.5 40t-35.5 74t-11.5 114t11.5 114t35.5 74t60.5 40t87.5 12t87.5 -12t60.5 -40t35.5 -74t11.5 -114t-11.5 -114t-35.5 -74t-60.5 -40t-87.5 -12zM241 30q40 0 68.5 10t46.5 33t26.5 61.5t8.5 95.5t-8.5 95.5t-26.5 61.5t-46.5 33t-68.5 10
q-41 0 -69.5 -10t-46.5 -33t-26 -61.5t-8 -95.5t8 -95.5t26 -61.5t46.5 -33t69.5 -10zM308 539q-23 0 -39 9t-33 20q-19 13 -32 21t-29 8q-20 0 -27 -13.5t-7 -45.5h-43q0 22 2.5 41t10 33t21.5 22t38 8q25 0 42 -9.5t36 -22.5q18 -13 30 -20t27 -7q19 0 26 14t7 47h45
q0 -23 -2.5 -42.5t-10 -33.5t-22.5 -21.5t-40 -7.5z" />
    <glyph glyph-name="odieresis" unicode="&#xf6;" horiz-adv-x="482" 
d="M241 -10q-51 0 -87.5 12t-60.5 40t-35.5 74t-11.5 114t11.5 114t35.5 74t60.5 40t87.5 12t87.5 -12t60.5 -40t35.5 -74t11.5 -114t-11.5 -114t-35.5 -74t-60.5 -40t-87.5 -12zM241 30q40 0 68.5 10t46.5 33t26.5 61.5t8.5 95.5t-8.5 95.5t-26.5 61.5t-46.5 33t-68.5 10
q-41 0 -69.5 -10t-46.5 -33t-26 -61.5t-8 -95.5t8 -95.5t26 -61.5t46.5 -33t69.5 -10zM128 550v70h45v-70h-45zM308 550v70h45v-70h-45z" />
    <glyph glyph-name="divide" unicode="&#xf7;" horiz-adv-x="594" 
d="M335 142h-75v80h75v-80zM335 442h-75v80h75v-80zM49 312v40h495v-40h-495z" />
    <glyph glyph-name="oslash" unicode="&#xf8;" horiz-adv-x="482" 
d="M16 -10l61 73q-31 56 -31 167q0 68 11.5 114t35.5 74t60.5 40t87.5 12q47 0 82 -10.5t59 -33.5l52 62l33 -28l-59 -71q28 -55 28 -159q0 -68 -11.5 -114t-35.5 -74t-60.5 -40t-87.5 -12q-45 0 -78.5 9t-57.5 30l-56 -67zM91 230q0 -83 18 -129l244 290q-18 21 -46 30
t-66 9q-41 0 -69.5 -10t-46.5 -33t-26 -61.5t-8 -95.5zM241 30q40 0 68.5 10t46.5 33t26.5 61.5t8.5 95.5q0 77 -16 121l-241 -288q18 -18 44.5 -25.5t62.5 -7.5z" />
    <glyph glyph-name="ugrave" unicode="&#xf9;" horiz-adv-x="506" 
d="M394 0l-10 90v3q-17 -58 -54 -80.5t-100 -22.5q-48 0 -79.5 12.5t-49.5 41t-25 74.5t-7 112v230h45v-230q0 -56 4 -94.5t17 -62t37.5 -33.5t65.5 -10q38 0 65.5 9t45 31t26 58t9.5 90v242h45v-460h-35zM251 533l-99 126h71l71 -126h-43z" />
    <glyph glyph-name="uacute" unicode="&#xfa;" horiz-adv-x="506" 
d="M394 0l-10 90v3q-17 -58 -54 -80.5t-100 -22.5q-48 0 -79.5 12.5t-49.5 41t-25 74.5t-7 112v230h45v-230q0 -56 4 -94.5t17 -62t37.5 -33.5t65.5 -10q38 0 65.5 9t45 31t26 58t9.5 90v242h45v-460h-35zM192 533l71 126h71l-99 -126h-43z" />
    <glyph glyph-name="ucircumflex" unicode="&#xfb;" horiz-adv-x="506" 
d="M394 0l-10 90v3q-17 -58 -54 -80.5t-100 -22.5q-48 0 -79.5 12.5t-49.5 41t-25 74.5t-7 112v230h45v-230q0 -56 4 -94.5t17 -62t37.5 -33.5t65.5 -10q38 0 65.5 9t45 31t26 58t9.5 90v242h45v-460h-35zM268 659l125 -126h-54l-45 43q-11 10 -18 19.5t-12 16.5q-5 8 -9 15
h-2q-4 -7 -9 -15q-5 -7 -12 -16t-18 -20l-44 -43h-55l126 126h27z" />
    <glyph glyph-name="udieresis" unicode="&#xfc;" horiz-adv-x="506" 
d="M394 0l-10 90v3q-17 -58 -54 -80.5t-100 -22.5q-48 0 -79.5 12.5t-49.5 41t-25 74.5t-7 112v230h45v-230q0 -56 4 -94.5t17 -62t37.5 -33.5t65.5 -10q38 0 65.5 9t45 31t26 58t9.5 90v242h45v-460h-35zM140 550v70h45v-70h-45zM320 550v70h45v-70h-45z" />
    <glyph glyph-name="yacute" unicode="&#xfd;" horiz-adv-x="439" 
d="M64 -200q22 0 40 13t33.5 38t30 62t31.5 85l-187 462h46l131 -318q20 -51 26 -79q4 -17 5 -31h3q2 13 6 30q3 14 9 33.5t16 44.5l129 320h44l-191 -486q-22 -56 -40.5 -96t-38 -66.5t-42 -39t-51.5 -12.5v40v0zM178 533l71 126h71l-99 -126h-43z" />
    <glyph glyph-name="thorn" unicode="&#xfe;" horiz-adv-x="503" 
d="M77 690l45 10v-260q0 -18 -0.5 -36t-1.5 -36h1q17 57 54 79.5t98 22.5q47 0 82 -12.5t57.5 -41t33.5 -74t11 -112.5t-11 -112.5t-33.5 -74t-57.5 -41t-82 -12.5q-61 0 -98 22t-54 80h-1q1 -18 1.5 -36t0.5 -36v-260h-45v930zM412 230q0 57 -8 95.5t-25.5 61.5t-45 33
t-66.5 10q-38 0 -65.5 -9.5t-44.5 -31.5t-25.5 -58t-9.5 -90v-11q0 -57 8 -95.5t25.5 -61.5t45 -33t66.5 -10t66.5 10t45 33t25.5 61.5t8 95.5z" />
    <glyph glyph-name="ydieresis" unicode="&#xff;" horiz-adv-x="439" 
d="M64 -200q22 0 40 13t33.5 38t30 62t31.5 85l-187 462h46l131 -318q20 -51 26 -79q4 -17 5 -31h3q2 13 6 30q3 14 9 33.5t16 44.5l129 320h44l-191 -486q-22 -56 -40.5 -96t-38 -66.5t-42 -39t-51.5 -12.5v40v0zM116 550v70h45v-70h-45zM296 550v70h45v-70h-45z" />
    <glyph glyph-name="Amacron" unicode="&#x100;" horiz-adv-x="611" 
d="M553 0l-62 152h-371l-62 -152h-48l275 660h43l273 -660h-48zM137 192h337l-115 281q-14 33 -23.5 60t-15.5 47q-7 23 -12 40h-4q-5 -18 -12 -40q-6 -19 -15.5 -46t-23.5 -60zM148 789v40h315v-40h-315z" />
    <glyph glyph-name="amacron" unicode="&#x101;" horiz-adv-x="471" 
d="M446 -2q-26 0 -41.5 7.5t-24 20.5t-11.5 30.5t-3 36.5h-2q-17 -59 -55.5 -81t-103.5 -22q-33 0 -63 5.5t-52.5 20t-36 40t-13.5 66.5q0 46 15.5 71t40 37t54.5 15.5t58 6.5l156 15v51q0 62 -30.5 87t-103.5 25q-68 0 -95.5 -21t-27.5 -67h-44q0 68 39.5 98t127.5 30
q51 0 85.5 -10t55 -29.5t29.5 -47.5t9 -65v-225q0 -24 10.5 -38t26.5 -14v-43zM203 30q43 0 73 9t49.5 30.5t28.5 57.5t10 91v11l-172 -17q-19 -2 -38 -4.5t-34.5 -11.5t-25 -26t-9.5 -48q0 -54 27.5 -73t90.5 -19zM78 589v40h315v-40h-315z" />
    <glyph glyph-name="Abreve" unicode="&#x102;" horiz-adv-x="611" 
d="M553 0l-62 152h-371l-62 -152h-48l275 660h43l273 -660h-48zM137 192h337l-115 281q-14 33 -23.5 60t-15.5 47q-7 23 -12 40h-4q-5 -18 -12 -40q-6 -19 -15.5 -46t-23.5 -60zM305 780q85 0 85 48h41q0 -46 -32 -67t-94 -21t-94 21t-32 67h41q0 -48 85 -48z" />
    <glyph glyph-name="abreve" unicode="&#x103;" horiz-adv-x="471" 
d="M446 -2q-26 0 -41.5 7.5t-24 20.5t-11.5 30.5t-3 36.5h-2q-17 -59 -55.5 -81t-103.5 -22q-33 0 -63 5.5t-52.5 20t-36 40t-13.5 66.5q0 46 15.5 71t40 37t54.5 15.5t58 6.5l156 15v51q0 62 -30.5 87t-103.5 25q-68 0 -95.5 -21t-27.5 -67h-44q0 68 39.5 98t127.5 30
q51 0 85.5 -10t55 -29.5t29.5 -47.5t9 -65v-225q0 -24 10.5 -38t26.5 -14v-43zM203 30q43 0 73 9t49.5 30.5t28.5 57.5t10 91v11l-172 -17q-19 -2 -38 -4.5t-34.5 -11.5t-25 -26t-9.5 -48q0 -54 27.5 -73t90.5 -19zM235 580q85 0 85 48h41q0 -46 -32 -67t-94 -21t-94 21
t-32 67h41q0 -48 85 -48z" />
    <glyph glyph-name="Aogonek" unicode="&#x104;" horiz-adv-x="611" 
d="M646 -165q-16 -14 -40.5 -20t-42.5 -6q-45 0 -69 23t-24 62q0 23 6.5 41t17.5 32.5t25 25t29 18.5l-57 141h-371l-62 -152h-48l275 660h43l273 -660q-34 -11 -61 -34.5t-27 -65.5q0 -24 14 -39t46 -15q14 0 36 6t37 20v-37zM137 192h337l-115 281q-14 33 -23.5 60
t-15.5 47q-7 23 -12 40h-4q-5 -18 -12 -40q-6 -19 -15.5 -46t-23.5 -60z" />
    <glyph glyph-name="aogonek" unicode="&#x105;" horiz-adv-x="471" 
d="M446 -2q-34 -11 -61 -34.5t-27 -65.5q0 -24 14 -39t46 -15q14 0 36 6t37 20v-37q-16 -14 -40.5 -20t-42.5 -6q-45 0 -69 23t-24 62q0 46 25.5 74.5t55.5 43.5q-19 13 -24.5 35t-5.5 48h-2q-17 -59 -55.5 -81t-103.5 -22q-33 0 -63 5.5t-52.5 20t-36 40t-13.5 66.5
q0 46 15.5 71t40 37t54.5 15.5t58 6.5l156 15v51q0 62 -30.5 87t-103.5 25q-68 0 -95.5 -21t-27.5 -67h-44q0 68 39.5 98t127.5 30q51 0 85.5 -10t55 -29.5t29.5 -47.5t9 -65v-225q0 -24 10.5 -38t26.5 -14v-43zM203 30q43 0 73 9t49.5 30.5t28.5 57.5t10 91v11l-172 -17
q-19 -2 -38 -4.5t-34.5 -11.5t-25 -26t-9.5 -48q0 -54 27.5 -73t90.5 -19z" />
    <glyph glyph-name="Cacute" unicode="&#x106;" horiz-adv-x="573" 
d="M543 150q0 -48 -19.5 -79t-52 -49t-75.5 -25t-89 -7q-67 0 -115.5 17.5t-80.5 57.5t-47.5 105.5t-15.5 160.5t15.5 160t47.5 104.5t80.5 57t115.5 17.5q46 0 89 -7t75.5 -25t52 -49t19.5 -79h-45q0 37 -16 60t-42 36.5t-61 18.5t-72 5q-56 0 -96 -15.5t-66.5 -50.5
t-39 -92t-12.5 -141t12.5 -141.5t39 -93t66.5 -51t96 -15.5q37 0 72 5t61 18.5t42 36.5t16 60h45zM257 733l71 126h71l-99 -126h-43z" />
    <glyph glyph-name="cacute" unicode="&#x107;" horiz-adv-x="445" 
d="M409 118q0 -35 -14 -59.5t-38 -39.5t-56 -22t-69 -7q-48 0 -83 12t-58 40.5t-34 74t-11 113.5q0 67 11 113t34 74t58 40.5t83 12.5q37 0 69 -7t56 -22.5t38 -40t14 -58.5h-44q0 49 -36.5 68.5t-92.5 19.5q-41 0 -69 -10t-45 -33.5t-24 -61.5t-7 -95t7 -95.5t24 -61.5
t45 -33t70 -10q27 0 50.5 4t40.5 14.5t27 27t10 42.5h44zM190 533l71 126h71l-99 -126h-43z" />
    <glyph glyph-name="Ccircumflex" unicode="&#x108;" horiz-adv-x="573" 
d="M543 150q0 -48 -19.5 -79t-52 -49t-75.5 -25t-89 -7q-67 0 -115.5 17.5t-80.5 57.5t-47.5 105.5t-15.5 160.5t15.5 160t47.5 104.5t80.5 57t115.5 17.5q46 0 89 -7t75.5 -25t52 -49t19.5 -79h-45q0 37 -16 60t-42 36.5t-61 18.5t-72 5q-56 0 -96 -15.5t-66.5 -50.5
t-39 -92t-12.5 -141t12.5 -141.5t39 -93t66.5 -51t96 -15.5q37 0 72 5t61 18.5t42 36.5t16 60h45zM326 859l125 -126h-54l-45 43q-11 10 -18 19.5t-12 16.5q-5 8 -9 15h-2q-4 -7 -9 -15q-5 -7 -12 -16t-18 -20l-44 -43h-55l126 126h27z" />
    <glyph glyph-name="ccircumflex" unicode="&#x109;" horiz-adv-x="445" 
d="M409 118q0 -35 -14 -59.5t-38 -39.5t-56 -22t-69 -7q-48 0 -83 12t-58 40.5t-34 74t-11 113.5q0 67 11 113t34 74t58 40.5t83 12.5q37 0 69 -7t56 -22.5t38 -40t14 -58.5h-44q0 49 -36.5 68.5t-92.5 19.5q-41 0 -69 -10t-45 -33.5t-24 -61.5t-7 -95t7 -95.5t24 -61.5
t45 -33t70 -10q27 0 50.5 4t40.5 14.5t27 27t10 42.5h44zM249 659l125 -126h-54l-45 43q-11 10 -18 19.5t-12 16.5q-5 8 -9 15h-2q-4 -7 -9 -15q-5 -7 -12 -16t-18 -20l-44 -43h-55l126 126h27z" />
    <glyph glyph-name="Cdotaccent" unicode="&#x10a;" horiz-adv-x="573" 
d="M543 150q0 -48 -19.5 -79t-52 -49t-75.5 -25t-89 -7q-67 0 -115.5 17.5t-80.5 57.5t-47.5 105.5t-15.5 160.5t15.5 160t47.5 104.5t80.5 57t115.5 17.5q46 0 89 -7t75.5 -25t52 -49t19.5 -79h-45q0 37 -16 60t-42 36.5t-61 18.5t-72 5q-56 0 -96 -15.5t-66.5 -50.5
t-39 -92t-12.5 -141t12.5 -141.5t39 -93t66.5 -51t96 -15.5q37 0 72 5t61 18.5t42 36.5t16 60h45zM287 750v70h45v-70h-45z" />
    <glyph glyph-name="cdotaccent" unicode="&#x10b;" horiz-adv-x="445" 
d="M409 118q0 -35 -14 -59.5t-38 -39.5t-56 -22t-69 -7q-48 0 -83 12t-58 40.5t-34 74t-11 113.5q0 67 11 113t34 74t58 40.5t83 12.5q37 0 69 -7t56 -22.5t38 -40t14 -58.5h-44q0 49 -36.5 68.5t-92.5 19.5q-41 0 -69 -10t-45 -33.5t-24 -61.5t-7 -95t7 -95.5t24 -61.5
t45 -33t70 -10q27 0 50.5 4t40.5 14.5t27 27t10 42.5h44zM216 550v70h45v-70h-45z" />
    <glyph glyph-name="Ccaron" unicode="&#x10c;" horiz-adv-x="573" 
d="M543 150q0 -48 -19.5 -79t-52 -49t-75.5 -25t-89 -7q-67 0 -115.5 17.5t-80.5 57.5t-47.5 105.5t-15.5 160.5t15.5 160t47.5 104.5t80.5 57t115.5 17.5q46 0 89 -7t75.5 -25t52 -49t19.5 -79h-45q0 37 -16 60t-42 36.5t-61 18.5t-72 5q-56 0 -96 -15.5t-66.5 -50.5
t-39 -92t-12.5 -141t12.5 -141.5t39 -93t66.5 -51t96 -15.5q37 0 72 5t61 18.5t42 36.5t16 60h45zM297 733l-126 126h55l44 -43q11 -11 18 -20t12 -16q5 -8 9 -15h2q4 7 9 15q5 7 12 16t18 20l45 43h54l-125 -126h-27z" />
    <glyph glyph-name="ccaron" unicode="&#x10d;" horiz-adv-x="445" 
d="M409 118q0 -35 -14 -59.5t-38 -39.5t-56 -22t-69 -7q-48 0 -83 12t-58 40.5t-34 74t-11 113.5q0 67 11 113t34 74t58 40.5t83 12.5q37 0 69 -7t56 -22.5t38 -40t14 -58.5h-44q0 49 -36.5 68.5t-92.5 19.5q-41 0 -69 -10t-45 -33.5t-24 -61.5t-7 -95t7 -95.5t24 -61.5
t45 -33t70 -10q27 0 50.5 4t40.5 14.5t27 27t10 42.5h44zM221 533l-126 126h55l44 -43q11 -11 18 -20t12 -16q5 -8 9 -15h2q4 7 9 15q5 7 12 16t18 20l45 43h54l-125 -126h-27z" />
    <glyph glyph-name="Dcaron" unicode="&#x10e;" 
d="M262 40q70 0 121 14.5t84 48.5t49 89.5t16 137.5t-16 137.5t-49 89.5t-84 48.5t-121 14.5h-130v-580h130zM87 0v660h175q82 0 141.5 -16.5t98 -55t57 -102t18.5 -156.5t-18.5 -156.5t-57 -102t-98 -55t-141.5 -16.5h-175zM299 733l-126 126h55l44 -43q11 -11 18 -20
t12 -16q5 -8 9 -15h2q4 7 9 15q5 7 12 16t18 20l45 43h54l-125 -126h-27z" />
    <glyph glyph-name="dcaron" unicode="&#x10f;" horiz-adv-x="603" 
d="M230 -10q-47 0 -82 12.5t-57.5 41t-33.5 74t-11 112.5t11 112.5t33.5 74t57.5 41t82 12.5q60 0 97 -22.5t54 -79.5h2q-1 17 -1.5 36t-0.5 36v250l45 10v-700h-35l-10 90v1q-17 -57 -54 -79t-97 -22zM236 30q38 0 65 9.5t44.5 31.5t26 58t9.5 90v11q0 57 -8 95.5
t-25.5 61.5t-45 33t-66.5 10t-66.5 -10t-45 -33t-25.5 -61.5t-8 -95.5t8 -95.5t25.5 -61.5t45 -33t66.5 -10zM505 539q16 0 26.5 11t10.5 40h-40v70h75v-70q0 -37 -15 -63.5t-57 -26.5v39z" />
    <glyph glyph-name="Dcroat" unicode="&#x110;" 
d="M87 0v312h-87v40h87v308h175q82 0 141.5 -16.5t98 -55t57 -102t18.5 -156.5t-18.5 -156.5t-57 -102t-98 -55t-141.5 -16.5h-175zM262 40q70 0 121 14.5t84 48.5t49 89.5t16 137.5t-16 137.5t-49 89.5t-84 48.5t-121 14.5h-130v-268h183v-40h-183v-272h130z" />
    <glyph glyph-name="dcroat" unicode="&#x111;" horiz-adv-x="502" 
d="M426 590h96v-40h-96v-550h-35l-10 90v1q-17 -57 -54 -79t-97 -22q-47 0 -82 12.5t-57.5 41t-33.5 74t-11 112.5t11 112.5t33.5 74t57.5 41t82 12.5q60 0 97 -22.5t54 -79.5h2q-1 17 -1.5 36t-0.5 36v110h-174v40h174v99l45 10v-109zM236 30q38 0 65 9.5t44.5 31.5t26 58
t9.5 90v11q0 57 -8 95.5t-25.5 61.5t-45 33t-66.5 10t-66.5 -10t-45 -33t-25.5 -61.5t-8 -95.5t8 -95.5t25.5 -61.5t45 -33t66.5 -10z" />
    <glyph glyph-name="Emacron" unicode="&#x112;" horiz-adv-x="539" 
d="M87 0v660h400v-40h-355v-268h315v-40h-315v-272h355v-40h-400zM112 789v40h315v-40h-315z" />
    <glyph glyph-name="emacron" unicode="&#x113;" horiz-adv-x="462" 
d="M410 118q0 -35 -14 -59.5t-38 -39.5t-56.5 -22t-69.5 -7q-48 0 -83 12t-58 40t-34 74t-11 115q0 68 11 114t34.5 73.5t60 39.5t86.5 12q92 0 135.5 -41t43.5 -142q0 -20 -1.5 -40t-6.5 -37h-318q1 -51 9 -85.5t25.5 -55.5t45 -30t67.5 -9q27 0 50.5 4t40.5 14.5t27 27
t10 42.5h44zM236 430q-39 0 -66.5 -9t-44.5 -30t-25 -55.5t-9 -85.5h279q1 10 1.5 20t0.5 22q0 76 -31.5 107t-104.5 31zM74 589v40h315v-40h-315z" />
    <glyph glyph-name="Ebreve" unicode="&#x114;" horiz-adv-x="539" 
d="M87 0v660h400v-40h-355v-268h315v-40h-315v-272h355v-40h-400zM269 780q85 0 85 48h41q0 -46 -32 -67t-94 -21t-94 21t-32 67h41q0 -48 85 -48z" />
    <glyph glyph-name="ebreve" unicode="&#x115;" horiz-adv-x="462" 
d="M410 118q0 -35 -14 -59.5t-38 -39.5t-56.5 -22t-69.5 -7q-48 0 -83 12t-58 40t-34 74t-11 115q0 68 11 114t34.5 73.5t60 39.5t86.5 12q92 0 135.5 -41t43.5 -142q0 -20 -1.5 -40t-6.5 -37h-318q1 -51 9 -85.5t25.5 -55.5t45 -30t67.5 -9q27 0 50.5 4t40.5 14.5t27 27
t10 42.5h44zM236 430q-39 0 -66.5 -9t-44.5 -30t-25 -55.5t-9 -85.5h279q1 10 1.5 20t0.5 22q0 76 -31.5 107t-104.5 31zM231 580q85 0 85 48h41q0 -46 -32 -67t-94 -21t-94 21t-32 67h41q0 -48 85 -48z" />
    <glyph glyph-name="Edotaccent" unicode="&#x116;" horiz-adv-x="539" 
d="M87 0v660h400v-40h-355v-268h315v-40h-315v-272h355v-40h-400zM247 750v70h45v-70h-45z" />
    <glyph glyph-name="edotaccent" unicode="&#x117;" horiz-adv-x="462" 
d="M410 118q0 -35 -14 -59.5t-38 -39.5t-56.5 -22t-69.5 -7q-48 0 -83 12t-58 40t-34 74t-11 115q0 68 11 114t34.5 73.5t60 39.5t86.5 12q92 0 135.5 -41t43.5 -142q0 -20 -1.5 -40t-6.5 -37h-318q1 -51 9 -85.5t25.5 -55.5t45 -30t67.5 -9q27 0 50.5 4t40.5 14.5t27 27
t10 42.5h44zM236 430q-39 0 -66.5 -9t-44.5 -30t-25 -55.5t-9 -85.5h279q1 10 1.5 20t0.5 22q0 76 -31.5 107t-104.5 31zM208 550v70h45v-70h-45z" />
    <glyph glyph-name="Eogonek" unicode="&#x118;" horiz-adv-x="539" 
d="M532 -165q-16 -14 -40.5 -20t-42.5 -6q-45 0 -69 23t-24 62q0 38 17.5 63.5t41.5 42.5h-328v660h400v-40h-355v-268h315v-40h-315v-272h355v-40q-34 -11 -61 -34.5t-27 -65.5q0 -24 14 -39t46 -15q14 0 36 6t37 20v-37z" />
    <glyph glyph-name="eogonek" unicode="&#x119;" horiz-adv-x="462" 
d="M359 -165q-16 -14 -40.5 -20t-42.5 -6q-45 0 -69 23t-24 62q0 33 13 56.5t33 39.5q-47 0 -81.5 12.5t-57 40.5t-33.5 74t-11 114t11 114t34.5 73.5t60 39.5t86.5 12q92 0 135.5 -41t43.5 -142q0 -20 -1.5 -40t-6.5 -37h-318q1 -51 9 -85.5t25.5 -55.5t45 -30t67.5 -9
q27 0 50.5 4t40.5 14.5t27 27t10 42.5h44q0 -49 -26.5 -77.5t-69.5 -40.5q-34 -11 -61 -34.5t-27 -65.5q0 -24 14 -39t46 -15q14 0 36 6t37 20v-37zM236 430q-39 0 -66.5 -9t-44.5 -30t-25 -55.5t-9 -85.5h279q1 10 1.5 20t0.5 22q0 76 -31.5 107t-104.5 31z" />
    <glyph glyph-name="Ecaron" unicode="&#x11a;" horiz-adv-x="539" 
d="M87 0v660h400v-40h-355v-268h315v-40h-315v-272h355v-40h-400zM286 733l-126 126h55l44 -43q11 -11 18 -20t12 -16q5 -8 9 -15h2q4 7 9 15q5 7 12 16t18 20l45 43h54l-125 -126h-27z" />
    <glyph glyph-name="ecaron" unicode="&#x11b;" horiz-adv-x="462" 
d="M410 118q0 -35 -14 -59.5t-38 -39.5t-56.5 -22t-69.5 -7q-48 0 -83 12t-58 40t-34 74t-11 115q0 68 11 114t34.5 73.5t60 39.5t86.5 12q92 0 135.5 -41t43.5 -142q0 -20 -1.5 -40t-6.5 -37h-318q1 -51 9 -85.5t25.5 -55.5t45 -30t67.5 -9q27 0 50.5 4t40.5 14.5t27 27
t10 42.5h44zM236 430q-39 0 -66.5 -9t-44.5 -30t-25 -55.5t-9 -85.5h279q1 10 1.5 20t0.5 22q0 76 -31.5 107t-104.5 31zM228 533l-126 126h55l44 -43q11 -11 18 -20t12 -16q5 -8 9 -15h2q4 7 9 15q5 7 12 16t18 20l45 43h54l-125 -126h-27z" />
    <glyph glyph-name="Gcircumflex" unicode="&#x11c;" 
d="M523 0l-10 138v3q-28 -81 -86 -116t-139 -35q-72 0 -118.5 26t-73.5 71.5t-37.5 107.5t-10.5 134q0 94 15.5 159.5t47.5 105.5t80.5 58t115.5 18q46 0 89 -7t75.5 -25t52 -49t19.5 -79h-40q0 37 -16 60t-43 36.5t-62.5 18.5t-74.5 5q-60 0 -101 -15.5t-66 -51.5t-36 -94
t-11 -142q0 -72 8.5 -127.5t31 -93t60.5 -57t97 -19.5q93 0 152.5 50.5t70.5 163.5v6h-192v40h237v-290h-35zM326 859l125 -126h-54l-45 43q-11 10 -18 19.5t-12 16.5q-5 8 -9 15h-2q-4 -7 -9 -15q-5 -7 -12 -16t-18 -20l-44 -43h-55l126 126h27z" />
    <glyph glyph-name="gcircumflex" unicode="&#x11d;" horiz-adv-x="487" 
d="M416 290q0 -51 -13 -85.5t-37 -55.5t-58.5 -30t-76.5 -9q-23 0 -44 2.5t-39 8.5q-16 -16 -16 -43q0 -18 8 -28.5t21.5 -16.5t31.5 -8.5t38 -5.5q39 -5 77 -11.5t67 -20t47 -37t18 -62.5q0 -62 -50 -97.5t-159 -35.5q-199 0 -199 130q0 45 21 77.5t53 64.5q-18 21 -18 51
q0 36 26 58q-32 20 -50 57t-18 97q0 51 13 85.5t37 55.5t58.5 30t76.5 9q54 0 94.5 -15.5t63.5 -51.5q17 30 41.5 43.5t56.5 13.5v-40q-55 0 -84 -46q13 -37 13 -84zM231 150q40 0 66.5 7t43 23.5t23.5 43t7 66.5t-7 66.5t-23.5 43t-43 23.5t-66.5 7t-66.5 -7t-43 -23.5
t-23.5 -43t-7 -66.5t7 -66.5t23.5 -43t43 -23.5t66.5 -7zM231 -21q-26 5 -50 10.5t-44 15.5q-10 -12 -21 -24t-20.5 -25.5t-15.5 -30t-6 -36.5q0 -49 37 -71.5t119 -22.5q37 0 67.5 4.5t52 15.5t33.5 29t12 45t-13.5 42.5t-36 24.5t-52.5 13.5t-62 9.5zM257 659l125 -126
h-54l-45 43q-11 10 -18 19.5t-12 16.5q-5 8 -9 15h-2q-4 -7 -9 -15q-5 -7 -12 -16t-18 -20l-44 -43h-55l126 126h27z" />
    <glyph glyph-name="Gbreve" unicode="&#x11e;" 
d="M523 0l-10 138v3q-28 -81 -86 -116t-139 -35q-72 0 -118.5 26t-73.5 71.5t-37.5 107.5t-10.5 134q0 94 15.5 159.5t47.5 105.5t80.5 58t115.5 18q46 0 89 -7t75.5 -25t52 -49t19.5 -79h-40q0 37 -16 60t-43 36.5t-62.5 18.5t-74.5 5q-60 0 -101 -15.5t-66 -51.5t-36 -94
t-11 -142q0 -72 8.5 -127.5t31 -93t60.5 -57t97 -19.5q93 0 152.5 50.5t70.5 163.5v6h-192v40h237v-290h-35zM312 780q85 0 85 48h41q0 -46 -32 -67t-94 -21t-94 21t-32 67h41q0 -48 85 -48z" />
    <glyph glyph-name="gbreve" unicode="&#x11f;" horiz-adv-x="487" 
d="M416 290q0 -51 -13 -85.5t-37 -55.5t-58.5 -30t-76.5 -9q-23 0 -44 2.5t-39 8.5q-16 -16 -16 -43q0 -18 8 -28.5t21.5 -16.5t31.5 -8.5t38 -5.5q39 -5 77 -11.5t67 -20t47 -37t18 -62.5q0 -62 -50 -97.5t-159 -35.5q-199 0 -199 130q0 45 21 77.5t53 64.5q-18 21 -18 51
q0 36 26 58q-32 20 -50 57t-18 97q0 51 13 85.5t37 55.5t58.5 30t76.5 9q54 0 94.5 -15.5t63.5 -51.5q17 30 41.5 43.5t56.5 13.5v-40q-55 0 -84 -46q13 -37 13 -84zM231 150q40 0 66.5 7t43 23.5t23.5 43t7 66.5t-7 66.5t-23.5 43t-43 23.5t-66.5 7t-66.5 -7t-43 -23.5
t-23.5 -43t-7 -66.5t7 -66.5t23.5 -43t43 -23.5t66.5 -7zM231 -21q-26 5 -50 10.5t-44 15.5q-10 -12 -21 -24t-20.5 -25.5t-15.5 -30t-6 -36.5q0 -49 37 -71.5t119 -22.5q37 0 67.5 4.5t52 15.5t33.5 29t12 45t-13.5 42.5t-36 24.5t-52.5 13.5t-62 9.5zM243 580q85 0 85 48
h41q0 -46 -32 -67t-94 -21t-94 21t-32 67h41q0 -48 85 -48z" />
    <glyph glyph-name="Gdotaccent" unicode="&#x120;" 
d="M523 0l-10 138v3q-28 -81 -86 -116t-139 -35q-72 0 -118.5 26t-73.5 71.5t-37.5 107.5t-10.5 134q0 94 15.5 159.5t47.5 105.5t80.5 58t115.5 18q46 0 89 -7t75.5 -25t52 -49t19.5 -79h-40q0 37 -16 60t-43 36.5t-62.5 18.5t-74.5 5q-60 0 -101 -15.5t-66 -51.5t-36 -94
t-11 -142q0 -72 8.5 -127.5t31 -93t60.5 -57t97 -19.5q93 0 152.5 50.5t70.5 163.5v6h-192v40h237v-290h-35zM290 750v70h45v-70h-45z" />
    <glyph glyph-name="gdotaccent" unicode="&#x121;" horiz-adv-x="487" 
d="M416 290q0 -51 -13 -85.5t-37 -55.5t-58.5 -30t-76.5 -9q-23 0 -44 2.5t-39 8.5q-16 -16 -16 -43q0 -18 8 -28.5t21.5 -16.5t31.5 -8.5t38 -5.5q39 -5 77 -11.5t67 -20t47 -37t18 -62.5q0 -62 -50 -97.5t-159 -35.5q-199 0 -199 130q0 45 21 77.5t53 64.5q-18 21 -18 51
q0 36 26 58q-32 20 -50 57t-18 97q0 51 13 85.5t37 55.5t58.5 30t76.5 9q54 0 94.5 -15.5t63.5 -51.5q17 30 41.5 43.5t56.5 13.5v-40q-55 0 -84 -46q13 -37 13 -84zM231 150q40 0 66.5 7t43 23.5t23.5 43t7 66.5t-7 66.5t-23.5 43t-43 23.5t-66.5 7t-66.5 -7t-43 -23.5
t-23.5 -43t-7 -66.5t7 -66.5t23.5 -43t43 -23.5t66.5 -7zM231 -21q-26 5 -50 10.5t-44 15.5q-10 -12 -21 -24t-20.5 -25.5t-15.5 -30t-6 -36.5q0 -49 37 -71.5t119 -22.5q37 0 67.5 4.5t52 15.5t33.5 29t12 45t-13.5 42.5t-36 24.5t-52.5 13.5t-62 9.5zM221 550v70h45v-70
h-45z" />
    <glyph glyph-name="Gcommaaccent" unicode="&#x122;" 
d="M523 0l-10 138v3q-28 -81 -86 -116t-139 -35q-72 0 -118.5 26t-73.5 71.5t-37.5 107.5t-10.5 134q0 94 15.5 159.5t47.5 105.5t80.5 58t115.5 18q46 0 89 -7t75.5 -25t52 -49t19.5 -79h-40q0 37 -16 60t-43 36.5t-62.5 18.5t-74.5 5q-60 0 -101 -15.5t-66 -51.5t-36 -94
t-11 -142q0 -72 8.5 -127.5t31 -93t60.5 -57t97 -19.5q93 0 152.5 50.5t70.5 163.5v6h-192v40h237v-290h-35zM278 -211q16 0 26.5 11t10.5 40h-40v70h75v-70q0 -37 -15 -63.5t-57 -26.5v39z" />
    <glyph glyph-name="gcommaaccent" unicode="&#x123;" horiz-adv-x="487" 
d="M416 290q0 -51 -13 -85.5t-37 -55.5t-58.5 -30t-76.5 -9q-23 0 -44 2.5t-39 8.5q-16 -16 -16 -43q0 -18 8 -28.5t21.5 -16.5t31.5 -8.5t38 -5.5q39 -5 77 -11.5t67 -20t47 -37t18 -62.5q0 -62 -50 -97.5t-159 -35.5q-199 0 -199 130q0 45 21 77.5t53 64.5q-18 21 -18 51
q0 36 26 58q-32 20 -50 57t-18 97q0 51 13 85.5t37 55.5t58.5 30t76.5 9q54 0 94.5 -15.5t63.5 -51.5q17 30 41.5 43.5t56.5 13.5v-40q-55 0 -84 -46q13 -37 13 -84zM231 150q40 0 66.5 7t43 23.5t23.5 43t7 66.5t-7 66.5t-23.5 43t-43 23.5t-66.5 7t-66.5 -7t-43 -23.5
t-23.5 -43t-7 -66.5t7 -66.5t23.5 -43t43 -23.5t66.5 -7zM231 -21q-26 5 -50 10.5t-44 15.5q-10 -12 -21 -24t-20.5 -25.5t-15.5 -30t-6 -36.5q0 -49 37 -71.5t119 -22.5q37 0 67.5 4.5t52 15.5t33.5 29t12 45t-13.5 42.5t-36 24.5t-52.5 13.5t-62 9.5zM266 671
q-16 0 -26.5 -11t-10.5 -40h40v-70h-75v70q0 37 15 63.5t57 26.5v-39z" />
    <glyph glyph-name="Hcircumflex" unicode="&#x124;" horiz-adv-x="660" 
d="M527 0v312h-395v-312h-45v660h45v-308h395v308h45v-660h-45zM344 859l125 -126h-54l-45 43q-11 10 -18 19.5t-12 16.5q-5 8 -9 15h-2q-4 -7 -9 -15q-5 -7 -12 -16t-18 -20l-44 -43h-55l126 126h27z" />
    <glyph glyph-name="hcircumflex" unicode="&#x125;" horiz-adv-x="508" 
d="M77 0v690l45 10v-260q0 -17 -0.5 -36t-1.5 -36h1q17 57 54 79.5t98 22.5q42 0 73 -10t51 -33.5t30 -62t10 -94.5v-270h-45v270q0 45 -7 76t-22 49.5t-39 26.5t-58 8q-38 0 -65 -9.5t-44 -31.5t-25.5 -58.5t-9.5 -89.5v-241h-45zM301 659l125 -126h-54l-45 43
q-11 10 -18 19.5t-12 16.5q-5 8 -9 15h-2q-4 -7 -9 -15q-5 -7 -12 -16t-18 -20l-44 -43h-55l126 126h27z" />
    <glyph glyph-name="Hbar" unicode="&#x126;" horiz-adv-x="660" 
d="M527 0v312h-395v-312h-45v521h-95v40h95v99h45v-99h395v99h45v-99h95v-40h-95v-521h-45zM527 352v169h-395v-169h395z" />
    <glyph glyph-name="hbar" unicode="&#x127;" horiz-adv-x="508" 
d="M122 550v-110q0 -17 -0.5 -36t-1.5 -36h1q17 57 54 79.5t98 22.5q42 0 73 -12.5t51 -41t30 -74t10 -112.5v-230h-45v230q0 57 -7 95.5t-22 61.5t-38.5 33t-57.5 10q-38 0 -65.5 -9.5t-44.5 -31.5t-25.5 -58t-9.5 -90v-241h-45v550h-96v40h96v100l45 10v-110h174v-40h-174
z" />
    <glyph glyph-name="Itilde" unicode="&#x128;" horiz-adv-x="219" 
d="M87 0v660h45v-660h-45zM178 739q-23 0 -39 9t-33 20q-19 13 -32 21t-29 8q-20 0 -27 -13.5t-7 -45.5h-43q0 22 2.5 41t10 33t21.5 22t38 8q25 0 42 -9.5t36 -22.5q18 -13 30 -20t27 -7q19 0 26 14t7 47h45q0 -23 -2.5 -42.5t-10 -33.5t-22.5 -21.5t-40 -7.5z" />
    <glyph glyph-name="itilde" unicode="&#x129;" horiz-adv-x="174" 
d="M65 0v460h45v-460h-45zM156 539q-23 0 -39 9t-33 20q-19 13 -32 21t-29 8q-20 0 -27 -13.5t-7 -45.5h-43q0 22 2.5 41t10 33t21.5 22t38 8q25 0 42 -9.5t36 -22.5q18 -13 30 -20t27 -7q19 0 26 14t7 47h45q0 -23 -2.5 -42.5t-10 -33.5t-22.5 -21.5t-40 -7.5z" />
    <glyph glyph-name="Imacron" unicode="&#x12a;" horiz-adv-x="219" 
d="M87 0v660h45v-660h-45zM-47 789v40h315v-40h-315z" />
    <glyph glyph-name="imacron" unicode="&#x12b;" horiz-adv-x="174" 
d="M65 0v460h45v-460h-45zM-69 589v40h315v-40h-315z" />
    <glyph glyph-name="Ibreve" unicode="&#x12c;" horiz-adv-x="219" 
d="M87 0v660h45v-660h-45zM111 780q85 0 85 48h41q0 -46 -32 -67t-94 -21t-94 21t-32 67h41q0 -48 85 -48z" />
    <glyph glyph-name="ibreve" unicode="&#x12d;" horiz-adv-x="174" 
d="M65 0v460h45v-460h-45zM88 580q85 0 85 48h41q0 -46 -32 -67t-94 -21t-94 21t-32 67h41q0 -48 85 -48z" />
    <glyph glyph-name="Iogonek" unicode="&#x12e;" horiz-adv-x="219" 
d="M177 -165q-16 -14 -40.5 -20t-42.5 -6q-45 0 -69 23t-24 62q0 24 7.5 43.5t20 34t28 25t30.5 18.5v645h45v-660q-34 -11 -61 -34.5t-27 -65.5q0 -24 14 -39t46 -15q14 0 36 6t37 20v-37z" />
    <glyph glyph-name="iogonek" unicode="&#x12f;" horiz-adv-x="174" 
d="M155 -165q-16 -14 -40.5 -20t-42.5 -6q-45 0 -69 23t-24 62q0 24 7.5 43.5t20 34t28 25t30.5 18.5v445h45v-460q-34 -11 -61 -34.5t-27 -65.5q0 -24 14 -39t46 -15q14 0 36 6t37 20v-37zM65 590v70h45v-70h-45z" />
    <glyph glyph-name="Idotaccent" unicode="&#x130;" horiz-adv-x="219" 
d="M87 0v660h45v-660h-45zM87 750v70h45v-70h-45z" />
    <glyph glyph-name="dotlessi" unicode="&#x131;" horiz-adv-x="174" 
d="M65 0v460h45v-460h-45z" />
    <glyph glyph-name="IJ" unicode="&#x132;" horiz-adv-x="672" 
d="M87 0v660h45v-660h-45zM559 660h45v-510q0 -78 -44.5 -119t-144.5 -41q-94 0 -140.5 38t-46.5 122h41q0 -63 35 -91.5t112 -28.5q33 0 59.5 5.5t45 19t28.5 37t10 58.5v510z" />
    <glyph glyph-name="ij" unicode="&#x133;" horiz-adv-x="348" 
d="M65 0v460h45v-460h-45zM65 590v70h45v-70h-45zM284 -117q0 -24 -4 -46.5t-13 -39.5t-25 -27t-40 -10v43q16 0 26.5 17.5t10.5 62.5v577h45v-577zM239 590v70h45v-70h-45z" />
    <glyph glyph-name="Jcircumflex" unicode="&#x134;" horiz-adv-x="453" 
d="M340 660h45v-510q0 -78 -44.5 -119t-144.5 -41q-94 0 -140.5 38t-46.5 122h41q0 -63 35 -91.5t112 -28.5q33 0 59.5 5.5t45 19t28.5 37t10 58.5v510zM376 859l125 -126h-54l-45 43q-11 10 -18 19.5t-12 16.5q-5 8 -9 15h-2q-4 -7 -9 -15q-5 -7 -12 -16t-18 -20l-44 -43
h-55l126 126h27z" />
    <glyph glyph-name="jcircumflex" unicode="&#x135;" horiz-adv-x="174" 
d="M110 -116q0 -24 -4 -46.5t-13 -39.5t-25 -27t-40 -10v43q16 0 26.5 17.5t10.5 62.5v576h45v-576zM102 659l125 -126h-54l-45 43q-11 10 -18 19.5t-12 16.5q-5 8 -9 15h-2q-4 -7 -9 -15q-5 -7 -12 -16t-18 -20l-44 -43h-55l126 126h27z" />
    <glyph glyph-name="Kcommaaccent" unicode="&#x136;" horiz-adv-x="576" 
d="M87 0v660h45v-308h172l199 308h53l-210 -326l215 -334h-53l-201 312h-175v-312h-45zM254 -211q16 0 26.5 11t10.5 40h-40v70h75v-70q0 -37 -15 -63.5t-57 -26.5v39z" />
    <glyph glyph-name="kcommaaccent" unicode="&#x137;" horiz-adv-x="449" 
d="M77 0v690l45 10v-450h111l136 210h53l-146 -226l151 -234h-53l-136 210h-116v-210h-45zM182 -211q16 0 26.5 11t10.5 40h-40v70h75v-70q0 -37 -15 -63.5t-57 -26.5v39z" />
    <glyph glyph-name="kgreenlandic" unicode="&#x138;" horiz-adv-x="449" 
d="M77 0v460h45v-210h111l136 210h53l-146 -226l151 -234h-53l-136 210h-116v-210h-45z" />
    <glyph glyph-name="Lacute" unicode="&#x139;" horiz-adv-x="509" 
d="M87 0v660h45v-620h355v-40h-400zM89 733l71 126h71l-99 -126h-43z" />
    <glyph glyph-name="lacute" unicode="&#x13a;" horiz-adv-x="182" 
d="M152 0q-24 0 -40 10t-25 27t-13 39.5t-4 46.5v567l45 10v-577q0 -45 10.5 -62.5t26.5 -17.5v-43zM70 773l71 126h71l-99 -126h-43z" />
    <glyph glyph-name="Lcommaaccent" unicode="&#x13b;" horiz-adv-x="509" 
d="M87 0v660h45v-620h355v-40h-400zM220 -211q16 0 26.5 11t10.5 40h-40v70h75v-70q0 -37 -15 -63.5t-57 -26.5v39z" />
    <glyph glyph-name="lcommaaccent" unicode="&#x13c;" horiz-adv-x="182" 
d="M152 0q-24 0 -40 10t-25 27t-13 39.5t-4 46.5v567l45 10v-577q0 -45 10.5 -62.5t26.5 -17.5v-43zM66 -211q16 0 26.5 11t10.5 40h-40v70h75v-70q0 -37 -15 -63.5t-57 -26.5v39z" />
    <glyph glyph-name="Lcaron" unicode="&#x13d;" horiz-adv-x="509" 
d="M87 0v660h45v-620h355v-40h-400zM340 539q16 0 26.5 11t10.5 40h-40v70h75v-70q0 -37 -15 -63.5t-57 -26.5v39z" />
    <glyph glyph-name="lcaron" unicode="&#x13e;" horiz-adv-x="292" 
d="M152 0q-24 0 -40 10t-25 27t-13 39.5t-4 46.5v567l45 10v-577q0 -45 10.5 -62.5t26.5 -17.5v-43zM194 539q16 0 26.5 11t10.5 40h-40v70h75v-70q0 -37 -15 -63.5t-57 -26.5v39z" />
    <glyph glyph-name="Ldot" unicode="&#x13f;" horiz-adv-x="509" 
d="M87 0v660h45v-620h355v-40h-400zM364 330v70h45v-70h-45z" />
    <glyph glyph-name="ldot" unicode="&#x140;" horiz-adv-x="281" 
d="M152 0q-24 0 -40 10t-25 27t-13 39.5t-4 46.5v567l45 10v-577q0 -45 10.5 -62.5t26.5 -17.5v-43zM182 330v70h45v-70h-45z" />
    <glyph glyph-name="Lslash" unicode="&#x141;" horiz-adv-x="509" 
d="M87 0v246l-69 -30v46l69 30v368h45v-348l155 69v-48l-155 -68v-225h355v-40h-400z" />
    <glyph glyph-name="lslash" unicode="&#x142;" horiz-adv-x="194" 
d="M152 0q-24 0 -40 10t-25 27t-13 39.5t-4 46.5v203l-55 -28v47l55 29v316l45 10v-302l82 44v-50l-82 -43v-226q0 -45 10.5 -62.5t26.5 -17.5v-43z" />
    <glyph glyph-name="Nacute" unicode="&#x143;" horiz-adv-x="659" 
d="M527 660h45v-660h-47l-327 487q-14 20 -26 39.5t-21 35.5q-11 18 -20 34h-3q1 -17 2 -37q1 -17 1.5 -39.5t0.5 -47.5v-472h-45v660h47l327 -490q14 -20 26 -40l21 -35q11 -18 20 -34h3q-1 17 -2 37q-1 17 -1.5 39.5t-0.5 47.5v475zM292 733l71 126h71l-99 -126h-43z" />
    <glyph glyph-name="nacute" unicode="&#x144;" horiz-adv-x="510" 
d="M77 0v460h35l10 -90v-2q17 58 55 80t103 22q47 0 77.5 -10.5t48 -34.5t24.5 -62t7 -93v-270h-45v270q0 44 -4 74.5t-16.5 49.5t-36.5 27.5t-63 8.5q-41 0 -69.5 -9.5t-46.5 -32.5t-26 -61.5t-8 -96.5v-230h-45zM174 533l71 126h71l-99 -126h-43z" />
    <glyph glyph-name="Ncommaaccent" unicode="&#x145;" horiz-adv-x="659" 
d="M527 660h45v-660h-47l-327 487q-14 20 -26 39.5t-21 35.5q-11 18 -20 34h-3q1 -17 2 -37q1 -17 1.5 -39.5t0.5 -47.5v-472h-45v660h47l327 -490q14 -20 26 -40l21 -35q11 -18 20 -34h3q-1 17 -2 37q-1 17 -1.5 39.5t-0.5 47.5v475zM295 -211q16 0 26.5 11t10.5 40h-40v70
h75v-70q0 -37 -15 -63.5t-57 -26.5v39z" />
    <glyph glyph-name="ncommaaccent" unicode="&#x146;" horiz-adv-x="510" 
d="M77 0v460h35l10 -90v-2q17 58 55 80t103 22q47 0 77.5 -10.5t48 -34.5t24.5 -62t7 -93v-270h-45v270q0 44 -4 74.5t-16.5 49.5t-36.5 27.5t-63 8.5q-41 0 -69.5 -9.5t-46.5 -32.5t-26 -61.5t-8 -96.5v-230h-45zM221 -211q16 0 26.5 11t10.5 40h-40v70h75v-70
q0 -37 -15 -63.5t-57 -26.5v39z" />
    <glyph glyph-name="Ncaron" unicode="&#x147;" horiz-adv-x="659" 
d="M527 660h45v-660h-47l-327 487q-14 20 -26 39.5t-21 35.5q-11 18 -20 34h-3q1 -17 2 -37q1 -17 1.5 -39.5t0.5 -47.5v-472h-45v660h47l327 -490q14 -20 26 -40l21 -35q11 -18 20 -34h3q-1 17 -2 37q-1 17 -1.5 39.5t-0.5 47.5v475zM316 733l-126 126h55l44 -43
q11 -11 18 -20t12 -16q5 -8 9 -15h2q4 7 9 15q5 7 12 16t18 20l45 43h54l-125 -126h-27z" />
    <glyph glyph-name="ncaron" unicode="&#x148;" horiz-adv-x="510" 
d="M77 0v460h35l10 -90v-2q17 58 55 80t103 22q47 0 77.5 -10.5t48 -34.5t24.5 -62t7 -93v-270h-45v270q0 44 -4 74.5t-16.5 49.5t-36.5 27.5t-63 8.5q-41 0 -69.5 -9.5t-46.5 -32.5t-26 -61.5t-8 -96.5v-230h-45zM242 533l-126 126h55l44 -43q11 -11 18 -20t12 -16
q5 -8 9 -15h2q4 7 9 15q5 7 12 16t18 20l45 43h54l-125 -126h-27z" />
    <glyph glyph-name="napostrophe" unicode="&#x149;" horiz-adv-x="510" 
d="M77 0v460h35l10 -90v-2q17 58 55 80t103 22q47 0 77.5 -10.5t48 -34.5t24.5 -62t7 -93v-270h-45v270q0 44 -4 74.5t-16.5 49.5t-36.5 27.5t-63 8.5q-41 0 -69.5 -9.5t-46.5 -32.5t-26 -61.5t-8 -96.5v-230h-45zM81 579q16 0 26.5 11t10.5 40h-40v70h75v-70
q0 -37 -15 -63.5t-57 -26.5v39z" />
    <glyph glyph-name="Eng" unicode="&#x14a;" horiz-adv-x="659" 
d="M527 -3l-329 490q-14 20 -26 39.5t-21 35.5q-11 18 -20 34h-3q1 -17 2 -37q1 -17 1.5 -39.5t0.5 -47.5v-472h-45v660h47l327 -490q14 -20 26 -40l21 -35q11 -18 20 -34h3q-1 17 -2 37q-1 17 -1.5 39.5t-0.5 47.5v475h45v-740q0 -78 -44 -119t-144 -41v40q33 0 59.5 5.5
t45 19t28.5 37t10 58.5v77z" />
    <glyph glyph-name="eng" unicode="&#x14b;" horiz-adv-x="510" 
d="M77 0v460h35l10 -90v-3q17 58 54 80.5t100 22.5q48 0 79.5 -12.5t49.5 -41t25 -74.5t7 -112v-347q0 -24 -4 -46.5t-13 -39.5t-25 -27t-40 -10v43q16 0 26.5 17.5t10.5 62.5v347q0 56 -4 94.5t-17 62t-37.5 33.5t-65.5 10q-39 0 -66 -9.5t-44.5 -31t-26 -58t-9.5 -90.5
v-241h-45z" />
    <glyph glyph-name="Omacron" unicode="&#x14c;" horiz-adv-x="646" 
d="M323 -10q-72 0 -123.5 17t-85.5 56.5t-50 105t-16 161.5t16 161.5t50 105t85.5 56.5t123.5 17t123.5 -17t85.5 -56.5t50 -105t16 -161.5t-16 -161.5t-50 -105t-85.5 -56.5t-123.5 -17zM323 30q60 0 103.5 15t71.5 50t41.5 92.5t13.5 142.5t-13.5 142.5t-41.5 92.5
t-71.5 50t-103.5 15t-103.5 -15t-71.5 -50t-41.5 -92.5t-13.5 -142.5t13.5 -142.5t41.5 -92.5t71.5 -50t103.5 -15zM165 789v40h315v-40h-315z" />
    <glyph glyph-name="omacron" unicode="&#x14d;" horiz-adv-x="482" 
d="M241 -10q-51 0 -87.5 12t-60.5 40t-35.5 74t-11.5 114t11.5 114t35.5 74t60.5 40t87.5 12t87.5 -12t60.5 -40t35.5 -74t11.5 -114t-11.5 -114t-35.5 -74t-60.5 -40t-87.5 -12zM241 30q40 0 68.5 10t46.5 33t26.5 61.5t8.5 95.5t-8.5 95.5t-26.5 61.5t-46.5 33t-68.5 10
q-41 0 -69.5 -10t-46.5 -33t-26 -61.5t-8 -95.5t8 -95.5t26 -61.5t46.5 -33t69.5 -10zM83 589v40h315v-40h-315z" />
    <glyph glyph-name="Obreve" unicode="&#x14e;" horiz-adv-x="646" 
d="M323 -10q-72 0 -123.5 17t-85.5 56.5t-50 105t-16 161.5t16 161.5t50 105t85.5 56.5t123.5 17t123.5 -17t85.5 -56.5t50 -105t16 -161.5t-16 -161.5t-50 -105t-85.5 -56.5t-123.5 -17zM323 30q60 0 103.5 15t71.5 50t41.5 92.5t13.5 142.5t-13.5 142.5t-41.5 92.5
t-71.5 50t-103.5 15t-103.5 -15t-71.5 -50t-41.5 -92.5t-13.5 -142.5t13.5 -142.5t41.5 -92.5t71.5 -50t103.5 -15zM323 780q85 0 85 48h41q0 -46 -32 -67t-94 -21t-94 21t-32 67h41q0 -48 85 -48z" />
    <glyph glyph-name="obreve" unicode="&#x14f;" horiz-adv-x="482" 
d="M241 -10q-51 0 -87.5 12t-60.5 40t-35.5 74t-11.5 114t11.5 114t35.5 74t60.5 40t87.5 12t87.5 -12t60.5 -40t35.5 -74t11.5 -114t-11.5 -114t-35.5 -74t-60.5 -40t-87.5 -12zM241 30q40 0 68.5 10t46.5 33t26.5 61.5t8.5 95.5t-8.5 95.5t-26.5 61.5t-46.5 33t-68.5 10
q-41 0 -69.5 -10t-46.5 -33t-26 -61.5t-8 -95.5t8 -95.5t26 -61.5t46.5 -33t69.5 -10zM241 580q85 0 85 48h41q0 -46 -32 -67t-94 -21t-94 21t-32 67h41q0 -48 85 -48z" />
    <glyph glyph-name="Ohungarumlaut" unicode="&#x150;" horiz-adv-x="646" 
d="M323 -10q-72 0 -123.5 17t-85.5 56.5t-50 105t-16 161.5t16 161.5t50 105t85.5 56.5t123.5 17t123.5 -17t85.5 -56.5t50 -105t16 -161.5t-16 -161.5t-50 -105t-85.5 -56.5t-123.5 -17zM323 30q60 0 103.5 15t71.5 50t41.5 92.5t13.5 142.5t-13.5 142.5t-41.5 92.5
t-71.5 50t-103.5 15t-103.5 -15t-71.5 -50t-41.5 -92.5t-13.5 -142.5t13.5 -142.5t41.5 -92.5t71.5 -50t103.5 -15zM232 733l66 126h67l-94 -126h-39zM355 733l71 126h67l-99 -126h-39z" />
    <glyph glyph-name="ohungarumlaut" unicode="&#x151;" horiz-adv-x="482" 
d="M241 -10q-51 0 -87.5 12t-60.5 40t-35.5 74t-11.5 114t11.5 114t35.5 74t60.5 40t87.5 12t87.5 -12t60.5 -40t35.5 -74t11.5 -114t-11.5 -114t-35.5 -74t-60.5 -40t-87.5 -12zM241 30q40 0 68.5 10t46.5 33t26.5 61.5t8.5 95.5t-8.5 95.5t-26.5 61.5t-46.5 33t-68.5 10
q-41 0 -69.5 -10t-46.5 -33t-26 -61.5t-8 -95.5t8 -95.5t26 -61.5t46.5 -33t69.5 -10zM150 533l66 126h67l-94 -126h-39zM273 533l71 126h67l-99 -126h-39z" />
    <glyph glyph-name="OE" unicode="&#x152;" horiz-adv-x="864" 
d="M303 -10q-66 0 -114.5 17t-79.5 56.5t-46 105t-15 161.5t15 161.5t46 105t79.5 56.5t114.5 17q53 0 92 -10h417v-40h-338q41 -35 61.5 -100t22.5 -168h214v-40h-214q-2 -105 -22 -171t-62 -101h338v-40h-417q-39 -10 -92 -10zM303 30q55 0 94.5 15t65 50t38 92.5
t12.5 142.5t-12.5 142.5t-38 92.5t-65 50t-94.5 15t-94.5 -15t-65 -50t-38 -92.5t-12.5 -142.5t12.5 -142.5t38 -92.5t65 -50t94.5 -15z" />
    <glyph glyph-name="oe" unicode="&#x153;" horiz-adv-x="727" 
d="M219 -10q-45 0 -77.5 12t-53.5 40t-31.5 74t-10.5 114t10.5 114t31.5 74t53.5 40t77.5 12q63 0 100 -25t54 -88q16 63 52.5 88t99.5 25q80 0 118.5 -41.5t38.5 -141.5q0 -20 -1.5 -40t-6.5 -37h-278q1 -51 8 -85.5t22 -55.5t38.5 -30t57.5 -9q23 0 43 4t34.5 14.5t23 27
t8.5 42.5h44q0 -35 -12.5 -59.5t-34 -39.5t-50 -22t-60.5 -7q-58 0 -93.5 25t-51.5 88q-16 -63 -53.5 -88t-100.5 -25zM221 30q35 0 60 10t40.5 33t22.5 61.5t7 95.5t-7 95.5t-22.5 61.5t-40.5 33t-60 10t-60 -10t-40.5 -33t-22.5 -61.5t-7 -95.5t7 -95.5t22.5 -61.5
t40.5 -33t60 -10zM521 430q-34 0 -57 -9t-38 -30t-22 -55.5t-8 -85.5h240q1 5 1 10v10q0 46 -6.5 77t-20.5 49.5t-36 26t-53 7.5z" />
    <glyph glyph-name="Racute" unicode="&#x154;" horiz-adv-x="583" 
d="M495 0l-148 231q-8 -1 -16.5 -1h-17.5h-181v-230h-45v660h226q58 0 100 -10.5t69.5 -35.5t41 -65t13.5 -99q0 -99 -34.5 -149t-107.5 -64l152 -237h-52zM307 270q49 0 84.5 9t57.5 30t32.5 55.5t10.5 85.5q0 48 -10.5 80.5t-32.5 52.5t-57.5 28.5t-84.5 8.5h-175v-350
h175zM210 733l71 126h71l-99 -126h-43z" />
    <glyph glyph-name="racute" unicode="&#x155;" horiz-adv-x="288" 
d="M77 0v460h35l10 -90v-7q17 54 52 75.5t94 21.5v-40q-38 0 -65.5 -9t-45 -30t-26 -55.5t-9.5 -85.5v-240h-45zM146 533l71 126h71l-99 -126h-43z" />
    <glyph glyph-name="Rcommaaccent" unicode="&#x156;" horiz-adv-x="583" 
d="M495 0l-148 231q-8 -1 -16.5 -1h-17.5h-181v-230h-45v660h226q58 0 100 -10.5t69.5 -35.5t41 -65t13.5 -99q0 -99 -34.5 -149t-107.5 -64l152 -237h-52zM307 270q49 0 84.5 9t57.5 30t32.5 55.5t10.5 85.5q0 48 -10.5 80.5t-32.5 52.5t-57.5 28.5t-84.5 8.5h-175v-350
h175zM257 -211q16 0 26.5 11t10.5 40h-40v70h75v-70q0 -37 -15 -63.5t-57 -26.5v39z" />
    <glyph glyph-name="rcommaaccent" unicode="&#x157;" horiz-adv-x="288" 
d="M77 0v460h35l10 -90v-7q17 54 52 75.5t94 21.5v-40q-38 0 -65.5 -9t-45 -30t-26 -55.5t-9.5 -85.5v-240h-45zM66 -211q16 0 26.5 11t10.5 40h-40v70h75v-70q0 -37 -15 -63.5t-57 -26.5v39z" />
    <glyph glyph-name="Rcaron" unicode="&#x158;" horiz-adv-x="583" 
d="M495 0l-148 231q-8 -1 -16.5 -1h-17.5h-181v-230h-45v660h226q58 0 100 -10.5t69.5 -35.5t41 -65t13.5 -99q0 -99 -34.5 -149t-107.5 -64l152 -237h-52zM307 270q49 0 84.5 9t57.5 30t32.5 55.5t10.5 85.5q0 48 -10.5 80.5t-32.5 52.5t-57.5 28.5t-84.5 8.5h-175v-350
h175zM278 733l-126 126h55l44 -43q11 -11 18 -20t12 -16q5 -8 9 -15h2q4 7 9 15q5 7 12 16t18 20l45 43h54l-125 -126h-27z" />
    <glyph glyph-name="rcaron" unicode="&#x159;" horiz-adv-x="288" 
d="M77 0v460h35l10 -90v-7q17 54 52 75.5t94 21.5v-40q-38 0 -65.5 -9t-45 -30t-26 -55.5t-9.5 -85.5v-240h-45zM132 533l-126 126h55l44 -43q11 -11 18 -20t12 -16q5 -8 9 -15h2q4 7 9 15q5 7 12 16t18 20l45 43h54l-125 -126h-27z" />
    <glyph glyph-name="Sacute" unicode="&#x15a;" horiz-adv-x="566" 
d="M462 510q0 65 -48.5 92.5t-130.5 27.5q-42 0 -77 -7t-60.5 -24t-39.5 -45t-14 -70q0 -41 15.5 -64.5t41.5 -37t59.5 -19.5t68.5 -11q47 -6 90.5 -16t77.5 -28.5t54 -50t20 -80.5q0 -97 -65 -142t-185 -45q-112 0 -173 39t-61 121h44q0 -63 51 -91.5t141 -28.5q43 0 80 7
t64.5 23.5t43 44.5t15.5 70q0 39 -16 63t-43.5 38t-63 20.5t-74.5 11.5q-45 6 -87 16t-73.5 29.5t-50.5 50.5t-19 78q0 88 56.5 138t180.5 50q49 0 90 -8.5t70.5 -27.5t45.5 -49.5t16 -74.5h-44zM214 733l71 126h71l-99 -126h-43z" />
    <glyph glyph-name="sacute" unicode="&#x15b;" horiz-adv-x="426" 
d="M339 342q0 46 -30.5 67t-97.5 21q-61 0 -95.5 -19.5t-34.5 -73.5q0 -26 11.5 -42t29.5 -25t41 -13t47 -7q35 -5 67.5 -12t57 -21.5t39 -37t14.5 -56.5q0 -65 -42 -99t-138 -34q-88 0 -132 30.5t-44 97.5h41q0 -46 33 -67t102 -21q64 0 100 19.5t36 73.5q0 26 -12 42
t-31 25t-43 13t-48 7q-33 4 -64.5 11.5t-55.5 21.5t-38.5 37t-14.5 58q0 64 41 98t134 34q86 0 128.5 -30.5t42.5 -97.5h-44zM143 533l71 126h71l-99 -126h-43z" />
    <glyph glyph-name="Scircumflex" unicode="&#x15c;" horiz-adv-x="566" 
d="M462 510q0 65 -48.5 92.5t-130.5 27.5q-42 0 -77 -7t-60.5 -24t-39.5 -45t-14 -70q0 -41 15.5 -64.5t41.5 -37t59.5 -19.5t68.5 -11q47 -6 90.5 -16t77.5 -28.5t54 -50t20 -80.5q0 -97 -65 -142t-185 -45q-112 0 -173 39t-61 121h44q0 -63 51 -91.5t141 -28.5q43 0 80 7
t64.5 23.5t43 44.5t15.5 70q0 39 -16 63t-43.5 38t-63 20.5t-74.5 11.5q-45 6 -87 16t-73.5 29.5t-50.5 50.5t-19 78q0 88 56.5 138t180.5 50q49 0 90 -8.5t70.5 -27.5t45.5 -49.5t16 -74.5h-44zM299 859l125 -126h-54l-45 43q-11 10 -18 19.5t-12 16.5q-5 8 -9 15h-2
q-4 -7 -9 -15q-5 -7 -12 -16t-18 -20l-44 -43h-55l126 126h27z" />
    <glyph glyph-name="scircumflex" unicode="&#x15d;" horiz-adv-x="426" 
d="M339 342q0 46 -30.5 67t-97.5 21q-61 0 -95.5 -19.5t-34.5 -73.5q0 -26 11.5 -42t29.5 -25t41 -13t47 -7q35 -5 67.5 -12t57 -21.5t39 -37t14.5 -56.5q0 -65 -42 -99t-138 -34q-88 0 -132 30.5t-44 97.5h41q0 -46 33 -67t102 -21q64 0 100 19.5t36 73.5q0 26 -12 42
t-31 25t-43 13t-48 7q-33 4 -64.5 11.5t-55.5 21.5t-38.5 37t-14.5 58q0 64 41 98t134 34q86 0 128.5 -30.5t42.5 -97.5h-44zM228 659l125 -126h-54l-45 43q-11 10 -18 19.5t-12 16.5q-5 8 -9 15h-2q-4 -7 -9 -15q-5 -7 -12 -16t-18 -20l-44 -43h-55l126 126h27z" />
    <glyph glyph-name="Scedilla" unicode="&#x15e;" horiz-adv-x="566" 
d="M275 -165q23 0 37.5 6.5t14.5 29.5q0 24 -21 35t-69 13l8 72q-101 4 -155.5 42.5t-54.5 116.5h44q0 -63 51 -91.5t141 -28.5q43 0 80 7t64.5 23.5t43 44.5t15.5 70q0 39 -16 63t-43.5 38t-63 20.5t-74.5 11.5q-45 6 -86.5 16t-73 29.5t-50.5 50.5t-20 78q-2 88 55.5 138
t181.5 50q49 0 90 -8.5t70.5 -27.5t45.5 -49.5t16 -74.5h-44q0 65 -48.5 92.5t-130.5 27.5q-42 0 -77 -7t-60.5 -24t-39.5 -45t-14 -70q0 -41 15.5 -64.5t41.5 -37t59.5 -19.5t68.5 -11q47 -6 90.5 -16t77.5 -28.5t54 -50t20 -80.5q0 -94 -61 -139t-173 -48l-5 -41
q38 -3 64.5 -19t26.5 -55q0 -40 -27.5 -60t-70.5 -20q-22 0 -43 4.5t-32 11.5v40q11 -7 32 -11.5t45 -4.5z" />
    <glyph glyph-name="scedilla" unicode="&#x15f;" horiz-adv-x="426" 
d="M205 -165q23 0 37.5 6.5t14.5 29.5q0 24 -21 35t-69 13l8 72q-72 5 -107.5 35.5t-35.5 91.5h41q0 -46 33 -67t102 -21q64 0 100 19.5t36 73.5q0 26 -12 42t-31 25t-43 13t-48 7q-33 4 -64.5 11.5t-55.5 21.5t-38.5 37t-14.5 58q0 64 41 98t134 34q86 0 128.5 -30.5
t42.5 -97.5h-44q0 46 -30.5 67t-97.5 21q-61 0 -95.5 -19.5t-34.5 -73.5q0 -26 11.5 -42t29.5 -25t41 -13t47 -7q35 -5 67.5 -12t57 -21.5t39 -37t14.5 -56.5q0 -64 -40.5 -97.5t-132.5 -35.5l-5 -41q38 -3 64.5 -19t26.5 -55q0 -40 -27.5 -60t-70.5 -20q-22 0 -43 4.5
t-32 11.5v40q11 -7 32 -11.5t45 -4.5z" />
    <glyph glyph-name="Scaron" unicode="&#x160;" horiz-adv-x="566" 
d="M462 510q0 65 -48.5 92.5t-130.5 27.5q-42 0 -77 -7t-60.5 -24t-39.5 -45t-14 -70q0 -41 15.5 -64.5t41.5 -37t59.5 -19.5t68.5 -11q47 -6 90.5 -16t77.5 -28.5t54 -50t20 -80.5q0 -97 -65 -142t-185 -45q-112 0 -173 39t-61 121h44q0 -63 51 -91.5t141 -28.5q43 0 80 7
t64.5 23.5t43 44.5t15.5 70q0 39 -16 63t-43.5 38t-63 20.5t-74.5 11.5q-45 6 -87 16t-73.5 29.5t-50.5 50.5t-19 78q0 88 56.5 138t180.5 50q49 0 90 -8.5t70.5 -27.5t45.5 -49.5t16 -74.5h-44zM272 733l-126 126h55l44 -43q11 -11 18 -20t12 -16q5 -8 9 -15h2q4 7 9 15
q5 7 12 16t18 20l45 43h54l-125 -126h-27z" />
    <glyph glyph-name="scaron" unicode="&#x161;" horiz-adv-x="426" 
d="M339 342q0 46 -30.5 67t-97.5 21q-61 0 -95.5 -19.5t-34.5 -73.5q0 -26 11.5 -42t29.5 -25t41 -13t47 -7q35 -5 67.5 -12t57 -21.5t39 -37t14.5 -56.5q0 -65 -42 -99t-138 -34q-88 0 -132 30.5t-44 97.5h41q0 -46 33 -67t102 -21q64 0 100 19.5t36 73.5q0 26 -12 42
t-31 25t-43 13t-48 7q-33 4 -64.5 11.5t-55.5 21.5t-38.5 37t-14.5 58q0 64 41 98t134 34q86 0 128.5 -30.5t42.5 -97.5h-44zM201 533l-126 126h55l44 -43q11 -11 18 -20t12 -16q5 -8 9 -15h2q4 7 9 15q5 7 12 16t18 20l45 43h54l-125 -126h-27z" />
    <glyph glyph-name="Tcedilla" unicode="&#x162;" horiz-adv-x="543" 
d="M280 -165q23 0 37.5 6.5t14.5 29.5q0 24 -21 35t-69 13l9 81h-2v620h-235v40h515v-40h-235v-620h-3l-6 -51q38 -3 64.5 -19t26.5 -55q0 -40 -27.5 -60t-70.5 -20q-22 0 -43 4.5t-32 11.5v40q11 -7 32 -11.5t45 -4.5z" />
    <glyph glyph-name="tcedilla" unicode="&#x163;" horiz-adv-x="296" 
d="M194 -165q23 0 37.5 6.5t14.5 29.5q0 24 -21 35t-69 13l11 93q-46 17 -70 56.5t-24 111.5v240h-61v40h61v110l45 10v-120h161v-40h-161v-240q0 -40 6.5 -66.5t22 -43t42.5 -23.5t69 -7v-40q-29 0 -53 3l-6 -54q38 -3 64.5 -19t26.5 -55q0 -40 -27.5 -60t-70.5 -20
q-22 0 -43 4.5t-32 11.5v40q11 -7 32 -11.5t45 -4.5z" />
    <glyph glyph-name="Tcaron" unicode="&#x164;" horiz-adv-x="543" 
d="M249 0v620h-235v40h515v-40h-235v-620h-45zM258 733l-126 126h55l44 -43q11 -11 18 -20t12 -16q5 -8 9 -15h2q4 7 9 15q5 7 12 16t18 20l45 43h54l-125 -126h-27z" />
    <glyph glyph-name="tcaron" unicode="&#x165;" horiz-adv-x="296" 
d="M258 0q-44 0 -78.5 9t-58 30t-36 55.5t-12.5 85.5v240h-61v40h61v110l45 10v-120h161v-40h-161v-240q0 -40 9.5 -66.5t27.5 -43t44 -23.5t59 -7v-40zM207 579q16 0 26.5 11t10.5 40h-40v70h75v-70q0 -37 -15 -63.5t-57 -26.5v39z" />
    <glyph glyph-name="Tbar" unicode="&#x166;" horiz-adv-x="543" 
d="M249 0v420h-135v40h135v160h-235v40h515v-40h-235v-160h135v-40h-135v-420h-45z" />
    <glyph glyph-name="tbar" unicode="&#x167;" horiz-adv-x="296" 
d="M258 0q-44 0 -78.5 9t-58 30t-36 55.5t-12.5 85.5v120h-61v40h61v80h-61v40h61v110l45 10v-120h161v-40h-161v-80h161v-40h-161v-120q0 -40 6.5 -66.5t22 -43t42.5 -23.5t69 -7v-40z" />
    <glyph glyph-name="Utilde" unicode="&#x168;" horiz-adv-x="626" 
d="M513 660h45v-330q0 -96 -14.5 -161.5t-44.5 -105t-76 -56.5t-110 -17t-110 17t-76 56.5t-44.5 105t-14.5 161.5v330h45v-330q0 -85 11.5 -142.5t36 -92.5t62.5 -50t90 -15t90 15t62.5 50t36 92.5t11.5 142.5v330zM380 739q-23 0 -39 9t-33 20q-19 13 -32 21t-29 8
q-20 0 -27 -13.5t-7 -45.5h-43q0 22 2.5 41t10 33t21.5 22t38 8q25 0 42 -9.5t36 -22.5q18 -13 30 -20t27 -7q19 0 26 14t7 47h45q0 -23 -2.5 -42.5t-10 -33.5t-22.5 -21.5t-40 -7.5z" />
    <glyph glyph-name="utilde" unicode="&#x169;" horiz-adv-x="506" 
d="M394 0l-10 90v3q-17 -58 -54 -80.5t-100 -22.5q-48 0 -79.5 12.5t-49.5 41t-25 74.5t-7 112v230h45v-230q0 -56 4 -94.5t17 -62t37.5 -33.5t65.5 -10q38 0 65.5 9t45 31t26 58t9.5 90v242h45v-460h-35zM320 539q-23 0 -39 9t-33 20q-19 13 -32 21t-29 8q-20 0 -27 -13.5
t-7 -45.5h-43q0 22 2.5 41t10 33t21.5 22t38 8q25 0 42 -9.5t36 -22.5q18 -13 30 -20t27 -7q19 0 26 14t7 47h45q0 -23 -2.5 -42.5t-10 -33.5t-22.5 -21.5t-40 -7.5z" />
    <glyph glyph-name="Umacron" unicode="&#x16a;" horiz-adv-x="626" 
d="M513 660h45v-330q0 -96 -14.5 -161.5t-44.5 -105t-76 -56.5t-110 -17t-110 17t-76 56.5t-44.5 105t-14.5 161.5v330h45v-330q0 -85 11.5 -142.5t36 -92.5t62.5 -50t90 -15t90 15t62.5 50t36 92.5t11.5 142.5v330zM155 789v40h315v-40h-315z" />
    <glyph glyph-name="umacron" unicode="&#x16b;" horiz-adv-x="506" 
d="M394 0l-10 90v3q-17 -58 -54 -80.5t-100 -22.5q-48 0 -79.5 12.5t-49.5 41t-25 74.5t-7 112v230h45v-230q0 -56 4 -94.5t17 -62t37.5 -33.5t65.5 -10q38 0 65.5 9t45 31t26 58t9.5 90v242h45v-460h-35zM95 589v40h315v-40h-315z" />
    <glyph glyph-name="Ubreve" unicode="&#x16c;" horiz-adv-x="626" 
d="M513 660h45v-330q0 -96 -14.5 -161.5t-44.5 -105t-76 -56.5t-110 -17t-110 17t-76 56.5t-44.5 105t-14.5 161.5v330h45v-330q0 -85 11.5 -142.5t36 -92.5t62.5 -50t90 -15t90 15t62.5 50t36 92.5t11.5 142.5v330zM313 780q85 0 85 48h41q0 -46 -32 -67t-94 -21t-94 21
t-32 67h41q0 -48 85 -48z" />
    <glyph glyph-name="ubreve" unicode="&#x16d;" horiz-adv-x="506" 
d="M394 0l-10 90v3q-17 -58 -54 -80.5t-100 -22.5q-48 0 -79.5 12.5t-49.5 41t-25 74.5t-7 112v230h45v-230q0 -56 4 -94.5t17 -62t37.5 -33.5t65.5 -10q38 0 65.5 9t45 31t26 58t9.5 90v242h45v-460h-35zM253 580q85 0 85 48h41q0 -46 -32 -67t-94 -21t-94 21t-32 67h41
q0 -48 85 -48z" />
    <glyph glyph-name="Uring" unicode="&#x16e;" horiz-adv-x="626" 
d="M513 660h45v-330q0 -96 -14.5 -161.5t-44.5 -105t-76 -56.5t-110 -17t-110 17t-76 56.5t-44.5 105t-14.5 161.5v330h45v-330q0 -85 11.5 -142.5t36 -92.5t62.5 -50t90 -15t90 15t62.5 50t36 92.5t11.5 142.5v330zM313 723q-45 0 -68.5 26t-23.5 64q0 35 25 61t67 26
t67 -26t25 -61q0 -38 -23.5 -64t-68.5 -26zM313 864q-25 0 -38 -14.5t-13 -37.5q0 -20 12.5 -35.5t38.5 -15.5t38.5 15.5t12.5 35.5q0 23 -13.5 37.5t-37.5 14.5z" />
    <glyph glyph-name="uring" unicode="&#x16f;" horiz-adv-x="506" 
d="M394 0l-10 90v3q-17 -58 -54 -80.5t-100 -22.5q-48 0 -79.5 12.5t-49.5 41t-25 74.5t-7 112v230h45v-230q0 -56 4 -94.5t17 -62t37.5 -33.5t65.5 -10q38 0 65.5 9t45 31t26 58t9.5 90v242h45v-460h-35zM253 523q-45 0 -68.5 26t-23.5 64q0 35 25 61t67 26t67 -26t25 -61
q0 -38 -23.5 -64t-68.5 -26zM253 664q-25 0 -38 -14.5t-13 -37.5q0 -20 12.5 -35.5t38.5 -15.5t38.5 15.5t12.5 35.5q0 23 -13.5 37.5t-37.5 14.5z" />
    <glyph glyph-name="Uhungarumlaut" unicode="&#x170;" horiz-adv-x="626" 
d="M513 660h45v-330q0 -96 -14.5 -161.5t-44.5 -105t-76 -56.5t-110 -17t-110 17t-76 56.5t-44.5 105t-14.5 161.5v330h45v-330q0 -85 11.5 -142.5t36 -92.5t62.5 -50t90 -15t90 15t62.5 50t36 92.5t11.5 142.5v330zM222 733l66 126h67l-94 -126h-39zM345 733l71 126h67
l-99 -126h-39z" />
    <glyph glyph-name="uhungarumlaut" unicode="&#x171;" horiz-adv-x="506" 
d="M394 0l-10 90v3q-17 -58 -54 -80.5t-100 -22.5q-48 0 -79.5 12.5t-49.5 41t-25 74.5t-7 112v230h45v-230q0 -56 4 -94.5t17 -62t37.5 -33.5t65.5 -10q38 0 65.5 9t45 31t26 58t9.5 90v242h45v-460h-35zM162 533l66 126h67l-94 -126h-39zM285 533l71 126h67l-99 -126h-39z
" />
    <glyph glyph-name="Uogonek" unicode="&#x172;" horiz-adv-x="626" 
d="M447 -165q-16 -14 -40.5 -20t-42.5 -6q-45 0 -69 23t-24 62q0 33 13 56.5t33 39.5h-4q-64 0 -110 17t-76 56.5t-44.5 105t-14.5 161.5v330h45v-330q0 -85 11.5 -142.5t36 -92.5t62.5 -50t90 -15t90 15t62.5 50t36 92.5t11.5 142.5v330h45v-330q0 -78 -9.5 -135t-28.5 -97
t-48.5 -63.5t-69.5 -34.5q-34 -11 -61 -34.5t-27 -65.5q0 -24 14 -39t46 -15q14 0 36 6t37 20v-37z" />
    <glyph glyph-name="uogonek" unicode="&#x173;" horiz-adv-x="506" 
d="M384 460h45v-460q-34 -11 -61 -34.5t-27 -65.5q0 -24 14 -39t46 -15q14 0 36 6t37 20v-37q-16 -14 -40.5 -20t-42.5 -6q-45 0 -69 23t-24 62q0 26 8.5 46t22 35t30.5 26t33 18l-8 71v3q-17 -58 -54 -80.5t-100 -22.5q-48 0 -79.5 12.5t-49.5 41t-25 74.5t-7 112v230h45
v-230q0 -56 4 -94.5t17 -62t37.5 -33.5t65.5 -10q39 0 67 9.5t45.5 33t25.5 62t8 95.5v230z" />
    <glyph glyph-name="Wcircumflex" unicode="&#x174;" horiz-adv-x="808" 
d="M438 377q-11 34 -17 61t-10 47q-4 23 -6 40h-3q-2 -18 -6 -40q-8 -39 -27 -108l-111 -377h-44l-200 660h46l137 -465q10 -35 16.5 -63t11.5 -48q5 -24 8 -42h3q3 18 8 42q5 20 11.5 48t16.5 62l107 366h50l107 -366q10 -34 16.5 -62t11.5 -48q5 -24 8 -42h3q3 18 8 42
q5 20 11 48t17 63l137 465h46l-200 -660h-44zM418 859l125 -126h-54l-45 43q-11 10 -18 19.5t-12 16.5q-5 8 -9 15h-2q-4 -7 -9 -15q-5 -7 -12 -16t-18 -20l-44 -43h-55l126 126h27z" />
    <glyph glyph-name="wcircumflex" unicode="&#x175;" horiz-adv-x="626" 
d="M345 275q-11 34 -17 59.5t-9 42.5q-4 19 -5 33h-3q-1 -14 -5 -33q-3 -17 -9 -42.5t-17 -59.5l-84 -275h-44l-140 460h46l83 -288q10 -34 15.5 -59.5t9.5 -42.5q4 -20 6 -34h3q1 14 5 34q3 17 8.5 42t15.5 60l84 288h49l84 -288q10 -35 16 -60.5t9 -42.5q4 -20 5 -33h3
q0 13 4 33q3 17 8.5 42.5t16.5 60.5l84 288h46l-140 -460h-44zM327 659l125 -126h-54l-45 43q-11 10 -18 19.5t-12 16.5q-5 8 -9 15h-2q-4 -7 -9 -15q-5 -7 -12 -16t-18 -20l-44 -43h-55l126 126h27z" />
    <glyph glyph-name="Ycircumflex" unicode="&#x176;" horiz-adv-x="526" 
d="M12 660h48l161 -287q12 -25 19 -42.5t12 -28.5q5 -13 8 -22h3q2 9 7 22q5 11 12.5 28.5t19.5 42.5l161 287h48l-227 -407v-253h-45v253zM277 859l125 -126h-54l-45 43q-11 10 -18 19.5t-12 16.5q-5 8 -9 15h-2q-4 -7 -9 -15q-5 -7 -12 -16t-18 -20l-44 -43h-55l126 126
h27z" />
    <glyph glyph-name="ycircumflex" unicode="&#x177;" horiz-adv-x="439" 
d="M64 -200q22 0 40 13t33.5 38t30 62t31.5 85l-187 462h46l131 -318q20 -51 26 -79q4 -17 5 -31h3q2 13 6 30q3 14 9 33.5t16 44.5l129 320h44l-191 -486q-22 -56 -40.5 -96t-38 -66.5t-42 -39t-51.5 -12.5v40v0zM233 659l125 -126h-54l-45 43q-11 10 -18 19.5t-12 16.5
q-5 8 -9 15h-2q-4 -7 -9 -15q-5 -7 -12 -16t-18 -20l-44 -43h-55l126 126h27z" />
    <glyph glyph-name="Ydieresis" unicode="&#x178;" horiz-adv-x="526" 
d="M12 660h48l161 -287q12 -25 19 -42.5t12 -28.5q5 -13 8 -22h3q2 9 7 22q5 11 12.5 28.5t19.5 42.5l161 287h48l-227 -407v-253h-45v253zM150 750v70h45v-70h-45zM330 750v70h45v-70h-45z" />
    <glyph glyph-name="Zacute" unicode="&#x179;" horiz-adv-x="492" 
d="M28 0v40l388 580h-388v40h440v-40l-388 -580h388v-40h-440zM185 733l71 126h71l-99 -126h-43z" />
    <glyph glyph-name="zacute" unicode="&#x17a;" horiz-adv-x="398" 
d="M24 0v40l295 380h-295v40h350v-40l-295 -380h295v-40h-350zM158 533l71 126h71l-99 -126h-43z" />
    <glyph glyph-name="Zdotaccent" unicode="&#x17b;" horiz-adv-x="492" 
d="M28 0v40l388 580h-388v40h440v-40l-388 -580h388v-40h-440zM223 750v70h45v-70h-45z" />
    <glyph glyph-name="zdotaccent" unicode="&#x17c;" horiz-adv-x="398" 
d="M24 0v40l295 380h-295v40h350v-40l-295 -380h295v-40h-350zM176 550v70h45v-70h-45z" />
    <glyph glyph-name="Zcaron" unicode="&#x17d;" horiz-adv-x="492" 
d="M28 0v40l388 580h-388v40h440v-40l-388 -580h388v-40h-440zM233 733l-126 126h55l44 -43q11 -11 18 -20t12 -16q5 -8 9 -15h2q4 7 9 15q5 7 12 16t18 20l45 43h54l-125 -126h-27z" />
    <glyph glyph-name="zcaron" unicode="&#x17e;" horiz-adv-x="398" 
d="M24 0v40l295 380h-295v40h350v-40l-295 -380h295v-40h-350zM186 533l-126 126h55l44 -43q11 -11 18 -20t12 -16q5 -8 9 -15h2q4 7 9 15q5 7 12 16t18 20l45 43h54l-125 -126h-27z" />
    <glyph glyph-name="longs" unicode="&#x17f;" horiz-adv-x="249" 
d="M83 0v420h-61v40h61v60q0 51 12.5 85.5t36 55.5t58 30t78.5 9v-40q-42 0 -69 -7t-42.5 -23.5t-22 -43t-6.5 -66.5v-520h-45z" />
    <glyph glyph-name="uni0186" unicode="&#x186;" horiz-adv-x="573" 
d="M75 150q0 -37 16 -60t42 -36.5t60.5 -18.5t72.5 -5q55 0 95.5 15.5t67 51t39 93t12.5 141.5t-12.5 141t-39 92t-67 50.5t-95.5 15.5q-38 0 -72.5 -5t-60.5 -18.5t-42 -36.5t-16 -60h-45q0 48 19.5 79t52 49t75 25t89.5 7q67 0 115.5 -17.5t80.5 -57t47.5 -104.5
t15.5 -160t-15.5 -160.5t-47.5 -105.5t-80.5 -57.5t-115.5 -17.5q-47 0 -89.5 7t-75 25t-52 49t-19.5 79h45z" />
    <glyph glyph-name="uni0189" unicode="&#x189;" 
d="M87 0v312h-87v40h87v308h175q82 0 141.5 -16.5t98 -55t57 -102t18.5 -156.5t-18.5 -156.5t-57 -102t-98 -55t-141.5 -16.5h-175zM262 40q70 0 121 14.5t84 48.5t49 89.5t16 137.5t-16 137.5t-49 89.5t-84 48.5t-121 14.5h-130v-268h183v-40h-183v-272h130z" />
    <glyph glyph-name="uni018E" unicode="&#x18e;" horiz-adv-x="539" 
d="M52 0v40h355v272h-315v40h315v268h-355v40h400v-660h-400z" />
    <glyph glyph-name="uni018F" unicode="&#x18f;" horiz-adv-x="602" 
d="M48 347q0 98 14.5 160.5t44.5 98.5t74.5 50t104.5 14q69 0 119.5 -17.5t83.5 -58t49 -105.5t16 -161q0 -94 -15.5 -158.5t-48 -104.5t-82.5 -57.5t-119 -17.5q-48 0 -90 8.5t-73.5 27.5t-49.5 49.5t-18 74.5h45q0 -33 14.5 -56t40 -37t58.5 -20.5t71 -6.5q58 0 100 15.5
t69 50.5t40 92t13 140h-461v19zM281 630q-45 0 -80 -9.5t-58.5 -38t-36 -80t-13.5 -134.5h415q-3 73 -18 123.5t-43 81t-69.5 44t-96.5 13.5z" />
    <glyph glyph-name="uni0190" unicode="&#x190;" horiz-adv-x="562" 
d="M338 352v-40h-49q-39 0 -75 -6t-63 -21.5t-43 -42t-16 -67.5q0 -42 15.5 -70t43 -44.5t64.5 -23.5t80 -7q90 0 141 28.5t51 91.5h44q0 -82 -61 -121t-173 -39q-120 0 -185 45t-65 142q0 71 38.5 107.5t103.5 49.5q-55 14 -90.5 49.5t-36.5 98.5q-2 88 55.5 138t181.5 50
q49 0 90 -8.5t70.5 -27.5t45.5 -49.5t16 -74.5h-44q0 65 -48.5 92.5t-130.5 27.5q-42 0 -77 -7t-60.5 -24t-39.5 -45t-14 -70q0 -41 15.5 -66.5t41.5 -40t59 -20t69 -5.5h46z" />
    <glyph glyph-name="uni0191" unicode="&#x191;" horiz-adv-x="515" 
d="M132 312v-428q0 -24 -4 -46.5t-13 -39.5t-25 -27t-40 -10v43q16 0 26.5 17.5t10.5 62.5v776h400v-40h-355v-268h315v-40h-315z" />
    <glyph glyph-name="florin" unicode="&#x192;" horiz-adv-x="249" 
d="M128 420v-536q0 -24 -4 -46.5t-13 -39.5t-25 -27t-40 -10v43q16 0 26.5 17.5t10.5 62.5v536h-61v40h61v60q0 51 12.5 85.5t36 55.5t58 30t78.5 9v-40q-42 0 -69 -7t-42.5 -23.5t-22 -43t-6.5 -66.5v-60h121v-40h-121z" />
    <glyph glyph-name="uni019D" unicode="&#x19d;" horiz-adv-x="659" 
d="M527 660h45v-660h-47l-327 487q-14 20 -26 39.5t-21 35.5q-11 18 -20 34h-3q1 -17 2 -37q1 -17 1.5 -39.5t0.5 -47.5v-588q0 -24 -4 -46.5t-13 -39.5t-25 -27t-40 -10v43q16 0 26.5 17.5t10.5 62.5v776h47l327 -490q14 -20 26 -40l21 -35q11 -18 20 -34h3q-1 17 -2 37
q-1 17 -1.5 39.5t-0.5 47.5v475z" />
    <glyph glyph-name="uni019E" unicode="&#x19e;" horiz-adv-x="510" 
d="M77 0v460h35l10 -90v-3q17 58 54 80.5t100 22.5q48 0 79.5 -12.5t49.5 -41t25 -74.5t7 -112v-470h-45v470q0 56 -4 94.5t-17 62t-37.5 33.5t-65.5 10q-39 0 -66 -9.5t-44.5 -31t-26 -58t-9.5 -90.5v-241h-45z" />
    <glyph glyph-name="uni019F" unicode="&#x19f;" horiz-adv-x="646" 
d="M323 -10q-72 0 -123.5 17t-85.5 56.5t-50 105t-16 161.5t16 161.5t50 105t85.5 56.5t123.5 17t123.5 -17t85.5 -56.5t50 -105t16 -161.5t-16 -161.5t-50 -105t-85.5 -56.5t-123.5 -17zM323 30q58 0 100.5 14t71 47t42.5 87t16 134h-460q1 -80 15 -134t42.5 -87t71 -47
t101.5 -14zM323 630q-58 0 -100.5 -14t-71 -46.5t-43 -86t-15.5 -131.5h460q-2 78 -16.5 131.5t-42.5 86t-70.5 46.5t-100.5 14z" />
    <glyph glyph-name="Ohorn" unicode="&#x1a0;" horiz-adv-x="667" 
d="M323 -10q-72 0 -123.5 17t-85.5 56.5t-50 105t-16 161.5t16 161.5t50 105t85.5 56.5t123.5 17q80 0 135 -21t88 -72q16 -22 27.5 -37.5t33.5 -15.5q41 0 41 57q0 20 -6 42t-20 37h45q14 -16 20 -40t6 -46q0 -42 -20.5 -66t-56.5 -24q-19 0 -34 6q16 -64 16 -160
t-16 -161.5t-50 -105t-85.5 -56.5t-123.5 -17zM323 30q60 0 103.5 15t71.5 50t41.5 92.5t13.5 142.5t-13.5 142.5t-41.5 92.5t-71.5 50t-103.5 15t-103.5 -15t-71.5 -50t-41.5 -92.5t-13.5 -142.5t13.5 -142.5t41.5 -92.5t71.5 -50t103.5 -15z" />
    <glyph glyph-name="ohorn" unicode="&#x1a1;" horiz-adv-x="537" 
d="M241 -10q-51 0 -87.5 12t-60.5 40t-35.5 74t-11.5 114t11.5 114t35.5 74t60.5 40t87.5 12q67 0 109.5 -21t63.5 -74q11 -23 26 -37t37 -14q41 0 41 57q0 20 -6 42t-20 37h45q14 -16 20 -40t6 -46q0 -42 -20.5 -66t-56.5 -24q-32 0 -54 17q2 -16 3 -33.5t1 -37.5
q0 -68 -11.5 -114t-35.5 -74t-60.5 -40t-87.5 -12zM241 30q40 0 68.5 10t46.5 33t26.5 61.5t8.5 95.5t-8.5 95.5t-26.5 61.5t-46.5 33t-68.5 10q-41 0 -69.5 -10t-46.5 -33t-26 -61.5t-8 -95.5t8 -95.5t26 -61.5t46.5 -33t69.5 -10z" />
    <glyph glyph-name="uni01A7" unicode="&#x1a7;" horiz-adv-x="566" 
d="M61 510q0 44 16 74.5t45.5 49.5t70 27.5t90.5 8.5q124 0 181 -50t56 -138q-1 -47 -20 -78t-50.5 -50.5t-73 -29.5t-86.5 -16q-39 -5 -74.5 -11.5t-63 -20.5t-43.5 -38t-16 -63q0 -42 15.5 -70t43 -44.5t64.5 -23.5t80 -7q90 0 141 28.5t51 91.5h44q0 -82 -61 -121
t-173 -39q-120 0 -185 45t-65 142q0 49 20 80.5t54 50t77.5 28.5t90.5 16q35 5 68.5 11t59.5 19.5t41.5 37t15.5 64.5q0 42 -14 70t-39.5 45t-60.5 24t-77 7q-82 0 -130.5 -27.5t-48.5 -92.5h-44z" />
    <glyph glyph-name="uni01A8" unicode="&#x1a8;" horiz-adv-x="426" 
d="M43 342q0 67 42.5 97.5t128.5 30.5q93 0 134 -34t41 -98q0 -35 -14.5 -58t-38.5 -37t-55.5 -21.5t-64.5 -11.5q-24 -3 -48 -7t-43 -13t-31 -25t-12 -42q0 -54 36 -73.5t100 -19.5q69 0 102 21t33 67h41q0 -67 -44 -97.5t-132 -30.5q-96 0 -138 34t-42 99q0 34 14.5 56.5
t39 37t57 21.5t67.5 12q24 3 47 7t41 13t29.5 25t11.5 42q0 54 -34.5 73.5t-95.5 19.5q-67 0 -97.5 -21t-30.5 -67h-44z" />
    <glyph glyph-name="Uhorn" unicode="&#x1af;" horiz-adv-x="685" 
d="M513 660h45v-74q12 -26 27.5 -44t39.5 -18q41 0 41 57q0 20 -6 42t-20 37h45q14 -16 20 -40t6 -46q0 -42 -20.5 -66t-56.5 -24q-26 0 -44.5 11t-31.5 27v-192q0 -96 -14.5 -161.5t-44.5 -105t-76 -56.5t-110 -17t-110 17t-76 56.5t-44.5 105t-14.5 161.5v330h45v-330
q0 -85 11.5 -142.5t36 -92.5t62.5 -50t90 -15t90 15t62.5 50t36 92.5t11.5 142.5v330z" />
    <glyph glyph-name="uhorn" unicode="&#x1b0;" horiz-adv-x="556" 
d="M394 0l-10 90v3q-17 -58 -54 -80.5t-100 -22.5q-48 0 -79.5 12.5t-49.5 41t-25 74.5t-7 112v230h45v-230q0 -56 4 -94.5t17 -62t37.5 -33.5t65.5 -10q38 0 65.5 9t45 31t26 58t9.5 90v242h45v-74q12 -28 27.5 -45t39.5 -17q41 0 41 57q0 20 -6 42t-20 37h45
q14 -16 20 -40t6 -46q0 -42 -20.5 -66t-56.5 -24q-26 0 -44.5 11t-31.5 27v-322h-35z" />
    <glyph glyph-name="uni01B5" unicode="&#x1b5;" horiz-adv-x="492" 
d="M262 312l-182 -272h388v-40h-440v40l182 272h-181v40h208l179 268h-388v40h440v-40l-180 -268h176v-40h-202z" />
    <glyph glyph-name="uni01B6" unicode="&#x1b6;" horiz-adv-x="398" 
d="M212 212l-133 -172h295v-40h-350v40l133 172h-115v40h146l131 168h-295v40h350v-40l-131 -168h114v-40h-145z" />
    <glyph glyph-name="uni01BB" unicode="&#x1bb;" horiz-adv-x="486" 
d="M337 312l-244 -272h357v-40h-415v40l245 272h-254v40h290l29 32q10 12 20.5 23.5t18.5 25t13 30t5 36.5q0 72 -44 101.5t-122 29.5q-81 0 -117.5 -27t-36.5 -93h-44q0 88 50.5 124t146.5 36q57 0 97.5 -11.5t66 -32.5t37 -51.5t11.5 -68.5q0 -28 -6.5 -49.5t-17 -39.5
t-24 -33.5t-26.5 -31.5h88v-40h-124z" />
    <glyph glyph-name="uni01C4" unicode="&#x1c4;" horiz-adv-x="1117" 
d="M262 40q70 0 121 14.5t84 48.5t49 89.5t16 137.5t-16 137.5t-49 89.5t-84 48.5t-121 14.5h-130v-580h130zM87 0v660h175q82 0 141.5 -16.5t98 -55t57 -102t18.5 -156.5t-18.5 -156.5t-57 -102t-98 -55t-141.5 -16.5h-175zM653 0v40l388 580h-388v40h440v-40l-388 -580
h388v-40h-440zM858 733l-126 126h55l44 -43q11 -11 18 -20t12 -16q5 -8 9 -15h2q4 7 9 15q5 7 12 16t18 20l45 43h54l-125 -126h-27z" />
    <glyph glyph-name="uni01C5" unicode="&#x1c5;" horiz-adv-x="1023" 
d="M262 40q70 0 121 14.5t84 48.5t49 89.5t16 137.5t-16 137.5t-49 89.5t-84 48.5t-121 14.5h-130v-580h130zM87 0v660h175q82 0 141.5 -16.5t98 -55t57 -102t18.5 -156.5t-18.5 -156.5t-57 -102t-98 -55t-141.5 -16.5h-175zM649 0v40l295 380h-295v40h350v-40l-295 -380
h295v-40h-350zM811 533l-126 126h55l44 -43q11 -11 18 -20t12 -16q5 -8 9 -15h2q4 7 9 15q5 7 12 16t18 20l45 43h54l-125 -126h-27z" />
    <glyph glyph-name="uni01C6" unicode="&#x1c6;" horiz-adv-x="900" 
d="M230 -10q-47 0 -82 12.5t-57.5 41t-33.5 74t-11 112.5t11 112.5t33.5 74t57.5 41t82 12.5q60 0 97 -22.5t54 -79.5h2q-1 17 -1.5 36t-0.5 36v250l45 10v-700h-35l-10 90v1q-17 -57 -54 -79t-97 -22zM236 30q38 0 65 9.5t44.5 31.5t26 58t9.5 90v11q0 57 -8 95.5
t-25.5 61.5t-45 33t-66.5 10t-66.5 -10t-45 -33t-25.5 -61.5t-8 -95.5t8 -95.5t25.5 -61.5t45 -33t66.5 -10zM526 0v40l295 380h-295v40h350v-40l-295 -380h295v-40h-350zM688 533l-126 126h55l44 -43q11 -11 18 -20t12 -16q5 -8 9 -15h2q4 7 9 15q5 7 12 16t18 20l45 43h54
l-125 -126h-27z" />
    <glyph glyph-name="uni01C7" unicode="&#x1c7;" horiz-adv-x="962" 
d="M87 0v660h45v-620h355v-40h-400zM849 660h45v-510q0 -78 -44.5 -119t-144.5 -41q-94 0 -140.5 38t-46.5 122h41q0 -63 35 -91.5t112 -28.5q33 0 59.5 5.5t45 19t28.5 37t10 58.5v510z" />
    <glyph glyph-name="uni01C8" unicode="&#x1c8;" horiz-adv-x="683" 
d="M87 0v660h45v-620h355v-40h-400zM619 -117q0 -24 -4 -46.5t-13 -39.5t-25 -27t-40 -10v43q16 0 26.5 17.5t10.5 62.5v577h45v-577zM574 590v70h45v-70h-45z" />
    <glyph glyph-name="uni01C9" unicode="&#x1c9;" horiz-adv-x="356" 
d="M152 0q-24 0 -40 10t-25 27t-13 39.5t-4 46.5v567l45 10v-577q0 -45 10.5 -62.5t26.5 -17.5v-43zM292 -117q0 -24 -4 -46.5t-13 -39.5t-25 -27t-40 -10v43q16 0 26.5 17.5t10.5 62.5v577h45v-577zM247 590v70h45v-70h-45z" />
    <glyph glyph-name="uni01CA" unicode="&#x1ca;" horiz-adv-x="1112" 
d="M527 660h45v-660h-47l-327 487q-14 20 -26 39.5t-21 35.5q-11 18 -20 34h-3q1 -17 2 -37q1 -17 1.5 -39.5t0.5 -47.5v-472h-45v660h47l327 -490q14 -20 26 -40l21 -35q11 -18 20 -34h3q-1 17 -2 37q-1 17 -1.5 39.5t-0.5 47.5v475zM999 660h45v-510q0 -78 -44.5 -119
t-144.5 -41q-94 0 -140.5 38t-46.5 122h41q0 -63 35 -91.5t112 -28.5q33 0 59.5 5.5t45 19t28.5 37t10 58.5v510z" />
    <glyph glyph-name="uni01CB" unicode="&#x1cb;" horiz-adv-x="833" 
d="M527 660h45v-660h-47l-327 487q-14 20 -26 39.5t-21 35.5q-11 18 -20 34h-3q1 -17 2 -37q1 -17 1.5 -39.5t0.5 -47.5v-472h-45v660h47l327 -490q14 -20 26 -40l21 -35q11 -18 20 -34h3q-1 17 -2 37q-1 17 -1.5 39.5t-0.5 47.5v475zM769 -117q0 -24 -4 -46.5t-13 -39.5
t-25 -27t-40 -10v43q16 0 26.5 17.5t10.5 62.5v577h45v-577zM724 590v70h45v-70h-45z" />
    <glyph glyph-name="uni01CC" unicode="&#x1cc;" horiz-adv-x="684" 
d="M77 0v460h35l10 -90v-2q17 58 55 80t103 22q47 0 77.5 -10.5t48 -34.5t24.5 -62t7 -93v-270h-45v270q0 44 -4 74.5t-16.5 49.5t-36.5 27.5t-63 8.5q-41 0 -69.5 -9.5t-46.5 -32.5t-26 -61.5t-8 -96.5v-230h-45zM620 -117q0 -24 -4 -46.5t-13 -39.5t-25 -27t-40 -10v43
q16 0 26.5 17.5t10.5 62.5v577h45v-577zM575 590v70h45v-70h-45z" />
    <glyph glyph-name="uni01CD" unicode="&#x1cd;" horiz-adv-x="611" 
d="M553 0l-62 152h-371l-62 -152h-48l275 660h43l273 -660h-48zM137 192h337l-115 281q-14 33 -23.5 60t-15.5 47q-7 23 -12 40h-4q-5 -18 -12 -40q-6 -19 -15.5 -46t-23.5 -60zM292 733l-126 126h55l44 -43q11 -11 18 -20t12 -16q5 -8 9 -15h2q4 7 9 15q5 7 12 16t18 20
l45 43h54l-125 -126h-27z" />
    <glyph glyph-name="uni01CE" unicode="&#x1ce;" horiz-adv-x="471" 
d="M446 -2q-26 0 -41.5 7.5t-24 20.5t-11.5 30.5t-3 36.5h-2q-17 -59 -55.5 -81t-103.5 -22q-33 0 -63 5.5t-52.5 20t-36 40t-13.5 66.5q0 46 15.5 71t40 37t54.5 15.5t58 6.5l156 15v51q0 62 -30.5 87t-103.5 25q-68 0 -95.5 -21t-27.5 -67h-44q0 68 39.5 98t127.5 30
q51 0 85.5 -10t55 -29.5t29.5 -47.5t9 -65v-225q0 -24 10.5 -38t26.5 -14v-43zM203 30q43 0 73 9t49.5 30.5t28.5 57.5t10 91v11l-172 -17q-19 -2 -38 -4.5t-34.5 -11.5t-25 -26t-9.5 -48q0 -54 27.5 -73t90.5 -19zM222 533l-126 126h55l44 -43q11 -11 18 -20t12 -16
q5 -8 9 -15h2q4 7 9 15q5 7 12 16t18 20l45 43h54l-125 -126h-27z" />
    <glyph glyph-name="uni01CF" unicode="&#x1cf;" horiz-adv-x="219" 
d="M87 0v660h45v-660h-45zM98 733l-126 126h55l44 -43q11 -11 18 -20t12 -16q5 -8 9 -15h2q4 7 9 15q5 7 12 16t18 20l45 43h54l-125 -126h-27z" />
    <glyph glyph-name="uni01D0" unicode="&#x1d0;" horiz-adv-x="174" 
d="M65 0v460h45v-460h-45zM75 533l-126 126h55l44 -43q11 -11 18 -20t12 -16q5 -8 9 -15h2q4 7 9 15q5 7 12 16t18 20l45 43h54l-125 -126h-27z" />
    <glyph glyph-name="uni01D1" unicode="&#x1d1;" horiz-adv-x="646" 
d="M323 -10q-72 0 -123.5 17t-85.5 56.5t-50 105t-16 161.5t16 161.5t50 105t85.5 56.5t123.5 17t123.5 -17t85.5 -56.5t50 -105t16 -161.5t-16 -161.5t-50 -105t-85.5 -56.5t-123.5 -17zM323 30q60 0 103.5 15t71.5 50t41.5 92.5t13.5 142.5t-13.5 142.5t-41.5 92.5
t-71.5 50t-103.5 15t-103.5 -15t-71.5 -50t-41.5 -92.5t-13.5 -142.5t13.5 -142.5t41.5 -92.5t71.5 -50t103.5 -15zM310 733l-126 126h55l44 -43q11 -11 18 -20t12 -16q5 -8 9 -15h2q4 7 9 15q5 7 12 16t18 20l45 43h54l-125 -126h-27z" />
    <glyph glyph-name="uni01D2" unicode="&#x1d2;" horiz-adv-x="482" 
d="M241 -10q-51 0 -87.5 12t-60.5 40t-35.5 74t-11.5 114t11.5 114t35.5 74t60.5 40t87.5 12t87.5 -12t60.5 -40t35.5 -74t11.5 -114t-11.5 -114t-35.5 -74t-60.5 -40t-87.5 -12zM241 30q40 0 68.5 10t46.5 33t26.5 61.5t8.5 95.5t-8.5 95.5t-26.5 61.5t-46.5 33t-68.5 10
q-41 0 -69.5 -10t-46.5 -33t-26 -61.5t-8 -95.5t8 -95.5t26 -61.5t46.5 -33t69.5 -10zM228 533l-126 126h55l44 -43q11 -11 18 -20t12 -16q5 -8 9 -15h2q4 7 9 15q5 7 12 16t18 20l45 43h54l-125 -126h-27z" />
    <glyph glyph-name="uni01D3" unicode="&#x1d3;" horiz-adv-x="626" 
d="M513 660h45v-330q0 -96 -14.5 -161.5t-44.5 -105t-76 -56.5t-110 -17t-110 17t-76 56.5t-44.5 105t-14.5 161.5v330h45v-330q0 -85 11.5 -142.5t36 -92.5t62.5 -50t90 -15t90 15t62.5 50t36 92.5t11.5 142.5v330zM300 733l-126 126h55l44 -43q11 -11 18 -20t12 -16
q5 -8 9 -15h2q4 7 9 15q5 7 12 16t18 20l45 43h54l-125 -126h-27z" />
    <glyph glyph-name="uni01D4" unicode="&#x1d4;" horiz-adv-x="506" 
d="M394 0l-10 90v3q-17 -58 -54 -80.5t-100 -22.5q-48 0 -79.5 12.5t-49.5 41t-25 74.5t-7 112v230h45v-230q0 -56 4 -94.5t17 -62t37.5 -33.5t65.5 -10q38 0 65.5 9t45 31t26 58t9.5 90v242h45v-460h-35zM240 533l-126 126h55l44 -43q11 -11 18 -20t12 -16q5 -8 9 -15h2
q4 7 9 15q5 7 12 16t18 20l45 43h54l-125 -126h-27z" />
    <glyph glyph-name="uni01D5" unicode="&#x1d5;" horiz-adv-x="626" 
d="M513 660h45v-330q0 -96 -14.5 -161.5t-44.5 -105t-76 -56.5t-110 -17t-110 17t-76 56.5t-44.5 105t-14.5 161.5v330h45v-330q0 -85 11.5 -142.5t36 -92.5t62.5 -50t90 -15t90 15t62.5 50t36 92.5t11.5 142.5v330zM200 750v70h45v-70h-45zM380 750v70h45v-70h-45zM155 909
v40h315v-40h-315z" />
    <glyph glyph-name="uni01D6" unicode="&#x1d6;" horiz-adv-x="506" 
d="M394 0l-10 90v3q-17 -58 -54 -80.5t-100 -22.5q-48 0 -79.5 12.5t-49.5 41t-25 74.5t-7 112v230h45v-230q0 -56 4 -94.5t17 -62t37.5 -33.5t65.5 -10q38 0 65.5 9t45 31t26 58t9.5 90v242h45v-460h-35zM140 550v70h45v-70h-45zM320 550v70h45v-70h-45zM95 709v40h315v-40
h-315z" />
    <glyph glyph-name="uni01D7" unicode="&#x1d7;" horiz-adv-x="626" 
d="M513 660h45v-330q0 -96 -14.5 -161.5t-44.5 -105t-76 -56.5t-110 -17t-110 17t-76 56.5t-44.5 105t-14.5 161.5v330h45v-330q0 -85 11.5 -142.5t36 -92.5t62.5 -50t90 -15t90 15t62.5 50t36 92.5t11.5 142.5v330zM200 750v70h45v-70h-45zM380 750v70h45v-70h-45zM282 853
l71 126h71l-99 -126h-43z" />
    <glyph glyph-name="uni01D8" unicode="&#x1d8;" horiz-adv-x="506" 
d="M394 0l-10 90v3q-17 -58 -54 -80.5t-100 -22.5q-48 0 -79.5 12.5t-49.5 41t-25 74.5t-7 112v230h45v-230q0 -56 4 -94.5t17 -62t37.5 -33.5t65.5 -10q38 0 65.5 9t45 31t26 58t9.5 90v242h45v-460h-35zM140 550v70h45v-70h-45zM320 550v70h45v-70h-45zM222 653l71 126h71
l-99 -126h-43z" />
    <glyph glyph-name="uni01D9" unicode="&#x1d9;" horiz-adv-x="626" 
d="M513 660h45v-330q0 -96 -14.5 -161.5t-44.5 -105t-76 -56.5t-110 -17t-110 17t-76 56.5t-44.5 105t-14.5 161.5v330h45v-330q0 -85 11.5 -142.5t36 -92.5t62.5 -50t90 -15t90 15t62.5 50t36 92.5t11.5 142.5v330zM200 750v70h45v-70h-45zM380 750v70h45v-70h-45zM300 853
l-126 126h55l44 -43q11 -11 18 -20t12 -16q5 -8 9 -15h2q4 7 9 15q5 7 12 16t18 20l45 43h54l-125 -126h-27z" />
    <glyph glyph-name="uni01DA" unicode="&#x1da;" horiz-adv-x="506" 
d="M394 0l-10 90v3q-17 -58 -54 -80.5t-100 -22.5q-48 0 -79.5 12.5t-49.5 41t-25 74.5t-7 112v230h45v-230q0 -56 4 -94.5t17 -62t37.5 -33.5t65.5 -10q38 0 65.5 9t45 31t26 58t9.5 90v242h45v-460h-35zM140 550v70h45v-70h-45zM320 550v70h45v-70h-45zM240 653l-126 126
h55l44 -43q11 -11 18 -20t12 -16q5 -8 9 -15h2q4 7 9 15q5 7 12 16t18 20l45 43h54l-125 -126h-27z" />
    <glyph glyph-name="uni01DB" unicode="&#x1db;" horiz-adv-x="626" 
d="M513 660h45v-330q0 -96 -14.5 -161.5t-44.5 -105t-76 -56.5t-110 -17t-110 17t-76 56.5t-44.5 105t-14.5 161.5v330h45v-330q0 -85 11.5 -142.5t36 -92.5t62.5 -50t90 -15t90 15t62.5 50t36 92.5t11.5 142.5v330zM200 750v70h45v-70h-45zM380 750v70h45v-70h-45zM301 853
l-99 126h71l71 -126h-43z" />
    <glyph glyph-name="uni01DC" unicode="&#x1dc;" horiz-adv-x="506" 
d="M394 0l-10 90v3q-17 -58 -54 -80.5t-100 -22.5q-48 0 -79.5 12.5t-49.5 41t-25 74.5t-7 112v230h45v-230q0 -56 4 -94.5t17 -62t37.5 -33.5t65.5 -10q38 0 65.5 9t45 31t26 58t9.5 90v242h45v-460h-35zM140 550v70h45v-70h-45zM320 550v70h45v-70h-45zM241 653l-99 126
h71l71 -126h-43z" />
    <glyph glyph-name="uni01DD" unicode="&#x1dd;" horiz-adv-x="462" 
d="M53 342q0 35 14 59.5t38 39.5t56.5 22t69.5 7q48 0 83 -12t58 -40t34 -74t11 -115q0 -68 -11 -114t-34.5 -74t-60 -39.5t-86.5 -11.5q-92 0 -135.5 41t-43.5 142q0 20 1.5 40t6.5 37h318q-1 51 -9 85.5t-25.5 55.5t-45 30t-67.5 9q-27 0 -50.5 -4t-40.5 -14.5t-27 -27.5
t-10 -42h-44zM227 30q39 0 66.5 9t44.5 30t25 55.5t9 85.5h-279q-2 -10 -2 -20.5v-21.5q0 -76 31.5 -107t104.5 -31z" />
    <glyph glyph-name="uni01DE" unicode="&#x1de;" horiz-adv-x="611" 
d="M553 0l-62 152h-371l-62 -152h-48l275 660h43l273 -660h-48zM137 192h337l-115 281q-14 33 -23.5 60t-15.5 47q-7 23 -12 40h-4q-5 -18 -12 -40q-6 -19 -15.5 -46t-23.5 -60zM193 750v70h45v-70h-45zM373 750v70h45v-70h-45zM148 909v40h315v-40h-315z" />
    <glyph glyph-name="uni01DF" unicode="&#x1df;" horiz-adv-x="471" 
d="M446 -2q-26 0 -41.5 7.5t-24 20.5t-11.5 30.5t-3 36.5h-2q-17 -59 -55.5 -81t-103.5 -22q-33 0 -63 5.5t-52.5 20t-36 40t-13.5 66.5q0 46 15.5 71t40 37t54.5 15.5t58 6.5l156 15v51q0 62 -30.5 87t-103.5 25q-68 0 -95.5 -21t-27.5 -67h-44q0 68 39.5 98t127.5 30
q51 0 85.5 -10t55 -29.5t29.5 -47.5t9 -65v-225q0 -24 10.5 -38t26.5 -14v-43zM203 30q43 0 73 9t49.5 30.5t28.5 57.5t10 91v11l-172 -17q-19 -2 -38 -4.5t-34.5 -11.5t-25 -26t-9.5 -48q0 -54 27.5 -73t90.5 -19zM123 550v70h45v-70h-45zM303 550v70h45v-70h-45zM78 709
v40h315v-40h-315z" />
    <glyph glyph-name="uni01E0" unicode="&#x1e0;" horiz-adv-x="611" 
d="M553 0l-62 152h-371l-62 -152h-48l275 660h43l273 -660h-48zM137 192h337l-115 281q-14 33 -23.5 60t-15.5 47q-7 23 -12 40h-4q-5 -18 -12 -40q-6 -19 -15.5 -46t-23.5 -60zM283 750v70h45v-70h-45zM148 909v40h315v-40h-315z" />
    <glyph glyph-name="uni01E1" unicode="&#x1e1;" horiz-adv-x="471" 
d="M446 -2q-26 0 -41.5 7.5t-24 20.5t-11.5 30.5t-3 36.5h-2q-17 -59 -55.5 -81t-103.5 -22q-33 0 -63 5.5t-52.5 20t-36 40t-13.5 66.5q0 46 15.5 71t40 37t54.5 15.5t58 6.5l156 15v51q0 62 -30.5 87t-103.5 25q-68 0 -95.5 -21t-27.5 -67h-44q0 68 39.5 98t127.5 30
q51 0 85.5 -10t55 -29.5t29.5 -47.5t9 -65v-225q0 -24 10.5 -38t26.5 -14v-43zM203 30q43 0 73 9t49.5 30.5t28.5 57.5t10 91v11l-172 -17q-19 -2 -38 -4.5t-34.5 -11.5t-25 -26t-9.5 -48q0 -54 27.5 -73t90.5 -19zM213 550v70h45v-70h-45zM78 709v40h315v-40h-315z" />
    <glyph glyph-name="uni01E2" unicode="&#x1e2;" horiz-adv-x="800" 
d="M398 0v152h-278l-62 -152h-48l275 660h463v-40h-305v-268h265v-40h-265v-272h305v-40h-350zM137 192h261v428h-94q-5 -18 -12 -40q-6 -19 -15.5 -46t-23.5 -60zM266 789v40h315v-40h-315z" />
    <glyph glyph-name="uni01E3" unicode="&#x1e3;" horiz-adv-x="739" 
d="M688 118q0 -35 -13.5 -59.5t-36 -39.5t-52 -22t-62.5 -7q-36 0 -64 8.5t-47.5 29t-31 54.5t-15.5 84q-4 -52 -16 -86t-32.5 -54t-51 -28t-71.5 -8q-32 0 -60 5.5t-49 20t-33.5 40.5t-12.5 67q0 46 15 71.5t38 37.5t51 15.5t54 6.5l146 14v50q0 62 -28 87t-96 25
q-63 0 -88 -20.5t-25 -67.5h-44q0 66 36.5 97t114.5 31q43 0 73 -9.5t48 -28.5t26 -47t8 -65q6 43 18 71.5t32 46t47.5 25t63.5 7.5q85 0 125 -41.5t40 -141.5q0 -20 -1.5 -40t-6.5 -37h-298q1 -51 8.5 -85.5t23.5 -55.5t41.5 -30t62.5 -9q25 0 47 4t38 14.5t25 27t9 42.5
h44zM192 30q41 0 70 9t47 31.5t26.5 61t8.5 96.5l-146 -14q-23 -2 -43.5 -4t-36 -10.5t-24.5 -26t-9 -51.5q0 -54 25 -73t82 -19zM524 430q-37 0 -62 -9t-41 -30t-23.5 -55.5t-8.5 -85.5h260q1 5 1 10v10q0 46 -7 77t-22 49.5t-39 26t-58 7.5zM212 589v40h315v-40h-315z" />
    <glyph glyph-name="uni01E4" unicode="&#x1e4;" 
d="M523 0l-10 138v3q-28 -81 -86 -116t-139 -35q-72 0 -118.5 26t-73.5 71.5t-37.5 107.5t-10.5 134q0 94 15.5 159.5t47.5 105.5t80.5 58t115.5 18q46 0 89 -7t75.5 -25t52 -49t19.5 -79h-40q0 37 -16 60t-43 36.5t-62.5 18.5t-74.5 5q-60 0 -101 -15.5t-66 -51.5t-36 -94
t-11 -142q0 -72 8.5 -127.5t31 -93t60.5 -57t97 -19.5q69 0 119.5 27t78.5 87h-144v40h158q4 14 6.5 28.5t4.5 31.5v6h-192v40h237v-106h101v-40h-101v-144h-35z" />
    <glyph glyph-name="uni01E5" unicode="&#x1e5;" horiz-adv-x="487" 
d="M439 -128q-6 -54 -56 -85.5t-152 -31.5q-199 0 -199 130q0 45 21 77.5t53 64.5q-18 21 -18 51q0 36 26 58q-32 20 -50 57t-18 97q0 51 13 85.5t37 55.5t58.5 30t76.5 9q54 0 94.5 -15.5t63.5 -51.5q17 30 41.5 43.5t56.5 13.5v-40q-55 0 -84 -46q13 -37 13 -84
q0 -51 -13 -85.5t-37 -55.5t-58.5 -30t-76.5 -9q-23 0 -44 2.5t-39 8.5q-16 -16 -16 -43q0 -18 8 -28.5t21.5 -16.5t31.5 -8.5t38 -5.5q36 -5 70.5 -10.5t63 -17t48 -30t25.5 -49.5h101v-40h-100zM231 150q40 0 66.5 7t43 23.5t23.5 43t7 66.5t-7 66.5t-23.5 43t-43 23.5
t-66.5 7t-66.5 -7t-43 -23.5t-23.5 -43t-7 -66.5t7 -66.5t23.5 -43t43 -23.5t66.5 -7zM231 -21q-26 5 -50 10.5t-44 15.5q-10 -12 -21 -24t-20.5 -25.5t-15.5 -30t-6 -36.5q0 -49 37 -71.5t119 -22.5q68 0 111.5 16.5t51.5 60.5h-169v40h168q-6 19 -21 30t-36.5 18
t-48.5 10.5t-55 8.5z" />
    <glyph glyph-name="Gcaron" unicode="&#x1e6;" 
d="M523 0l-10 138v3q-28 -81 -86 -116t-139 -35q-72 0 -118.5 26t-73.5 71.5t-37.5 107.5t-10.5 134q0 94 15.5 159.5t47.5 105.5t80.5 58t115.5 18q46 0 89 -7t75.5 -25t52 -49t19.5 -79h-40q0 37 -16 60t-43 36.5t-62.5 18.5t-74.5 5q-60 0 -101 -15.5t-66 -51.5t-36 -94
t-11 -142q0 -72 8.5 -127.5t31 -93t60.5 -57t97 -19.5q93 0 152.5 50.5t70.5 163.5v6h-192v40h237v-290h-35zM299 733l-126 126h55l44 -43q11 -11 18 -20t12 -16q5 -8 9 -15h2q4 7 9 15q5 7 12 16t18 20l45 43h54l-125 -126h-27z" />
    <glyph glyph-name="gcaron" unicode="&#x1e7;" horiz-adv-x="487" 
d="M416 290q0 -51 -13 -85.5t-37 -55.5t-58.5 -30t-76.5 -9q-23 0 -44 2.5t-39 8.5q-16 -16 -16 -43q0 -18 8 -28.5t21.5 -16.5t31.5 -8.5t38 -5.5q39 -5 77 -11.5t67 -20t47 -37t18 -62.5q0 -62 -50 -97.5t-159 -35.5q-199 0 -199 130q0 45 21 77.5t53 64.5q-18 21 -18 51
q0 36 26 58q-32 20 -50 57t-18 97q0 51 13 85.5t37 55.5t58.5 30t76.5 9q54 0 94.5 -15.5t63.5 -51.5q17 30 41.5 43.5t56.5 13.5v-40q-55 0 -84 -46q13 -37 13 -84zM231 150q40 0 66.5 7t43 23.5t23.5 43t7 66.5t-7 66.5t-23.5 43t-43 23.5t-66.5 7t-66.5 -7t-43 -23.5
t-23.5 -43t-7 -66.5t7 -66.5t23.5 -43t43 -23.5t66.5 -7zM231 -21q-26 5 -50 10.5t-44 15.5q-10 -12 -21 -24t-20.5 -25.5t-15.5 -30t-6 -36.5q0 -49 37 -71.5t119 -22.5q37 0 67.5 4.5t52 15.5t33.5 29t12 45t-13.5 42.5t-36 24.5t-52.5 13.5t-62 9.5zM230 533l-126 126h55
l44 -43q11 -11 18 -20t12 -16q5 -8 9 -15h2q4 7 9 15q5 7 12 16t18 20l45 43h54l-125 -126h-27z" />
    <glyph glyph-name="uni01E8" unicode="&#x1e8;" horiz-adv-x="576" 
d="M87 0v660h45v-308h172l199 308h53l-210 -326l215 -334h-53l-201 312h-175v-312h-45zM275 733l-126 126h55l44 -43q11 -11 18 -20t12 -16q5 -8 9 -15h2q4 7 9 15q5 7 12 16t18 20l45 43h54l-125 -126h-27z" />
    <glyph glyph-name="uni01E9" unicode="&#x1e9;" horiz-adv-x="449" 
d="M77 0v690l45 10v-450h111l136 210h53l-146 -226l151 -234h-53l-136 210h-116v-210h-45zM242 733l-126 126h55l44 -43q11 -11 18 -20t12 -16q5 -8 9 -15h2q4 7 9 15q5 7 12 16t18 20l45 43h54l-125 -126h-27z" />
    <glyph glyph-name="uni01EA" unicode="&#x1ea;" horiz-adv-x="646" 
d="M467 -165q-16 -14 -40.5 -20t-42.5 -6q-45 0 -69 23t-24 62q0 33 13 56.5t33 39.5h-14q-72 0 -123.5 17t-85.5 56.5t-50 105t-16 161.5t16 161.5t50 105t85.5 56.5t123.5 17t123.5 -17t85.5 -56.5t50 -105t16 -161.5q0 -78 -10.5 -135.5t-32 -97t-55 -63.5t-78.5 -34
q-34 -11 -61 -34.5t-27 -65.5q0 -24 14 -39t46 -15q14 0 36 6t37 20v-37zM323 30q60 0 103.5 15t71.5 50t41.5 92.5t13.5 142.5t-13.5 142.5t-41.5 92.5t-71.5 50t-103.5 15t-103.5 -15t-71.5 -50t-41.5 -92.5t-13.5 -142.5t13.5 -142.5t41.5 -92.5t71.5 -50t103.5 -15z" />
    <glyph glyph-name="uni01EB" unicode="&#x1eb;" horiz-adv-x="482" 
d="M367 -165q-16 -14 -40.5 -20t-42.5 -6q-45 0 -69 23t-24 62q0 33 13 56.5t33 39.5q-50 0 -86 12.5t-59 40t-34.5 73.5t-11.5 114t11.5 114t35.5 74t60.5 40t87.5 12t87.5 -12t60.5 -40t35.5 -74t11.5 -114q0 -108 -29 -161.5t-90 -69.5q-32 -11 -57.5 -34.5t-25.5 -64.5
q0 -24 14 -39t46 -15q14 0 36 6t37 20v-37zM241 30q40 0 68.5 10t46.5 33t26.5 61.5t8.5 95.5t-8.5 95.5t-26.5 61.5t-46.5 33t-68.5 10q-41 0 -69.5 -10t-46.5 -33t-26 -61.5t-8 -95.5t8 -95.5t26 -61.5t46.5 -33t69.5 -10z" />
    <glyph glyph-name="uni01EC" unicode="&#x1ec;" horiz-adv-x="646" 
d="M467 -165q-16 -14 -40.5 -20t-42.5 -6q-45 0 -69 23t-24 62q0 33 13 56.5t33 39.5h-14q-72 0 -123.5 17t-85.5 56.5t-50 105t-16 161.5t16 161.5t50 105t85.5 56.5t123.5 17t123.5 -17t85.5 -56.5t50 -105t16 -161.5q0 -78 -10.5 -135.5t-32 -97t-55 -63.5t-78.5 -34
q-34 -11 -61 -34.5t-27 -65.5q0 -24 14 -39t46 -15q14 0 36 6t37 20v-37zM323 30q60 0 103.5 15t71.5 50t41.5 92.5t13.5 142.5t-13.5 142.5t-41.5 92.5t-71.5 50t-103.5 15t-103.5 -15t-71.5 -50t-41.5 -92.5t-13.5 -142.5t13.5 -142.5t41.5 -92.5t71.5 -50t103.5 -15z
M165 789v40h315v-40h-315z" />
    <glyph glyph-name="uni01ED" unicode="&#x1ed;" horiz-adv-x="482" 
d="M367 -165q-16 -14 -40.5 -20t-42.5 -6q-45 0 -69 23t-24 62q0 33 13 56.5t33 39.5q-50 0 -86 12.5t-59 40t-34.5 73.5t-11.5 114t11.5 114t35.5 74t60.5 40t87.5 12t87.5 -12t60.5 -40t35.5 -74t11.5 -114q0 -108 -29 -161.5t-90 -69.5q-32 -11 -57.5 -34.5t-25.5 -64.5
q0 -24 14 -39t46 -15q14 0 36 6t37 20v-37zM241 30q40 0 68.5 10t46.5 33t26.5 61.5t8.5 95.5t-8.5 95.5t-26.5 61.5t-46.5 33t-68.5 10q-41 0 -69.5 -10t-46.5 -33t-26 -61.5t-8 -95.5t8 -95.5t26 -61.5t46.5 -33t69.5 -10zM83 589v40h315v-40h-315z" />
    <glyph glyph-name="uni01F0" unicode="&#x1f0;" horiz-adv-x="174" 
d="M110 -116q0 -24 -4 -46.5t-13 -39.5t-25 -27t-40 -10v43q16 0 26.5 17.5t10.5 62.5v576h45v-576zM75 533l-126 126h55l44 -43q11 -11 18 -20t12 -16q5 -8 9 -15h2q4 7 9 15q5 7 12 16t18 20l45 43h54l-125 -126h-27z" />
    <glyph glyph-name="uni01F1" unicode="&#x1f1;" horiz-adv-x="1117" 
d="M262 40q70 0 121 14.5t84 48.5t49 89.5t16 137.5t-16 137.5t-49 89.5t-84 48.5t-121 14.5h-130v-580h130zM87 0v660h175q82 0 141.5 -16.5t98 -55t57 -102t18.5 -156.5t-18.5 -156.5t-57 -102t-98 -55t-141.5 -16.5h-175zM653 0v40l388 580h-388v40h440v-40l-388 -580
h388v-40h-440z" />
    <glyph glyph-name="uni01F2" unicode="&#x1f2;" horiz-adv-x="1023" 
d="M262 40q70 0 121 14.5t84 48.5t49 89.5t16 137.5t-16 137.5t-49 89.5t-84 48.5t-121 14.5h-130v-580h130zM87 0v660h175q82 0 141.5 -16.5t98 -55t57 -102t18.5 -156.5t-18.5 -156.5t-57 -102t-98 -55t-141.5 -16.5h-175zM649 0v40l295 380h-295v40h350v-40l-295 -380
h295v-40h-350z" />
    <glyph glyph-name="uni01F3" unicode="&#x1f3;" horiz-adv-x="900" 
d="M230 -10q-47 0 -82 12.5t-57.5 41t-33.5 74t-11 112.5t11 112.5t33.5 74t57.5 41t82 12.5q60 0 97 -22.5t54 -79.5h2q-1 17 -1.5 36t-0.5 36v250l45 10v-700h-35l-10 90v1q-17 -57 -54 -79t-97 -22zM236 30q38 0 65 9.5t44.5 31.5t26 58t9.5 90v11q0 57 -8 95.5
t-25.5 61.5t-45 33t-66.5 10t-66.5 -10t-45 -33t-25.5 -61.5t-8 -95.5t8 -95.5t25.5 -61.5t45 -33t66.5 -10zM526 0v40l295 380h-295v40h350v-40l-295 -380h295v-40h-350z" />
    <glyph glyph-name="uni01F4" unicode="&#x1f4;" 
d="M523 0l-10 138v3q-28 -81 -86 -116t-139 -35q-72 0 -118.5 26t-73.5 71.5t-37.5 107.5t-10.5 134q0 94 15.5 159.5t47.5 105.5t80.5 58t115.5 18q46 0 89 -7t75.5 -25t52 -49t19.5 -79h-40q0 37 -16 60t-43 36.5t-62.5 18.5t-74.5 5q-60 0 -101 -15.5t-66 -51.5t-36 -94
t-11 -142q0 -72 8.5 -127.5t31 -93t60.5 -57t97 -19.5q93 0 152.5 50.5t70.5 163.5v6h-192v40h237v-290h-35zM271 733l71 126h71l-99 -126h-43z" />
    <glyph glyph-name="uni01F5" unicode="&#x1f5;" horiz-adv-x="487" 
d="M416 290q0 -51 -13 -85.5t-37 -55.5t-58.5 -30t-76.5 -9q-23 0 -44 2.5t-39 8.5q-16 -16 -16 -43q0 -18 8 -28.5t21.5 -16.5t31.5 -8.5t38 -5.5q39 -5 77 -11.5t67 -20t47 -37t18 -62.5q0 -62 -50 -97.5t-159 -35.5q-199 0 -199 130q0 45 21 77.5t53 64.5q-18 21 -18 51
q0 36 26 58q-32 20 -50 57t-18 97q0 51 13 85.5t37 55.5t58.5 30t76.5 9q54 0 94.5 -15.5t63.5 -51.5q17 30 41.5 43.5t56.5 13.5v-40q-55 0 -84 -46q13 -37 13 -84zM231 150q40 0 66.5 7t43 23.5t23.5 43t7 66.5t-7 66.5t-23.5 43t-43 23.5t-66.5 7t-66.5 -7t-43 -23.5
t-23.5 -43t-7 -66.5t7 -66.5t23.5 -43t43 -23.5t66.5 -7zM231 -21q-26 5 -50 10.5t-44 15.5q-10 -12 -21 -24t-20.5 -25.5t-15.5 -30t-6 -36.5q0 -49 37 -71.5t119 -22.5q37 0 67.5 4.5t52 15.5t33.5 29t12 45t-13.5 42.5t-36 24.5t-52.5 13.5t-62 9.5zM202 533l71 126h71
l-99 -126h-43z" />
    <glyph glyph-name="uni01F8" unicode="&#x1f8;" horiz-adv-x="659" 
d="M527 660h45v-660h-47l-327 487q-14 20 -26 39.5t-21 35.5q-11 18 -20 34h-3q1 -17 2 -37q1 -17 1.5 -39.5t0.5 -47.5v-472h-45v660h47l327 -490q14 -20 26 -40l21 -35q11 -18 20 -34h3q-1 17 -2 37q-1 17 -1.5 39.5t-0.5 47.5v475zM327 733l-99 126h71l71 -126h-43z" />
    <glyph glyph-name="uni01F9" unicode="&#x1f9;" horiz-adv-x="510" 
d="M77 0v460h35l10 -90v-2q17 58 55 80t103 22q47 0 77.5 -10.5t48 -34.5t24.5 -62t7 -93v-270h-45v270q0 44 -4 74.5t-16.5 49.5t-36.5 27.5t-63 8.5q-41 0 -69.5 -9.5t-46.5 -32.5t-26 -61.5t-8 -96.5v-230h-45zM253 533l-99 126h71l71 -126h-43z" />
    <glyph glyph-name="Aringacute" unicode="&#x1fa;" horiz-adv-x="611" 
d="M553 0l-62 152h-371l-62 -152h-48l275 660h43l273 -660h-48zM137 192h337l-115 281q-14 33 -23.5 60t-15.5 47q-7 23 -12 40h-4q-5 -18 -12 -40q-6 -19 -15.5 -46t-23.5 -60zM305 723q-45 0 -68.5 26t-23.5 64q0 35 25 61t67 26t67 -26t25 -61q0 -38 -23.5 -64t-68.5 -26
zM305 864q-25 0 -38 -14.5t-13 -37.5q0 -20 12.5 -35.5t38.5 -15.5t38.5 15.5t12.5 35.5q0 23 -13.5 37.5t-37.5 14.5zM274 953l71 126h71l-99 -126h-43z" />
    <glyph glyph-name="aringacute" unicode="&#x1fb;" horiz-adv-x="471" 
d="M446 -2q-26 0 -41.5 7.5t-24 20.5t-11.5 30.5t-3 36.5h-2q-17 -59 -55.5 -81t-103.5 -22q-33 0 -63 5.5t-52.5 20t-36 40t-13.5 66.5q0 46 15.5 71t40 37t54.5 15.5t58 6.5l156 15v51q0 62 -30.5 87t-103.5 25q-68 0 -95.5 -21t-27.5 -67h-44q0 68 39.5 98t127.5 30
q51 0 85.5 -10t55 -29.5t29.5 -47.5t9 -65v-225q0 -24 10.5 -38t26.5 -14v-43zM203 30q43 0 73 9t49.5 30.5t28.5 57.5t10 91v11l-172 -17q-19 -2 -38 -4.5t-34.5 -11.5t-25 -26t-9.5 -48q0 -54 27.5 -73t90.5 -19zM235 523q-45 0 -68.5 26t-23.5 64q0 35 25 61t67 26
t67 -26t25 -61q0 -38 -23.5 -64t-68.5 -26zM235 664q-25 0 -38 -14.5t-13 -37.5q0 -20 12.5 -35.5t38.5 -15.5t38.5 15.5t12.5 35.5q0 23 -13.5 37.5t-37.5 14.5zM194 753l71 126h71l-99 -126h-43z" />
    <glyph glyph-name="AEacute" unicode="&#x1fc;" horiz-adv-x="800" 
d="M398 0v152h-278l-62 -152h-48l275 660h463v-40h-305v-268h265v-40h-265v-272h305v-40h-350zM137 192h261v428h-94q-5 -18 -12 -40q-6 -19 -15.5 -46t-23.5 -60zM405 733l71 126h71l-99 -126h-43z" />
    <glyph glyph-name="aeacute" unicode="&#x1fd;" horiz-adv-x="739" 
d="M688 118q0 -35 -13.5 -59.5t-36 -39.5t-52 -22t-62.5 -7q-36 0 -64 8.5t-47.5 29t-31 54.5t-15.5 84q-4 -52 -16 -86t-32.5 -54t-51 -28t-71.5 -8q-32 0 -60 5.5t-49 20t-33.5 40.5t-12.5 67q0 46 15 71.5t38 37.5t51 15.5t54 6.5l146 14v50q0 62 -28 87t-96 25
q-63 0 -88 -20.5t-25 -67.5h-44q0 66 36.5 97t114.5 31q43 0 73 -9.5t48 -28.5t26 -47t8 -65q6 43 18 71.5t32 46t47.5 25t63.5 7.5q85 0 125 -41.5t40 -141.5q0 -20 -1.5 -40t-6.5 -37h-298q1 -51 8.5 -85.5t23.5 -55.5t41.5 -30t62.5 -9q25 0 47 4t38 14.5t25 27t9 42.5
h44zM192 30q41 0 70 9t47 31.5t26.5 61t8.5 96.5l-146 -14q-23 -2 -43.5 -4t-36 -10.5t-24.5 -26t-9 -51.5q0 -54 25 -73t82 -19zM524 430q-37 0 -62 -9t-41 -30t-23.5 -55.5t-8.5 -85.5h260q1 5 1 10v10q0 46 -7 77t-22 49.5t-39 26t-58 7.5zM338 533l71 126h71l-99 -126
h-43z" />
    <glyph glyph-name="Oslashacute" unicode="&#x1fe;" horiz-adv-x="646" 
d="M34 13l62 74q-48 79 -48 243q0 96 16 161.5t50 105t85.5 56.5t123.5 17q69 0 119.5 -16t84.5 -53l53 63l33 -27l-60 -72q23 -40 34 -97.5t11 -137.5q0 -96 -16 -161.5t-50 -105t-85.5 -56.5t-123.5 -17q-67 0 -116.5 14.5t-83.5 48.5l-56 -67zM93 330q0 -136 35 -205
l369 440q-28 35 -71 50t-103 15t-103.5 -15t-71.5 -50t-41.5 -92.5t-13.5 -142.5zM323 30q60 0 103.5 15t71.5 50t41.5 92.5t13.5 142.5q0 66 -8 114t-24 83l-368 -438q28 -32 70 -45.5t100 -13.5zM292 733l71 126h71l-99 -126h-43z" />
    <glyph glyph-name="oslashacute" unicode="&#x1ff;" horiz-adv-x="482" 
d="M210 533l71 126h71l-99 -126h-43zM16 -10l61 73q-31 56 -31 167q0 68 11.5 114t35.5 74t60.5 40t87.5 12q47 0 82 -10.5t59 -33.5l52 62l33 -28l-59 -71q28 -55 28 -159q0 -68 -11.5 -114t-35.5 -74t-60.5 -40t-87.5 -12q-45 0 -78.5 9t-57.5 30l-56 -67zM91 230
q0 -83 18 -129l244 290q-18 21 -46 30t-66 9q-41 0 -69.5 -10t-46.5 -33t-26 -61.5t-8 -95.5zM241 30q40 0 68.5 10t46.5 33t26.5 61.5t8.5 95.5q0 77 -16 121l-241 -288q18 -18 44.5 -25.5t62.5 -7.5z" />
    <glyph glyph-name="uni0200" unicode="&#x200;" horiz-adv-x="611" 
d="M553 0l-62 152h-371l-62 -152h-48l275 660h43l273 -660h-48zM137 192h337l-115 281q-14 33 -23.5 60t-15.5 47q-7 23 -12 40h-4q-5 -18 -12 -40q-6 -19 -15.5 -46t-23.5 -60zM367 733l-94 126h67l66 -126h-39zM244 733l-99 126h67l71 -126h-39z" />
    <glyph glyph-name="uni0201" unicode="&#x201;" horiz-adv-x="471" 
d="M446 -2q-26 0 -41.5 7.5t-24 20.5t-11.5 30.5t-3 36.5h-2q-17 -59 -55.5 -81t-103.5 -22q-33 0 -63 5.5t-52.5 20t-36 40t-13.5 66.5q0 46 15.5 71t40 37t54.5 15.5t58 6.5l156 15v51q0 62 -30.5 87t-103.5 25q-68 0 -95.5 -21t-27.5 -67h-44q0 68 39.5 98t127.5 30
q51 0 85.5 -10t55 -29.5t29.5 -47.5t9 -65v-225q0 -24 10.5 -38t26.5 -14v-43zM203 30q43 0 73 9t49.5 30.5t28.5 57.5t10 91v11l-172 -17q-19 -2 -38 -4.5t-34.5 -11.5t-25 -26t-9.5 -48q0 -54 27.5 -73t90.5 -19zM297 533l-94 126h67l66 -126h-39zM174 533l-99 126h67
l71 -126h-39z" />
    <glyph glyph-name="uni0202" unicode="&#x202;" horiz-adv-x="611" 
d="M553 0l-62 152h-371l-62 -152h-48l275 660h43l273 -660h-48zM137 192h337l-115 281q-14 33 -23.5 60t-15.5 47q-7 23 -12 40h-4q-5 -18 -12 -40q-6 -19 -15.5 -46t-23.5 -60zM305 788q-85 0 -85 -48h-41q0 46 32 67t94 21t94 -21t32 -67h-41q0 48 -85 48z" />
    <glyph glyph-name="uni0203" unicode="&#x203;" horiz-adv-x="471" 
d="M446 -2q-26 0 -41.5 7.5t-24 20.5t-11.5 30.5t-3 36.5h-2q-17 -59 -55.5 -81t-103.5 -22q-33 0 -63 5.5t-52.5 20t-36 40t-13.5 66.5q0 46 15.5 71t40 37t54.5 15.5t58 6.5l156 15v51q0 62 -30.5 87t-103.5 25q-68 0 -95.5 -21t-27.5 -67h-44q0 68 39.5 98t127.5 30
q51 0 85.5 -10t55 -29.5t29.5 -47.5t9 -65v-225q0 -24 10.5 -38t26.5 -14v-43zM203 30q43 0 73 9t49.5 30.5t28.5 57.5t10 91v11l-172 -17q-19 -2 -38 -4.5t-34.5 -11.5t-25 -26t-9.5 -48q0 -54 27.5 -73t90.5 -19zM235 588q-85 0 -85 -48h-41q0 46 32 67t94 21t94 -21
t32 -67h-41q0 48 -85 48z" />
    <glyph glyph-name="uni0204" unicode="&#x204;" horiz-adv-x="539" 
d="M87 0v660h400v-40h-355v-268h315v-40h-315v-272h355v-40h-400zM351 733l-94 126h67l66 -126h-39zM228 733l-99 126h67l71 -126h-39z" />
    <glyph glyph-name="uni0205" unicode="&#x205;" horiz-adv-x="462" 
d="M410 118q0 -35 -14 -59.5t-38 -39.5t-56.5 -22t-69.5 -7q-48 0 -83 12t-58 40t-34 74t-11 115q0 68 11 114t34.5 73.5t60 39.5t86.5 12q92 0 135.5 -41t43.5 -142q0 -20 -1.5 -40t-6.5 -37h-318q1 -51 9 -85.5t25.5 -55.5t45 -30t67.5 -9q27 0 50.5 4t40.5 14.5t27 27
t10 42.5h44zM236 430q-39 0 -66.5 -9t-44.5 -30t-25 -55.5t-9 -85.5h279q1 10 1.5 20t0.5 22q0 76 -31.5 107t-104.5 31zM312 533l-94 126h67l66 -126h-39zM189 533l-99 126h67l71 -126h-39z" />
    <glyph glyph-name="uni0206" unicode="&#x206;" horiz-adv-x="539" 
d="M87 0v660h400v-40h-355v-268h315v-40h-315v-272h355v-40h-400zM269 788q-85 0 -85 -48h-41q0 46 32 67t94 21t94 -21t32 -67h-41q0 48 -85 48z" />
    <glyph glyph-name="uni0207" unicode="&#x207;" horiz-adv-x="462" 
d="M410 118q0 -35 -14 -59.5t-38 -39.5t-56.5 -22t-69.5 -7q-48 0 -83 12t-58 40t-34 74t-11 115q0 68 11 114t34.5 73.5t60 39.5t86.5 12q92 0 135.5 -41t43.5 -142q0 -20 -1.5 -40t-6.5 -37h-318q1 -51 9 -85.5t25.5 -55.5t45 -30t67.5 -9q27 0 50.5 4t40.5 14.5t27 27
t10 42.5h44zM236 430q-39 0 -66.5 -9t-44.5 -30t-25 -55.5t-9 -85.5h279q1 10 1.5 20t0.5 22q0 76 -31.5 107t-104.5 31zM231 588q-85 0 -85 -48h-41q0 46 32 67t94 21t94 -21t32 -67h-41q0 48 -85 48z" />
    <glyph glyph-name="uni0208" unicode="&#x208;" horiz-adv-x="219" 
d="M87 0v660h45v-660h-45zM172 733l-94 126h67l66 -126h-39zM49 733l-99 126h67l71 -126h-39z" />
    <glyph glyph-name="uni0209" unicode="&#x209;" horiz-adv-x="174" 
d="M65 0v460h45v-460h-45zM150 533l-94 126h67l66 -126h-39zM27 533l-99 126h67l71 -126h-39z" />
    <glyph glyph-name="uni020A" unicode="&#x20a;" horiz-adv-x="219" 
d="M87 0v660h45v-660h-45zM111 788q-85 0 -85 -48h-41q0 46 32 67t94 21t94 -21t32 -67h-41q0 48 -85 48z" />
    <glyph glyph-name="uni020B" unicode="&#x20b;" horiz-adv-x="174" 
d="M65 0v460h45v-460h-45zM88 588q-85 0 -85 -48h-41q0 46 32 67t94 21t94 -21t32 -67h-41q0 48 -85 48z" />
    <glyph glyph-name="uni020C" unicode="&#x20c;" horiz-adv-x="646" 
d="M323 -10q-72 0 -123.5 17t-85.5 56.5t-50 105t-16 161.5t16 161.5t50 105t85.5 56.5t123.5 17t123.5 -17t85.5 -56.5t50 -105t16 -161.5t-16 -161.5t-50 -105t-85.5 -56.5t-123.5 -17zM323 30q60 0 103.5 15t71.5 50t41.5 92.5t13.5 142.5t-13.5 142.5t-41.5 92.5
t-71.5 50t-103.5 15t-103.5 -15t-71.5 -50t-41.5 -92.5t-13.5 -142.5t13.5 -142.5t41.5 -92.5t71.5 -50t103.5 -15zM384 733l-94 126h67l66 -126h-39zM261 733l-99 126h67l71 -126h-39z" />
    <glyph glyph-name="uni020D" unicode="&#x20d;" horiz-adv-x="482" 
d="M241 -10q-51 0 -87.5 12t-60.5 40t-35.5 74t-11.5 114t11.5 114t35.5 74t60.5 40t87.5 12t87.5 -12t60.5 -40t35.5 -74t11.5 -114t-11.5 -114t-35.5 -74t-60.5 -40t-87.5 -12zM241 30q40 0 68.5 10t46.5 33t26.5 61.5t8.5 95.5t-8.5 95.5t-26.5 61.5t-46.5 33t-68.5 10
q-41 0 -69.5 -10t-46.5 -33t-26 -61.5t-8 -95.5t8 -95.5t26 -61.5t46.5 -33t69.5 -10zM302 533l-94 126h67l66 -126h-39zM179 533l-99 126h67l71 -126h-39z" />
    <glyph glyph-name="uni020E" unicode="&#x20e;" horiz-adv-x="646" 
d="M323 -10q-72 0 -123.5 17t-85.5 56.5t-50 105t-16 161.5t16 161.5t50 105t85.5 56.5t123.5 17t123.5 -17t85.5 -56.5t50 -105t16 -161.5t-16 -161.5t-50 -105t-85.5 -56.5t-123.5 -17zM323 30q60 0 103.5 15t71.5 50t41.5 92.5t13.5 142.5t-13.5 142.5t-41.5 92.5
t-71.5 50t-103.5 15t-103.5 -15t-71.5 -50t-41.5 -92.5t-13.5 -142.5t13.5 -142.5t41.5 -92.5t71.5 -50t103.5 -15zM323 788q-85 0 -85 -48h-41q0 46 32 67t94 21t94 -21t32 -67h-41q0 48 -85 48z" />
    <glyph glyph-name="uni020F" unicode="&#x20f;" horiz-adv-x="482" 
d="M241 -10q-51 0 -87.5 12t-60.5 40t-35.5 74t-11.5 114t11.5 114t35.5 74t60.5 40t87.5 12t87.5 -12t60.5 -40t35.5 -74t11.5 -114t-11.5 -114t-35.5 -74t-60.5 -40t-87.5 -12zM241 30q40 0 68.5 10t46.5 33t26.5 61.5t8.5 95.5t-8.5 95.5t-26.5 61.5t-46.5 33t-68.5 10
q-41 0 -69.5 -10t-46.5 -33t-26 -61.5t-8 -95.5t8 -95.5t26 -61.5t46.5 -33t69.5 -10zM241 588q-85 0 -85 -48h-41q0 46 32 67t94 21t94 -21t32 -67h-41q0 48 -85 48z" />
    <glyph glyph-name="uni0210" unicode="&#x210;" horiz-adv-x="583" 
d="M495 0l-148 231q-8 -1 -16.5 -1h-17.5h-181v-230h-45v660h226q58 0 100 -10.5t69.5 -35.5t41 -65t13.5 -99q0 -99 -34.5 -149t-107.5 -64l152 -237h-52zM307 270q49 0 84.5 9t57.5 30t32.5 55.5t10.5 85.5q0 48 -10.5 80.5t-32.5 52.5t-57.5 28.5t-84.5 8.5h-175v-350
h175zM353 733l-94 126h67l66 -126h-39zM230 733l-99 126h67l71 -126h-39z" />
    <glyph glyph-name="uni0211" unicode="&#x211;" horiz-adv-x="288" 
d="M77 0v460h35l10 -90v-7q17 54 52 75.5t94 21.5v-40q-38 0 -65.5 -9t-45 -30t-26 -55.5t-9.5 -85.5v-240h-45zM237 533l-94 126h67l66 -126h-39zM114 533l-99 126h67l71 -126h-39z" />
    <glyph glyph-name="uni0212" unicode="&#x212;" horiz-adv-x="583" 
d="M495 0l-148 231q-8 -1 -16.5 -1h-17.5h-181v-230h-45v660h226q58 0 100 -10.5t69.5 -35.5t41 -65t13.5 -99q0 -99 -34.5 -149t-107.5 -64l152 -237h-52zM307 270q49 0 84.5 9t57.5 30t32.5 55.5t10.5 85.5q0 48 -10.5 80.5t-32.5 52.5t-57.5 28.5t-84.5 8.5h-175v-350
h175zM291 788q-85 0 -85 -48h-41q0 46 32 67t94 21t94 -21t32 -67h-41q0 48 -85 48z" />
    <glyph glyph-name="uni0213" unicode="&#x213;" horiz-adv-x="288" 
d="M77 0v460h35l10 -90v-7q17 54 52 75.5t94 21.5v-40q-38 0 -65.5 -9t-45 -30t-26 -55.5t-9.5 -85.5v-240h-45zM145 588q-85 0 -85 -48h-41q0 46 32 67t94 21t94 -21t32 -67h-41q0 48 -85 48z" />
    <glyph glyph-name="uni0214" unicode="&#x214;" horiz-adv-x="626" 
d="M513 660h45v-330q0 -96 -14.5 -161.5t-44.5 -105t-76 -56.5t-110 -17t-110 17t-76 56.5t-44.5 105t-14.5 161.5v330h45v-330q0 -85 11.5 -142.5t36 -92.5t62.5 -50t90 -15t90 15t62.5 50t36 92.5t11.5 142.5v330zM374 733l-94 126h67l66 -126h-39zM251 733l-99 126h67
l71 -126h-39z" />
    <glyph glyph-name="uni0215" unicode="&#x215;" horiz-adv-x="506" 
d="M394 0l-10 90v3q-17 -58 -54 -80.5t-100 -22.5q-48 0 -79.5 12.5t-49.5 41t-25 74.5t-7 112v230h45v-230q0 -56 4 -94.5t17 -62t37.5 -33.5t65.5 -10q38 0 65.5 9t45 31t26 58t9.5 90v242h45v-460h-35zM314 533l-94 126h67l66 -126h-39zM191 533l-99 126h67l71 -126h-39z
" />
    <glyph glyph-name="uni0216" unicode="&#x216;" horiz-adv-x="626" 
d="M513 660h45v-330q0 -96 -14.5 -161.5t-44.5 -105t-76 -56.5t-110 -17t-110 17t-76 56.5t-44.5 105t-14.5 161.5v330h45v-330q0 -85 11.5 -142.5t36 -92.5t62.5 -50t90 -15t90 15t62.5 50t36 92.5t11.5 142.5v330zM313 788q-85 0 -85 -48h-41q0 46 32 67t94 21t94 -21
t32 -67h-41q0 48 -85 48z" />
    <glyph glyph-name="uni0217" unicode="&#x217;" horiz-adv-x="506" 
d="M394 0l-10 90v3q-17 -58 -54 -80.5t-100 -22.5q-48 0 -79.5 12.5t-49.5 41t-25 74.5t-7 112v230h45v-230q0 -56 4 -94.5t17 -62t37.5 -33.5t65.5 -10q38 0 65.5 9t45 31t26 58t9.5 90v242h45v-460h-35zM253 588q-85 0 -85 -48h-41q0 46 32 67t94 21t94 -21t32 -67h-41
q0 48 -85 48z" />
    <glyph glyph-name="Scommaaccent" unicode="&#x218;" horiz-adv-x="566" 
d="M462 510q0 65 -48.5 92.5t-130.5 27.5q-42 0 -77 -7t-60.5 -24t-39.5 -45t-14 -70q0 -41 15.5 -64.5t41.5 -37t59.5 -19.5t68.5 -11q47 -6 90.5 -16t77.5 -28.5t54 -50t20 -80.5q0 -97 -65 -142t-185 -45q-112 0 -173 39t-61 121h44q0 -63 51 -91.5t141 -28.5q43 0 80 7
t64.5 23.5t43 44.5t15.5 70q0 39 -16 63t-43.5 38t-63 20.5t-74.5 11.5q-45 6 -87 16t-73.5 29.5t-50.5 50.5t-19 78q0 88 56.5 138t180.5 50q49 0 90 -8.5t70.5 -27.5t45.5 -49.5t16 -74.5h-44zM251 -211q16 0 26.5 11t10.5 40h-40v70h75v-70q0 -37 -15 -63.5t-57 -26.5v39
z" />
    <glyph glyph-name="scommaaccent" unicode="&#x219;" horiz-adv-x="426" 
d="M339 342q0 46 -30.5 67t-97.5 21q-61 0 -95.5 -19.5t-34.5 -73.5q0 -26 11.5 -42t29.5 -25t41 -13t47 -7q35 -5 67.5 -12t57 -21.5t39 -37t14.5 -56.5q0 -65 -42 -99t-138 -34q-88 0 -132 30.5t-44 97.5h41q0 -46 33 -67t102 -21q64 0 100 19.5t36 73.5q0 26 -12 42
t-31 25t-43 13t-48 7q-33 4 -64.5 11.5t-55.5 21.5t-38.5 37t-14.5 58q0 64 41 98t134 34q86 0 128.5 -30.5t42.5 -97.5h-44zM180 -211q16 0 26.5 11t10.5 40h-40v70h75v-70q0 -37 -15 -63.5t-57 -26.5v39z" />
    <glyph glyph-name="uni021A" unicode="&#x21a;" horiz-adv-x="543" 
d="M249 0v620h-235v40h515v-40h-235v-620h-45zM237 -211q16 0 26.5 11t10.5 40h-40v70h75v-70q0 -37 -15 -63.5t-57 -26.5v39z" />
    <glyph glyph-name="uni021B" unicode="&#x21b;" horiz-adv-x="296" 
d="M258 0q-44 0 -78.5 9t-58 30t-36 55.5t-12.5 85.5v240h-61v40h61v110l45 10v-120h161v-40h-161v-240q0 -40 9.5 -66.5t27.5 -43t44 -23.5t59 -7v-40zM115 -211q16 0 26.5 11t10.5 40h-40v70h75v-70q0 -37 -15 -63.5t-57 -26.5v39z" />
    <glyph glyph-name="uni021C" unicode="&#x21c;" horiz-adv-x="562" 
d="M270 352q36 0 69 5.5t59 20t41.5 40t15.5 66.5q0 42 -14 70t-39.5 45t-60.5 24t-77 7q-82 0 -130.5 -27.5t-48.5 -92.5h-44q0 44 16 74.5t45.5 49.5t70 27.5t90.5 8.5q124 0 181 -50t56 -138q-2 -63 -37 -98.5t-90 -49.5q65 -13 103.5 -49.5t38.5 -107.5q0 -97 -65 -142
t-185 -45q-112 0 -173 39t-61 121h44q0 -63 51 -91.5t141 -28.5q43 0 80 7t64.5 23.5t43 44.5t15.5 70q0 41 -16 67.5t-43 42t-63 21.5t-75 6h-49v40h46z" />
    <glyph glyph-name="uni021D" unicode="&#x21d;" horiz-adv-x="423" 
d="M203 152q25 0 47.5 6t40 22t27.5 44t10 73q0 38 -10 63.5t-28 41t-42.5 22t-54.5 6.5q-50 0 -82.5 -20.5t-32.5 -69.5h-44q0 36 12 61t33.5 40t50 22t61.5 7q49 0 84.5 -13t57.5 -36.5t32 -56t8 -72.5q-3 -67 -27.5 -105t-66.5 -53q51 -14 80 -53t29 -118q0 -89 -49 -131
t-144 -42q-81 0 -126 32t-45 98h44q0 -48 35 -69t93 -21q31 0 58 6.5t46.5 21.5t31 41t11.5 65q0 44 -10.5 73t-29.5 45.5t-44 23t-53 6.5h-49v40h46z" />
    <glyph glyph-name="uni021E" unicode="&#x21e;" horiz-adv-x="660" 
d="M527 0v312h-395v-312h-45v660h45v-308h395v308h45v-660h-45zM317 733l-126 126h55l44 -43q11 -11 18 -20t12 -16q5 -8 9 -15h2q4 7 9 15q5 7 12 16t18 20l45 43h54l-125 -126h-27z" />
    <glyph glyph-name="uni021F" unicode="&#x21f;" horiz-adv-x="508" 
d="M77 0v690l45 10v-260q0 -17 -0.5 -36t-1.5 -36h1q17 57 54 79.5t98 22.5q42 0 73 -10t51 -33.5t30 -62t10 -94.5v-270h-45v270q0 45 -7 76t-22 49.5t-39 26.5t-58 8q-38 0 -65 -9.5t-44 -31.5t-25.5 -58.5t-9.5 -89.5v-241h-45zM261 733l-126 126h55l44 -43
q11 -11 18 -20t12 -16q5 -8 9 -15h2q4 7 9 15q5 7 12 16t18 20l45 43h54l-125 -126h-27z" />
    <glyph glyph-name="uni0220" unicode="&#x220;" horiz-adv-x="510" 
d="M77 0v460h35l10 -90v-3q17 58 54 80.5t100 22.5q48 0 79.5 -12.5t49.5 -41t25 -74.5t7 -112v-470h-45v470q0 56 -4 94.5t-17 62t-37.5 33.5t-65.5 10q-39 0 -66 -9.5t-44.5 -31t-26 -58t-9.5 -90.5v-241h-45z" />
    <glyph glyph-name="uni0226" unicode="&#x226;" horiz-adv-x="611" 
d="M553 0l-62 152h-371l-62 -152h-48l275 660h43l273 -660h-48zM137 192h337l-115 281q-14 33 -23.5 60t-15.5 47q-7 23 -12 40h-4q-5 -18 -12 -40q-6 -19 -15.5 -46t-23.5 -60zM283 750v70h45v-70h-45z" />
    <glyph glyph-name="uni0227" unicode="&#x227;" horiz-adv-x="471" 
d="M446 -2q-26 0 -41.5 7.5t-24 20.5t-11.5 30.5t-3 36.5h-2q-17 -59 -55.5 -81t-103.5 -22q-33 0 -63 5.5t-52.5 20t-36 40t-13.5 66.5q0 46 15.5 71t40 37t54.5 15.5t58 6.5l156 15v51q0 62 -30.5 87t-103.5 25q-68 0 -95.5 -21t-27.5 -67h-44q0 68 39.5 98t127.5 30
q51 0 85.5 -10t55 -29.5t29.5 -47.5t9 -65v-225q0 -24 10.5 -38t26.5 -14v-43zM203 30q43 0 73 9t49.5 30.5t28.5 57.5t10 91v11l-172 -17q-19 -2 -38 -4.5t-34.5 -11.5t-25 -26t-9.5 -48q0 -54 27.5 -73t90.5 -19zM213 550v70h45v-70h-45z" />
    <glyph glyph-name="uni0228" unicode="&#x228;" horiz-adv-x="539" 
d="M260 -165q23 0 37.5 6.5t14.5 29.5q0 24 -21 35t-69 13l9 81h-144v660h400v-40h-355v-268h315v-40h-315v-272h355v-40h-216l-6 -51q38 -3 64.5 -19t26.5 -55q0 -40 -27.5 -60t-70.5 -20q-22 0 -43 4.5t-32 11.5v40q11 -7 32 -11.5t45 -4.5z" />
    <glyph glyph-name="uni0229" unicode="&#x229;" horiz-adv-x="462" 
d="M221 -165q23 0 37.5 6.5t14.5 29.5q0 24 -21 35t-69 13l8 74q-38 4 -65 19t-45 43.5t-26.5 71.5t-8.5 104q0 68 11 114t34.5 73.5t60 39.5t86.5 12q92 0 135.5 -41t43.5 -142q0 -20 -1.5 -40t-6.5 -37h-318q1 -51 9 -85.5t25.5 -55.5t45 -30t67.5 -9q27 0 50.5 4
t40.5 14.5t27 27t10 42.5h44q0 -35 -14 -59.5t-38 -39.5t-56.5 -22t-69.5 -7h-1l-5 -41q38 -3 64.5 -19t26.5 -55q0 -40 -27.5 -60t-70.5 -20q-22 0 -43 4.5t-32 11.5v40q11 -7 32 -11.5t45 -4.5zM236 430q-39 0 -66.5 -9t-44.5 -30t-25 -55.5t-9 -85.5h279q1 10 1.5 20
t0.5 22q0 76 -31.5 107t-104.5 31z" />
    <glyph glyph-name="uni022A" unicode="&#x22a;" horiz-adv-x="646" 
d="M323 -10q-72 0 -123.5 17t-85.5 56.5t-50 105t-16 161.5t16 161.5t50 105t85.5 56.5t123.5 17t123.5 -17t85.5 -56.5t50 -105t16 -161.5t-16 -161.5t-50 -105t-85.5 -56.5t-123.5 -17zM323 30q60 0 103.5 15t71.5 50t41.5 92.5t13.5 142.5t-13.5 142.5t-41.5 92.5
t-71.5 50t-103.5 15t-103.5 -15t-71.5 -50t-41.5 -92.5t-13.5 -142.5t13.5 -142.5t41.5 -92.5t71.5 -50t103.5 -15zM210 750v70h45v-70h-45zM390 750v70h45v-70h-45zM165 909v40h315v-40h-315z" />
    <glyph glyph-name="uni022B" unicode="&#x22b;" horiz-adv-x="482" 
d="M241 -10q-51 0 -87.5 12t-60.5 40t-35.5 74t-11.5 114t11.5 114t35.5 74t60.5 40t87.5 12t87.5 -12t60.5 -40t35.5 -74t11.5 -114t-11.5 -114t-35.5 -74t-60.5 -40t-87.5 -12zM241 30q40 0 68.5 10t46.5 33t26.5 61.5t8.5 95.5t-8.5 95.5t-26.5 61.5t-46.5 33t-68.5 10
q-41 0 -69.5 -10t-46.5 -33t-26 -61.5t-8 -95.5t8 -95.5t26 -61.5t46.5 -33t69.5 -10zM128 550v70h45v-70h-45zM308 550v70h45v-70h-45zM83 709v40h315v-40h-315z" />
    <glyph glyph-name="uni022C" unicode="&#x22c;" horiz-adv-x="646" 
d="M323 -10q-72 0 -123.5 17t-85.5 56.5t-50 105t-16 161.5t16 161.5t50 105t85.5 56.5t123.5 17t123.5 -17t85.5 -56.5t50 -105t16 -161.5t-16 -161.5t-50 -105t-85.5 -56.5t-123.5 -17zM323 30q60 0 103.5 15t71.5 50t41.5 92.5t13.5 142.5t-13.5 142.5t-41.5 92.5
t-71.5 50t-103.5 15t-103.5 -15t-71.5 -50t-41.5 -92.5t-13.5 -142.5t13.5 -142.5t41.5 -92.5t71.5 -50t103.5 -15zM390 739q-23 0 -39 9t-33 20q-19 13 -32 21t-29 8q-20 0 -27 -13.5t-7 -45.5h-43q0 22 2.5 41t10 33t21.5 22t38 8q25 0 42 -9.5t36 -22.5q18 -13 30 -20
t27 -7q19 0 26 14t7 47h45q0 -23 -2.5 -42.5t-10 -33.5t-22.5 -21.5t-40 -7.5zM165 909v40h315v-40h-315z" />
    <glyph glyph-name="uni022D" unicode="&#x22d;" horiz-adv-x="482" 
d="M241 -10q-51 0 -87.5 12t-60.5 40t-35.5 74t-11.5 114t11.5 114t35.5 74t60.5 40t87.5 12t87.5 -12t60.5 -40t35.5 -74t11.5 -114t-11.5 -114t-35.5 -74t-60.5 -40t-87.5 -12zM241 30q40 0 68.5 10t46.5 33t26.5 61.5t8.5 95.5t-8.5 95.5t-26.5 61.5t-46.5 33t-68.5 10
q-41 0 -69.5 -10t-46.5 -33t-26 -61.5t-8 -95.5t8 -95.5t26 -61.5t46.5 -33t69.5 -10zM308 539q-23 0 -39 9t-33 20q-19 13 -32 21t-29 8q-20 0 -27 -13.5t-7 -45.5h-43q0 22 2.5 41t10 33t21.5 22t38 8q25 0 42 -9.5t36 -22.5q18 -13 30 -20t27 -7q19 0 26 14t7 47h45
q0 -23 -2.5 -42.5t-10 -33.5t-22.5 -21.5t-40 -7.5zM83 709v40h315v-40h-315z" />
    <glyph glyph-name="uni022E" unicode="&#x22e;" horiz-adv-x="646" 
d="M323 -10q-72 0 -123.5 17t-85.5 56.5t-50 105t-16 161.5t16 161.5t50 105t85.5 56.5t123.5 17t123.5 -17t85.5 -56.5t50 -105t16 -161.5t-16 -161.5t-50 -105t-85.5 -56.5t-123.5 -17zM323 30q60 0 103.5 15t71.5 50t41.5 92.5t13.5 142.5t-13.5 142.5t-41.5 92.5
t-71.5 50t-103.5 15t-103.5 -15t-71.5 -50t-41.5 -92.5t-13.5 -142.5t13.5 -142.5t41.5 -92.5t71.5 -50t103.5 -15zM300 750v70h45v-70h-45z" />
    <glyph glyph-name="uni022F" unicode="&#x22f;" horiz-adv-x="482" 
d="M241 -10q-51 0 -87.5 12t-60.5 40t-35.5 74t-11.5 114t11.5 114t35.5 74t60.5 40t87.5 12t87.5 -12t60.5 -40t35.5 -74t11.5 -114t-11.5 -114t-35.5 -74t-60.5 -40t-87.5 -12zM241 30q40 0 68.5 10t46.5 33t26.5 61.5t8.5 95.5t-8.5 95.5t-26.5 61.5t-46.5 33t-68.5 10
q-41 0 -69.5 -10t-46.5 -33t-26 -61.5t-8 -95.5t8 -95.5t26 -61.5t46.5 -33t69.5 -10zM218 550v70h45v-70h-45z" />
    <glyph glyph-name="uni0230" unicode="&#x230;" horiz-adv-x="646" 
d="M323 -10q-72 0 -123.5 17t-85.5 56.5t-50 105t-16 161.5t16 161.5t50 105t85.5 56.5t123.5 17t123.5 -17t85.5 -56.5t50 -105t16 -161.5t-16 -161.5t-50 -105t-85.5 -56.5t-123.5 -17zM323 30q60 0 103.5 15t71.5 50t41.5 92.5t13.5 142.5t-13.5 142.5t-41.5 92.5
t-71.5 50t-103.5 15t-103.5 -15t-71.5 -50t-41.5 -92.5t-13.5 -142.5t13.5 -142.5t41.5 -92.5t71.5 -50t103.5 -15zM300 750v70h45v-70h-45zM165 909v40h315v-40h-315z" />
    <glyph glyph-name="uni0231" unicode="&#x231;" horiz-adv-x="482" 
d="M241 -10q-51 0 -87.5 12t-60.5 40t-35.5 74t-11.5 114t11.5 114t35.5 74t60.5 40t87.5 12t87.5 -12t60.5 -40t35.5 -74t11.5 -114t-11.5 -114t-35.5 -74t-60.5 -40t-87.5 -12zM241 30q40 0 68.5 10t46.5 33t26.5 61.5t8.5 95.5t-8.5 95.5t-26.5 61.5t-46.5 33t-68.5 10
q-41 0 -69.5 -10t-46.5 -33t-26 -61.5t-8 -95.5t8 -95.5t26 -61.5t46.5 -33t69.5 -10zM218 550v70h45v-70h-45zM83 709v40h315v-40h-315z" />
    <glyph glyph-name="uni0232" unicode="&#x232;" horiz-adv-x="526" 
d="M12 660h48l161 -287q12 -25 19 -42.5t12 -28.5q5 -13 8 -22h3q2 9 7 22q5 11 12.5 28.5t19.5 42.5l161 287h48l-227 -407v-253h-45v253zM105 789v40h315v-40h-315z" />
    <glyph glyph-name="uni0233" unicode="&#x233;" horiz-adv-x="439" 
d="M64 -200q22 0 40 13t33.5 38t30 62t31.5 85l-187 462h46l131 -318q20 -51 26 -79q4 -17 5 -31h3q2 13 6 30q3 14 9 33.5t16 44.5l129 320h44l-191 -486q-22 -56 -40.5 -96t-38 -66.5t-42 -39t-51.5 -12.5v40v0zM63 589v40h315v-40h-315z" />
    <glyph glyph-name="dotlessj" unicode="&#x237;" horiz-adv-x="174" 
d="M110 -116q0 -24 -4 -46.5t-13 -39.5t-25 -27t-40 -10v43q16 0 26.5 17.5t10.5 62.5v576h45v-576z" />
    <glyph glyph-name="apostrophe" unicode="&#x2bc;" horiz-adv-x="209" 
d="M63 496q16 0 26.5 19t10.5 65h-40v80h75v-80q0 -24 -3.5 -46.5t-11.5 -39.5t-22 -27t-35 -10v39z" />
    <glyph glyph-name="circumflex" unicode="&#x2c6;" horiz-adv-x="358" 
d="M193 659l125 -126h-54l-45 43q-11 10 -18 19.5t-12 16.5q-5 8 -9 15h-2q-4 -7 -9 -15q-5 -7 -12 -16t-18 -20l-44 -43h-55l126 126h27z" />
    <glyph glyph-name="caron" unicode="&#x2c7;" horiz-adv-x="362" 
d="M166 533l-126 126h55l44 -43q11 -11 18 -20t12 -16q5 -8 9 -15h2q4 7 9 15q5 7 12 16t18 20l45 43h54l-125 -126h-27z" />
    <glyph glyph-name="breve" unicode="&#x2d8;" horiz-adv-x="402" 
d="M201 580q85 0 85 48h41q0 -46 -32 -67t-94 -21t-94 21t-32 67h41q0 -48 85 -48z" />
    <glyph glyph-name="dotaccent" unicode="&#x2d9;" horiz-adv-x="195" 
d="M75 550v70h45v-70h-45z" />
    <glyph glyph-name="ring" unicode="&#x2da;" horiz-adv-x="284" 
d="M142 523q-45 0 -68.5 26t-23.5 64q0 35 25 61t67 26t67 -26t25 -61q0 -38 -23.5 -64t-68.5 -26zM142 664q-25 0 -38 -14.5t-13 -37.5q0 -20 12.5 -35.5t38.5 -15.5t38.5 15.5t12.5 35.5q0 23 -13.5 37.5t-37.5 14.5z" />
    <glyph glyph-name="ogonek" unicode="&#x2db;" horiz-adv-x="282" 
d="M246 -165q-16 -14 -40.5 -20t-42.5 -6q-45 0 -69 23t-24 62q0 29 11 51t27.5 38t36 26.5t36.5 16.5l20 -26q-34 -11 -61 -34.5t-27 -65.5q0 -24 14 -39t46 -15q14 0 36 6t37 20v-37z" />
    <glyph glyph-name="tilde" unicode="&#x2dc;" horiz-adv-x="385" 
d="M260 539q-23 0 -39 9t-33 20q-19 13 -32 21t-29 8q-20 0 -27 -13.5t-7 -45.5h-43q0 22 2.5 41t10 33t21.5 22t38 8q25 0 42 -9.5t36 -22.5q18 -13 30 -20t27 -7q19 0 26 14t7 47h45q0 -23 -2.5 -42.5t-10 -33.5t-22.5 -21.5t-40 -7.5z" />
    <glyph glyph-name="hungarumlaut" unicode="&#x2dd;" horiz-adv-x="361" 
d="M50 533l66 126h67l-94 -126h-39zM173 533l71 126h67l-99 -126h-39z" />
    <glyph glyph-name="gravecomb" unicode="&#x300;" horiz-adv-x="242" 
d="M149 533l-99 126h71l71 -126h-43z" />
    <glyph glyph-name="acutecomb" unicode="&#x301;" horiz-adv-x="242" 
d="M50 533l71 126h71l-99 -126h-43z" />
    <glyph glyph-name="uni0302" unicode="&#x302;" horiz-adv-x="358" 
d="M193 659l125 -126h-54l-45 43q-11 10 -18 19.5t-12 16.5q-5 8 -9 15h-2q-4 -7 -9 -15q-5 -7 -12 -16t-18 -20l-44 -43h-55l126 126h27z" />
    <glyph glyph-name="tildecomb" unicode="&#x303;" horiz-adv-x="385" 
d="M260 539q-23 0 -39 9t-33 20q-19 13 -32 21t-29 8q-20 0 -27 -13.5t-7 -45.5h-43q0 22 2.5 41t10 33t21.5 22t38 8q25 0 42 -9.5t36 -22.5q18 -13 30 -20t27 -7q19 0 26 14t7 47h45q0 -23 -2.5 -42.5t-10 -33.5t-22.5 -21.5t-40 -7.5z" />
    <glyph glyph-name="uni0304" unicode="&#x304;" horiz-adv-x="464" 
d="M74 589v40h315v-40h-315z" />
    <glyph glyph-name="uni0306" unicode="&#x306;" horiz-adv-x="402" 
d="M201 580q85 0 85 48h41q0 -46 -32 -67t-94 -21t-94 21t-32 67h41q0 -48 85 -48z" />
    <glyph glyph-name="uni0307" unicode="&#x307;" horiz-adv-x="195" 
d="M75 550v70h45v-70h-45z" />
    <glyph glyph-name="uni0308" unicode="&#x308;" horiz-adv-x="375" 
d="M75 550v70h45v-70h-45zM255 550v70h45v-70h-45z" />
    <glyph glyph-name="hookabovecomb" unicode="&#x309;" horiz-adv-x="248" 
d="M134 578q15 0 23 9.5t8 21.5q0 14 -10.5 22.5t-30.5 8.5t-30.5 -8.5t-10.5 -22.5h-33q0 24 20 42t54 18t54 -18t20 -41q0 -26 -16.5 -44t-47.5 -18v-40h-30v50q0 20 20 20h10z" />
    <glyph glyph-name="uni030A" unicode="&#x30a;" horiz-adv-x="284" 
d="M142 523q-45 0 -68.5 26t-23.5 64q0 35 25 61t67 26t67 -26t25 -61q0 -38 -23.5 -64t-68.5 -26zM142 664q-25 0 -38 -14.5t-13 -37.5q0 -20 12.5 -35.5t38.5 -15.5t38.5 15.5t12.5 35.5q0 23 -13.5 37.5t-37.5 14.5z" />
    <glyph glyph-name="uni030B" unicode="&#x30b;" horiz-adv-x="361" 
d="M50 533l66 126h67l-94 -126h-39zM173 533l71 126h67l-99 -126h-39z" />
    <glyph glyph-name="uni030C" unicode="&#x30c;" horiz-adv-x="362" 
d="M166 533l-126 126h55l44 -43q11 -11 18 -20t12 -16q5 -8 9 -15h2q4 7 9 15q5 7 12 16t18 20l45 43h54l-125 -126h-27z" />
    <glyph glyph-name="uni030F" unicode="&#x30f;" horiz-adv-x="361" 
d="M272 533l-94 126h67l66 -126h-39zM149 533l-99 126h67l71 -126h-39z" />
    <glyph glyph-name="uni0310" unicode="&#x310;" horiz-adv-x="402" 
d="M201 580q85 0 85 48h41q0 -46 -32 -67t-94 -21t-94 21t-32 67h41q0 -48 85 -48zM179 650v70h45v-70h-45z" />
    <glyph glyph-name="uni0311" unicode="&#x311;" horiz-adv-x="402" 
d="M201 588q-85 0 -85 -48h-41q0 46 32 67t94 21t94 -21t32 -67h-41q0 48 -85 48z" />
    <glyph glyph-name="uni0312" unicode="&#x312;" horiz-adv-x="195" 
d="M132 695q-16 0 -26.5 -14.5t-10.5 -49.5h40v-80h-75v80q0 21 3.5 39.5t11.5 32.5t22 22.5t35 8.5v-39z" />
    <glyph glyph-name="uni0313" unicode="&#x313;" horiz-adv-x="195" 
d="M63 590q16 0 26.5 14.5t10.5 49.5h-40v80h75v-80q0 -21 -3.5 -39.5t-11.5 -32.5t-22 -22.5t-35 -8.5v39z" />
    <glyph glyph-name="uni0314" unicode="&#x314;" horiz-adv-x="195" 
d="M132 551q-21 0 -35 8.5t-22 22.5t-11.5 32.5t-3.5 39.5v80h75v-80h-40q0 -35 10.5 -49.5t26.5 -14.5v-39z" />
    <glyph glyph-name="uni0315" unicode="&#x315;" horiz-adv-x="195" 
d="M63 590q16 0 26.5 14.5t10.5 49.5h-40v80h75v-80q0 -21 -3.5 -39.5t-11.5 -32.5t-22 -22.5t-35 -8.5v39z" />
    <glyph glyph-name="uni0316" unicode="&#x316;" horiz-adv-x="242" 
d="M149 -199l-99 126h71l71 -126h-43z" />
    <glyph glyph-name="uni0317" unicode="&#x317;" horiz-adv-x="242" 
d="M50 -199l71 126h71l-99 -126h-43z" />
    <glyph glyph-name="dotbelowcomb" unicode="&#x323;" horiz-adv-x="195" 
d="M75 -160v70h45v-70h-45z" />
    <glyph glyph-name="uni0324" unicode="&#x324;" horiz-adv-x="375" 
d="M75 -160v70h45v-70h-45zM255 -160v70h45v-70h-45z" />
    <glyph glyph-name="uni0325" unicode="&#x325;" horiz-adv-x="284" 
d="M142 -240q-45 0 -68.5 26t-23.5 64q0 35 25 61t67 26t67 -26t25 -61q0 -38 -23.5 -64t-68.5 -26zM142 -99q-25 0 -38 -14.5t-13 -37.5q0 -20 12.5 -35.5t38.5 -15.5t38.5 15.5t12.5 35.5q0 23 -13.5 37.5t-37.5 14.5z" />
    <glyph glyph-name="uni0327" unicode="&#x327;" horiz-adv-x="309" 
d="M169 -165q23 0 37.5 6.5t14.5 29.5q0 24 -21 35t-69 13l10 86h40l-7 -56q38 -3 64.5 -19t26.5 -55q0 -40 -27.5 -60t-70.5 -20q-22 0 -43 4.5t-32 11.5v40q11 -7 32 -11.5t45 -4.5z" />
    <glyph glyph-name="uni0328" unicode="&#x328;" horiz-adv-x="282" 
d="M246 -165q-16 -14 -40.5 -20t-42.5 -6q-45 0 -69 23t-24 62q0 29 11 51t27.5 38t36 26.5t36.5 16.5l20 -26q-34 -11 -61 -34.5t-27 -65.5q0 -24 14 -39t46 -15q14 0 36 6t37 20v-37z" />
    <glyph glyph-name="uni032C" unicode="&#x32c;" horiz-adv-x="362" 
d="M166 -199l-126 126h55l44 -43q11 -11 18 -20t12 -16q5 -8 9 -15h2q4 7 9 15q5 7 12 16t18 20l45 43h54l-125 -126h-27z" />
    <glyph glyph-name="uni032D" unicode="&#x32d;" horiz-adv-x="362" 
d="M193 -73l125 -126h-54l-45 43q-11 10 -18 19.5t-12 16.5q-5 8 -9 15h-2q-4 -7 -9 -15q-5 -7 -12 -16t-18 -20l-44 -43h-55l126 126h27z" />
    <glyph glyph-name="uni032E" unicode="&#x32e;" horiz-adv-x="402" 
d="M201 -128q85 0 85 48h41q0 -46 -32 -67t-94 -21t-94 21t-32 67h41q0 -48 85 -48z" />
    <glyph glyph-name="uni032F" unicode="&#x32f;" horiz-adv-x="402" 
d="M201 -120q-85 0 -85 -48h-41q0 46 32 67t94 21t94 -21t32 -67h-41q0 48 -85 48z" />
    <glyph glyph-name="uni0330" unicode="&#x330;" horiz-adv-x="385" 
d="M260 -183q-23 0 -39 9t-33 20q-19 13 -32 21t-29 8q-20 0 -27 -13.5t-7 -45.5h-43q0 22 2.5 41t10 33t21.5 22t38 8q25 0 42 -9.5t36 -22.5q18 -13 30 -20t27 -7q19 0 26 14t7 47h45q0 -23 -2.5 -42.5t-10 -33.5t-22.5 -21.5t-40 -7.5z" />
    <glyph glyph-name="uni0331" unicode="&#x331;" horiz-adv-x="464" 
d="M74 -169v40h315v-40h-315z" />
    <glyph glyph-name="uni0400" unicode="&#x400;" horiz-adv-x="539" 
d="M87 0v660h400v-40h-355v-268h315v-40h-315v-272h355v-40h-400zM297 733l-99 126h71l71 -126h-43z" />
    <glyph glyph-name="afii10023" unicode="&#x401;" horiz-adv-x="539" 
d="M87 0v660h400v-40h-355v-268h315v-40h-315v-272h355v-40h-400zM177 750v70h45v-70h-45zM357 750v70h45v-70h-45z" />
    <glyph glyph-name="afii10051" unicode="&#x402;" horiz-adv-x="668" 
d="M362 40q54 0 90.5 9.5t59.5 31.5t33 56.5t10 85.5q0 44 -8.5 75.5t-29.5 52t-57 30t-91 9.5q-47 0 -80 -7.5t-54 -28t-30.5 -55.5t-9.5 -89h-1v-210h-45v620h-135v40h415v-40h-235v-250l-2 -42h2q19 60 63.5 81t119.5 21q63 0 105.5 -12t69 -37.5t37.5 -64.5t11 -94
q0 -61 -13.5 -103.5t-41.5 -68.5t-71.5 -38t-103.5 -12h-25v40h17z" />
    <glyph glyph-name="afii10052" unicode="&#x403;" horiz-adv-x="485" 
d="M132 0h-45v660h370v-40h-325v-620zM211 733l71 126h71l-99 -126h-43z" />
    <glyph glyph-name="afii10053" unicode="&#x404;" horiz-adv-x="573" 
d="M543 150q0 -44 -19.5 -74.5t-52 -49.5t-75.5 -27.5t-89 -8.5q-67 0 -115.5 17.5t-80.5 57.5t-47.5 105.5t-15.5 160.5t15.5 160t47.5 104.5t80.5 57t115.5 17.5q46 0 89 -8.5t75.5 -27.5t52 -49.5t19.5 -74.5h-45q0 33 -16 56t-42 37t-61 20.5t-72 6.5q-54 0 -93.5 -14.5
t-66 -47t-40 -85.5t-14.5 -131h294v-40h-294q1 -79 14.5 -133t39.5 -87t66 -47.5t94 -14.5q37 0 72 6.5t61 20.5t42 37t16 56h45z" />
    <glyph glyph-name="afii10054" unicode="&#x405;" horiz-adv-x="566" 
d="M462 510q0 65 -48.5 92.5t-130.5 27.5q-42 0 -77 -7t-60.5 -24t-39.5 -45t-14 -70q0 -41 15.5 -64.5t41.5 -37t59.5 -19.5t68.5 -11q47 -6 90.5 -16t77.5 -28.5t54 -50t20 -80.5q0 -97 -65 -142t-185 -45q-112 0 -173 39t-61 121h44q0 -63 51 -91.5t141 -28.5q43 0 80 7
t64.5 23.5t43 44.5t15.5 70q0 39 -16 63t-43.5 38t-63 20.5t-74.5 11.5q-45 6 -87 16t-73.5 29.5t-50.5 50.5t-19 78q0 88 56.5 138t180.5 50q49 0 90 -8.5t70.5 -27.5t45.5 -49.5t16 -74.5h-44z" />
    <glyph glyph-name="afii10055" unicode="&#x406;" horiz-adv-x="219" 
d="M87 0v660h45v-660h-45z" />
    <glyph glyph-name="afii10056" unicode="&#x407;" horiz-adv-x="219" 
d="M87 0v660h45v-660h-45zM-2 750v70h45v-70h-45zM178 750v70h45v-70h-45z" />
    <glyph glyph-name="afii10057" unicode="&#x408;" horiz-adv-x="453" 
d="M340 660h45v-510q0 -78 -44.5 -119t-144.5 -41q-94 0 -140.5 38t-46.5 122h41q0 -63 35 -91.5t112 -28.5q33 0 59.5 5.5t45 19t28.5 37t10 58.5v510z" />
    <glyph glyph-name="afii10058" unicode="&#x409;" horiz-adv-x="902" 
d="M507 390h141q58 0 100 -10.5t69.5 -34t41 -61.5t13.5 -94q0 -54 -13.5 -90t-41 -58.5t-69.5 -32t-100 -9.5h-186v620h-256l-20 -350q-4 -74 -10 -125t-22.5 -83.5t-47.5 -47t-85 -14.5v40q44 0 67 13.5t33.5 41.5t13 71.5t6.5 103.5l24 390h342v-270zM507 350v-310h135
q49 0 84.5 7.5t57.5 25t32.5 46.5t10.5 71q0 45 -10.5 75.5t-32.5 49.5t-57.5 27t-84.5 8h-135z" />
    <glyph glyph-name="afii10059" unicode="&#x40a;" horiz-adv-x="927" 
d="M532 390h141q58 0 100 -10.5t69.5 -34t41 -61.5t13.5 -94q0 -54 -13.5 -90t-41 -58.5t-69.5 -32t-100 -9.5h-186v312h-355v-312h-45v660h45v-308h355v308h45v-270zM532 350v-310h135q49 0 84.5 7.5t57.5 25t32.5 46.5t10.5 71q0 45 -10.5 75.5t-32.5 49.5t-57.5 27
t-84.5 8h-135z" />
    <glyph glyph-name="afii10060" unicode="&#x40b;" horiz-adv-x="668" 
d="M362 390q-44 0 -76 -8t-52 -28.5t-29.5 -55.5t-9.5 -88h-1v-210h-45v620h-135v40h415v-40h-235v-250l-2 -42h2v-1q18 60 61.5 81.5t114.5 21.5q115 0 172.5 -51t57.5 -169v-210h-45v210q0 98 -46.5 139t-146.5 41z" />
    <glyph glyph-name="afii10061" unicode="&#x40c;" horiz-adv-x="576" 
d="M87 0v660h45v-308h172l199 308h53l-210 -326l215 -334h-53l-201 312h-175v-312h-45zM257 733l71 126h71l-99 -126h-43z" />
    <glyph glyph-name="uni040D" unicode="&#x40d;" horiz-adv-x="659" 
d="M132 185q0 -25 -0.5 -47.5t-1.5 -39.5q-1 -20 -2 -37h4q8 16 19 34l21 35t26 40l327 490h47v-660h-45v472q0 25 0.5 47.5t1.5 39.5q1 20 2 37h-4q-9 -16 -20 -34q-9 -16 -20.5 -35.5t-25.5 -39.5l-327 -487h-47v660h45v-475zM337 733l-99 126h71l71 -126h-43z" />
    <glyph glyph-name="afii10062" unicode="&#x40e;" horiz-adv-x="558" 
d="M237 304q14 -30 23 -51t14 -35q6 -16 9 -27h3q3 10 8 26q5 14 13.5 35.5t22.5 51.5l164 356h50l-248 -536q-10 -23 -19 -45.5t-23 -40t-37.5 -28t-62.5 -10.5v40q23 0 37 4t24 13.5t17 25.5t17 41l11 28l-246 508h50zM279 780q85 0 85 48h41q0 -46 -32 -67t-94 -21
t-94 21t-32 67h41q0 -48 85 -48z" />
    <glyph glyph-name="afii10145" unicode="&#x40f;" horiz-adv-x="635" 
d="M295 -140v140h-208v660h45v-620h370v620h45v-660h-207v-140h-45z" />
    <glyph glyph-name="afii10017" unicode="&#x410;" horiz-adv-x="611" 
d="M553 0l-62 152h-371l-62 -152h-48l275 660h43l273 -660h-48zM137 192h337l-115 281q-14 33 -23.5 60t-15.5 47q-7 23 -12 40h-4q-5 -18 -12 -40q-6 -19 -15.5 -46t-23.5 -60z" />
    <glyph glyph-name="afii10018" unicode="&#x411;" horiz-adv-x="567" 
d="M132 350v-310h175q49 0 84.5 7.5t57.5 25t32.5 46.5t10.5 71q0 45 -10.5 75.5t-32.5 49.5t-57.5 27t-84.5 8h-175zM87 660h400v-40h-355v-230h181q58 0 100 -10.5t69.5 -34t41 -61.5t13.5 -94q0 -54 -13.5 -90t-41 -58.5t-69.5 -32t-100 -9.5h-226v660z" />
    <glyph glyph-name="afii10019" unicode="&#x412;" horiz-adv-x="580" 
d="M87 0v660h226q105 0 154.5 -37.5t49.5 -132.5q0 -72 -29.5 -109t-91.5 -49q72 -11 106.5 -49t34.5 -113q0 -48 -13.5 -80.5t-41 -52.5t-69.5 -28.5t-100 -8.5h-226zM307 40q49 0 84.5 6.5t57.5 21.5t32.5 40t10.5 62q0 79 -43 110.5t-142 31.5h-175v-272h175zM307 352
q44 0 75.5 7t51.5 23t29 42.5t9 65.5q0 36 -9 61t-29 40.5t-51.5 22t-75.5 6.5h-175v-268h175z" />
    <glyph glyph-name="afii10020" unicode="&#x413;" horiz-adv-x="485" 
d="M132 0h-45v660h370v-40h-325v-620z" />
    <glyph glyph-name="afii10021" unicode="&#x414;" horiz-adv-x="635" 
d="M567 -120v120h-501v-120h-45v160h34q5 0 17.5 13.5t27 41.5t26.5 71.5t15 103.5l22 390h384v-620h65v-160h-45zM186 270q-3 -48 -11 -85.5t-18.5 -65.5t-23 -47.5t-23.5 -31.5h392v580h-297z" />
    <glyph glyph-name="afii10022" unicode="&#x415;" horiz-adv-x="539" 
d="M87 0v660h400v-40h-355v-268h315v-40h-315v-272h355v-40h-400z" />
    <glyph glyph-name="afii10024" unicode="&#x416;" horiz-adv-x="752" 
d="M14 0l215 334l-210 326h53l198 -308h84v308h45v-308h82l199 308h53l-210 -326l215 -334h-53l-201 312h-85v-312h-45v312h-86l-201 -312h-53z" />
    <glyph glyph-name="afii10025" unicode="&#x417;" horiz-adv-x="562" 
d="M270 352q36 0 69 5.5t59 20t41.5 40t15.5 66.5q0 42 -14 70t-39.5 45t-60.5 24t-77 7q-82 0 -130.5 -27.5t-48.5 -92.5h-44q0 44 16 74.5t45.5 49.5t70 27.5t90.5 8.5q124 0 181 -50t56 -138q-2 -63 -37 -98.5t-90 -49.5q65 -13 103.5 -49.5t38.5 -107.5q0 -97 -65 -142
t-185 -45q-112 0 -173 39t-61 121h44q0 -63 51 -91.5t141 -28.5q43 0 80 7t64.5 23.5t43 44.5t15.5 70q0 41 -16 67.5t-43 42t-63 21.5t-75 6h-49v40h46z" />
    <glyph glyph-name="afii10026" unicode="&#x418;" horiz-adv-x="659" 
d="M132 185q0 -25 -0.5 -47.5t-1.5 -39.5q-1 -20 -2 -37h4q8 16 19 34l21 35t26 40l327 490h47v-660h-45v472q0 25 0.5 47.5t1.5 39.5q1 20 2 37h-4q-9 -16 -20 -34q-9 -16 -20.5 -35.5t-25.5 -39.5l-327 -487h-47v660h45v-475z" />
    <glyph glyph-name="afii10027" unicode="&#x419;" horiz-adv-x="659" 
d="M132 185q0 -25 -0.5 -47.5t-1.5 -39.5q-1 -20 -2 -37h4q8 16 19 34l21 35t26 40l327 490h47v-660h-45v472q0 25 0.5 47.5t1.5 39.5q1 20 2 37h-4q-9 -16 -20 -34q-9 -16 -20.5 -35.5t-25.5 -39.5l-327 -487h-47v660h45v-475zM329 780q85 0 85 48h41q0 -46 -32 -67
t-94 -21t-94 21t-32 67h41q0 -48 85 -48z" />
    <glyph glyph-name="afii10028" unicode="&#x41a;" horiz-adv-x="576" 
d="M87 0v660h45v-308h172l199 308h53l-210 -326l215 -334h-53l-201 312h-175v-312h-45z" />
    <glyph glyph-name="afii10029" unicode="&#x41b;" horiz-adv-x="635" 
d="M165 660h382v-660h-45v620h-296l-20 -350q-4 -74 -10 -125t-22.5 -83.5t-47.5 -47t-85 -14.5v40q44 0 67 13.5t33.5 41.5t13 71.5t6.5 103.5z" />
    <glyph glyph-name="afii10030" unicode="&#x41c;" horiz-adv-x="788" 
d="M369 0l-209 491q-11 25 -18 44.5t-11 33.5q-4 16 -6 27h-3l3 -27q1 -14 2 -34.5t1 -46.5v-488h-45v660h52l231 -550q7 -16 11 -27.5t7 -19.5q3 -10 5 -16h3q1 6 5 16q5 17 18 47l231 550h52v-660h-45v488q0 54 3 81q1 16 3 27h-3q-3 -11 -7 -27q-4 -14 -10.5 -33.5
t-17.5 -44.5l-209 -491h-43z" />
    <glyph glyph-name="afii10031" unicode="&#x41d;" horiz-adv-x="660" 
d="M527 0v312h-395v-312h-45v660h45v-308h395v308h45v-660h-45z" />
    <glyph glyph-name="afii10032" unicode="&#x41e;" horiz-adv-x="646" 
d="M323 -10q-72 0 -123.5 17t-85.5 56.5t-50 105t-16 161.5t16 161.5t50 105t85.5 56.5t123.5 17t123.5 -17t85.5 -56.5t50 -105t16 -161.5t-16 -161.5t-50 -105t-85.5 -56.5t-123.5 -17zM323 30q60 0 103.5 15t71.5 50t41.5 92.5t13.5 142.5t-13.5 142.5t-41.5 92.5
t-71.5 50t-103.5 15t-103.5 -15t-71.5 -50t-41.5 -92.5t-13.5 -142.5t13.5 -142.5t41.5 -92.5t71.5 -50t103.5 -15z" />
    <glyph glyph-name="afii10033" unicode="&#x41f;" horiz-adv-x="635" 
d="M502 0v620h-370v-620h-45v660h460v-660h-45z" />
    <glyph glyph-name="afii10034" unicode="&#x420;" horiz-adv-x="567" 
d="M132 0h-45v660h226q58 0 100 -10.5t69.5 -35.5t41 -65t13.5 -99q0 -62 -13.5 -104t-41 -67.5t-69.5 -37t-100 -11.5h-181v-230zM307 270q49 0 84.5 9t57.5 30t32.5 55.5t10.5 85.5q0 48 -10.5 80.5t-32.5 52.5t-57.5 28.5t-84.5 8.5h-175v-350h175z" />
    <glyph glyph-name="afii10035" unicode="&#x421;" horiz-adv-x="573" 
d="M543 150q0 -48 -19.5 -79t-52 -49t-75.5 -25t-89 -7q-67 0 -115.5 17.5t-80.5 57.5t-47.5 105.5t-15.5 160.5t15.5 160t47.5 104.5t80.5 57t115.5 17.5q46 0 89 -7t75.5 -25t52 -49t19.5 -79h-45q0 37 -16 60t-42 36.5t-61 18.5t-72 5q-56 0 -96 -15.5t-66.5 -50.5
t-39 -92t-12.5 -141t12.5 -141.5t39 -93t66.5 -51t96 -15.5q37 0 72 5t61 18.5t42 36.5t16 60h45z" />
    <glyph glyph-name="afii10036" unicode="&#x422;" horiz-adv-x="543" 
d="M249 0v620h-235v40h515v-40h-235v-620h-45z" />
    <glyph glyph-name="afii10037" unicode="&#x423;" horiz-adv-x="558" 
d="M237 304q14 -30 23 -51t14 -35q6 -16 9 -27h3q3 10 8 26q5 14 13.5 35.5t22.5 51.5l164 356h50l-248 -536q-10 -23 -19 -45.5t-23 -40t-37.5 -28t-62.5 -10.5v40q23 0 37 4t24 13.5t17 25.5t17 41l11 28l-246 508h50z" />
    <glyph glyph-name="afii10038" unicode="&#x424;" horiz-adv-x="746" 
d="M351 0v90q-86 1 -144 14t-93.5 41t-50.5 73.5t-15 111.5t15 111t50.5 73t93.5 41t144 15v80l45 10v-90q85 -2 143 -15t93.5 -41t50.5 -73t15 -111t-15 -111t-50.5 -73.5t-93.5 -41.5t-143 -14v-90h-45zM93 330q0 -55 11 -92.5t40 -61t79 -34.5t128 -12v400
q-78 -1 -128 -12t-79 -34.5t-40 -61t-11 -92.5zM653 330q0 54 -11.5 91.5t-40.5 61t-78.5 34.5t-126.5 13v-400q77 1 126.5 12t78.5 34.5t40.5 61t11.5 92.5z" />
    <glyph glyph-name="afii10039" unicode="&#x425;" horiz-adv-x="512" 
d="M67 0h-53l215 334l-206 326h54l140 -228q12 -20 19.5 -33t11.5 -21q4 -9 6 -14h3q2 5 6 14q4 8 11 20.5t20 32.5l143 229h53l-208 -326l215 -334h-54l-150 237q-13 20 -20 32.5t-11 20.5q-4 9 -6 14h-3q-2 -5 -6 -14q-4 -8 -11 -21t-20 -33z" />
    <glyph glyph-name="afii10040" unicode="&#x426;" horiz-adv-x="635" 
d="M87 0v660h45v-620h370v620h45v-620h65v-160h-45v120h-480z" />
    <glyph glyph-name="afii10041" unicode="&#x427;" horiz-adv-x="567" 
d="M436 260q0 18 0.5 36t1.5 36h-2q-19 -59 -62.5 -80.5t-113.5 -21.5q-58 0 -101 12t-71.5 38.5t-43 68.5t-14.5 101v210h45v-210q0 -98 46 -139t147 -41q44 0 76 8t52.5 28.5t30 55.5t9.5 88v210h45v-660h-45v260z" />
    <glyph glyph-name="afii10042" unicode="&#x428;" horiz-adv-x="828" 
d="M741 660v-660h-654v660h45v-620h260v620h45v-620h259v620h45z" />
    <glyph glyph-name="afii10043" unicode="&#x429;" horiz-adv-x="828" 
d="M87 660h45v-620h260v620h45v-620h259v620h45v-620h65v-160h-45v120h-674v660z" />
    <glyph glyph-name="afii10044" unicode="&#x42a;" horiz-adv-x="610" 
d="M5 620v40h170v-270h181q58 0 100 -10.5t69.5 -34t41 -61.5t13.5 -94q0 -54 -13.5 -90t-41 -58.5t-69.5 -32t-100 -9.5h-226v620h-125zM175 350v-310h175q49 0 84.5 7.5t57.5 25t32.5 46.5t10.5 71q0 45 -10.5 75.5t-32.5 49.5t-57.5 27t-84.5 8h-175z" />
    <glyph glyph-name="afii10045" unicode="&#x42b;" horiz-adv-x="756" 
d="M132 390h181q58 0 100 -10.5t69.5 -34t41 -61.5t13.5 -94q0 -54 -13.5 -90t-41 -58.5t-69.5 -32t-100 -9.5h-226v660h45v-270zM132 350v-310h175q49 0 84.5 7.5t57.5 25t32.5 46.5t10.5 71q0 45 -10.5 75.5t-32.5 49.5t-57.5 27t-84.5 8h-175zM624 0v660h45v-660h-45z
" />
    <glyph glyph-name="afii10046" unicode="&#x42c;" horiz-adv-x="567" 
d="M132 390h181q58 0 100 -10.5t69.5 -34t41 -61.5t13.5 -94q0 -54 -13.5 -90t-41 -58.5t-69.5 -32t-100 -9.5h-226v660h45v-270zM132 350v-310h175q49 0 84.5 7.5t57.5 25t32.5 46.5t10.5 71q0 45 -10.5 75.5t-32.5 49.5t-57.5 27t-84.5 8h-175z" />
    <glyph glyph-name="afii10047" unicode="&#x42d;" horiz-adv-x="573" 
d="M75 150q0 -33 16 -56t42 -37t60.5 -20.5t72.5 -6.5q54 0 93.5 14.5t65.5 47.5t39.5 87t15.5 133h-294v40h294q-2 78 -15.5 131t-39.5 85.5t-65.5 47t-93.5 14.5q-38 0 -72.5 -6.5t-60.5 -20.5t-42 -37t-16 -56h-45q0 44 19.5 74.5t52 49.5t75 27.5t89.5 8.5
q67 0 115.5 -17.5t80.5 -57t47.5 -104.5t15.5 -160t-15.5 -160.5t-47.5 -105.5t-80.5 -57.5t-115.5 -17.5q-47 0 -89.5 8.5t-75 27.5t-52 49.5t-19.5 74.5h45z" />
    <glyph glyph-name="afii10048" unicode="&#x42e;" horiz-adv-x="826" 
d="M523 -10q-65 0 -112.5 16t-79 53.5t-47 99.5t-16.5 153h-136v-312h-45v660h45v-308h136q1 90 17 151t47.5 98t78.5 53t112 16q66 0 114.5 -17t79.5 -56.5t46 -105t15 -161.5t-15 -161.5t-46 -105t-79.5 -56.5t-114.5 -17zM523 30q55 0 94.5 14.5t65 49.5t38 92.5
t12.5 143.5q0 83 -12.5 140t-38 92.5t-65 51.5t-94.5 16t-94.5 -16t-65 -51.5t-38 -92.5t-12.5 -140q0 -86 12.5 -143.5t38 -92.5t65 -49.5t94.5 -14.5z" />
    <glyph glyph-name="afii10049" unicode="&#x42f;" horiz-adv-x="583" 
d="M36 0l152 237q-73 14 -107.5 64t-34.5 149q0 59 13.5 99t41 65t69.5 35.5t100 10.5h226v-660h-45v230h-181h-17.5t-16.5 1l-148 -231h-52zM451 270v350h-175q-50 0 -85 -8.5t-57 -28.5t-32.5 -52.5t-10.5 -80.5q0 -51 10.5 -85.5t32.5 -55.5t57 -30t85 -9h175z" />
    <glyph glyph-name="afii10065" unicode="&#x430;" horiz-adv-x="471" 
d="M446 -2q-26 0 -41.5 7.5t-24 20.5t-11.5 30.5t-3 36.5h-2q-17 -59 -55.5 -81t-103.5 -22q-33 0 -63 5.5t-52.5 20t-36 40t-13.5 66.5q0 46 15.5 71t40 37t54.5 15.5t58 6.5l156 15v51q0 62 -30.5 87t-103.5 25q-68 0 -95.5 -21t-27.5 -67h-44q0 68 39.5 98t127.5 30
q51 0 85.5 -10t55 -29.5t29.5 -47.5t9 -65v-225q0 -24 10.5 -38t26.5 -14v-43zM203 30q43 0 73 9t49.5 30.5t28.5 57.5t10 91v11l-172 -17q-19 -2 -38 -4.5t-34.5 -11.5t-25 -26t-9.5 -48q0 -54 27.5 -73t90.5 -19z" />
    <glyph glyph-name="afii10066" unicode="&#x431;" horiz-adv-x="482" 
d="M46 230q0 122 12.5 196.5t37 116.5t61 57.5t84.5 19.5q25 2 44 4.5t34.5 10.5t27.5 23t23 42h44q-13 -40 -29 -62.5t-36.5 -34.5t-47 -16t-60.5 -7q-33 -3 -59 -13t-46 -34t-32.5 -66.5t-18.5 -110.5h3q17 64 55.5 89t104.5 25q48 0 83.5 -12.5t58.5 -40.5t34.5 -74.5
t11.5 -113.5q0 -68 -11.5 -113.5t-35.5 -73.5t-60.5 -40t-87.5 -12t-87.5 12t-60.5 40t-35.5 74t-11.5 114zM241 30q40 0 68.5 10t46.5 33t26.5 61.5t8.5 95.5t-8.5 95.5t-26.5 61.5t-46.5 33t-68.5 10q-41 0 -69.5 -10t-46.5 -33t-26 -61.5t-8 -95.5t8 -95.5t26 -61.5
t46.5 -33t69.5 -10z" />
    <glyph glyph-name="afii10067" unicode="&#x432;" horiz-adv-x="465" 
d="M411 337q0 -42 -13.5 -66.5t-41.5 -36.5q38 -9 56.5 -34.5t18.5 -76.5q0 -69 -33 -96t-104 -27h-218v460h188q76 0 111.5 -27t35.5 -96zM121 210v-170h169q51 0 73.5 18t22.5 65q0 51 -22.5 69t-73.5 18h-169zM260 250q56 0 81 18t25 69q0 47 -25 65t-81 18h-139v-170
h139z" />
    <glyph glyph-name="afii10068" unicode="&#x433;" horiz-adv-x="360" 
d="M121 0h-45v460h270v-40h-225v-420z" />
    <glyph glyph-name="afii10069" unicode="&#x434;" horiz-adv-x="469" 
d="M111 460h299v-420h45v-160h-45v120h-351v-120h-45v160h20q6 0 15 6.5t17.5 21.5t15.5 40t9 62zM136 170q-2 -57 -14.5 -87.5t-26.5 -42.5h270v380h-213z" />
    <glyph glyph-name="afii10070" unicode="&#x435;" horiz-adv-x="462" 
d="M410 118q0 -35 -14 -59.5t-38 -39.5t-56.5 -22t-69.5 -7q-48 0 -83 12t-58 40t-34 74t-11 115q0 68 11 114t34.5 73.5t60 39.5t86.5 12q92 0 135.5 -41t43.5 -142q0 -20 -1.5 -40t-6.5 -37h-318q1 -51 9 -85.5t25.5 -55.5t45 -30t67.5 -9q27 0 50.5 4t40.5 14.5t27 27
t10 42.5h44zM236 430q-39 0 -66.5 -9t-44.5 -30t-25 -55.5t-9 -85.5h279q1 10 1.5 20t0.5 22q0 76 -31.5 107t-104.5 31z" />
    <glyph glyph-name="afii10072" unicode="&#x436;" horiz-adv-x="577" 
d="M6 0l151 234l-146 226h53l135 -210h67v210h45v-210h66l136 210h53l-146 -226l151 -234h-53l-136 210h-71v-210h-45v210h-72l-135 -210h-53z" />
    <glyph glyph-name="afii10073" unicode="&#x437;" horiz-adv-x="423" 
d="M207 250q24 0 47 3.5t41.5 13.5t29.5 27t11 43q0 54 -34.5 73.5t-95.5 19.5q-67 0 -97.5 -21t-30.5 -67h-44q0 67 42.5 97.5t128.5 30.5q93 0 134 -34t41 -98q0 -45 -26 -70.5t-65 -37.5q42 -11 69 -36.5t27 -70.5q0 -65 -42 -99t-138 -34q-88 0 -132 30.5t-44 97.5h41
q0 -46 33 -67t102 -21q64 0 100 19.5t36 73.5q0 26 -12 43t-31 26.5t-43 13.5t-48 4h-50v40h50z" />
    <glyph glyph-name="afii10074" unicode="&#x438;" horiz-adv-x="502" 
d="M381 460h45v-460h-45v275q0 25 0.5 47.5t1.5 39.5q1 20 2 37h-4q-9 -16 -20 -34q-9 -16 -20.5 -35.5t-25.5 -39.5l-194 -290h-45v460h45v-275q0 -25 -0.5 -47.5t-1.5 -39.5q-1 -20 -2 -37h4q8 16 19 34l21 35t26 40z" />
    <glyph glyph-name="afii10075" unicode="&#x439;" horiz-adv-x="502" 
d="M381 460h45v-460h-45v275q0 25 0.5 47.5t1.5 39.5q1 20 2 37h-4q-9 -16 -20 -34q-9 -16 -20.5 -35.5t-25.5 -39.5l-194 -290h-45v460h45v-275q0 -25 -0.5 -47.5t-1.5 -39.5q-1 -20 -2 -37h4q8 16 19 34l21 35t26 40zM251 580q85 0 85 48h41q0 -46 -32 -67t-94 -21t-94 21
t-32 67h41q0 -48 85 -48z" />
    <glyph glyph-name="afii10076" unicode="&#x43a;" horiz-adv-x="449" 
d="M77 0v460h45v-210h111l136 210h53l-146 -226l151 -234h-53l-136 210h-116v-210h-45z" />
    <glyph glyph-name="afii10077" unicode="&#x43b;" horiz-adv-x="486" 
d="M110 460h300v-460h-45v420h-213l-16 -250q-3 -49 -8 -82t-17 -52.5t-35 -27.5t-62 -8v40q27 0 41.5 6.5t21.5 21.5t9 40t5 62z" />
    <glyph glyph-name="afii10078" unicode="&#x43c;" horiz-adv-x="592" 
d="M313 0h-34l-126 293q-11 25 -17.5 44.5t-10.5 33.5q-4 16 -7 27h-3l3 -27q1 -14 2 -34.5t1 -46.5v-290h-45v460h50l170 -399l170 399h50v-460h-45v290q0 54 3 81q1 16 3 27h-3q-3 -11 -7 -27q-4 -14 -10.5 -33.5t-17.5 -44.5z" />
    <glyph glyph-name="afii10079" unicode="&#x43d;" horiz-adv-x="510" 
d="M392 0v212h-271v-212h-45v460h45v-208h271v208h45v-460h-45z" />
    <glyph glyph-name="afii10080" unicode="&#x43e;" horiz-adv-x="482" 
d="M241 -10q-51 0 -87.5 12t-60.5 40t-35.5 74t-11.5 114t11.5 114t35.5 74t60.5 40t87.5 12t87.5 -12t60.5 -40t35.5 -74t11.5 -114t-11.5 -114t-35.5 -74t-60.5 -40t-87.5 -12zM241 30q40 0 68.5 10t46.5 33t26.5 61.5t8.5 95.5t-8.5 95.5t-26.5 61.5t-46.5 33t-68.5 10
q-41 0 -69.5 -10t-46.5 -33t-26 -61.5t-8 -95.5t8 -95.5t26 -61.5t46.5 -33t69.5 -10z" />
    <glyph glyph-name="afii10081" unicode="&#x43f;" horiz-adv-x="503" 
d="M382 0v420h-261v-420h-45v460h351v-460h-45z" />
    <glyph glyph-name="afii10082" unicode="&#x440;" horiz-adv-x="503" 
d="M273 -10q-61 0 -98 22t-54 80h-1q1 -18 1.5 -36t0.5 -36v-260h-45v700h35l10 -90v-1q17 57 54 79t97 22q47 0 82 -12.5t57.5 -41t33.5 -74t11 -112.5t-11 -112.5t-33.5 -74t-57.5 -41t-82 -12.5zM267 30q39 0 66.5 10t45 33t25.5 61.5t8 95.5t-8 95.5t-25.5 61.5t-45 33
t-66.5 10q-38 0 -65.5 -9.5t-44.5 -31.5t-25.5 -58t-9.5 -90v-11q0 -57 8 -95.5t25.5 -61.5t45 -33t66.5 -10z" />
    <glyph glyph-name="afii10083" unicode="&#x441;" horiz-adv-x="445" 
d="M409 118q0 -35 -14 -59.5t-38 -39.5t-56 -22t-69 -7q-48 0 -83 12t-58 40.5t-34 74t-11 113.5q0 67 11 113t34 74t58 40.5t83 12.5q37 0 69 -7t56 -22.5t38 -40t14 -58.5h-44q0 49 -36.5 68.5t-92.5 19.5q-41 0 -69 -10t-45 -33.5t-24 -61.5t-7 -95t7 -95.5t24 -61.5
t45 -33t70 -10q27 0 50.5 4t40.5 14.5t27 27t10 42.5h44z" />
    <glyph glyph-name="afii10084" unicode="&#x442;" horiz-adv-x="383" 
d="M169 0v420h-155v40h355v-40h-155v-420h-45z" />
    <glyph glyph-name="afii10085" unicode="&#x443;" horiz-adv-x="439" 
d="M64 -200q22 0 40 13t33.5 38t30 62t31.5 85l-187 462h46l131 -318q20 -51 26 -79q4 -17 5 -31h3q2 13 6 30q3 14 9 33.5t16 44.5l129 320h44l-191 -486q-22 -56 -40.5 -96t-38 -66.5t-42 -39t-51.5 -12.5v40v0z" />
    <glyph glyph-name="afii10086" unicode="&#x444;" horiz-adv-x="642" 
d="M299 -240v230q-66 1 -114 11.5t-78.5 37t-45.5 73t-15 118.5t15 118.5t45.5 73t78.5 37t114 11.5v180l45 10v-190q65 -2 112.5 -12.5t78.5 -37t46 -72.5t15 -118t-15 -118t-46 -72.5t-78.5 -37.5t-112.5 -12v-230h-45zM91 230q0 -62 11 -100.5t35.5 -60.5t64.5 -30t97 -9
v400q-57 -1 -97 -9.5t-64.5 -30.5t-35.5 -60.5t-11 -99.5zM551 230q0 61 -11 99.5t-35.5 60.5t-64 30.5t-96.5 9.5v-400q57 1 96.5 9.5t64 30.5t35.5 60.5t11 99.5z" />
    <glyph glyph-name="afii10087" unicode="&#x445;" horiz-adv-x="383" 
d="M231 137q-13 19 -20 31t-11 20q-4 9 -5 13h-4q-2 -4 -6 -13q-4 -8 -11.5 -20t-21.5 -32l-92 -136h-51l160 235l-149 225h53l82 -124q13 -20 20 -32.5t12 -20.5q4 -9 7 -13h3q2 4 6 13q4 8 11 20t20 32l83 125h50l-151 -224l159 -236h-51z" />
    <glyph glyph-name="afii10088" unicode="&#x446;" horiz-adv-x="503" 
d="M76 0v460h45v-420h261v420h45v-420h65v-160h-45v120h-371z" />
    <glyph glyph-name="afii10089" unicode="&#x447;" horiz-adv-x="470" 
d="M79 460v-120q0 -45 7 -76t22 -49.5t39 -26.5t58 -8q37 0 64 9.5t44.5 31.5t26 58t9.5 90v91h45v-460h-45v170q0 18 0.5 36t1.5 36h-2q-17 -58 -54 -80t-97 -22q-42 0 -73 10t-51 33.5t-30 62t-10 94.5v120h45z" />
    <glyph glyph-name="afii10090" unicode="&#x448;" horiz-adv-x="632" 
d="M121 40h173v420h45v-420h172v420h45v-460h-480v460h45v-420z" />
    <glyph glyph-name="afii10091" unicode="&#x449;" horiz-adv-x="632" 
d="M556 40h65v-160h-45v120h-500v460h45v-420h173v420h45v-420h172v420h45v-420z" />
    <glyph glyph-name="afii10092" unicode="&#x44a;" horiz-adv-x="502" 
d="M176 460v-173h123q81 0 119 -32.5t38 -114.5q0 -40 -9.5 -66.5t-28.5 -43t-49 -23.5t-70 -7h-168v420h-125v40h170zM176 247v-207h119q61 0 88.5 21.5t27.5 78.5q0 60 -27.5 83.5t-88.5 23.5h-119z" />
    <glyph glyph-name="afii10093" unicode="&#x44b;" horiz-adv-x="597" 
d="M121 287h123q81 0 119 -32.5t38 -114.5q0 -40 -9.5 -66.5t-28.5 -43t-49 -23.5t-70 -7h-168v460h45v-173zM121 247v-207h119q61 0 88.5 21.5t27.5 78.5q0 60 -27.5 83.5t-88.5 23.5h-119zM476 0v460h45v-460h-45z" />
    <glyph glyph-name="afii10094" unicode="&#x44c;" horiz-adv-x="447" 
d="M121 287h123q81 0 119 -32.5t38 -114.5q0 -40 -9.5 -66.5t-28.5 -43t-49 -23.5t-70 -7h-168v460h45v-173zM121 247v-207h119q61 0 88.5 21.5t27.5 78.5q0 60 -27.5 83.5t-88.5 23.5h-119z" />
    <glyph glyph-name="afii10095" unicode="&#x44d;" horiz-adv-x="445" 
d="M146 250h208q-1 51 -9 85.5t-25 55.5t-44.5 30t-66.5 9q-56 0 -92.5 -19.5t-36.5 -68.5h-44q0 34 14 58.5t38 40t56 22.5t69 7q48 0 83 -12.5t58 -40.5t34 -74t11 -113q0 -68 -11 -113.5t-34 -74t-58 -40.5t-83 -12q-37 0 -69 7t-56 22t-38 39.5t-14 59.5h44
q0 -26 10 -42.5t27 -27t40.5 -14.5t50.5 -4q40 0 67 9t44.5 30t25.5 55.5t9 85.5h-208v40z" />
    <glyph glyph-name="afii10096" unicode="&#x44e;" horiz-adv-x="642" 
d="M411 -10q-47 0 -81 11t-57 37t-34.5 68.5t-12.5 105.5h-105v-212h-45v460h45v-208h105q2 61 14 103t34.5 67.5t56.5 36.5t80 11q48 0 83 -12t57.5 -40t33.5 -74t11 -114t-11 -114t-33.5 -74t-57.5 -40t-83 -12zM411 30q38 0 64.5 10t43.5 33t24.5 61.5t7.5 95.5
t-7.5 95.5t-24.5 61.5t-43.5 33t-64.5 10t-64.5 -10t-43.5 -33t-24.5 -61.5t-7.5 -95.5t7.5 -95.5t24.5 -61.5t43.5 -33t64.5 -10z" />
    <glyph glyph-name="afii10097" unicode="&#x44f;" horiz-adv-x="434" 
d="M26 0l112 176q-54 9 -79.5 42.5t-25.5 101.5q0 79 38 109.5t119 30.5h168v-460h-45v173h-126l-109 -173h-52zM313 213v207h-119q-30 0 -52 -4t-36.5 -15t-21 -30.5t-6.5 -50.5q0 -62 27.5 -84.5t88.5 -22.5h119z" />
    <glyph glyph-name="uni0450" unicode="&#x450;" horiz-adv-x="462" 
d="M410 118q0 -35 -14 -59.5t-38 -39.5t-56.5 -22t-69.5 -7q-48 0 -83 12t-58 40t-34 74t-11 115q0 68 11 114t34.5 73.5t60 39.5t86.5 12q92 0 135.5 -41t43.5 -142q0 -20 -1.5 -40t-6.5 -37h-318q1 -51 9 -85.5t25.5 -55.5t45 -30t67.5 -9q27 0 50.5 4t40.5 14.5t27 27
t10 42.5h44zM236 430q-39 0 -66.5 -9t-44.5 -30t-25 -55.5t-9 -85.5h279q1 10 1.5 20t0.5 22q0 76 -31.5 107t-104.5 31zM249 533l-99 126h71l71 -126h-43z" />
    <glyph glyph-name="afii10071" unicode="&#x451;" horiz-adv-x="462" 
d="M410 118q0 -35 -14 -59.5t-38 -39.5t-56.5 -22t-69.5 -7q-48 0 -83 12t-58 40t-34 74t-11 115q0 68 11 114t34.5 73.5t60 39.5t86.5 12q92 0 135.5 -41t43.5 -142q0 -20 -1.5 -40t-6.5 -37h-318q1 -51 9 -85.5t25.5 -55.5t45 -30t67.5 -9q27 0 50.5 4t40.5 14.5t27 27
t10 42.5h44zM236 430q-39 0 -66.5 -9t-44.5 -30t-25 -55.5t-9 -85.5h279q1 10 1.5 20t0.5 22q0 76 -31.5 107t-104.5 31zM119 550v70h45v-70h-45zM299 550v70h45v-70h-45z" />
    <glyph glyph-name="afii10099" unicode="&#x452;" horiz-adv-x="540" 
d="M154 561v-151l-2 -42h2q17 57 53.5 79.5t97.5 22.5q84 0 124 -42.5t40 -147.5v-280q0 -68 -9 -114t-27 -74t-46 -40t-67 -12q-57 0 -89.5 25.5t-32.5 82.5h44q0 -35 21 -51.5t60 -16.5q28 0 47.5 9.5t31.5 32.5t17 61.5t5 96.5v280q0 42 -7 71t-22 46.5t-38.5 25
t-57.5 7.5q-38 0 -65.5 -9.5t-44.5 -31.5t-25.5 -58.5t-9.5 -89.5v-241h-45v561h-95v40h95v89l45 10v-99h135v-40h-135z" />
    <glyph glyph-name="afii10100" unicode="&#x453;" horiz-adv-x="360" 
d="M121 0h-45v460h270v-40h-225v-420zM149 533l71 126h71l-99 -126h-43z" />
    <glyph glyph-name="afii10101" unicode="&#x454;" horiz-adv-x="445" 
d="M299 210h-208q1 -51 9 -85.5t25.5 -55.5t44.5 -30t67 -9q27 0 50.5 4t40.5 14.5t27 27t10 42.5h44q0 -35 -14 -59.5t-38 -39.5t-56 -22t-69 -7q-48 0 -83 12t-58 40.5t-34 74t-11 113.5q0 67 11 113t34 74t58 40.5t83 12.5q37 0 69 -7t56 -22.5t38 -40t14 -58.5h-44
q0 49 -36.5 68.5t-92.5 19.5q-39 0 -66.5 -9t-44.5 -30t-25 -55.5t-9 -85.5h208v-40z" />
    <glyph glyph-name="afii10102" unicode="&#x455;" horiz-adv-x="426" 
d="M339 342q0 46 -30.5 67t-97.5 21q-61 0 -95.5 -19.5t-34.5 -73.5q0 -26 11.5 -42t29.5 -25t41 -13t47 -7q35 -5 67.5 -12t57 -21.5t39 -37t14.5 -56.5q0 -65 -42 -99t-138 -34q-88 0 -132 30.5t-44 97.5h41q0 -46 33 -67t102 -21q64 0 100 19.5t36 73.5q0 26 -12 42
t-31 25t-43 13t-48 7q-33 4 -64.5 11.5t-55.5 21.5t-38.5 37t-14.5 58q0 64 41 98t134 34q86 0 128.5 -30.5t42.5 -97.5h-44z" />
    <glyph glyph-name="afii10103" unicode="&#x456;" horiz-adv-x="174" 
d="M65 0v460h45v-460h-45zM65 590v70h45v-70h-45z" />
    <glyph glyph-name="afii10104" unicode="&#x457;" horiz-adv-x="174" 
d="M65 0v460h45v-460h-45zM-25 550v70h45v-70h-45zM155 550v70h45v-70h-45z" />
    <glyph glyph-name="afii10105" unicode="&#x458;" horiz-adv-x="174" 
d="M110 -117q0 -24 -4 -46.5t-13 -39.5t-25 -27t-40 -10v43q16 0 26.5 17.5t10.5 62.5v577h45v-577zM65 590v70h45v-70h-45z" />
    <glyph glyph-name="afii10106" unicode="&#x459;" horiz-adv-x="645" 
d="M370 287h83q81 0 119 -32.5t38 -114.5q0 -40 -9.5 -66.5t-28.5 -43t-49 -23.5t-70 -7h-128v420h-173l-16 -250q-3 -49 -8 -82t-17 -52.5t-35 -27.5t-62 -8v40q27 0 41.5 6.5t21.5 21.5t9 40t5 62l19 290h260v-173zM370 247v-207h79q61 0 88.5 21.5t27.5 78.5
q0 60 -27.5 83.5t-88.5 23.5h-79z" />
    <glyph glyph-name="afii10107" unicode="&#x45a;" horiz-adv-x="672" 
d="M397 287h83q81 0 119 -32.5t38 -114.5q0 -40 -9.5 -66.5t-28.5 -43t-49 -23.5t-70 -7h-128v212h-231v-212h-45v460h45v-208h231v208h45v-173zM397 247v-207h79q61 0 88.5 21.5t27.5 78.5q0 60 -27.5 83.5t-88.5 23.5h-79z" />
    <glyph glyph-name="afii10108" unicode="&#x45b;" horiz-adv-x="540" 
d="M154 561v-151l-2 -42h1q17 57 54 79.5t98 22.5q42 0 73 -12.5t51 -41t30 -74t10 -112.5v-230h-45v230q0 57 -7 95.5t-22 61.5t-38.5 33t-57.5 10q-38 0 -65.5 -9.5t-44.5 -31.5t-25.5 -58t-9.5 -90v-241h-45v561h-95v40h95v89l45 10v-99h135v-40h-135z" />
    <glyph glyph-name="afii10109" unicode="&#x45c;" horiz-adv-x="449" 
d="M77 0v460h45v-210h111l136 210h53l-146 -226l151 -234h-53l-136 210h-116v-210h-45zM185 533l71 126h71l-99 -126h-43z" />
    <glyph glyph-name="uni045D" unicode="&#x45d;" horiz-adv-x="502" 
d="M381 460h45v-460h-45v275q0 25 0.5 47.5t1.5 39.5q1 20 2 37h-4q-9 -16 -20 -34q-9 -16 -20.5 -35.5t-25.5 -39.5l-194 -290h-45v460h45v-275q0 -25 -0.5 -47.5t-1.5 -39.5q-1 -20 -2 -37h4q8 16 19 34l21 35t26 40zM249 533l-99 126h71l71 -126h-43z" />
    <glyph glyph-name="afii10110" unicode="&#x45e;" horiz-adv-x="439" 
d="M64 -200q22 0 40 13t33.5 38t30 62t31.5 85l-187 462h46l131 -318q20 -51 26 -79q4 -17 5 -31h3q2 13 6 30q3 14 9 33.5t16 44.5l129 320h44l-191 -486q-22 -56 -40.5 -96t-38 -66.5t-42 -39t-51.5 -12.5v40v0zM219 580q85 0 85 48h41q0 -46 -32 -67t-94 -21t-94 21
t-32 67h41q0 -48 85 -48z" />
    <glyph glyph-name="afii10193" unicode="&#x45f;" horiz-adv-x="503" 
d="M229 -140v140h-153v460h45v-420h261v420h45v-460h-153v-140h-45z" />
    <glyph glyph-name="afii10146" unicode="&#x462;" horiz-adv-x="629" 
d="M179 620h-165v40h415v-40h-205v-230h151q58 0 100 -10.5t69.5 -34t41 -61.5t13.5 -94q0 -54 -13.5 -90t-41 -58.5t-69.5 -32t-100 -9.5h-196v620zM224 350v-310h145q49 0 84.5 7.5t57.5 25t32.5 46.5t10.5 71q0 45 -10.5 75.5t-32.5 49.5t-57.5 27t-84.5 8h-145z" />
    </font>
</defs>
</svg>
